<?xml version="1.0" encoding="UTF-8" standalone="no"?>
<!-- Created with Inkscape (http://www.inkscape.org/) -->

<svg
   xmlns:dc="http://purl.org/dc/elements/1.1/"
   xmlns:cc="http://creativecommons.org/ns#"
   xmlns:rdf="http://www.w3.org/1999/02/22-rdf-syntax-ns#"
   xmlns:svg="http://www.w3.org/2000/svg"
   xmlns="http://www.w3.org/2000/svg"
   xmlns:sodipodi="http://sodipodi.sourceforge.net/DTD/sodipodi-0.dtd"
   xmlns:inkscape="http://www.inkscape.org/namespaces/inkscape"
   width="190.49001"
   height="233.09"
   id="svg2"
   version="1.1"
   inkscape:version="0.48.3.1 r9886"
   sodipodi:docname="Nouveau document 1">
  <defs
     id="defs4" />
  <sodipodi:namedview
     id="base"
     pagecolor="#ffffff"
     bordercolor="#666666"
     borderopacity="1.0"
     inkscape:pageopacity="0.0"
     inkscape:pageshadow="2"
     inkscape:zoom="2.5526621"
     inkscape:cx="95.245003"
     inkscape:cy="116.545"
     inkscape:document-units="px"
     inkscape:current-layer="layer1"
     showgrid="false"
     inkscape:window-width="1440"
     inkscape:window-height="824"
     inkscape:window-x="0"
     inkscape:window-y="26"
     inkscape:window-maximized="1" />
  <metadata
     id="metadata7">
    <rdf:RDF>
      <cc:Work
         rdf:about="">
        <dc:format>image/svg+xml</dc:format>
        <dc:type
           rdf:resource="http://purl.org/dc/dcmitype/StillImage" />
        <dc:title></dc:title>
      </cc:Work>
    </rdf:RDF>
  </metadata>
  <g
     inkscape:label="Calque 1"
     inkscape:groupmode="layer"
     id="layer1"
     transform="translate(0,-819.27218)">
    <g
       id="g3847"
       transform="translate(9.2671873,17.190564)">
      <g
         inkscape:label="Calque 1"
         id="layer1-6"
         transform="matrix(2.5820123,0,0,2.5820123,-37.958774,-1590.3576)">
        <g
           id="g3770"
           transform="matrix(0.9982365,0,0,0.9982365,94.400685,1.9416241)">
          <path
             sodipodi:type="arc"
             style="fill:#ffffff;stroke:#000000;stroke-width:0.59567994;stroke-linecap:round;stroke-linejoin:miter;stroke-miterlimit:4;stroke-opacity:1;stroke-dasharray:none;stroke-dashoffset:0"
             id="path2996"
             sodipodi:cx="-73.497475"
             sodipodi:cy="32.620571"
             sodipodi:rx="26.064081"
             sodipodi:ry="6.7183809"
             d="m -47.433393,32.620571 c 0,3.710459 -11.669287,6.718381 -26.064082,6.718381 -14.394794,0 -26.064081,-3.007922 -26.064081,-6.718381 0,-3.710459 11.669287,-6.718381 26.064081,-6.718381 14.394795,0 26.064082,3.007922 26.064082,6.718381 z"
             transform="matrix(1.4029364,0,0,1.2095186,56.629625,968.73626)" />
          <path
             transform="matrix(1.4029364,0,0,1.2095186,56.629625,960.73626)"
             d="m -47.433393,32.620571 c 0,3.710459 -11.669287,6.718381 -26.064082,6.718381 -14.394794,0 -26.064081,-3.007922 -26.064081,-6.718381 0,-3.710459 11.669287,-6.718381 26.064081,-6.718381 14.394795,0 26.064082,3.007922 26.064082,6.718381 z"
             sodipodi:ry="6.7183809"
             sodipodi:rx="26.064081"
             sodipodi:cy="32.620571"
             sodipodi:cx="-73.497475"
             id="path3000"
             style="fill:#ffffff;stroke:#000000;stroke-width:0.59567994;stroke-linecap:round;stroke-linejoin:miter;stroke-miterlimit:4;stroke-opacity:1;stroke-dasharray:none;stroke-dashoffset:0"
             sodipodi:type="arc" />
        </g>
      </g>
      <g
         inkscape:label="Calque 1"
         id="layer1-8"
         transform="matrix(2.473321,0,0,1.9150295,-31.254412,-993.87007)">
        <g
           id="g3784"
           transform="matrix(1.034094,0,0,1.034094,-1.6365121,-34.242724)">
          <g
             transform="translate(-3.8635701,5.2984003)"
             id="g3778">
            <path
               transform="matrix(1.2967764,0,0,1.6618787,110.35032,864.66029)"
               d="m -21.654135,97.08271 c 0,1.694227 -2.666094,3.06767 -5.954887,3.06767 -3.288794,0 -5.954888,-1.373443 -5.954888,-3.06767 0,-1.694227 2.666094,-3.067669 5.954888,-3.067669 3.288793,0 5.954887,1.373442 5.954887,3.067669 z"
               sodipodi:ry="3.0676692"
               sodipodi:rx="5.9548874"
               sodipodi:cy="97.08271"
               sodipodi:cx="-27.609022"
               id="path3776"
               style="fill:#ffffff;stroke:#000000;stroke-width:0.60535455;stroke-linecap:round;stroke-linejoin:miter;stroke-miterlimit:4;stroke-opacity:1;stroke-dasharray:none"
               sodipodi:type="arc" />
            <path
               sodipodi:type="arc"
               style="fill:#ffffff;stroke:#000000;stroke-width:0.63728523;stroke-linecap:round;stroke-linejoin:miter;stroke-miterlimit:4;stroke-opacity:1;stroke-dasharray:none"
               id="path3774"
               sodipodi:cx="-27.609022"
               sodipodi:cy="97.08271"
               sodipodi:rx="5.9548874"
               sodipodi:ry="3.0676692"
               d="m -21.654135,97.08271 c 0,1.694227 -2.666094,3.06767 -5.954887,3.06767 -3.288794,0 -5.954888,-1.373443 -5.954888,-3.06767 0,-1.694227 2.666094,-3.067669 5.954888,-3.067669 3.288793,0 5.954887,1.373442 5.954887,3.067669 z"
               transform="matrix(1.2636737,0,0,1.5387971,109.88751,867.60187)" />
            <path
               transform="matrix(1.2636737,0,0,1.702664,110.78977,842.73727)"
               d="m -21.654135,97.08271 c 0,1.694227 -2.666094,3.06767 -5.954887,3.06767 -3.288794,0 -5.954888,-1.373443 -5.954888,-3.06767 0,-1.694227 2.666094,-3.067669 5.954888,-3.067669 3.288793,0 5.954887,1.373442 5.954887,3.067669 z"
               sodipodi:ry="3.0676692"
               sodipodi:rx="5.9548874"
               sodipodi:cy="97.08271"
               sodipodi:cx="-27.609022"
               id="path3772"
               style="fill:#ffffff;stroke:#000000;stroke-width:0.60584295;stroke-linecap:round;stroke-linejoin:miter;stroke-miterlimit:4;stroke-opacity:1;stroke-dasharray:none"
               sodipodi:type="arc" />
            <path
               sodipodi:type="arc"
               style="fill:#ffffff;stroke:#000000;stroke-width:0.58344012;stroke-linecap:round;stroke-linejoin:miter;stroke-miterlimit:4;stroke-opacity:1;stroke-dasharray:none"
               id="path3770"
               sodipodi:cx="-27.609022"
               sodipodi:cy="97.08271"
               sodipodi:rx="5.9548874"
               sodipodi:ry="3.0676692"
               d="m -21.654135,97.08271 c 0,1.694227 -2.666094,3.06767 -5.954887,3.06767 -3.288794,0 -5.954888,-1.373443 -5.954888,-3.06767 0,-1.694227 2.666094,-3.067669 5.954888,-3.067669 3.288793,0 5.954887,1.373442 5.954887,3.067669 z"
               transform="matrix(1.2636737,0,0,1.8359314,111.51157,819.84723)" />
          </g>
          <path
             sodipodi:nodetypes="zcsssszzcz"
             inkscape:connector-curvature="0"
             id="path3768"
             d="m 55.324399,1039.435 c -10.416158,1.5678 -27.24812,-0.5413 -27.24812,-0.5413 0,0 -15.518796,-0.9023 -15.338345,-17.1429 0.180451,-16.2406 0.30242,-36.57034 3.24812,-40.6015 1.963128,-2.68652 5.593985,-9.02255 16.781955,-10.82707 11.18797,-1.80451 29.774436,-1.98496 32.481203,-1.0827 2.706767,0.90225 12.461769,2.11348 17.142857,13.17293 4.681088,11.05945 -10.930355,16.57682 -12.81203,19.30824 -1.881675,2.7315 -0.180451,16.782 -0.721805,23.8196 -1.116086,7.936 -3.117677,12.3269 -13.533835,13.8947 z"
             style="fill:#ffffff;stroke:#000000;stroke-width:0.88867301;stroke-linecap:butt;stroke-linejoin:miter;stroke-miterlimit:4;stroke-opacity:1;stroke-dasharray:none" />
        </g>
      </g>
      <g
         inkscape:label="Calque 1"
         id="layer1-84"
         transform="matrix(1.3222473,0,0,1.3222473,9.8311676,-393.08141)">
        <g
           id="g3806"
           style="fill:#ffffff"
           transform="matrix(0.95026222,0,0,0.95026222,2.3874134,49.954768)">
          <rect
             ry="20"
             y="964.98358"
             x="9.5372086"
             height="78.757149"
             width="76.925583"
             id="rect2992-3"
             style="fill:#ffffff;stroke:#000000;stroke-width:1.59174633;stroke-linecap:round;stroke-linejoin:miter;stroke-miterlimit:4;stroke-opacity:1;stroke-dasharray:none" />
          <g
             id="g3799"
             style="fill:#ffffff">
            <path
               sodipodi:nodetypes="ccccc"
               inkscape:connector-curvature="0"
               id="path3789"
               d="m 35.518238,965.59266 0,7.84297 c 0,6.89078 5.586077,12.47685 12.476852,12.47685 6.890775,0 12.476852,-5.58607 12.476852,-12.47685 l 0,-7.84297"
               style="fill:none;stroke:#000000;stroke-width:1.59174633;stroke-linecap:round;stroke-linejoin:miter;stroke-miterlimit:4;stroke-opacity:1;stroke-dasharray:none;stroke-dashoffset:0"
               inkscape:transform-center-y="-28.607161" />
            <path
               style="fill:none;stroke:#000000;stroke-width:1.59174633;stroke-linecap:round;stroke-linejoin:miter;stroke-miterlimit:4;stroke-opacity:1;stroke-dasharray:none;stroke-dashoffset:0"
               d="m 86.206702,991.88288 -7.287511,0 c -6.89078,0 -12.47685,5.58608 -12.47685,12.47682 0,6.8908 5.58607,12.4769 12.47685,12.4769 l 7.287511,0"
               id="path3791"
               inkscape:connector-curvature="0"
               sodipodi:nodetypes="ccccc"
               inkscape:transform-center-x="-28.607161" />
            <path
               sodipodi:nodetypes="ccccc"
               inkscape:connector-curvature="0"
               id="path3793"
               d="m 60.47195,1043.1268 0,-7.843 c 0,-6.8907 -5.58608,-12.4768 -12.47682,-12.4768 -6.8908,0 -12.4769,5.5861 -12.4769,12.4768 l 0,7.843"
               style="fill:none;stroke:#000000;stroke-width:1.59174633;stroke-linecap:round;stroke-linejoin:miter;stroke-miterlimit:4;stroke-opacity:1;stroke-dasharray:none;stroke-dashoffset:0"
               inkscape:transform-center-y="28.60716" />
            <path
               style="fill:none;stroke:#000000;stroke-width:1.59174633;stroke-linecap:round;stroke-linejoin:miter;stroke-miterlimit:4;stroke-opacity:1;stroke-dasharray:none;stroke-dashoffset:0"
               d="m 9.7023168,1016.8366 7.3687132,0 c 6.8907,0 12.4768,-5.5861 12.4768,-12.4768 0,-6.89082 -5.5861,-12.47692 -12.4768,-12.47692 l -7.3687132,0"
               id="path3795"
               inkscape:connector-curvature="0"
               sodipodi:nodetypes="ccccc"
               inkscape:transform-center-x="28.60716" />
            <path
               sodipodi:type="arc"
               style="fill:none;stroke:#000000;stroke-width:1.59174633;stroke-linecap:round;stroke-linejoin:miter;stroke-miterlimit:4;stroke-opacity:1;stroke-dasharray:none;stroke-dashoffset:0"
               id="path3797"
               sodipodi:cx="2.4900057"
               sodipodi:cy="9.798377"
               sodipodi:rx="11.264311"
               sodipodi:ry="11.264311"
               d="m 13.754317,9.798377 c 0,6.221107 -5.0432042,11.264311 -11.2643113,11.264311 -6.2211071,0 -11.2643108,-5.043204 -11.2643108,-11.264311 0,-6.2211071 5.0432037,-11.2643108 11.2643108,-11.2643108 6.2211071,0 11.2643113,5.0432037 11.2643113,11.2643108 z"
               transform="translate(45.509994,994.5638)" />
          </g>
        </g>
      </g>
      <g
         inkscape:label="Calque 1"
         id="layer1-3"
         transform="translate(69.201542,-164.53227)">
        <path
           inkscape:connector-curvature="0"
           transform="matrix(0.8513215,0,0,0.8513215,95.315522,958.26799)"
           style="fill:#ffffff;stroke:#000000;stroke-width:2.3492887;stroke-linecap:round;stroke-linejoin:miter;stroke-miterlimit:4;stroke-opacity:1"
           d="m -12.693947,54.144276 c 0,23.684711 -19.200252,42.884964 -42.884964,42.884964 -23.684711,0 -42.884964,-19.200253 -42.884964,-42.884964 0,-23.684712 19.200253,-42.884964 42.884964,-42.884964 23.684712,0 42.884964,19.200252 42.884964,42.884964 z"
           id="path2995" />
      </g>
      <g
         inkscape:label="Calque 1"
         id="layer1-1"
         transform="translate(2.706552,-163.374)">
        <g
           id="g3000"
           transform="matrix(0.93779098,0,0,0.93779098,2.4938828,63.458677)">
          <rect
             ry="20"
             y="964.98358"
             x="9.5372086"
             height="78.757149"
             width="76.925583"
             id="rect2992"
             style="fill:#ffffff;stroke:#000000;stroke-width:2.13267136;stroke-linecap:round;stroke-linejoin:miter;stroke-miterlimit:4;stroke-opacity:1;stroke-dasharray:none" />
          <g
             transform="translate(-1.4951327e-7,1.0343958e-6)"
             id="g2998">
            <path
               sodipodi:type="arc"
               style="fill:#ffffff;stroke:#000000;stroke-width:2.70254469;stroke-linecap:round;stroke-linejoin:miter;stroke-miterlimit:4;stroke-opacity:1;stroke-dasharray:none"
               id="path3901"
               sodipodi:cx="-8.9574032"
               sodipodi:cy="129.4929"
               sodipodi:rx="12.851927"
               sodipodi:ry="12.851927"
               d="m 3.8945236,129.4929 c 0,7.09793 -5.7540036,12.85193 -12.8519268,12.85193 -7.0979228,0 -12.8519268,-5.754 -12.8519268,-12.85193 0,-7.09792 5.754004,-12.85192 12.8519268,-12.85192 7.0979232,0 12.8519268,5.754 12.8519268,12.85192 z"
               transform="matrix(0.78913457,0,0,0.78913457,84.439083,870.85183)" />
            <path
               style="fill:none;stroke:#000000;stroke-width:2.13267136;stroke-linecap:round;stroke-linejoin:miter;stroke-miterlimit:4;stroke-opacity:1;stroke-dasharray:none"
               d="m 67.603187,976.77491 c -13.567587,8.04059 -27.89487,17.94395 -32.983792,31.78859 -5.679986,17.0406 11.125046,18.0122 20.251522,9.7363 10.149575,-10.2922 18.185677,-23.30784 22.645826,-34.78106"
               id="path3759"
               inkscape:connector-curvature="0"
               sodipodi:nodetypes="cccc" />
            <path
               style="fill:none;stroke:#000000;stroke-width:2.13267136;stroke-linecap:round;stroke-linejoin:miter;stroke-miterlimit:4;stroke-opacity:1;stroke-dasharray:none"
               d="M 42.194321,1014.5339 70.56263,982.05422"
               id="path3763"
               inkscape:connector-curvature="0" />
          </g>
        </g>
      </g>
      <g
         inkscape:label="Calque 1"
         id="layer1-5"
         transform="matrix(0.824975,0,0,0.824975,77.602742,11.256219)">
        <g
           id="g3781"
           transform="matrix(0.98607711,0,0,0.98607711,87.682752,18.287251)">
          <path
             sodipodi:nodetypes="cccccc"
             inkscape:connector-curvature="0"
             id="path3001"
             d="m -42.812195,78.232939 c 0,0 -23.760769,-2.354671 -27.185744,-7.278073 -5.642171,-9.60901 -10.396771,-35.945486 -4.709342,-41.099708 14.524577,-18.40118 48.433665,-14.886824 54.585549,-14.342085 17.7478841,2.426681 19.57238157,29.149015 14.3420856,40.671585 -4.7520376,16.645726 -21.0758866,22.870109 -37.0325486,22.048281 z"
             style="fill:#ffffff;stroke:#000000;stroke-width:2.45854595;stroke-linecap:round;stroke-linejoin:miter;stroke-miterlimit:4;stroke-opacity:1;stroke-dasharray:none"
             transform="translate(0,956.36218)" />
          <path
             sodipodi:nodetypes="cczzzcc"
             inkscape:connector-curvature="0"
             id="path3003"
             d="m -58.224586,70.312683 c 0,0 0.642183,-2.354671 4.495281,-2.14061 8.390694,0.446897 27.55306,4.700063 27.901109,-8.044717 0.34805,-12.744781 -34.043451,1.506271 -33.67527,-7.058491 0.368181,-8.564763 14.62813,-4.480525 24.611527,-4.376341 9.983397,0.104184 17.944057,-10.625757 6.421829,-13.057719 -6.935738,-0.797247 -33.442926,7.686619 -34.035695,-1.926549"
             style="fill:none;stroke:#000000;stroke-width:2.45854595;stroke-linecap:round;stroke-linejoin:miter;stroke-miterlimit:4;stroke-opacity:1;stroke-dasharray:none"
             transform="translate(0,956.36218)" />
          <path
             sodipodi:nodetypes="ccccc"
             inkscape:connector-curvature="0"
             id="path3779"
             d="m -57.957102,28.935353 c 0,0 1.862906,-9.935503 3.104844,-12.0054 5.839255,-12.3328057 12.549296,-2.99151 13.064612,3.939944 -1.62327,-9.782621 8.29637,-15.1757632 11.596477,-9.742985 1.655918,3.311835 1.626597,16.359513 1.626597,16.359513"
             style="fill:#ffffff;stroke:#000000;stroke-width:2.45854595;stroke-linecap:round;stroke-linejoin:miter;stroke-miterlimit:4;stroke-opacity:1;stroke-dasharray:none"
             transform="translate(0,956.36218)" />
        </g>
      </g>
    </g>
  </g>
</svg>
