<?xml version="1.0" encoding="UTF-8" standalone="no"?>
<!-- Created with Inkscape (http://www.inkscape.org/) -->

<svg
   xmlns:dc="http://purl.org/dc/elements/1.1/"
   xmlns:cc="http://creativecommons.org/ns#"
   xmlns:rdf="http://www.w3.org/1999/02/22-rdf-syntax-ns#"
   xmlns:svg="http://www.w3.org/2000/svg"
   xmlns="http://www.w3.org/2000/svg"
   xmlns:sodipodi="http://sodipodi.sourceforge.net/DTD/sodipodi-0.dtd"
   xmlns:inkscape="http://www.inkscape.org/namespaces/inkscape"
   width="138.28999"
   height="178.25"
   id="svg2"
   version="1.1"
   inkscape:version="0.48.3.1 r9886"
   sodipodi:docname="lupa meli li mama pi jo ale.svg">
  <defs
     id="defs4" />
  <sodipodi:namedview
     id="base"
     pagecolor="#ffffff"
     bordercolor="#666666"
     borderopacity="1.0"
     inkscape:pageopacity="0.0"
     inkscape:pageshadow="2"
     inkscape:zoom="3.3380084"
     inkscape:cx="69.144997"
     inkscape:cy="89.125"
     inkscape:document-units="px"
     inkscape:current-layer="layer1"
     showgrid="false"
     inkscape:window-width="1440"
     inkscape:window-height="824"
     inkscape:window-x="0"
     inkscape:window-y="26"
     inkscape:window-maximized="1" />
  <metadata
     id="metadata7">
    <rdf:RDF>
      <cc:Work
         rdf:about="">
        <dc:format>image/svg+xml</dc:format>
        <dc:type
           rdf:resource="http://purl.org/dc/dcmitype/StillImage" />
        <dc:title />
      </cc:Work>
    </rdf:RDF>
  </metadata>
  <g
     inkscape:label="Calque 1"
     inkscape:groupmode="layer"
     id="layer1"
     transform="translate(0,-874.11218)">
    <g
       id="g3910"
       transform="translate(-26.100006,45.390959)">
      <g
         inkscape:label="Calque 1"
         id="layer1-95"
         transform="matrix(1.8669223,0,0,1.8669223,5.632733,-891.69282)">
        <g
           id="g3770"
           transform="matrix(0.9982365,0,0,0.9982365,94.400685,1.9416241)">
          <path
             sodipodi:type="arc"
             style="fill:#ffffff;stroke:#000000;stroke-width:0.82384413;stroke-linecap:round;stroke-linejoin:miter;stroke-miterlimit:4;stroke-opacity:1;stroke-dasharray:none;stroke-dashoffset:0"
             id="path2996"
             sodipodi:cx="-73.497475"
             sodipodi:cy="32.620571"
             sodipodi:rx="26.064081"
             sodipodi:ry="6.7183809"
             d="m -47.433393,32.620571 c 0,3.710459 -11.669287,6.718381 -26.064082,6.718381 -14.394794,0 -26.064081,-3.007922 -26.064081,-6.718381 0,-3.710459 11.669287,-6.718381 26.064081,-6.718381 14.394795,0 26.064082,3.007922 26.064082,6.718381 z"
             transform="matrix(1.4029364,0,0,1.2095186,56.629625,968.73626)" />
          <path
             transform="matrix(1.4029364,0,0,1.2095186,56.629625,960.73626)"
             d="m -47.433393,32.620571 c 0,3.710459 -11.669287,6.718381 -26.064082,6.718381 -14.394794,0 -26.064081,-3.007922 -26.064081,-6.718381 0,-3.710459 11.669287,-6.718381 26.064081,-6.718381 14.394795,0 26.064082,3.007922 26.064082,6.718381 z"
             sodipodi:ry="6.7183809"
             sodipodi:rx="26.064081"
             sodipodi:cy="32.620571"
             sodipodi:cx="-73.497475"
             id="path3000"
             style="fill:#ffffff;stroke:#000000;stroke-width:0.82384413;stroke-linecap:round;stroke-linejoin:miter;stroke-miterlimit:4;stroke-opacity:1;stroke-dasharray:none;stroke-dashoffset:0"
             sodipodi:type="arc" />
        </g>
      </g>
      <g
         inkscape:label="Calque 1"
         id="layer1-09"
         transform="translate(51.928361,-88.328265)">
        <path
           sodipodi:nodetypes="sssss"
           inkscape:connector-curvature="0"
           transform="matrix(0.8513215,0,0,0.8513215,95.315522,958.26799)"
           style="fill:#ffffff;stroke:#000000;stroke-width:2.3492887;stroke-linecap:round;stroke-linejoin:miter;stroke-miterlimit:4;stroke-opacity:1"
           d="m 13.075262,78.072828 c 0,23.684712 -14.1384426,50.247592 -68.654173,50.247592 -77.063789,0 -79.698119,-32.545019 -79.698119,-56.22973 0,-23.684712 -7.48929,-60.831378 79.698119,-60.831378 76.14346,0 68.654173,43.128804 68.654173,66.813516 z"
           id="path2995" />
      </g>
      <g
         inkscape:label="Calque 1"
         id="layer1-9"
         transform="matrix(0.75331459,0,0,0.75331459,78.00809,177.8854)">
        <g
           id="g3000"
           transform="matrix(0.93779098,0,0,0.93779098,2.4938828,63.458677)">
          <rect
             ry="20"
             y="964.98358"
             x="9.5372086"
             height="78.757149"
             width="76.925583"
             id="rect2992"
             style="fill:#ffffff;stroke:#000000;stroke-width:2.83105016;stroke-linecap:round;stroke-linejoin:miter;stroke-miterlimit:4;stroke-opacity:1;stroke-dasharray:none" />
          <g
             transform="translate(-1.4951327e-7,1.0343958e-6)"
             id="g2998">
            <path
               sodipodi:type="arc"
               style="fill:#ffffff;stroke:#000000;stroke-width:3.587538;stroke-linecap:round;stroke-linejoin:miter;stroke-miterlimit:4;stroke-opacity:1;stroke-dasharray:none"
               id="path3901"
               sodipodi:cx="-8.9574032"
               sodipodi:cy="129.4929"
               sodipodi:rx="12.851927"
               sodipodi:ry="12.851927"
               d="m 3.8945236,129.4929 c 0,7.09793 -5.7540036,12.85193 -12.8519268,12.85193 -7.0979228,0 -12.8519268,-5.754 -12.8519268,-12.85193 0,-7.09792 5.754004,-12.85192 12.8519268,-12.85192 7.0979232,0 12.8519268,5.754 12.8519268,12.85192 z"
               transform="matrix(0.78913457,0,0,0.78913457,84.439083,870.85183)" />
            <path
               style="fill:none;stroke:#000000;stroke-width:2.83105016;stroke-linecap:round;stroke-linejoin:miter;stroke-miterlimit:4;stroke-opacity:1;stroke-dasharray:none"
               d="m 67.603187,976.77491 c -13.567587,8.04059 -27.89487,17.94395 -32.983792,31.78859 -5.679986,17.0406 11.125046,18.0122 20.251522,9.7363 10.149575,-10.2922 18.185677,-23.30784 22.645826,-34.78106"
               id="path3759"
               inkscape:connector-curvature="0"
               sodipodi:nodetypes="cccc" />
            <path
               style="fill:none;stroke:#000000;stroke-width:2.83105016;stroke-linecap:round;stroke-linejoin:miter;stroke-miterlimit:4;stroke-opacity:1;stroke-dasharray:none"
               d="M 42.194321,1014.5339 70.56263,982.05422"
               id="path3763"
               inkscape:connector-curvature="0" />
          </g>
        </g>
      </g>
      <g
         inkscape:label="Calque 1"
         id="layer1-4"
         transform="matrix(0.82956035,0,0,0.82956035,31.553133,101.30704)">
        <g
           id="g3794"
           transform="matrix(1.0057839,0,0,1.0057839,93.588228,-6.9959186)"
           style="fill:none">
          <g
             id="g3791"
             style="fill:none">
            <path
               style="fill:#ffffff;stroke:#000000;stroke-width:2.39705133;stroke-linecap:round;stroke-linejoin:miter;stroke-miterlimit:4;stroke-opacity:1;stroke-dasharray:none"
               d="m -64.379819,82.531714 c 16.07055,6.232666 45.320884,2.40542 47.243916,-10.288306 1.923032,-12.693726 -1.550763,-29.210761 -8.768144,-48.303934 -7.217381,-19.0931733 -64.601641,-12.383336 -43.501875,12.078956 -5.949647,5.582604 -5.511596,15.978916 1.073639,19.828073 -3.202658,9.004641 -6.849817,21.184093 3.952464,26.685211 z"
               id="path3004"
               inkscape:connector-curvature="0"
               transform="translate(0,956.36218)"
               sodipodi:nodetypes="czzccc" />
          </g>
          <g
             id="g3784"
             style="fill:none">
            <path
               style="fill:none;stroke:#000000;stroke-width:2.39705133;stroke-linecap:round;stroke-linejoin:miter;stroke-miterlimit:4;stroke-opacity:1;stroke-dasharray:none"
               d="m -68.243632,56.005052 c 6.571515,2.249431 9.787426,-3.163151 10.593257,-10.305004 0.981827,25.86533 29.815113,4.199635 9.512315,-6.485668"
               id="path3006"
               inkscape:connector-curvature="0"
               transform="translate(0,956.36218)"
               sodipodi:nodetypes="ccc" />
            <path
               style="fill:none;stroke:#000000;stroke-width:2.39705133;stroke-linecap:round;stroke-linejoin:miter;stroke-miterlimit:4;stroke-opacity:1;stroke-dasharray:none"
               d="m -70.045206,35.827421 10.449131,0"
               id="path3008"
               inkscape:connector-curvature="0"
               transform="translate(0,956.36218)" />
            <path
               style="fill:none;stroke:#000000;stroke-width:2.39705133;stroke-linecap:round;stroke-linejoin:miter;stroke-miterlimit:4;stroke-opacity:1;stroke-dasharray:none"
               d="M -66.658246,30.062383 -52.67803,26.963676"
               id="path3010"
               inkscape:connector-curvature="0"
               transform="translate(0,956.36218)" />
            <path
               style="fill:none;stroke:#000000;stroke-width:2.39705133;stroke-linecap:round;stroke-linejoin:miter;stroke-miterlimit:4;stroke-opacity:1;stroke-dasharray:none"
               d="M -69.540765,26.315109 -51.45296,22.711961"
               id="path3012"
               inkscape:connector-curvature="0"
               transform="translate(0,956.36218)" />
            <path
               sodipodi:type="arc"
               style="fill:none;stroke:#000000;stroke-width:2.39705133;stroke-linecap:round;stroke-linejoin:miter;stroke-miterlimit:4;stroke-opacity:1;stroke-dasharray:none;stroke-dashoffset:0"
               id="path3782"
               sodipodi:cx="-48.000755"
               sodipodi:cy="90.59864"
               sodipodi:rx="0.50956213"
               sodipodi:ry="0.50956213"
               d="m -47.491193,90.59864 c 0,0.281424 -0.228139,0.509563 -0.509562,0.509563 -0.281424,0 -0.509562,-0.228139 -0.509562,-0.509563 0,-0.281423 0.228138,-0.509562 0.509562,-0.509562 0.281423,0 0.509562,0.228139 0.509562,0.509562 z"
               transform="translate(-6.420483,940.66767)" />
          </g>
        </g>
      </g>
      <g
         inkscape:label="Calque 1"
         id="layer1-3"
         transform="matrix(0.85116435,0,0,0.85116435,81.97808,9.8376482)">
        <g
           id="g3772"
           transform="matrix(1.0881954,0,0,1.0881954,37.612249,-88.249336)">
          <path
             transform="matrix(1.0737125,0,0,1,-0.79655351,952.31496)"
             d="m 40.795954,78.67791 c 0,5.99038 -13.952409,10.846543 -31.1635764,10.846543 -17.2111678,0 -31.1635766,-4.856163 -31.1635766,-10.846543 0,-5.990381 13.9524088,-10.846543 31.1635766,-10.846543 17.2111674,0 31.1635764,4.856162 31.1635764,10.846543 z"
             sodipodi:ry="10.846543"
             sodipodi:rx="31.163576"
             sodipodi:cy="78.67791"
             sodipodi:cx="9.6323776"
             id="path2994"
             style="fill:#ffffff;stroke:#000000;stroke-width:2.08384633;stroke-linecap:round;stroke-linejoin:miter;stroke-miterlimit:4;stroke-opacity:1;stroke-dasharray:none;stroke-dashoffset:0"
             sodipodi:type="arc" />
          <path
             transform="matrix(0.75972939,0,0,0.75972939,51.770783,957.72296)"
             d="m -12.693947,54.144276 c 0,23.684711 -19.200252,42.884964 -42.884964,42.884964 -23.684711,0 -42.884964,-19.200253 -42.884964,-42.884964 0,-23.684712 19.200253,-42.884964 42.884964,-42.884964 23.684712,0 42.884964,19.200252 42.884964,42.884964 z"
             sodipodi:ry="42.884964"
             sodipodi:rx="42.884964"
             sodipodi:cy="54.144276"
             sodipodi:cx="-55.578911"
             id="path2995-0"
             style="fill:#ffffff;stroke:#000000;stroke-width:2.84217453;stroke-linecap:round;stroke-linejoin:miter;stroke-miterlimit:4;stroke-opacity:1;stroke-dasharray:none"
             sodipodi:type="arc" />
          <path
             inkscape:transform-center-y="-5.6433054"
             transform="matrix(0.82880704,0,0,0.82880704,-19.97254,907.22476)"
             d="m 59.202429,130.98722 -23.586912,0 -23.586913,0 11.793456,-20.42687 11.793457,-20.426862 11.793456,20.426862 z"
             inkscape:randomized="0"
             inkscape:rounded="0"
             inkscape:flatsided="false"
             sodipodi:arg2="1.5707963"
             sodipodi:arg1="0.52359878"
             sodipodi:r2="13.61791"
             sodipodi:r1="27.235821"
             sodipodi:cy="117.36931"
             sodipodi:cx="35.615517"
             sodipodi:sides="3"
             id="path3764-2"
             style="fill:none;stroke:#000000;stroke-width:2.60529113;stroke-linecap:round;stroke-linejoin:miter;stroke-miterlimit:4;stroke-opacity:1;stroke-dasharray:none;stroke-dashoffset:0"
             sodipodi:type="star" />
        </g>
      </g>
      <g
         inkscape:label="Calque 1"
         id="layer1-0"
         transform="matrix(0.91122486,0,0,0.91122486,23.478626,-50.484856)">
        <g
           id="g3775"
           transform="matrix(0.99110807,0,0,0.99110807,0.42681254,8.9307185)">
          <g
             style="fill:#ffffff"
             inkscape:label="Calque 1"
             id="layer1-5">
            <path
               sodipodi:type="arc"
               style="fill:#ffffff;stroke:#000000;stroke-width:2.57816577;stroke-linecap:round;stroke-linejoin:miter;stroke-miterlimit:4;stroke-opacity:1;stroke-dasharray:none"
               id="path2995-3"
               sodipodi:cx="-55.578911"
               sodipodi:cy="54.144276"
               sodipodi:rx="42.884964"
               sodipodi:ry="42.884964"
               d="m -12.693947,54.144276 c 0,23.684711 -19.200252,42.884964 -42.884964,42.884964 -23.684711,0 -42.884964,-19.200253 -42.884964,-42.884964 0,-23.684712 19.200253,-42.884964 42.884964,-42.884964 23.684712,0 42.884964,19.200252 42.884964,42.884964 z"
               transform="matrix(0.85895931,0,0,0.85895931,95.740023,957.85445)" />
          </g>
          <path
             transform="matrix(1.2204925,0,0,1.2204925,39.325344,950.05645)"
             d="m 22.004057,44.49493 c 0,8.227139 -6.669414,14.896552 -14.8965522,14.896552 -8.2271385,0 -14.896552,-6.669413 -14.896552,-14.896552 0,-8.227138 6.6694135,-14.896552 14.896552,-14.896552 8.2271382,0 14.8965522,6.669414 14.8965522,14.896552 z"
             sodipodi:ry="14.896552"
             sodipodi:rx="14.896552"
             sodipodi:cy="44.49493"
             sodipodi:cx="7.1075048"
             id="path3001"
             style="fill:none;stroke:#000000;stroke-width:1.81446385;stroke-linecap:round;stroke-linejoin:miter;stroke-miterlimit:4;stroke-opacity:1;stroke-dasharray:none"
             sodipodi:type="arc" />
          <path
             sodipodi:open="true"
             sodipodi:end="5.3423812"
             sodipodi:start="2.9069932"
             transform="matrix(0.92185944,0,0,0.92185944,80.207863,959.14055)"
             d="m -42.902807,66.590883 c -2.265386,-9.478589 3.582072,-18.998962 13.060661,-21.264347 5.024682,-1.2009 10.32325,-0.139529 14.497703,2.904076"
             sodipodi:ry="17.645868"
             sodipodi:rx="17.645868"
             sodipodi:cy="62.48904"
             sodipodi:cx="-25.740303"
             id="path3764"
             style="fill:none;stroke:#000000;stroke-width:2.40225291;stroke-linecap:round;stroke-linejoin:miter;stroke-miterlimit:4;stroke-opacity:1;stroke-dasharray:none"
             sodipodi:type="arc" />
        </g>
      </g>
    </g>
  </g>
</svg>
