<?xml version="1.0" encoding="UTF-8" standalone="no"?>
<!-- Created with Inkscape (http://www.inkscape.org/) -->

<svg
   xmlns:dc="http://purl.org/dc/elements/1.1/"
   xmlns:cc="http://creativecommons.org/ns#"
   xmlns:rdf="http://www.w3.org/1999/02/22-rdf-syntax-ns#"
   xmlns:svg="http://www.w3.org/2000/svg"
   xmlns="http://www.w3.org/2000/svg"
   xmlns:sodipodi="http://sodipodi.sourceforge.net/DTD/sodipodi-0.dtd"
   xmlns:inkscape="http://www.inkscape.org/namespaces/inkscape"
   width="180.33"
   height="161.3"
   id="svg2"
   version="1.1"
   inkscape:version="0.48.3.1 r9886"
   sodipodi:docname="pali li pana e sona.svg">
  <defs
     id="defs4" />
  <sodipodi:namedview
     id="base"
     pagecolor="#ffffff"
     bordercolor="#666666"
     borderopacity="1.0"
     inkscape:pageopacity="0.0"
     inkscape:pageshadow="2"
     inkscape:zoom="3.6887786"
     inkscape:cx="90.165001"
     inkscape:cy="80.650002"
     inkscape:document-units="px"
     inkscape:current-layer="layer1"
     showgrid="false"
     inkscape:window-width="1440"
     inkscape:window-height="824"
     inkscape:window-x="0"
     inkscape:window-y="26"
     inkscape:window-maximized="1" />
  <metadata
     id="metadata7">
    <rdf:RDF>
      <cc:Work
         rdf:about="">
        <dc:format>image/svg+xml</dc:format>
        <dc:type
           rdf:resource="http://purl.org/dc/dcmitype/StillImage" />
        <dc:title />
      </cc:Work>
    </rdf:RDF>
  </metadata>
  <g
     inkscape:label="Calque 1"
     inkscape:groupmode="layer"
     id="layer1"
     transform="translate(0,-891.06218)">
    <g
       id="g3963"
       transform="translate(-12.365474,72.272444)">
      <g
         inkscape:label="Calque 1"
         id="layer1-62"
         transform="matrix(2.3374997,0,0,2.3374997,-9.6695103,-1396.898)">
        <g
           id="g3770"
           transform="matrix(0.9982365,0,0,0.9982365,94.400685,1.9416241)">
          <path
             sodipodi:type="arc"
             style="fill:#ffffff;stroke:#000000;stroke-width:0.65799063;stroke-linecap:round;stroke-linejoin:miter;stroke-miterlimit:4;stroke-opacity:1;stroke-dasharray:none;stroke-dashoffset:0"
             id="path2996"
             sodipodi:cx="-73.497475"
             sodipodi:cy="32.620571"
             sodipodi:rx="26.064081"
             sodipodi:ry="6.7183809"
             d="m -47.433393,32.620571 c 0,3.710459 -11.669287,6.718381 -26.064082,6.718381 -14.394794,0 -26.064081,-3.007922 -26.064081,-6.718381 0,-3.710459 11.669287,-6.718381 26.064081,-6.718381 14.394795,0 26.064082,3.007922 26.064082,6.718381 z"
             transform="matrix(1.4029364,0,0,1.2095186,56.629625,968.73626)" />
          <path
             transform="matrix(1.4029364,0,0,1.2095186,56.629625,960.73626)"
             d="m -47.433393,32.620571 c 0,3.710459 -11.669287,6.718381 -26.064082,6.718381 -14.394794,0 -26.064081,-3.007922 -26.064081,-6.718381 0,-3.710459 11.669287,-6.718381 26.064081,-6.718381 14.394795,0 26.064082,3.007922 26.064082,6.718381 z"
             sodipodi:ry="6.7183809"
             sodipodi:rx="26.064081"
             sodipodi:cy="32.620571"
             sodipodi:cx="-73.497475"
             id="path3000"
             style="fill:#ffffff;stroke:#000000;stroke-width:0.65799063;stroke-linecap:round;stroke-linejoin:miter;stroke-miterlimit:4;stroke-opacity:1;stroke-dasharray:none;stroke-dashoffset:0"
             sodipodi:type="arc" />
        </g>
      </g>
      <g
         id="g3925">
        <g
           transform="matrix(1.6848757,0,0,1.6848757,49.382145,-806.84421)"
           id="layer1-8"
           inkscape:label="Calque 1">
          <g
             transform="matrix(1.034094,0,0,1.034094,-1.6365121,-34.242724)"
             id="g3784">
            <g
               id="g3778"
               transform="translate(-3.8635701,5.2984003)">
              <path
                 sodipodi:type="arc"
                 style="fill:#ffffff;stroke:#000000;stroke-width:0.78193367;stroke-linecap:round;stroke-linejoin:miter;stroke-miterlimit:4;stroke-opacity:1;stroke-dasharray:none"
                 id="path3776-2"
                 sodipodi:cx="-27.609022"
                 sodipodi:cy="97.08271"
                 sodipodi:rx="5.9548874"
                 sodipodi:ry="3.0676692"
                 d="m -21.654135,97.08271 c 0,1.694227 -2.666094,3.06767 -5.954887,3.06767 -3.288794,0 -5.954888,-1.373443 -5.954888,-3.06767 0,-1.694227 2.666094,-3.067669 5.954888,-3.067669 3.288793,0 5.954887,1.373442 5.954887,3.067669 z"
                 transform="matrix(1.2967764,0,0,1.6618787,110.35032,864.66029)" />
              <path
                 transform="matrix(1.2636737,0,0,1.5387971,109.88751,867.60187)"
                 d="m -21.654135,97.08271 c 0,1.694227 -2.666094,3.06767 -5.954887,3.06767 -3.288794,0 -5.954888,-1.373443 -5.954888,-3.06767 0,-1.694227 2.666094,-3.067669 5.954888,-3.067669 3.288793,0 5.954887,1.373442 5.954887,3.067669 z"
                 sodipodi:ry="3.0676692"
                 sodipodi:rx="5.9548874"
                 sodipodi:cy="97.08271"
                 sodipodi:cx="-27.609022"
                 id="path3774"
                 style="fill:#ffffff;stroke:#000000;stroke-width:0.82317835;stroke-linecap:round;stroke-linejoin:miter;stroke-miterlimit:4;stroke-opacity:1;stroke-dasharray:none"
                 sodipodi:type="arc" />
              <path
                 sodipodi:type="arc"
                 style="fill:#ffffff;stroke:#000000;stroke-width:0.78256452;stroke-linecap:round;stroke-linejoin:miter;stroke-miterlimit:4;stroke-opacity:1;stroke-dasharray:none"
                 id="path3772"
                 sodipodi:cx="-27.609022"
                 sodipodi:cy="97.08271"
                 sodipodi:rx="5.9548874"
                 sodipodi:ry="3.0676692"
                 d="m -21.654135,97.08271 c 0,1.694227 -2.666094,3.06767 -5.954887,3.06767 -3.288794,0 -5.954888,-1.373443 -5.954888,-3.06767 0,-1.694227 2.666094,-3.067669 5.954888,-3.067669 3.288793,0 5.954887,1.373442 5.954887,3.067669 z"
                 transform="matrix(1.2636737,0,0,1.702664,110.78977,842.73727)" />
              <path
                 transform="matrix(1.2636737,0,0,1.8359314,111.51157,819.84723)"
                 d="m -21.654135,97.08271 c 0,1.694227 -2.666094,3.06767 -5.954887,3.06767 -3.288794,0 -5.954888,-1.373443 -5.954888,-3.06767 0,-1.694227 2.666094,-3.067669 5.954888,-3.067669 3.288793,0 5.954887,1.373442 5.954887,3.067669 z"
                 sodipodi:ry="3.0676692"
                 sodipodi:rx="5.9548874"
                 sodipodi:cy="97.08271"
                 sodipodi:cx="-27.609022"
                 id="path3770"
                 style="fill:#ffffff;stroke:#000000;stroke-width:0.75362694;stroke-linecap:round;stroke-linejoin:miter;stroke-miterlimit:4;stroke-opacity:1;stroke-dasharray:none"
                 sodipodi:type="arc" />
            </g>
            <path
               style="fill:#ffffff;stroke:#000000;stroke-width:1.14789486;stroke-linecap:butt;stroke-linejoin:miter;stroke-miterlimit:4;stroke-opacity:1;stroke-dasharray:none"
               d="m 55.324399,1039.435 c -10.416158,1.5678 -27.24812,-0.5413 -27.24812,-0.5413 0,0 -15.518796,-0.9023 -15.338345,-17.1429 0.180451,-16.2406 0.30242,-36.57034 3.24812,-40.6015 1.963128,-2.68652 5.593985,-9.02255 16.781955,-10.82707 11.18797,-1.80451 29.774436,-1.98496 32.481203,-1.0827 2.706767,0.90225 12.461769,2.11348 17.142857,13.17293 4.681088,11.05945 -10.930355,16.57682 -12.81203,19.30824 -1.881675,2.7315 -0.180451,16.782 -0.721805,23.8196 -1.116086,7.936 -3.117677,12.3269 -13.533835,13.8947 z"
               id="path3768"
               inkscape:connector-curvature="0"
               sodipodi:nodetypes="zcsssszzcz" />
          </g>
        </g>
        <g
           transform="matrix(1.2974002,0,0,1.2974002,55.403776,-422.2386)"
           id="layer1-1"
           inkscape:label="Calque 1">
          <g
             transform="matrix(0.95861616,0,0,0.95861616,95.85581,40.926414)"
             id="g3776">
            <path
               style="fill:#ffffff;stroke:#000000;stroke-width:1.6080935;stroke-linecap:round;stroke-linejoin:miter;stroke-miterlimit:4;stroke-opacity:1;stroke-dasharray:none"
               d="m -66.985801,78.474645 c 0,0 -2.898945,4.419945 -9.346856,2.920893 -6.447911,-1.499052 -12.127783,-8.34716 -11.68357,-32.908722 0.444213,-24.561563 35.407944,-39.2368923 53.939148,-35.440162 18.531204,3.79673 24.03162,21.448076 21.809331,36.02434 -2.22229,14.576265 -2.899254,32.430898 -25.509128,35.245436 -22.609874,2.814538 -29.208925,-5.841785 -29.208925,-5.841785 z"
               id="path3004"
               inkscape:connector-curvature="0"
               transform="translate(0,956.36218)"
               sodipodi:nodetypes="czzzzzc" />
            <path
               style="fill:none;stroke:#000000;stroke-width:1.6080935;stroke-linecap:round;stroke-linejoin:miter;stroke-miterlimit:4;stroke-opacity:1;stroke-dasharray:none"
               d="m -66.791075,79.058824 c 0,0 -6.751985,-10.630466 -6.425963,-16.746451 0.326022,-6.115985 2.48132,-15.067795 8.567951,-16.74645 9.187305,-2.222592 12.687347,13.775428 18.761923,8.321538 6.891604,-7.522671 -10.095843,-12.200918 -3.857919,-17.627994 3.584949,-3.148979 7.026943,4.495437 10.215672,4.243576 4.118033,0.10733 1.966029,-4.479868 -0.584179,-6.425963"
               id="path3006"
               inkscape:connector-curvature="0"
               transform="translate(0,956.36218)"
               sodipodi:nodetypes="czccccc" />
          </g>
        </g>
        <g
           id="g3900">
          <g
             inkscape:label="Calque 1"
             id="layer1-6"
             transform="translate(5.8679371,-99.297212)">
            <path
               sodipodi:nodetypes="sssss"
               inkscape:connector-curvature="0"
               transform="matrix(0.8513215,0,0,0.8513215,95.315522,958.26799)"
               style="fill:#ffffff;stroke:#000000;stroke-width:2.3492887;stroke-linecap:round;stroke-linejoin:miter;stroke-miterlimit:4;stroke-opacity:1"
               d="m -12.693947,54.144276 c 0,39.330302 -19.200252,53.928914 -42.884964,53.928914 -23.684711,0 -42.884964,-15.058776 -42.884964,-53.928914 0,-23.684712 0.793675,-42.884964 42.884964,-42.884964 44.392112,0 42.884964,19.200252 42.884964,42.884964 z"
               id="path2995-8" />
          </g>
          <g
             inkscape:label="Calque 1"
             id="layer1-7"
             transform="translate(1.8679371,-152.96667)">
            <g
               id="g3798"
               transform="matrix(0.99631459,0,0,0.99631459,87.879749,2.4620148)">
              <g
                 id="g3823">
                <path
                   transform="translate(0,956.36218)"
                   style="fill:#ffffff;stroke:#000000;stroke-width:2.00739813;stroke-linecap:round;stroke-linejoin:miter;stroke-miterlimit:4;stroke-opacity:1;stroke-dasharray:none"
                   d="M -33.038378,80.963302 C -17.793006,80.40756 -4.1650044,67.505498 -3.3885516,48.560278 -9.5248649,4.028703 -63.639651,25.117524 -76.66598,51.313476 c 15.67521,0.223093 12.978221,15.16627 23.885918,23.881293 4.533134,3.897953 10.488162,5.90538 19.741684,5.768533 z"
                   id="path3784"
                   inkscape:connector-curvature="0"
                   sodipodi:nodetypes="ccccc" />
                <path
                   sodipodi:type="arc"
                   style="fill:#ffffff;stroke:#000000;stroke-width:1.8411392;stroke-linecap:round;stroke-linejoin:miter;stroke-miterlimit:4;stroke-opacity:1;stroke-dasharray:none;stroke-dashoffset:0"
                   id="path3788"
                   sodipodi:cx="-53.687363"
                   sodipodi:cy="9.9096117"
                   sodipodi:rx="6.0358577"
                   sodipodi:ry="6.0358577"
                   d="m -47.651505,9.9096117 c 0,3.3335123 -2.702346,6.0358573 -6.035858,6.0358573 -3.333512,0 -6.035857,-2.702345 -6.035857,-6.0358573 0,-3.3335121 2.702345,-6.0358577 6.035857,-6.0358577 3.333512,0 6.035858,2.7023456 6.035858,6.0358577 z"
                   transform="matrix(1.0903022,0,0,1.0903022,20.731922,969.65687)" />
                <g
                   id="g3780">
                  <g
                     id="g3808">
                    <path
                       style="fill:none;stroke:#000000;stroke-width:2.00739813;stroke-linecap:round;stroke-linejoin:miter;stroke-miterlimit:4;stroke-opacity:1;stroke-dasharray:none"
                       d="m -63.918735,1012.6348 c 0,0 9.693638,-9.6604 16.919692,-9.6604 7.326407,0 10.305485,14.1092 10.305485,14.1092 0,0 -5.79295,3.1616 -9.101368,3.1616 -4.113511,0 -6.350266,-1.9069 -6.350266,-4.8156 0,-2.8513 1.583592,-4.6764 5.791526,-4.7535 4.207934,-0.077 8.408427,5.3969 9.215149,6.365"
                       id="path3767"
                       inkscape:connector-curvature="0"
                       sodipodi:nodetypes="cscsszc" />
                    <path
                       sodipodi:type="arc"
                       style="fill:#000000;fill-opacity:1;stroke:#000000;stroke-width:2.00739813;stroke-linecap:round;stroke-linejoin:miter;stroke-miterlimit:4;stroke-opacity:1;stroke-dasharray:none"
                       id="path3777"
                       sodipodi:cx="25.309092"
                       sodipodi:cy="64.290909"
                       sodipodi:rx="1.2606061"
                       sodipodi:ry="1.2606061"
                       d="m 26.569698,64.290909 c 0,0.696213 -0.564393,1.260606 -1.260606,1.260606 -0.696214,0 -1.260606,-0.564393 -1.260606,-1.260606 0,-0.696214 0.564392,-1.260606 1.260606,-1.260606 0.696213,0 1.260606,0.564392 1.260606,1.260606 z"
                       transform="translate(-71.853741,951.14714)" />
                  </g>
                </g>
                <g
                   id="g3794">
                  <path
                     sodipodi:nodetypes="cc"
                     transform="translate(0,956.36218)"
                     inkscape:connector-curvature="0"
                     id="path3790"
                     d="m -32.299058,52.152913 c 4.800448,-0.917733 7.280252,-2.502907 14.545101,-2.573502"
                     style="fill:none;stroke:#000000;stroke-width:2.00739813;stroke-linecap:round;stroke-linejoin:miter;stroke-miterlimit:4;stroke-opacity:1;stroke-dasharray:none" />
                  <path
                     sodipodi:nodetypes="cc"
                     transform="translate(0,956.36218)"
                     inkscape:connector-curvature="0"
                     id="path3792"
                     d="m -29.409804,59.157203 c 4.062411,-0.775259 8.680596,-1.6378 12.438808,-3.044562"
                     style="fill:none;stroke:#000000;stroke-width:2.00739813;stroke-linecap:round;stroke-linejoin:miter;stroke-miterlimit:4;stroke-opacity:1;stroke-dasharray:none" />
                </g>
              </g>
            </g>
          </g>
          <g
             inkscape:label="Calque 1"
             id="layer1-2"
             transform="matrix(0.74907459,0,0,0.74907459,18.497376,161.9596)">
            <g
               id="g3793"
               transform="matrix(1.0308997,0,0,1.0308997,99.289874,-30.041875)">
              <g
                 id="g3786">
                <g
                   id="layer1-0"
                   inkscape:label="Calque 1"
                   transform="translate(-96.292089,-1.6551722)"
                   style="fill:none">
                  <path
                     transform="matrix(0.85895931,0,0,0.85895931,95.740023,957.85445)"
                     style="fill:#ffffff;stroke:#000000;stroke-width:3.01519871;stroke-linecap:round;stroke-linejoin:miter;stroke-miterlimit:4;stroke-opacity:1;stroke-dasharray:none"
                     d="m -16.094449,43.716071 c 0,23.684711 -17.159951,44.471865 -40.844663,44.471865 -23.684711,0 -41.524763,-10.358949 -41.524763,-34.04366 0,-23.684712 19.200253,-42.884964 42.884964,-42.884964 23.684712,0 39.484462,8.772047 39.484462,32.456759 z"
                     id="path2995"
                     inkscape:connector-curvature="0"
                     sodipodi:nodetypes="sssss" />
                </g>
                <g
                   id="g3782">
                  <path
                     sodipodi:nodetypes="cc"
                     transform="translate(0,956.36218)"
                     inkscape:connector-curvature="0"
                     id="path3776"
                     d="m -80.032454,27.598905 c 3.162467,4.987245 5.633377,7.580638 11.615268,13.57862"
                     style="fill:none;stroke:#000000;stroke-width:2.58993292;stroke-linecap:round;stroke-linejoin:miter;stroke-miterlimit:4;stroke-opacity:1;stroke-dasharray:none" />
                  <path
                     sodipodi:nodetypes="cc"
                     inkscape:connector-curvature="0"
                     id="path3778"
                     d="m -73.146766,976.77329 c 2.724853,3.8711 8.02541,9.2974 12.931327,12.95571"
                     style="fill:none;stroke:#000000;stroke-width:2.58993292;stroke-linecap:round;stroke-linejoin:miter;stroke-miterlimit:4;stroke-opacity:1;stroke-dasharray:none" />
                </g>
              </g>
              <path
                 sodipodi:nodetypes="zcccz"
                 transform="translate(0,956.36218)"
                 inkscape:connector-curvature="0"
                 id="path3780"
                 d="m -37.876045,27.057086 c 20.636696,3.737494 4.517734,29.681254 -4.255736,41.280634 7.107343,-2.034131 19.279246,-0.780677 19.78917,7.447537 -1.087921,10.876455 -60.61312,12.201684 -61.069804,0.851147 4.930525,-26.956886 24.899674,-53.316812 45.53637,-49.579318 z"
                 style="fill:#ffffff;stroke:#000000;stroke-width:2.58993292;stroke-linecap:round;stroke-linejoin:miter;stroke-miterlimit:4;stroke-opacity:1;stroke-dasharray:none" />
            </g>
          </g>
        </g>
      </g>
    </g>
  </g>
</svg>
