<?xml version="1.0" encoding="UTF-8" standalone="no"?>
<!-- Created with Inkscape (http://www.inkscape.org/) -->

<svg
   xmlns:dc="http://purl.org/dc/elements/1.1/"
   xmlns:cc="http://creativecommons.org/ns#"
   xmlns:rdf="http://www.w3.org/1999/02/22-rdf-syntax-ns#"
   xmlns:svg="http://www.w3.org/2000/svg"
   xmlns="http://www.w3.org/2000/svg"
   xmlns:sodipodi="http://sodipodi.sourceforge.net/DTD/sodipodi-0.dtd"
   xmlns:inkscape="http://www.inkscape.org/namespaces/inkscape"
   width="90.849998"
   height="139.14999"
   id="svg2"
   version="1.1"
   inkscape:version="0.48.3.1 r9886"
   sodipodi:docname="telo li pona.svg">
  <defs
     id="defs4" />
  <sodipodi:namedview
     id="base"
     pagecolor="#ffffff"
     bordercolor="#666666"
     borderopacity="1.0"
     inkscape:pageopacity="0.0"
     inkscape:pageshadow="2"
     inkscape:zoom="4.2759614"
     inkscape:cx="45.424999"
     inkscape:cy="69.574997"
     inkscape:document-units="px"
     inkscape:current-layer="layer1"
     showgrid="false"
     inkscape:window-width="1440"
     inkscape:window-height="824"
     inkscape:window-x="0"
     inkscape:window-y="26"
     inkscape:window-maximized="1" />
  <metadata
     id="metadata7">
    <rdf:RDF>
      <cc:Work
         rdf:about="">
        <dc:format>image/svg+xml</dc:format>
        <dc:type
           rdf:resource="http://purl.org/dc/dcmitype/StillImage" />
        <dc:title />
      </cc:Work>
    </rdf:RDF>
  </metadata>
  <g
     inkscape:label="Calque 1"
     inkscape:groupmode="layer"
     id="layer1"
     transform="translate(0,-913.21218)">
    <g
       id="g3860"
       transform="matrix(0.9858313,0,0,0.9858313,-37.414329,93.861487)">
      <g
         inkscape:label="Calque 1"
         id="layer1-0"
         transform="matrix(1.2350377,0,0,1.2350377,24.748114,-284.0951)">
        <g
           id="g3770"
           transform="matrix(0.9982365,0,0,0.9982365,94.400685,1.9416241)">
          <path
             sodipodi:type="arc"
             style="fill:#ffffff;stroke:#000000;stroke-width:1.24534893;stroke-linecap:round;stroke-linejoin:miter;stroke-miterlimit:4;stroke-opacity:1;stroke-dasharray:none;stroke-dashoffset:0"
             id="path2996"
             sodipodi:cx="-73.497475"
             sodipodi:cy="32.620571"
             sodipodi:rx="26.064081"
             sodipodi:ry="6.7183809"
             d="m -47.433393,32.620571 c 0,3.710459 -11.669287,6.718381 -26.064082,6.718381 -14.394794,0 -26.064081,-3.007922 -26.064081,-6.718381 0,-3.710459 11.669287,-6.718381 26.064081,-6.718381 14.394795,0 26.064082,3.007922 26.064082,6.718381 z"
             transform="matrix(1.4029364,0,0,1.2095186,56.629625,968.73626)" />
          <path
             transform="matrix(1.4029364,0,0,1.2095186,56.629625,960.73626)"
             d="m -47.433393,32.620571 c 0,3.710459 -11.669287,6.718381 -26.064082,6.718381 -14.394794,0 -26.064081,-3.007922 -26.064081,-6.718381 0,-3.710459 11.669287,-6.718381 26.064081,-6.718381 14.394795,0 26.064082,3.007922 26.064082,6.718381 z"
             sodipodi:ry="6.7183809"
             sodipodi:rx="26.064081"
             sodipodi:cy="32.620571"
             sodipodi:cx="-73.497475"
             id="path3000"
             style="fill:#ffffff;stroke:#000000;stroke-width:1.24534893;stroke-linecap:round;stroke-linejoin:miter;stroke-miterlimit:4;stroke-opacity:1;stroke-dasharray:none;stroke-dashoffset:0"
             sodipodi:type="arc" />
        </g>
      </g>
      <g
         transform="translate(-0.03141804,2)"
         id="g3842">
        <g
           transform="matrix(1.0887751,0,0,1.0887751,31.768717,-179.64527)"
           id="layer1-6"
           inkscape:label="Calque 1">
          <path
             id="path2995"
             d="m -12.693947,54.144276 c 0,28.756441 5.7357543,42.884964 -42.884964,42.884964 -47.775429,0 -42.884964,-14.551167 -42.884964,-42.884964 0,-23.684712 1.449198,-42.884964 42.884964,-42.884964 44.394277,0 42.884964,19.200252 42.884964,42.884964 z"
             style="fill:#ffffff;stroke:#000000;stroke-width:2.15773559;stroke-linecap:round;stroke-linejoin:miter;stroke-miterlimit:4;stroke-opacity:1;stroke-dasharray:none"
             transform="matrix(0.8513215,0,0,0.8513215,95.315522,958.26799)"
             inkscape:connector-curvature="0"
             sodipodi:nodetypes="sssss" />
        </g>
        <g
           transform="translate(36.061337,-142.38948)"
           id="layer1-05"
           inkscape:label="Calque 1">
          <g
             transform="matrix(1.0089728,0,0,1.0089728,104.53379,-6.5355524)"
             id="g3782">
            <path
               style="fill:#ffffff;stroke:#000000;stroke-width:1.98221397;stroke-linecap:round;stroke-linejoin:miter;stroke-miterlimit:4;stroke-opacity:1;stroke-dasharray:none"
               d="m -91.131845,74.19067 c 0,0 9.419352,-4.880924 18.888437,-5.062881 9.469085,-0.181956 24.097722,7.983773 36.219067,7.983773 15.498322,-1.599249 20.892163,-16.275747 11.294118,-28.235294 3.409961,-4.017753 9.98188,-12.093787 -2.141988,-16.941176 0,0 3.6303,-3.750596 2.908756,-7.685615 -0.845216,-14.003135 -18.419034,-12.626694 -28.612609,-2.245419 0,0 -6.806275,-7.425751 -23.21987,-1.984994 -16.413595,5.440757 -18.067712,29.212491 -15.335911,54.171606 z"
               id="path3002"
               inkscape:connector-curvature="0"
               sodipodi:nodetypes="czccccczc"
               transform="translate(0,956.36218)" />
            <g
               id="g3778">
              <path
                 sodipodi:nodetypes="czzczzc"
                 transform="translate(0,956.36218)"
                 inkscape:connector-curvature="0"
                 id="path3006"
                 d="m -24.730223,49.070994 c 0,0 -5.704077,5.481493 -13.212955,5.630691 -7.508878,0.149198 -8.370032,-5.390318 -23.415472,-5.241239 -15.04544,0.149079 -29.475988,24.223504 -29.475988,24.223504 3.203814,-16.244943 14.639898,-41.752914 29.475988,-42.137171 14.83609,-0.384257 17.364283,5.287945 23.415472,4.732633 6.051189,-0.555312 10.876241,-3.954868 10.876241,-3.954868"
                 style="fill:none;stroke:#000000;stroke-width:1.98221397;stroke-linecap:round;stroke-linejoin:miter;stroke-miterlimit:4;stroke-opacity:1;stroke-dasharray:none" />
              <path
                 sodipodi:nodetypes="czzc"
                 transform="translate(0,956.36218)"
                 inkscape:connector-curvature="0"
                 id="path3008"
                 d="m -52.677162,21.860839 c 0,0 5.625505,6.584949 9.978069,7.751215 4.352564,1.166266 9.342936,-4.965462 5.356593,-7.59586 -3.986343,-2.630398 -9.704862,4.781731 -9.704862,4.781731"
                 style="fill:none;stroke:#000000;stroke-width:1.98221397;stroke-linecap:round;stroke-linejoin:miter;stroke-miterlimit:4;stroke-opacity:1;stroke-dasharray:none" />
            </g>
          </g>
        </g>
        <g
           transform="matrix(0.92687462,0,0,0.92687462,39.34407,-8.9373051)"
           id="layer1-07"
           inkscape:label="Calque 1">
          <g
             transform="matrix(0.99954408,0,0,0.99954408,94.609707,4.8493042)"
             id="g3785">
            <g
               id="g3781">
              <path
                 transform="translate(0,956.36218)"
                 sodipodi:nodetypes="cszczczzzzc"
                 inkscape:connector-curvature="0"
                 id="path3001"
                 d="m -79.058823,32.324544 c 0,0 -1.036797,-4.999176 0.259242,-8.870617 1.581203,-4.72326 7.108815,-9.477439 10.25597,-10.017821 3.147156,-0.540381 8.373226,8.178499 8.373226,8.178499 0,0 5.4172,-8.090105 9.346856,-7.983773 3.929656,0.106332 9.15213,7.789047 9.15213,7.789047 0,0 10.205554,-6.036512 16.162272,-6.036512 5.956717,0 15.7843613,5.515354 15.383366,18.109534 -0.400995,12.59418 -6.960814,40.308316 -33.687626,40.308316 -26.726812,0 -39.334685,-14.454183 -39.334685,-25.89858 0,-11.444396 4.089249,-15.578093 4.089249,-15.578093 z"
                 style="fill:#ffffff;stroke:#000000;stroke-width:2.15877342;stroke-linecap:round;stroke-linejoin:miter;stroke-miterlimit:4;stroke-opacity:1;stroke-dasharray:none" />
              <path
                 transform="translate(0,956.36218)"
                 sodipodi:nodetypes="czc"
                 inkscape:connector-curvature="0"
                 id="path3003"
                 d="m -79.081692,32.330466 c 9.300178,-4.641701 23.000192,4.381587 32.017433,4.455854 9.017241,0.07427 17.693331,-4.364354 17.693331,-4.364354"
                 style="fill:none;stroke:#000000;stroke-width:2.15877342;stroke-linecap:round;stroke-linejoin:miter;stroke-miterlimit:4;stroke-opacity:1;stroke-dasharray:none" />
            </g>
            <g
               id="g3777">
              <path
                 transform="translate(0,956.36218)"
                 sodipodi:nodetypes="czzzzzc"
                 inkscape:connector-curvature="0"
                 id="path3005"
                 d="m -71.739722,40.513 c 0,0 6.645046,4.807148 23.602679,4.554904 16.957632,-0.252245 19.804124,-5.520619 21.118187,-4.761945 1.314062,0.758675 5.761601,1.955134 4.451382,8.281642 -1.310219,6.326508 -11.007121,15.321037 -25.155488,15.321037 -14.148367,0 -25.365586,-7.302178 -27.122375,-13.97527 -1.756789,-6.673092 3.105615,-9.420368 3.105615,-9.420368 z"
                 style="fill:none;stroke:#000000;stroke-width:2.15877342;stroke-linecap:round;stroke-linejoin:miter;stroke-miterlimit:4;stroke-opacity:1;stroke-dasharray:none" />
              <path
                 transform="translate(0,956.36218)"
                 sodipodi:nodetypes="cc"
                 inkscape:connector-curvature="0"
                 id="path3007"
                 d="m -66.180984,49.923957 c 12.696455,5.587985 24.260829,4.438627 36.781156,-1.232836"
                 style="fill:none;stroke:#000000;stroke-width:2.15877342;stroke-linecap:round;stroke-linejoin:miter;stroke-miterlimit:4;stroke-opacity:1;stroke-dasharray:none" />
            </g>
          </g>
        </g>
      </g>
    </g>
  </g>
</svg>
