<?xml version="1.0" encoding="UTF-8" standalone="no"?>
<!-- Created with Inkscape (http://www.inkscape.org/) -->

<svg
   xmlns:dc="http://purl.org/dc/elements/1.1/"
   xmlns:cc="http://creativecommons.org/ns#"
   xmlns:rdf="http://www.w3.org/1999/02/22-rdf-syntax-ns#"
   xmlns:svg="http://www.w3.org/2000/svg"
   xmlns="http://www.w3.org/2000/svg"
   xmlns:sodipodi="http://sodipodi.sourceforge.net/DTD/sodipodi-0.dtd"
   xmlns:inkscape="http://www.inkscape.org/namespaces/inkscape"
   width="150.61"
   height="191.48"
   id="svg2"
   version="1.1"
   inkscape:version="0.48.3.1 r9886"
   sodipodi:docname="toki pona li toki pona.svg">
  <defs
     id="defs4" />
  <sodipodi:namedview
     id="base"
     pagecolor="#ffffff"
     bordercolor="#666666"
     borderopacity="1.0"
     inkscape:pageopacity="0.0"
     inkscape:pageshadow="2"
     inkscape:zoom="1.8050047"
     inkscape:cx="41.789268"
     inkscape:cy="97.640861"
     inkscape:document-units="px"
     inkscape:current-layer="layer1"
     showgrid="false"
     inkscape:window-width="1440"
     inkscape:window-height="824"
     inkscape:window-x="0"
     inkscape:window-y="26"
     inkscape:window-maximized="1" />
  <metadata
     id="metadata7">
    <rdf:RDF>
      <cc:Work
         rdf:about="">
        <dc:format>image/svg+xml</dc:format>
        <dc:type
           rdf:resource="http://purl.org/dc/dcmitype/StillImage" />
        <dc:title />
      </cc:Work>
    </rdf:RDF>
  </metadata>
  <g
     inkscape:label="Calque 1"
     inkscape:groupmode="layer"
     id="layer1"
     transform="translate(0,-860.88218)">
    <g
       id="g3902"
       transform="translate(-19.940002,8.2153386)">
      <g
         inkscape:label="Calque 1"
         id="layer1-4"
         transform="matrix(2.0357697,0,0,2.0357697,-2.4719421,-1026.1439)">
        <g
           id="g3770"
           transform="matrix(0.9982365,0,0,0.9982365,94.400685,1.9416241)">
          <path
             sodipodi:type="arc"
             style="fill:#ffffff;stroke:#000000;stroke-width:0.7555142;stroke-linecap:round;stroke-linejoin:miter;stroke-miterlimit:4;stroke-opacity:1;stroke-dasharray:none;stroke-dashoffset:0"
             id="path2996"
             sodipodi:cx="-73.497475"
             sodipodi:cy="32.620571"
             sodipodi:rx="26.064081"
             sodipodi:ry="6.7183809"
             d="m -47.433393,32.620571 c 0,3.710459 -11.669287,6.718381 -26.064082,6.718381 -14.394794,0 -26.064081,-3.007922 -26.064081,-6.718381 0,-3.710459 11.669287,-6.718381 26.064081,-6.718381 14.394795,0 26.064082,3.007922 26.064082,6.718381 z"
             transform="matrix(1.4029364,0,0,1.2095186,56.629625,968.73626)" />
          <path
             transform="matrix(1.4029364,0,0,1.2095186,56.629625,960.73626)"
             d="m -47.433393,32.620571 c 0,3.710459 -11.669287,6.718381 -26.064082,6.718381 -14.394794,0 -26.064081,-3.007922 -26.064081,-6.718381 0,-3.710459 11.669287,-6.718381 26.064081,-6.718381 14.394795,0 26.064082,3.007922 26.064082,6.718381 z"
             sodipodi:ry="6.7183809"
             sodipodi:rx="26.064081"
             sodipodi:cy="32.620571"
             sodipodi:cx="-73.497475"
             id="path3000"
             style="fill:#ffffff;stroke:#000000;stroke-width:0.7555142;stroke-linecap:round;stroke-linejoin:miter;stroke-miterlimit:4;stroke-opacity:1;stroke-dasharray:none;stroke-dashoffset:0"
             sodipodi:type="arc" />
        </g>
      </g>
      <g
         inkscape:label="Calque 1"
         id="layer1-0"
         transform="translate(41.150658,-62.249021)">
        <path
           sodipodi:nodetypes="sssss"
           inkscape:connector-curvature="0"
           transform="matrix(0.8513215,0,0,0.8513215,95.315522,958.26799)"
           style="fill:#ffffff;stroke:#000000;stroke-width:2.3492887;stroke-linecap:round;stroke-linejoin:miter;stroke-miterlimit:4;stroke-opacity:1"
           d="m 38.066176,65.20738 c 0,45.16015 0.973644,77.37582 -89.089691,77.37582 -84.206405,0 -83.883525,-21.15257 -83.883525,-79.328132 0,-42.557066 17.89871,-51.995756 79.328129,-51.995756 64.0325023,0 93.645087,11.391003 93.645087,53.948068 z"
           id="path2995" />
      </g>
      <g
         inkscape:label="Calque 1"
         id="layer1-6"
         transform="matrix(1.1332585,0,0,1.1332585,69.114309,-245.95019)">
        <g
           id="g3785"
           transform="matrix(0.99954408,0,0,0.99954408,94.609707,4.8493042)">
          <g
             id="g3781">
            <path
               style="fill:#ffffff;stroke:#000000;stroke-width:1.76562738;stroke-linecap:round;stroke-linejoin:miter;stroke-miterlimit:4;stroke-opacity:1;stroke-dasharray:none"
               d="m -79.058823,32.324544 c 0,0 -1.036797,-4.999176 0.259242,-8.870617 1.581203,-4.72326 7.108815,-9.477439 10.25597,-10.017821 3.147156,-0.540381 8.373226,8.178499 8.373226,8.178499 0,0 5.4172,-8.090105 9.346856,-7.983773 3.929656,0.106332 9.15213,7.789047 9.15213,7.789047 0,0 10.205554,-6.036512 16.162272,-6.036512 5.956717,0 15.7843613,5.515354 15.383366,18.109534 -0.400995,12.59418 -6.960814,40.308316 -33.687626,40.308316 -26.726812,0 -39.334685,-14.454183 -39.334685,-25.89858 0,-11.444396 4.089249,-15.578093 4.089249,-15.578093 z"
               id="path3001"
               inkscape:connector-curvature="0"
               sodipodi:nodetypes="cszczczzzzc"
               transform="translate(0,956.36218)" />
            <path
               style="fill:none;stroke:#000000;stroke-width:1.76562738;stroke-linecap:round;stroke-linejoin:miter;stroke-miterlimit:4;stroke-opacity:1;stroke-dasharray:none"
               d="m -79.081692,32.330466 c 9.300178,-4.641701 23.000192,4.381587 32.017433,4.455854 9.017241,0.07427 17.693331,-4.364354 17.693331,-4.364354"
               id="path3003"
               inkscape:connector-curvature="0"
               sodipodi:nodetypes="czc"
               transform="translate(0,956.36218)" />
          </g>
          <g
             id="g3777">
            <path
               style="fill:none;stroke:#000000;stroke-width:1.76562738;stroke-linecap:round;stroke-linejoin:miter;stroke-miterlimit:4;stroke-opacity:1;stroke-dasharray:none"
               d="m -71.739722,40.513 c 0,0 6.645046,4.807148 23.602679,4.554904 16.957632,-0.252245 19.804124,-5.520619 21.118187,-4.761945 1.314062,0.758675 5.761601,1.955134 4.451382,8.281642 -1.310219,6.326508 -11.007121,15.321037 -25.155488,15.321037 -14.148367,0 -25.365586,-7.302178 -27.122375,-13.97527 -1.756789,-6.673092 3.105615,-9.420368 3.105615,-9.420368 z"
               id="path3005"
               inkscape:connector-curvature="0"
               sodipodi:nodetypes="czzzzzc"
               transform="translate(0,956.36218)" />
            <path
               style="fill:none;stroke:#000000;stroke-width:1.76562738;stroke-linecap:round;stroke-linejoin:miter;stroke-miterlimit:4;stroke-opacity:1;stroke-dasharray:none"
               d="m -66.180984,49.923957 c 12.696455,5.587985 24.260829,4.438627 36.781156,-1.232836"
               id="path3007"
               inkscape:connector-curvature="0"
               sodipodi:nodetypes="cc"
               transform="translate(0,956.36218)" />
          </g>
        </g>
      </g>
      <g
         inkscape:label="Calque 1"
         id="layer1-8"
         transform="translate(12.341869,-112.11039)">
        <g
           id="g3812"
           transform="matrix(1.0757798,0,0,1.0757798,97.202652,-74.365201)">
          <g
             style="fill:#ffffff"
             id="g3802">
            <g
               style="fill:#ffffff"
               id="g3792">
              <path
                 sodipodi:nodetypes="czccc"
                 transform="translate(0,956.36218)"
                 inkscape:connector-curvature="0"
                 id="path3002"
                 d="m -21.225152,44.592293 c 0,0 9.346856,-0.09478 9.346856,-13.630832 0,-13.536053 -13.718355,-19.472616 -29.403651,-20.446247 -61.232823,-0.76964 -38.110486,74.372499 -6.231238,71.659228 33.897792,1.211498 26.288033,-37.582149 26.288033,-37.582149 z"
                 style="fill:#ffffff;stroke:#000000;stroke-width:1.85911655;stroke-linecap:round;stroke-linejoin:miter;stroke-miterlimit:4;stroke-opacity:1;stroke-dasharray:none" />
              <path
                 sodipodi:nodetypes="cc"
                 transform="translate(0,956.36218)"
                 inkscape:connector-curvature="0"
                 id="path3004"
                 d="M -21.225152,44.592292 C -33.379726,45.485461 -45.56709,43.686446 -56.609191,40.141777"
                 style="fill:none;stroke:#000000;stroke-width:1.85911655;stroke-linecap:round;stroke-linejoin:miter;stroke-miterlimit:4;stroke-opacity:1;stroke-dasharray:none" />
            </g>
            <g
               style="fill:#ffffff"
               id="g3796">
              <path
                 sodipodi:nodetypes="czc"
                 transform="translate(0,956.36218)"
                 inkscape:connector-curvature="0"
                 id="path3006"
                 d="m -54.133874,40.970452 c -0.334372,10.642466 -2.695815,30.068015 12.287442,30.068015 14.983257,0 12.319415,-14.744675 12.715381,-26.0957"
                 style="fill:none;stroke:#000000;stroke-width:1.85911655;stroke-linecap:round;stroke-linejoin:miter;stroke-miterlimit:4;stroke-opacity:1;stroke-dasharray:none" />
              <g
                 style="fill:#ffffff"
                 id="g3788">
                <path
                   style="fill:none;stroke:#000000;stroke-width:1.85911655;stroke-linecap:round;stroke-linejoin:miter;stroke-miterlimit:4;stroke-opacity:1;stroke-dasharray:none"
                   d="m -54.337015,53.057443 c 9.013483,1.325844 15.947743,1.807212 24.635988,0.952631"
                   id="path3008"
                   inkscape:connector-curvature="0"
                   transform="translate(0,956.36218)"
                   sodipodi:nodetypes="cc" />
                <path
                   style="fill:none;stroke:#000000;stroke-width:1.85911655;stroke-linecap:round;stroke-linejoin:miter;stroke-miterlimit:4;stroke-opacity:1;stroke-dasharray:none"
                   d="m -53.231026,59.925856 c 8.626692,2.670513 14.175454,1.61966 22.896044,0.602257"
                   id="path3010"
                   inkscape:connector-curvature="0"
                   transform="translate(0,956.36218)"
                   sodipodi:nodetypes="cc" />
              </g>
            </g>
          </g>
          <g
             transform="translate(0.18415128,0.36830257)"
             id="g3784">
            <path
               sodipodi:type="arc"
               style="fill:none;stroke:#000000;stroke-width:1.40239859;stroke-linecap:round;stroke-linejoin:miter;stroke-miterlimit:4;stroke-opacity:1;stroke-dasharray:none;stroke-dashoffset:0"
               id="path3012"
               sodipodi:cx="13.728194"
               sodipodi:cy="21.906694"
               sodipodi:rx="4.3813386"
               sodipodi:ry="4.3813386"
               d="m 18.109533,21.906694 c 0,2.419747 -1.961592,4.381339 -4.381339,4.381339 -2.419746,0 -4.3813384,-1.961592 -4.3813384,-4.381339 0,-2.419746 1.9615924,-4.381338 4.3813384,-4.381338 2.419747,0 4.381339,1.961592 4.381339,4.381338 z"
               transform="matrix(1.3256691,0,0,1.3256691,-82.361314,955.65381)" />
            <path
               sodipodi:type="arc"
               style="fill:none;stroke:#000000;stroke-width:1.85911655;stroke-linecap:round;stroke-linejoin:miter;stroke-miterlimit:4;stroke-opacity:1;stroke-dasharray:none;stroke-dashoffset:0"
               id="path3782"
               sodipodi:cx="-13.922921"
               sodipodi:cy="3.4077084"
               sodipodi:rx="0.68154156"
               sodipodi:ry="0.68154156"
               d="m -13.24138,3.4077084 c 0,0.376405 -0.305136,0.6815416 -0.681541,0.6815416 -0.376405,0 -0.681542,-0.3051366 -0.681542,-0.6815416 0,-0.376405 0.305137,-0.6815416 0.681542,-0.6815416 0.376405,0 0.681541,0.3051366 0.681541,0.6815416 z"
               transform="translate(-50.23935,981.28713)" />
          </g>
        </g>
      </g>
      <g
         transform="matrix(1.1332585,0,0,1.1332585,69.114309,-165.95019)"
         id="g3858"
         inkscape:label="Calque 1">
        <g
           transform="matrix(0.99954408,0,0,0.99954408,94.609707,4.8493042)"
           id="g3860">
          <g
             id="g3862">
            <path
               transform="translate(0,956.36218)"
               sodipodi:nodetypes="cszczczzzzc"
               inkscape:connector-curvature="0"
               id="path3864"
               d="m -79.058823,32.324544 c 0,0 -1.036797,-4.999176 0.259242,-8.870617 1.581203,-4.72326 7.108815,-9.477439 10.25597,-10.017821 3.147156,-0.540381 8.373226,8.178499 8.373226,8.178499 0,0 5.4172,-8.090105 9.346856,-7.983773 3.929656,0.106332 9.15213,7.789047 9.15213,7.789047 0,0 10.205554,-6.036512 16.162272,-6.036512 5.956717,0 15.7843613,5.515354 15.383366,18.109534 -0.400995,12.59418 -6.960814,40.308316 -33.687626,40.308316 -26.726812,0 -39.334685,-14.454183 -39.334685,-25.89858 0,-11.444396 4.089249,-15.578093 4.089249,-15.578093 z"
               style="fill:#ffffff;stroke:#000000;stroke-width:1.76562738;stroke-linecap:round;stroke-linejoin:miter;stroke-miterlimit:4;stroke-opacity:1;stroke-dasharray:none" />
            <path
               transform="translate(0,956.36218)"
               sodipodi:nodetypes="czc"
               inkscape:connector-curvature="0"
               id="path3866"
               d="m -79.081692,32.330466 c 9.300178,-4.641701 23.000192,4.381587 32.017433,4.455854 9.017241,0.07427 17.693331,-4.364354 17.693331,-4.364354"
               style="fill:none;stroke:#000000;stroke-width:1.76562738;stroke-linecap:round;stroke-linejoin:miter;stroke-miterlimit:4;stroke-opacity:1;stroke-dasharray:none" />
          </g>
          <g
             id="g3868">
            <path
               transform="translate(0,956.36218)"
               sodipodi:nodetypes="czzzzzc"
               inkscape:connector-curvature="0"
               id="path3870"
               d="m -71.739722,40.513 c 0,0 6.645046,4.807148 23.602679,4.554904 16.957632,-0.252245 19.804124,-5.520619 21.118187,-4.761945 1.314062,0.758675 5.761601,1.955134 4.451382,8.281642 -1.310219,6.326508 -11.007121,15.321037 -25.155488,15.321037 -14.148367,0 -25.365586,-7.302178 -27.122375,-13.97527 -1.756789,-6.673092 3.105615,-9.420368 3.105615,-9.420368 z"
               style="fill:none;stroke:#000000;stroke-width:1.76562738;stroke-linecap:round;stroke-linejoin:miter;stroke-miterlimit:4;stroke-opacity:1;stroke-dasharray:none" />
            <path
               transform="translate(0,956.36218)"
               sodipodi:nodetypes="cc"
               inkscape:connector-curvature="0"
               id="path3872"
               d="m -66.180984,49.923957 c 12.696455,5.587985 24.260829,4.438627 36.781156,-1.232836"
               style="fill:none;stroke:#000000;stroke-width:1.76562738;stroke-linecap:round;stroke-linejoin:miter;stroke-miterlimit:4;stroke-opacity:1;stroke-dasharray:none" />
          </g>
        </g>
      </g>
      <g
         transform="translate(12.341869,-32.11039)"
         id="g3874"
         inkscape:label="Calque 1">
        <g
           transform="matrix(1.0757798,0,0,1.0757798,97.202652,-74.365201)"
           id="g3876">
          <g
             id="g3878"
             style="fill:#ffffff">
            <g
               id="g3880"
               style="fill:#ffffff">
              <path
                 style="fill:#ffffff;stroke:#000000;stroke-width:1.85911655;stroke-linecap:round;stroke-linejoin:miter;stroke-miterlimit:4;stroke-opacity:1;stroke-dasharray:none"
                 d="m -21.225152,44.592293 c 0,0 9.346856,-0.09478 9.346856,-13.630832 0,-13.536053 -13.718355,-19.472616 -29.403651,-20.446247 -61.232823,-0.76964 -38.110486,74.372499 -6.231238,71.659228 33.897792,1.211498 26.288033,-37.582149 26.288033,-37.582149 z"
                 id="path3882"
                 inkscape:connector-curvature="0"
                 transform="translate(0,956.36218)"
                 sodipodi:nodetypes="czccc" />
              <path
                 style="fill:none;stroke:#000000;stroke-width:1.85911655;stroke-linecap:round;stroke-linejoin:miter;stroke-miterlimit:4;stroke-opacity:1;stroke-dasharray:none"
                 d="M -21.225152,44.592292 C -33.379726,45.485461 -45.56709,43.686446 -56.609191,40.141777"
                 id="path3884"
                 inkscape:connector-curvature="0"
                 transform="translate(0,956.36218)"
                 sodipodi:nodetypes="cc" />
            </g>
            <g
               id="g3886"
               style="fill:#ffffff">
              <path
                 style="fill:none;stroke:#000000;stroke-width:1.85911655;stroke-linecap:round;stroke-linejoin:miter;stroke-miterlimit:4;stroke-opacity:1;stroke-dasharray:none"
                 d="m -54.133874,40.970452 c -0.334372,10.642466 -2.695815,30.068015 12.287442,30.068015 14.983257,0 12.319415,-14.744675 12.715381,-26.0957"
                 id="path3888"
                 inkscape:connector-curvature="0"
                 transform="translate(0,956.36218)"
                 sodipodi:nodetypes="czc" />
              <g
                 id="g3890"
                 style="fill:#ffffff">
                <path
                   sodipodi:nodetypes="cc"
                   transform="translate(0,956.36218)"
                   inkscape:connector-curvature="0"
                   id="path3892"
                   d="m -54.337015,53.057443 c 9.013483,1.325844 15.947743,1.807212 24.635988,0.952631"
                   style="fill:none;stroke:#000000;stroke-width:1.85911655;stroke-linecap:round;stroke-linejoin:miter;stroke-miterlimit:4;stroke-opacity:1;stroke-dasharray:none" />
                <path
                   sodipodi:nodetypes="cc"
                   transform="translate(0,956.36218)"
                   inkscape:connector-curvature="0"
                   id="path3894"
                   d="m -53.231026,59.925856 c 8.626692,2.670513 14.175454,1.61966 22.896044,0.602257"
                   style="fill:none;stroke:#000000;stroke-width:1.85911655;stroke-linecap:round;stroke-linejoin:miter;stroke-miterlimit:4;stroke-opacity:1;stroke-dasharray:none" />
              </g>
            </g>
          </g>
          <g
             id="g3896"
             transform="translate(0.18415128,0.36830257)">
            <path
               transform="matrix(1.3256691,0,0,1.3256691,-82.361314,955.65381)"
               d="m 18.109533,21.906694 c 0,2.419747 -1.961592,4.381339 -4.381339,4.381339 -2.419746,0 -4.3813384,-1.961592 -4.3813384,-4.381339 0,-2.419746 1.9615924,-4.381338 4.3813384,-4.381338 2.419747,0 4.381339,1.961592 4.381339,4.381338 z"
               sodipodi:ry="4.3813386"
               sodipodi:rx="4.3813386"
               sodipodi:cy="21.906694"
               sodipodi:cx="13.728194"
               id="path3898"
               style="fill:none;stroke:#000000;stroke-width:1.40239859;stroke-linecap:round;stroke-linejoin:miter;stroke-miterlimit:4;stroke-opacity:1;stroke-dasharray:none;stroke-dashoffset:0"
               sodipodi:type="arc" />
            <path
               transform="translate(-50.23935,981.28713)"
               d="m -13.24138,3.4077084 c 0,0.376405 -0.305136,0.6815416 -0.681541,0.6815416 -0.376405,0 -0.681542,-0.3051366 -0.681542,-0.6815416 0,-0.376405 0.305137,-0.6815416 0.681542,-0.6815416 0.376405,0 0.681541,0.3051366 0.681541,0.6815416 z"
               sodipodi:ry="0.68154156"
               sodipodi:rx="0.68154156"
               sodipodi:cy="3.4077084"
               sodipodi:cx="-13.922921"
               id="path3900"
               style="fill:none;stroke:#000000;stroke-width:1.85911655;stroke-linecap:round;stroke-linejoin:miter;stroke-miterlimit:4;stroke-opacity:1;stroke-dasharray:none;stroke-dashoffset:0"
               sodipodi:type="arc" />
          </g>
        </g>
      </g>
    </g>
  </g>
</svg>
