<?xml version="1.0" encoding="UTF-8" standalone="no"?>
<!-- Created with Inkscape (http://www.inkscape.org/) -->

<svg
   xmlns:dc="http://purl.org/dc/elements/1.1/"
   xmlns:cc="http://creativecommons.org/ns#"
   xmlns:rdf="http://www.w3.org/1999/02/22-rdf-syntax-ns#"
   xmlns:svg="http://www.w3.org/2000/svg"
   xmlns="http://www.w3.org/2000/svg"
   xmlns:sodipodi="http://sodipodi.sourceforge.net/DTD/sodipodi-0.dtd"
   xmlns:inkscape="http://www.inkscape.org/namespaces/inkscape"
   width="96"
   height="96"
   id="svg2"
   version="1.1"
   inkscape:version="0.48.3.1 r9886"
   sodipodi:docname="alasa.svg">
  <defs
     id="defs4" />
  <sodipodi:namedview
     id="base"
     pagecolor="#ffffff"
     bordercolor="#666666"
     borderopacity="1.0"
     inkscape:pageopacity="0.0"
     inkscape:pageshadow="2"
     inkscape:zoom="6.1770833"
     inkscape:cx="45.949844"
     inkscape:cy="44.924114"
     inkscape:document-units="px"
     inkscape:current-layer="layer1"
     showgrid="false"
     inkscape:window-width="992"
     inkscape:window-height="822"
     inkscape:window-x="0"
     inkscape:window-y="26"
     inkscape:window-maximized="0" />
  <metadata
     id="metadata7">
    <rdf:RDF>
      <cc:Work
         rdf:about="">
        <dc:format>image/svg+xml</dc:format>
        <dc:type
           rdf:resource="http://purl.org/dc/dcmitype/StillImage" />
        <dc:title />
      </cc:Work>
    </rdf:RDF>
  </metadata>
  <g
     inkscape:label="Calque 1"
     inkscape:groupmode="layer"
     id="layer1"
     transform="translate(0,-956.36218)">
    <g
       id="g2989"
       transform="matrix(1.0631155,0,0,1.0631155,-3.029544,-63.390816)">
      <path
         sodipodi:nodetypes="cccc"
         inkscape:connector-curvature="0"
         id="path3787"
         d="m 82.264329,975.9532 c 0,0 1.522013,67.8688 -34.264329,67.8688 -35.786342,0 -34.264329,-67.8688 -34.264329,-67.8688 z"
         style="fill:#ffffff;stroke:#000000;stroke-width:1.88126314;stroke-linecap:butt;stroke-linejoin:miter;stroke-miterlimit:4;stroke-opacity:1;stroke-dasharray:none" />
      <path
         transform="matrix(0.8023649,0,0,0.8023649,-20.746233,857.252)"
         d="m 100.4787,148.96552 c 0,8.17336 -6.625822,14.79918 -14.799188,14.79918 -8.173366,0 -14.799189,-6.62582 -14.799189,-14.79918 0,-8.17337 6.625823,-14.79919 14.799189,-14.79919 8.173366,0 14.799188,6.62582 14.799188,14.79919 z"
         sodipodi:ry="14.799189"
         sodipodi:rx="14.799189"
         sodipodi:cy="148.96552"
         sodipodi:cx="85.679512"
         id="path3772"
         style="fill:#ffffff;stroke:#000000;stroke-width:2.34464788;stroke-linecap:round;stroke-linejoin:miter;stroke-miterlimit:4;stroke-opacity:1;stroke-dasharray:none"
         sodipodi:type="arc" />
      <path
         inkscape:connector-curvature="0"
         id="path3776"
         d="m 33.921875,999.91886 7.03125,12.21874 2.96875,5.125 -10,0 7.03125,12.1875 7.03125,12.2187 7.03125,-12.2187 7.0625,-12.1875 -10.03125,0 2.96875,-5.125 7.0625,-12.21874 -14.09375,0 -14.0625,0 z"
         style="fill:none;stroke:#000000;stroke-width:1.88126314;stroke-linecap:round;stroke-linejoin:miter;stroke-miterlimit:4;stroke-opacity:1;stroke-dasharray:none" />
    </g>
  </g>
</svg>
