<?xml version="1.0" encoding="UTF-8" standalone="no"?>
<!-- Created with Inkscape (http://www.inkscape.org/) -->

<svg
   xmlns:dc="http://purl.org/dc/elements/1.1/"
   xmlns:cc="http://creativecommons.org/ns#"
   xmlns:rdf="http://www.w3.org/1999/02/22-rdf-syntax-ns#"
   xmlns:svg="http://www.w3.org/2000/svg"
   xmlns="http://www.w3.org/2000/svg"
   xmlns:sodipodi="http://sodipodi.sourceforge.net/DTD/sodipodi-0.dtd"
   xmlns:inkscape="http://www.inkscape.org/namespaces/inkscape"
   width="96"
   height="96"
   id="svg2"
   version="1.1"
   inkscape:version="0.48.3.1 r9886"
   sodipodi:docname="e.svg">
  <defs
     id="defs4" />
  <sodipodi:namedview
     id="base"
     pagecolor="#ffffff"
     bordercolor="#666666"
     borderopacity="1.0"
     inkscape:pageopacity="0.0"
     inkscape:pageshadow="2"
     inkscape:zoom="5.1354167"
     inkscape:cx="48"
     inkscape:cy="48"
     inkscape:document-units="px"
     inkscape:current-layer="layer1"
     showgrid="false"
     inkscape:window-width="992"
     inkscape:window-height="822"
     inkscape:window-x="0"
     inkscape:window-y="26"
     inkscape:window-maximized="0" />
  <metadata
     id="metadata7">
    <rdf:RDF>
      <cc:Work
         rdf:about="">
        <dc:format>image/svg+xml</dc:format>
        <dc:type
           rdf:resource="http://purl.org/dc/dcmitype/StillImage" />
        <dc:title />
      </cc:Work>
    </rdf:RDF>
  </metadata>
  <g
     inkscape:label="Calque 1"
     inkscape:groupmode="layer"
     id="layer1"
     transform="translate(0,-956.36218)">
    <g
       id="g3784"
       transform="matrix(1.034094,0,0,1.034094,-1.6365121,-34.242724)">
      <g
         transform="translate(-3.8635701,5.2984003)"
         id="g3778">
        <path
           transform="matrix(1.2967764,0,0,1.6618787,110.35032,864.66029)"
           d="m -21.654135,97.08271 c 0,1.694227 -2.666094,3.06767 -5.954887,3.06767 -3.288794,0 -5.954888,-1.373443 -5.954888,-3.06767 0,-1.694227 2.666094,-3.067669 5.954888,-3.067669 3.288793,0 5.954887,1.373442 5.954887,3.067669 z"
           sodipodi:ry="3.0676692"
           sodipodi:rx="5.9548874"
           sodipodi:cy="97.08271"
           sodipodi:cx="-27.609022"
           id="path3776"
           style="fill:#ffffff;stroke:#000000;stroke-width:1.31746101;stroke-linecap:round;stroke-linejoin:miter;stroke-miterlimit:4;stroke-opacity:1;stroke-dasharray:none"
           sodipodi:type="arc" />
        <path
           sodipodi:type="arc"
           style="fill:#ffffff;stroke:#000000;stroke-width:1.38695323;stroke-linecap:round;stroke-linejoin:miter;stroke-miterlimit:4;stroke-opacity:1;stroke-dasharray:none"
           id="path3774"
           sodipodi:cx="-27.609022"
           sodipodi:cy="97.08271"
           sodipodi:rx="5.9548874"
           sodipodi:ry="3.0676692"
           d="m -21.654135,97.08271 c 0,1.694227 -2.666094,3.06767 -5.954887,3.06767 -3.288794,0 -5.954888,-1.373443 -5.954888,-3.06767 0,-1.694227 2.666094,-3.067669 5.954888,-3.067669 3.288793,0 5.954887,1.373442 5.954887,3.067669 z"
           transform="matrix(1.2636737,0,0,1.5387971,109.88751,867.60187)" />
        <path
           transform="matrix(1.2636737,0,0,1.702664,110.78977,842.73727)"
           d="m -21.654135,97.08271 c 0,1.694227 -2.666094,3.06767 -5.954887,3.06767 -3.288794,0 -5.954888,-1.373443 -5.954888,-3.06767 0,-1.694227 2.666094,-3.067669 5.954888,-3.067669 3.288793,0 5.954887,1.373442 5.954887,3.067669 z"
           sodipodi:ry="3.0676692"
           sodipodi:rx="5.9548874"
           sodipodi:cy="97.08271"
           sodipodi:cx="-27.609022"
           id="path3772"
           style="fill:#ffffff;stroke:#000000;stroke-width:1.318524;stroke-linecap:round;stroke-linejoin:miter;stroke-miterlimit:4;stroke-opacity:1;stroke-dasharray:none"
           sodipodi:type="arc" />
        <path
           sodipodi:type="arc"
           style="fill:#ffffff;stroke:#000000;stroke-width:1.26976776;stroke-linecap:round;stroke-linejoin:miter;stroke-miterlimit:4;stroke-opacity:1;stroke-dasharray:none"
           id="path3770"
           sodipodi:cx="-27.609022"
           sodipodi:cy="97.08271"
           sodipodi:rx="5.9548874"
           sodipodi:ry="3.0676692"
           d="m -21.654135,97.08271 c 0,1.694227 -2.666094,3.06767 -5.954887,3.06767 -3.288794,0 -5.954888,-1.373443 -5.954888,-3.06767 0,-1.694227 2.666094,-3.067669 5.954888,-3.067669 3.288793,0 5.954887,1.373442 5.954887,3.067669 z"
           transform="matrix(1.2636737,0,0,1.8359314,111.51157,819.84723)" />
      </g>
      <path
         sodipodi:nodetypes="zcsssszzcz"
         inkscape:connector-curvature="0"
         id="path3768"
         d="m 55.324399,1039.435 c -10.416158,1.5678 -27.24812,-0.5413 -27.24812,-0.5413 0,0 -15.518796,-0.9023 -15.338345,-17.1429 0.180451,-16.2406 0.30242,-36.57034 3.24812,-40.6015 1.963128,-2.68652 5.593985,-9.02255 16.781955,-10.82707 11.18797,-1.80451 29.774436,-1.98496 32.481203,-1.0827 2.706767,0.90225 12.461769,2.11348 17.142857,13.17293 4.681088,11.05945 -10.930355,16.57682 -12.81203,19.30824 -1.881675,2.7315 -0.180451,16.782 -0.721805,23.8196 -1.116086,7.936 -3.117677,12.3269 -13.533835,13.8947 z"
         style="fill:#ffffff;stroke:#000000;stroke-width:1.9340601;stroke-linecap:butt;stroke-linejoin:miter;stroke-miterlimit:4;stroke-opacity:1;stroke-dasharray:none" />
    </g>
  </g>
</svg>
