<?xml version="1.0" encoding="UTF-8" standalone="no"?>
<!-- Created with Inkscape (http://www.inkscape.org/) -->

<svg
   xmlns:dc="http://purl.org/dc/elements/1.1/"
   xmlns:cc="http://creativecommons.org/ns#"
   xmlns:rdf="http://www.w3.org/1999/02/22-rdf-syntax-ns#"
   xmlns:svg="http://www.w3.org/2000/svg"
   xmlns="http://www.w3.org/2000/svg"
   xmlns:sodipodi="http://sodipodi.sourceforge.net/DTD/sodipodi-0.dtd"
   xmlns:inkscape="http://www.inkscape.org/namespaces/inkscape"
   width="96"
   height="96"
   id="svg2"
   version="1.1"
   inkscape:version="0.48.3.1 r9886"
   sodipodi:docname="jan.svg">
  <defs
     id="defs4" />
  <sodipodi:namedview
     id="base"
     pagecolor="#ffffff"
     bordercolor="#666666"
     borderopacity="1.0"
     inkscape:pageopacity="0.0"
     inkscape:pageshadow="2"
     inkscape:zoom="4.4647859"
     inkscape:cx="52.207995"
     inkscape:cy="41.79717"
     inkscape:document-units="px"
     inkscape:current-layer="layer1"
     showgrid="false"
     inkscape:window-width="992"
     inkscape:window-height="822"
     inkscape:window-x="0"
     inkscape:window-y="26"
     inkscape:window-maximized="0"
     showguides="true"
     inkscape:guide-bbox="true" />
  <metadata
     id="metadata7">
    <rdf:RDF>
      <cc:Work
         rdf:about="">
        <dc:format>image/svg+xml</dc:format>
        <dc:type
           rdf:resource="http://purl.org/dc/dcmitype/StillImage" />
        <dc:title />
      </cc:Work>
    </rdf:RDF>
  </metadata>
  <g
     inkscape:label="Calque 1"
     inkscape:groupmode="layer"
     id="layer1"
     transform="translate(0,-956.36218)">
    <g
       id="g3807"
       transform="matrix(0.97101892,0,0,0.97101892,72.885642,32.616496)">
      <path
         transform="matrix(0.92526482,-0.1286522,0.14007994,1.007453,-4.5308196,952.29419)"
         d="m 4.7051315,26.120083 c 0,10.105559 -13.8876866,18.297733 -31.0190165,18.297733 -17.131329,0 -31.019016,-8.192174 -31.019016,-18.297733 0,-10.105559 13.887687,-18.2977335 31.019016,-18.2977335 17.1313299,0 31.0190165,8.1921745 31.0190165,18.2977335 z"
         sodipodi:ry="18.297733"
         sodipodi:rx="31.019016"
         sodipodi:cy="26.120083"
         sodipodi:cx="-26.313885"
         id="path3015"
         style="fill:#ffffff;stroke:#000000;stroke-width:2.11299658;stroke-linecap:round;stroke-linejoin:miter;stroke-miterlimit:4;stroke-opacity:1;stroke-dasharray:none"
         sodipodi:type="arc" />
      <path
         sodipodi:nodetypes="zccczzz"
         transform="translate(0,956.36218)"
         inkscape:connector-curvature="0"
         id="path3011"
         d="m -53.233082,43.817836 c -0.302941,5.842979 -2.412086,29.25682 -1.30028,33.402873 12.461934,5.875195 49.5683053,7.663683 54.56675435,-2.353394 C 3.234363,67.501811 5.1276573,40.605308 -4.7917495,38.400241 -24.160804,39.364679 -13.563279,15.791862 -24.743051,14.81289 c -11.179772,-0.978972 -12.000168,18.865396 -15.075601,19.12896 -3.075433,0.263564 -13.111489,4.033006 -13.41443,9.875986 z"
         style="fill:#ffffff;stroke:#000000;stroke-width:2.05969214;stroke-linecap:round;stroke-linejoin:miter;stroke-miterlimit:4;stroke-opacity:1;stroke-dasharray:none" />
      <g
         id="g3797">
        <path
           style="fill:none;stroke:#000000;stroke-width:2.05969214;stroke-linecap:round;stroke-linejoin:miter;stroke-miterlimit:4;stroke-opacity:1;stroke-dasharray:none"
           d="m -41.79907,71.506278 c 4.166511,-7.492535 10.433687,-12.452597 16.506639,-18.281547"
           id="path3789"
           inkscape:connector-curvature="0"
           transform="translate(0,956.36218)"
           sodipodi:nodetypes="cc" />
        <path
           style="fill:none;stroke:#000000;stroke-width:2.05969214;stroke-linecap:round;stroke-linejoin:miter;stroke-miterlimit:4;stroke-opacity:1;stroke-dasharray:none"
           d="M -34.788186,73.902403 -18.725273,56.952037"
           id="path3791"
           inkscape:connector-curvature="0"
           transform="translate(0,956.36218)" />
        <path
           style="fill:none;stroke:#000000;stroke-width:2.05969214;stroke-linecap:round;stroke-linejoin:miter;stroke-miterlimit:4;stroke-opacity:1;stroke-dasharray:none"
           d="m -35.054422,54.20093 17.571584,14.642986"
           id="path3793"
           inkscape:connector-curvature="0"
           transform="translate(0,956.36218)" />
        <path
           style="fill:none;stroke:#000000;stroke-width:2.05969214;stroke-linecap:round;stroke-linejoin:miter;stroke-miterlimit:4;stroke-opacity:1;stroke-dasharray:none"
           d="m -41.621579,61.30056 14.820477,11.181917"
           id="path3795"
           inkscape:connector-curvature="0"
           transform="translate(0,956.36218)" />
      </g>
      <g
         id="g3803">
        <path
           style="fill:none;stroke:#000000;stroke-width:2.05969214;stroke-linecap:round;stroke-linejoin:miter;stroke-miterlimit:4;stroke-opacity:1;stroke-dasharray:none"
           d="m -39.272255,990.33048 c 5.175698,1.59377 13.612644,0.58882 13.567061,-6.25464 -0.169711,-2.71539 -0.791988,-6.05305 -0.791988,-6.05305"
           id="path3785"
           inkscape:connector-curvature="0"
           sodipodi:nodetypes="ccc" />
        <path
           sodipodi:type="arc"
           style="fill:none;stroke:#000000;stroke-width:2.05969214;stroke-linecap:round;stroke-linejoin:miter;stroke-miterlimit:4;stroke-opacity:1;stroke-dasharray:none"
           id="path3787"
           sodipodi:cx="-45.548134"
           sodipodi:cy="20.461903"
           sodipodi:rx="0.42239383"
           sodipodi:ry="0.42239383"
           d="m -45.12574,20.461903 c 0,0.233281 -0.189112,0.422393 -0.422394,0.422393 -0.233282,0 -0.422394,-0.189112 -0.422394,-0.422393 0,-0.233282 0.189112,-0.422394 0.422394,-0.422394 0.233282,0 0.422394,0.189112 0.422394,0.422394 z"
           transform="translate(14.290991,962.55729)" />
      </g>
    </g>
  </g>
</svg>
