<?xml version="1.0" encoding="UTF-8" standalone="no"?>
<!-- Created with Inkscape (http://www.inkscape.org/) -->

<svg
   xmlns:dc="http://purl.org/dc/elements/1.1/"
   xmlns:cc="http://creativecommons.org/ns#"
   xmlns:rdf="http://www.w3.org/1999/02/22-rdf-syntax-ns#"
   xmlns:svg="http://www.w3.org/2000/svg"
   xmlns="http://www.w3.org/2000/svg"
   xmlns:sodipodi="http://sodipodi.sourceforge.net/DTD/sodipodi-0.dtd"
   xmlns:inkscape="http://www.inkscape.org/namespaces/inkscape"
   width="96"
   height="96"
   id="svg2"
   version="1.1"
   inkscape:version="0.48.3.1 r9886"
   sodipodi:docname="jelo.svg">
  <defs
     id="defs4" />
  <sodipodi:namedview
     id="base"
     pagecolor="#ffffff"
     bordercolor="#666666"
     borderopacity="1.0"
     inkscape:pageopacity="0.0"
     inkscape:pageshadow="2"
     inkscape:zoom="5.1354167"
     inkscape:cx="48"
     inkscape:cy="48"
     inkscape:document-units="px"
     inkscape:current-layer="layer1"
     showgrid="false"
     inkscape:window-width="992"
     inkscape:window-height="822"
     inkscape:window-x="0"
     inkscape:window-y="26"
     inkscape:window-maximized="0"
     showguides="true"
     inkscape:guide-bbox="true" />
  <metadata
     id="metadata7">
    <rdf:RDF>
      <cc:Work
         rdf:about="">
        <dc:format>image/svg+xml</dc:format>
        <dc:type
           rdf:resource="http://purl.org/dc/dcmitype/StillImage" />
        <dc:title />
      </cc:Work>
    </rdf:RDF>
  </metadata>
  <g
     inkscape:label="Calque 1"
     inkscape:groupmode="layer"
     id="layer1"
     transform="translate(0,-956.36218)">
    <g
       id="g3801"
       transform="matrix(1.0883407,0,0,1.0883407,88.584394,-88.285624)">
      <g
         style="fill:#ffffff"
         id="g3794">
        <path
           sodipodi:type="arc"
           style="fill:#ffffff;stroke:#000000;stroke-width:2.60877514;stroke-linecap:round;stroke-linejoin:miter;stroke-miterlimit:4;stroke-opacity:1;stroke-dasharray:none"
           id="path2995"
           sodipodi:cx="-55.578911"
           sodipodi:cy="54.144276"
           sodipodi:rx="42.884964"
           sodipodi:ry="42.884964"
           d="m -12.693947,54.144276 c 0,23.684711 -19.200252,42.884964 -42.884964,42.884964 -23.684711,0 -42.884964,-19.200253 -42.884964,-42.884964 0,-23.684712 19.200253,-42.884964 42.884964,-42.884964 23.684712,0 42.884964,19.200252 42.884964,42.884964 z"
           transform="matrix(0.74179665,0,0,0.66891674,2.2938958,958.73108)" />
        <g
           style="fill:#ffffff"
           id="g3789">
          <path
             sodipodi:nodetypes="csc"
             transform="translate(0,956.36218)"
             inkscape:connector-curvature="0"
             id="path3783"
             d="m -67.1006,25.633286 c 0,0 15.922757,-4.129129 24.601093,-4.664988 9.673638,-0.597316 26.302627,-1.938089 26.302627,-1.938089"
             style="fill:none;stroke:#000000;stroke-width:1.83765983999999993;stroke-linecap:round;stroke-linejoin:miter;stroke-miterlimit:4;stroke-opacity:1;stroke-dasharray:none" />
          <path
             sodipodi:nodetypes="csc"
             transform="translate(0,956.36218)"
             inkscape:connector-curvature="0"
             id="path3785"
             d="m -70.444677,35.142013 c 0,0 20.797857,-4.414819 28.083605,-4.483274 8.410844,-0.07903 33.7781097,-0.27687 33.7781097,-0.27687"
             style="fill:none;stroke:#000000;stroke-width:1.83765983999999993;stroke-linecap:round;stroke-linejoin:miter;stroke-miterlimit:4;stroke-opacity:1;stroke-dasharray:none" />
          <path
             sodipodi:nodetypes="csc"
             transform="translate(0,956.36218)"
             inkscape:connector-curvature="0"
             id="path3787"
             d="m -69.771177,43.533182 c 0,0 16.41785,-4.340572 26.302626,-4.429916 11.584532,-0.104707 36.2699375,-0.27687 36.2699375,-0.27687"
             style="fill:none;stroke:#000000;stroke-width:1.83765983999999993;stroke-linecap:round;stroke-linejoin:miter;stroke-miterlimit:4;stroke-opacity:1;stroke-dasharray:none" />
        </g>
      </g>
      <path
         sodipodi:nodetypes="ccccscszc"
         transform="translate(0,956.36218)"
         inkscape:connector-curvature="0"
         id="path3012"
         d="m -36.219067,85.290061 c 0,0 -26.093306,-1.752536 -30.96146,-11.68357 -6.949605,-10.399971 -3.176338,-27.589689 8.957404,-27.651115 5.06288,0.194726 9.152129,4.868154 9.152129,4.868154 0,0 3.699798,-5.062881 8.178499,-5.062881 4.478702,0 7.983773,4.478702 7.983773,4.478702 0,0 4.212388,-5.421958 10.515213,-5.647059 5.452333,-0.194726 14.7251218,0.801801 17.9314861,12.768116 3.2063643,11.966314 -5.6393421,27.982341 -31.7570441,27.929653 z"
         style="fill:#ffffff;stroke:#000000;stroke-width:1.83765984;stroke-linecap:round;stroke-linejoin:miter;stroke-miterlimit:4;stroke-opacity:1;stroke-dasharray:none" />
    </g>
  </g>
</svg>
