<?xml version="1.0" encoding="UTF-8" standalone="no"?>
<!-- Created with Inkscape (http://www.inkscape.org/) -->

<svg
   xmlns:dc="http://purl.org/dc/elements/1.1/"
   xmlns:cc="http://creativecommons.org/ns#"
   xmlns:rdf="http://www.w3.org/1999/02/22-rdf-syntax-ns#"
   xmlns:svg="http://www.w3.org/2000/svg"
   xmlns="http://www.w3.org/2000/svg"
   xmlns:sodipodi="http://sodipodi.sourceforge.net/DTD/sodipodi-0.dtd"
   xmlns:inkscape="http://www.inkscape.org/namespaces/inkscape"
   width="96"
   height="96"
   id="svg2"
   version="1.1"
   inkscape:version="0.48.3.1 r9886"
   sodipodi:docname="kala.svg">
  <defs
     id="defs4" />
  <sodipodi:namedview
     id="base"
     pagecolor="#ffffff"
     bordercolor="#666666"
     borderopacity="1.0"
     inkscape:pageopacity="0.0"
     inkscape:pageshadow="2"
     inkscape:zoom="6.1770833"
     inkscape:cx="46.057336"
     inkscape:cy="47.514334"
     inkscape:document-units="px"
     inkscape:current-layer="layer1"
     showgrid="false"
     inkscape:window-width="992"
     inkscape:window-height="822"
     inkscape:window-x="0"
     inkscape:window-y="26"
     inkscape:window-maximized="0" />
  <metadata
     id="metadata7">
    <rdf:RDF>
      <cc:Work
         rdf:about="">
        <dc:format>image/svg+xml</dc:format>
        <dc:type
           rdf:resource="http://purl.org/dc/dcmitype/StillImage" />
        <dc:title />
      </cc:Work>
    </rdf:RDF>
  </metadata>
  <g
     inkscape:label="Calque 1"
     inkscape:groupmode="layer"
     id="layer1"
     transform="translate(0,-956.36218)">
    <g
       id="g3807"
       transform="matrix(1.0830407,0,0,1.0830407,71.804348,-81.529645)"
       style="fill:#ffffff">
      <path
         sodipodi:nodetypes="ccczc"
         inkscape:connector-curvature="0"
         id="path3763"
         d="m -54.3606,1036.4593 c 0,0 -12.014962,-71.60435 38.655377,-71.60435 32.895611,4.09565 28.647576,44.60545 24.665812,71.23615 0,0 -13.2259456,4.0911 -23.196477,4.3106 -9.970532,0.2195 -40.124712,-3.9424 -40.124712,-3.9424 z"
         style="fill:#ffffff;stroke:#000000;stroke-width:1.84665263;stroke-linecap:butt;stroke-linejoin:miter;stroke-miterlimit:4;stroke-opacity:1;stroke-dasharray:none" />
      <g
         id="g3789"
         style="fill:#ffffff">
        <path
           style="fill:none;stroke:#000000;stroke-width:1.84665263;stroke-linecap:round;stroke-linejoin:miter;stroke-miterlimit:4;stroke-opacity:1;stroke-dasharray:none"
           d="m -8.7419899,62.650927 c 5.7441493,2.298819 7.4963347,3.335025 10.6510552,6.706027 2.2151625,2.36703 3.6246279,5.460129 6.7976471,9.919703"
           id="path3781"
           inkscape:connector-curvature="0"
           transform="translate(0,956.36218)"
           sodipodi:nodetypes="csc" />
        <path
           style="fill:none;stroke:#000000;stroke-width:1.84665263;stroke-linecap:round;stroke-linejoin:miter;stroke-miterlimit:4;stroke-opacity:1;stroke-dasharray:none"
           d="M -54.992195,53.543633 -43.548061,47.43339"
           id="path3783"
           inkscape:connector-curvature="0"
           transform="translate(0,956.36218)"
           sodipodi:nodetypes="cc" />
        <path
           style="fill:none;stroke:#000000;stroke-width:1.84665263;stroke-linecap:round;stroke-linejoin:miter;stroke-miterlimit:4;stroke-opacity:1;stroke-dasharray:none"
           d="m -53.908938,45.328836 c 2.499612,-1.575052 5.121874,-2.753515 7.764418,-3.868642 3.452615,-1.456969 7.246061,-2.676427 10.852783,-4.225793"
           id="path3785"
           inkscape:connector-curvature="0"
           transform="translate(0,956.36218)"
           sodipodi:nodetypes="csc" />
        <path
           style="fill:none;stroke:#000000;stroke-width:1.84665263;stroke-linecap:round;stroke-linejoin:miter;stroke-miterlimit:4;stroke-opacity:1;stroke-dasharray:none"
           d="m -55.175551,1027.3188 c 0,0 11.08482,-22.9963 20.888168,-22.9211 2.70618,0.021 4.918679,3.0645 7.121982,6.7272 3.451234,5.7373 2.836265,13.4734 2.836265,13.4734 0,0 -5.83258,3.9256 -9.866193,4.7323 -4.033614,0.8068 -6.292437,-2.9042 -6.131093,-5.8084 0.161345,-2.9042 2.25347,-4.2302 4.517648,-4.5176 2.264178,-0.2874 9.797859,3.388 10.604581,4.3561 0.806723,0.968 0.824276,1.1851 0.824276,1.1851"
           id="path3767"
           inkscape:connector-curvature="0"
           sodipodi:nodetypes="csscsszsc" />
        <path
           sodipodi:type="arc"
           style="fill:#000000;fill-opacity:1;stroke:#000000;stroke-width:1.84665263;stroke-linecap:round;stroke-linejoin:miter;stroke-miterlimit:4;stroke-opacity:1;stroke-dasharray:none"
           id="path3777"
           sodipodi:cx="25.309092"
           sodipodi:cy="64.290909"
           sodipodi:rx="1.2606061"
           sodipodi:ry="1.2606061"
           d="m 26.569698,64.290909 c 0,0.696213 -0.564393,1.260606 -1.260606,1.260606 -0.696214,0 -1.260606,-0.564393 -1.260606,-1.260606 0,-0.696214 0.564392,-1.260606 1.260606,-1.260606 0.696213,0 1.260606,0.564392 1.260606,1.260606 z"
           transform="translate(-60.161715,959.90775)" />
        <path
           style="fill:none;stroke:#000000;stroke-width:1.84665263;stroke-linecap:round;stroke-linejoin:miter;stroke-miterlimit:4;stroke-opacity:1;stroke-dasharray:none"
           d="m -45.935837,33.252593 c 0,0 10.06304,-5.242137 18.469048,-5.446001 8.406008,-0.203864 21.0979502,-0.440362 21.1838285,12.807611 0.085878,13.247974 -3.570472,14.906221 -17.5827695,23.64048"
           id="path3787"
           inkscape:connector-curvature="0"
           transform="translate(0,956.36218)"
           sodipodi:nodetypes="czzc" />
      </g>
    </g>
  </g>
</svg>
