<?xml version="1.0" encoding="UTF-8" standalone="no"?>
<!-- Created with Inkscape (http://www.inkscape.org/) -->

<svg
   xmlns:dc="http://purl.org/dc/elements/1.1/"
   xmlns:cc="http://creativecommons.org/ns#"
   xmlns:rdf="http://www.w3.org/1999/02/22-rdf-syntax-ns#"
   xmlns:svg="http://www.w3.org/2000/svg"
   xmlns="http://www.w3.org/2000/svg"
   xmlns:sodipodi="http://sodipodi.sourceforge.net/DTD/sodipodi-0.dtd"
   xmlns:inkscape="http://www.inkscape.org/namespaces/inkscape"
   width="96"
   height="96"
   id="svg2"
   version="1.1"
   inkscape:version="0.48.3.1 r9886"
   sodipodi:docname="kalama.svg">
  <defs
     id="defs4" />
  <sodipodi:namedview
     id="base"
     pagecolor="#ffffff"
     bordercolor="#666666"
     borderopacity="1.0"
     inkscape:pageopacity="0.0"
     inkscape:pageshadow="2"
     inkscape:zoom="5.5416667"
     inkscape:cx="49.62406"
     inkscape:cy="46.195489"
     inkscape:document-units="px"
     inkscape:current-layer="layer1"
     showgrid="false"
     inkscape:window-width="992"
     inkscape:window-height="822"
     inkscape:window-x="0"
     inkscape:window-y="26"
     inkscape:window-maximized="0" />
  <metadata
     id="metadata7">
    <rdf:RDF>
      <cc:Work
         rdf:about="">
        <dc:format>image/svg+xml</dc:format>
        <dc:type
           rdf:resource="http://purl.org/dc/dcmitype/StillImage" />
        <dc:title />
      </cc:Work>
    </rdf:RDF>
  </metadata>
  <g
     inkscape:label="Calque 1"
     inkscape:groupmode="layer"
     id="layer1"
     transform="translate(0,-956.36218)">
    <g
       id="g3893"
       transform="matrix(0.96609599,0,0,0.96609599,1.21404,34.051895)">
      <g
         style="fill:#ffffff"
         transform="translate(96.875529,3.83424)"
         id="g3797">
        <path
           sodipodi:type="arc"
           style="fill:#ffffff;stroke:#000000;stroke-width:2.07018757;stroke-linecap:round;stroke-linejoin:miter;stroke-miterlimit:4;stroke-opacity:1;stroke-dasharray:none"
           id="path3780"
           sodipodi:cx="-57.236855"
           sodipodi:cy="99.327721"
           sodipodi:rx="9.317627"
           sodipodi:ry="14.508877"
           d="m -47.919228,99.327721 c 0,8.013029 -4.171643,14.508879 -9.317627,14.508879 -5.145983,0 -9.317627,-6.49585 -9.317627,-14.508879 0,-8.013032 4.171644,-14.508877 9.317627,-14.508877 5.145984,0 9.317627,6.495845 9.317627,14.508877 z"
           transform="translate(-3.460833,914.03353)" />
        <path
           transform="matrix(1.121287,0,0,1,22.611359,914.03353)"
           d="m -47.919228,99.327721 c 0,8.013029 -4.171643,14.508879 -9.317627,14.508879 -5.145983,0 -9.317627,-6.49585 -9.317627,-14.508879 0,-8.013032 4.171644,-14.508877 9.317627,-14.508877 5.145984,0 9.317627,6.495845 9.317627,14.508877 z"
           sodipodi:ry="14.508877"
           sodipodi:rx="9.317627"
           sodipodi:cy="99.327721"
           sodipodi:cx="-57.236855"
           id="path3782"
           style="fill:#ffffff;stroke:#000000;stroke-width:1.95502055;stroke-linecap:round;stroke-linejoin:miter;stroke-miterlimit:4;stroke-opacity:1;stroke-dasharray:none"
           sodipodi:type="arc" />
      </g>
      <g
         style="fill:#ffffff"
         id="g3888">
        <path
           style="fill:#ffffff;stroke:#000000;stroke-width:2.07018757;stroke-linecap:round;stroke-linejoin:miter;stroke-miterlimit:4;stroke-opacity:1;stroke-dasharray:none"
           d="m 27.55301,1016.2776 c -0.33294,6.5544 -0.44926,19.2171 -10.70994,14.4097 -1.5578,-0.7789 -6.15995,-5.8505 -6.23123,-16.357 0.25893,-25.08076 25.654396,-37.03308 45.468736,-37.3574 14.639398,0 31.452737,13.90067 30.085014,32.684 -0.406229,8.391 -4.091811,20.7751 -12.267749,20.6409 -11.058344,0.1154 -12.023894,-14.5344 -13.436105,-14.215 -1.412211,0.3195 -11.488844,1.1684 -14.993915,1.3631 -3.505071,0.1947 -16.990451,-2.0927 -17.914811,-1.1683 z"
           id="path3770"
           inkscape:connector-curvature="0"
           sodipodi:nodetypes="cccccczsc" />
        <path
           style="fill:none;stroke:#000000;stroke-width:2.07018757;stroke-linecap:round;stroke-linejoin:miter;stroke-miterlimit:4;stroke-opacity:1;stroke-dasharray:none"
           d="m 28.52951,1016.0506 c 0,0 -3.053307,0.1684 -4.981774,-0.8719 -1.893715,-1.0215 -3.297119,-2.1772 -3.297119,-2.1772"
           id="path3884"
           inkscape:connector-curvature="0"
           sodipodi:nodetypes="csc" />
        <path
           style="fill:none;stroke:#000000;stroke-width:2.07018757;stroke-linecap:round;stroke-linejoin:miter;stroke-miterlimit:4;stroke-opacity:1;stroke-dasharray:none"
           d="m 60.567204,1016.0797 c 0,0 3.021061,-0.9672 4.165421,-1.6237 1.14436,-0.6566 2.700789,-2.3154 2.700789,-2.3154"
           id="path3886"
           inkscape:connector-curvature="0"
           sodipodi:nodetypes="czc" />
      </g>
      <g
         style="fill:none"
         transform="translate(96.875529,3.83424)"
         id="g3801">
        <g
           style="fill:none"
           id="g3792">
          <g
             style="fill:none"
             id="g3843">
            <path
               sodipodi:nodetypes="cccc"
               transform="translate(0,956.36218)"
               inkscape:connector-curvature="0"
               id="path3774"
               d="m -70.971487,26.250913 c -1.227845,1.894845 -1.851273,4.627782 -1.661373,7.63144 2.298422,21.780774 47.598802,14.092261 48.019515,-2.867319 0.238886,-5.790009 -4.146464,-12.069764 -9.989607,-13.466181"
               style="fill:none;stroke:#000000;stroke-width:2.07018757;stroke-linecap:round;stroke-linejoin:miter;stroke-miterlimit:4;stroke-opacity:1;stroke-dasharray:none" />
            <path
               style="fill:none;stroke:#000000;stroke-width:2.07018757;stroke-linecap:round;stroke-linejoin:miter;stroke-miterlimit:4;stroke-opacity:1;stroke-dasharray:none"
               d="m -60.094511,26.85462 0.815394,10.437038"
               id="path3786"
               inkscape:connector-curvature="0"
               transform="translate(0,956.36218)" />
            <path
               style="fill:none;stroke:#000000;stroke-width:2.07018757;stroke-linecap:round;stroke-linejoin:miter;stroke-miterlimit:4;stroke-opacity:1;stroke-dasharray:none"
               d="m -48.679,27.180777 0.652315,10.110881"
               id="path3788"
               inkscape:connector-curvature="0"
               transform="translate(0,956.36218)" />
            <path
               style="fill:none;stroke:#000000;stroke-width:2.07018757;stroke-linecap:round;stroke-linejoin:miter;stroke-miterlimit:4;stroke-opacity:1;stroke-dasharray:none"
               d="m -38.241961,27.506935 0,9.947802"
               id="path3790"
               inkscape:connector-curvature="0"
               transform="translate(0,956.36218)" />
          </g>
        </g>
      </g>
    </g>
  </g>
</svg>
