<?xml version="1.0" encoding="UTF-8" standalone="no"?>
<!-- Created with Inkscape (http://www.inkscape.org/) -->

<svg
   xmlns:dc="http://purl.org/dc/elements/1.1/"
   xmlns:cc="http://creativecommons.org/ns#"
   xmlns:rdf="http://www.w3.org/1999/02/22-rdf-syntax-ns#"
   xmlns:svg="http://www.w3.org/2000/svg"
   xmlns="http://www.w3.org/2000/svg"
   xmlns:sodipodi="http://sodipodi.sourceforge.net/DTD/sodipodi-0.dtd"
   xmlns:inkscape="http://www.inkscape.org/namespaces/inkscape"
   width="96"
   height="96"
   id="svg2"
   version="1.1"
   inkscape:version="0.48.3.1 r9886"
   sodipodi:docname="kama.svg">
  <defs
     id="defs4" />
  <sodipodi:namedview
     id="base"
     pagecolor="#ffffff"
     bordercolor="#666666"
     borderopacity="1.0"
     inkscape:pageopacity="0.0"
     inkscape:pageshadow="2"
     inkscape:zoom="4.8645833"
     inkscape:cx="50.672377"
     inkscape:cy="48"
     inkscape:document-units="px"
     inkscape:current-layer="layer1"
     showgrid="false"
     inkscape:window-width="992"
     inkscape:window-height="822"
     inkscape:window-x="0"
     inkscape:window-y="26"
     inkscape:window-maximized="0" />
  <metadata
     id="metadata7">
    <rdf:RDF>
      <cc:Work
         rdf:about="">
        <dc:format>image/svg+xml</dc:format>
        <dc:type
           rdf:resource="http://purl.org/dc/dcmitype/StillImage" />
        <dc:title />
      </cc:Work>
    </rdf:RDF>
  </metadata>
  <g
     inkscape:label="Calque 1"
     inkscape:groupmode="layer"
     id="layer1"
     transform="translate(0,-956.36218)">
    <g
       id="g3808"
       transform="matrix(0.96879771,0,0,0.96879771,84.398068,30.039543)">
      <path
         sodipodi:nodetypes="cczccc"
         transform="translate(0,956.36218)"
         inkscape:connector-curvature="0"
         id="path3008"
         d="M -56.300752,75.969925 -62.43609,29.052632 c 14.400661,3.110099 25.843687,-6.908442 40.781955,-7.759398 C -6.7158673,20.442278 -1.3791155,34.402073 0,48.360903 0.36090225,53.413534 0.35643371,64.01839 -4.5112782,67.669173 -19.231461,78.45797 -38.510984,75.90241 -56.300752,75.969925 z"
         style="fill:#ffffff;stroke:#000000;stroke-width:2.0644145;stroke-linecap:round;stroke-linejoin:miter;stroke-miterlimit:4;stroke-opacity:1;stroke-dasharray:none" />
      <g
         id="g3790">
        <path
           style="fill:#ffffff;stroke:#000000;stroke-width:2.0644145;stroke-linecap:round;stroke-linejoin:miter;stroke-miterlimit:4;stroke-opacity:1;stroke-dasharray:none"
           d="m -58.285714,77.413534 c 0,0 -5.593985,0.721804 -10.466165,-9.203008 -4.362897,-8.710505 -11.823678,-31.320884 -0.721805,-38.796992 11.101873,-7.476108 9.812354,4.392419 18.225564,8.120301 9.002285,1.305104 31.473537,-12.770201 35.18797,-5.954887 8.6868035,17.999031 -20.773542,22.320563 -32.481203,26.706767 -0.406622,8.189743 -1.20829,19.114439 -9.744361,19.127819 z"
           id="path3010"
           inkscape:connector-curvature="0"
           transform="translate(0,956.36218)"
           sodipodi:nodetypes="cczcccc" />
        <path
           style="fill:none;stroke:#000000;stroke-width:2.0644145;stroke-linecap:round;stroke-linejoin:miter;stroke-miterlimit:4;stroke-opacity:1;stroke-dasharray:none"
           d="m -65.142857,38.616542 c -0.861174,13.512 1.107051,19.113449 7.93985,28.150375"
           id="path3012"
           inkscape:connector-curvature="0"
           transform="translate(0,956.36218)"
           sodipodi:nodetypes="cc" />
      </g>
      <g
         id="g3794">
        <path
           style="fill:none;stroke:#000000;stroke-width:2.0644145;stroke-linecap:round;stroke-linejoin:miter;stroke-miterlimit:4;stroke-opacity:1;stroke-dasharray:none"
           d="m -43.84966,63.049583 c 0,0 -0.0017,2.82848 1.371459,5.738385 1.258281,2.666438 4.511278,6.49624 4.511278,6.49624"
           id="path3782"
           inkscape:connector-curvature="0"
           transform="translate(0,956.36218)"
           sodipodi:nodetypes="csc" />
        <path
           style="fill:none;stroke:#000000;stroke-width:2.0644145;stroke-linecap:round;stroke-linejoin:miter;stroke-miterlimit:4;stroke-opacity:1;stroke-dasharray:none"
           d="m -36.018021,58.61052 c 0,0 1.154846,5.846593 2.562386,8.084211 1.732138,2.753643 6.207506,8.084176 6.207506,8.084176"
           id="path3784"
           inkscape:connector-curvature="0"
           transform="translate(0,956.36218)"
           sodipodi:nodetypes="csc" />
        <path
           sodipodi:type="arc"
           style="fill:none;stroke:#000000;stroke-width:2.0644145;stroke-linecap:round;stroke-linejoin:miter;stroke-miterlimit:4;stroke-opacity:1;stroke-dasharray:none"
           id="path3786"
           sodipodi:cx="-15.24812"
           sodipodi:cy="83.639099"
           sodipodi:rx="1.7142857"
           sodipodi:ry="1.7142857"
           d="m -13.533835,83.639099 c 0,0.946774 -0.767511,1.714286 -1.714285,1.714286 -0.946774,0 -1.714286,-0.767512 -1.714286,-1.714286 0,-0.946774 0.767512,-1.714286 1.714286,-1.714286 0.946774,0 1.714285,0.767512 1.714285,1.714286 z"
           transform="translate(-6.8571428,933.08398)" />
        <path
           transform="translate(3.2481203,927.30954)"
           d="m -13.533835,83.639099 c 0,0.946774 -0.767511,1.714286 -1.714285,1.714286 -0.946774,0 -1.714286,-0.767512 -1.714286,-1.714286 0,-0.946774 0.767512,-1.714286 1.714286,-1.714286 0.946774,0 1.714285,0.767512 1.714285,1.714286 z"
           sodipodi:ry="1.7142857"
           sodipodi:rx="1.7142857"
           sodipodi:cy="83.639099"
           sodipodi:cx="-15.24812"
           id="path3788"
           style="fill:none;stroke:#000000;stroke-width:2.0644145;stroke-linecap:round;stroke-linejoin:miter;stroke-miterlimit:4;stroke-opacity:1;stroke-dasharray:none"
           sodipodi:type="arc" />
      </g>
    </g>
  </g>
</svg>
