<?xml version="1.0" encoding="UTF-8" standalone="no"?>
<!-- Created with Inkscape (http://www.inkscape.org/) -->

<svg
   xmlns:dc="http://purl.org/dc/elements/1.1/"
   xmlns:cc="http://creativecommons.org/ns#"
   xmlns:rdf="http://www.w3.org/1999/02/22-rdf-syntax-ns#"
   xmlns:svg="http://www.w3.org/2000/svg"
   xmlns="http://www.w3.org/2000/svg"
   xmlns:sodipodi="http://sodipodi.sourceforge.net/DTD/sodipodi-0.dtd"
   xmlns:inkscape="http://www.inkscape.org/namespaces/inkscape"
   width="96"
   height="96"
   id="svg2"
   version="1.1"
   inkscape:version="0.48.3.1 r9886"
   sodipodi:docname="ken.svg">
  <defs
     id="defs4" />
  <sodipodi:namedview
     id="base"
     pagecolor="#ffffff"
     bordercolor="#666666"
     borderopacity="1.0"
     inkscape:pageopacity="0.0"
     inkscape:pageshadow="2"
     inkscape:zoom="6.1770833"
     inkscape:cx="48.647555"
     inkscape:cy="48"
     inkscape:document-units="px"
     inkscape:current-layer="layer1"
     showgrid="false"
     inkscape:window-width="992"
     inkscape:window-height="822"
     inkscape:window-x="0"
     inkscape:window-y="26"
     inkscape:window-maximized="0" />
  <metadata
     id="metadata7">
    <rdf:RDF>
      <cc:Work
         rdf:about="">
        <dc:format>image/svg+xml</dc:format>
        <dc:type
           rdf:resource="http://purl.org/dc/dcmitype/StillImage" />
        <dc:title />
      </cc:Work>
    </rdf:RDF>
  </metadata>
  <g
     inkscape:label="Calque 1"
     inkscape:groupmode="layer"
     id="layer1"
     transform="translate(0,-956.36218)">
    <g
       id="g3816"
       transform="matrix(0.99665742,0,0,0.99665742,0.99475505,6.718132)"
       style="fill:#ffffff">
      <path
         sodipodi:nodetypes="czzccccc"
         inkscape:connector-curvature="0"
         id="path3001"
         d="m 24.55746,1004.9501 c 0,0 -8.759006,-1.5613 -9.231977,-15.13934 -0.472971,-13.57808 7.640884,-25.44659 30.568421,-25.44659 22.927538,0 33.125805,16.00935 33.125805,39.79543 -3.455403,33.8592 -55.165556,46.9765 -60.95849,15.768 -0.459578,-6.1872 -0.06136,-10.8659 6.496241,-12.8121 l 4.908333,-1.0139 z"
         style="fill:#ffffff;stroke:#000000;stroke-width:2.00670767;stroke-linecap:round;stroke-linejoin:miter;stroke-miterlimit:4;stroke-opacity:1;stroke-dasharray:none" />
      <g
         transform="translate(98.389543,1.0788794)"
         id="g3789"
         style="fill:#ffffff">
        <g
           id="g3785"
           style="fill:#ffffff">
          <path
             sodipodi:nodetypes="csc"
             transform="translate(0,956.36218)"
             inkscape:connector-curvature="0"
             id="path3005"
             d="m -55.090231,28.298753 c 0,0 3.317077,5.949807 10.487056,5.575397 8.103949,-0.423182 10.088814,-7.168368 10.088814,-7.168368"
             style="fill:none;stroke:#000000;stroke-width:2.00670767;stroke-linecap:round;stroke-linejoin:miter;stroke-miterlimit:4;stroke-opacity:1;stroke-dasharray:none" />
          <path
             transform="translate(59.805184,958.79769)"
             d="m -104.45611,24.693819 c 0,0.523092 -0.42405,0.947141 -0.94714,0.947141 -0.52309,0 -0.94714,-0.424049 -0.94714,-0.947141 0,-0.523091 0.42405,-0.947141 0.94714,-0.947141 0.52309,0 0.94714,0.42405 0.94714,0.947141 z"
             sodipodi:ry="0.94714093"
             sodipodi:rx="0.94714093"
             sodipodi:cy="24.693819"
             sodipodi:cx="-105.40325"
             id="path3777"
             style="fill:none;stroke:#000000;stroke-width:2.00670767;stroke-linecap:round;stroke-linejoin:miter;stroke-miterlimit:4;stroke-opacity:1;stroke-dasharray:none"
             sodipodi:type="arc" />
        </g>
        <g
           id="g3781"
           style="fill:#ffffff">
          <path
             sodipodi:nodetypes="csc"
             transform="translate(0,956.36218)"
             inkscape:connector-curvature="0"
             id="path3007"
             d="m -44.072184,52.326058 c 0,0 3.971718,3.53627 7.964852,2.920446 4.966442,-0.765928 7.964853,-6.770125 7.964853,-6.770125"
             style="fill:none;stroke:#000000;stroke-width:2.00670767;stroke-linecap:round;stroke-linejoin:miter;stroke-miterlimit:4;stroke-opacity:1;stroke-dasharray:none" />
          <path
             sodipodi:type="arc"
             style="fill:none;stroke:#000000;stroke-width:2.00670767;stroke-linecap:round;stroke-linejoin:miter;stroke-miterlimit:4;stroke-opacity:1;stroke-dasharray:none"
             id="path3779"
             sodipodi:cx="-105.40325"
             sodipodi:cy="24.693819"
             sodipodi:rx="0.94714093"
             sodipodi:ry="0.94714093"
             d="m -104.45611,24.693819 c 0,0.523092 -0.42405,0.947141 -0.94714,0.947141 -0.52309,0 -0.94714,-0.424049 -0.94714,-0.947141 0,-0.523091 0.42405,-0.947141 0.94714,-0.947141 0.52309,0 0.94714,0.42405 0.94714,0.947141 z"
             transform="translate(68.464758,979.63479)" />
        </g>
      </g>
      <g
         transform="translate(99.625129,1.8511207)"
         id="g3809"
         style="fill:#ffffff">
        <path
           style="fill:none;stroke:#000000;stroke-width:2.00670767;stroke-linecap:round;stroke-linejoin:miter;stroke-miterlimit:4;stroke-opacity:1;stroke-dasharray:none"
           d="m -70.05329,47.914401 c 0,0 6.402947,-0.82953 10.045024,-5.342534 2.929585,-5.586463 0.238058,-12.619976 -4.764458,-15.76142"
           id="path3797"
           inkscape:connector-curvature="0"
           transform="translate(0,956.36218)"
           sodipodi:nodetypes="ccc" />
        <path
           style="fill:none;stroke:#000000;stroke-width:2.00670767;stroke-linecap:round;stroke-linejoin:miter;stroke-miterlimit:4;stroke-opacity:1;stroke-dasharray:none"
           d="m -69.988866,47.912193 c 6.198123,1.860028 19.136331,3.199566 19.222703,14.352157 0.08637,11.152591 -23.514846,11.866725 -23.514846,11.866725"
           id="path3799"
           inkscape:connector-curvature="0"
           transform="translate(0,956.36218)"
           sodipodi:nodetypes="czc" />
        <g
           id="g3805"
           style="fill:#ffffff">
          <path
             sodipodi:nodetypes="csc"
             inkscape:connector-curvature="0"
             id="path3801"
             d="m -81.640029,1015.6162 c 0,0 3.598987,-1.9542 8.177025,-2.301 3.544379,-0.2685 16.369954,0.2081 16.369954,0.2081"
             style="fill:none;stroke:#000000;stroke-width:2.00670767;stroke-linecap:round;stroke-linejoin:miter;stroke-miterlimit:4;stroke-opacity:1;stroke-dasharray:none" />
          <path
             sodipodi:nodetypes="csc"
             inkscape:connector-curvature="0"
             id="path3803"
             d="m -79.657255,1023.2285 c 0,0 0.07668,-0.6999 4.766609,-1.2024 3.884395,-0.4162 16.369954,-0.8324 16.369954,-0.8324"
             style="fill:none;stroke:#000000;stroke-width:2.00670767;stroke-linecap:round;stroke-linejoin:miter;stroke-miterlimit:4;stroke-opacity:1;stroke-dasharray:none" />
        </g>
      </g>
    </g>
  </g>
</svg>
