<?xml version="1.0" encoding="UTF-8" standalone="no"?>
<!-- Created with Inkscape (http://www.inkscape.org/) -->

<svg
   xmlns:dc="http://purl.org/dc/elements/1.1/"
   xmlns:cc="http://creativecommons.org/ns#"
   xmlns:rdf="http://www.w3.org/1999/02/22-rdf-syntax-ns#"
   xmlns:svg="http://www.w3.org/2000/svg"
   xmlns="http://www.w3.org/2000/svg"
   xmlns:sodipodi="http://sodipodi.sourceforge.net/DTD/sodipodi-0.dtd"
   xmlns:inkscape="http://www.inkscape.org/namespaces/inkscape"
   width="96"
   height="96"
   id="svg2"
   version="1.1"
   inkscape:version="0.48.3.1 r9886"
   sodipodi:docname="kin.svg">
  <defs
     id="defs4" />
  <sodipodi:namedview
     id="base"
     pagecolor="#ffffff"
     bordercolor="#666666"
     borderopacity="1.0"
     inkscape:pageopacity="0.0"
     inkscape:pageshadow="2"
     inkscape:zoom="6.1770833"
     inkscape:cx="54.961214"
     inkscape:cy="43.790894"
     inkscape:document-units="px"
     inkscape:current-layer="layer1"
     showgrid="false"
     inkscape:window-width="992"
     inkscape:window-height="822"
     inkscape:window-x="0"
     inkscape:window-y="26"
     inkscape:window-maximized="0" />
  <metadata
     id="metadata7">
    <rdf:RDF>
      <cc:Work
         rdf:about="">
        <dc:format>image/svg+xml</dc:format>
        <dc:type
           rdf:resource="http://purl.org/dc/dcmitype/StillImage" />
        <dc:title />
      </cc:Work>
    </rdf:RDF>
  </metadata>
  <g
     inkscape:label="Calque 1"
     inkscape:groupmode="layer"
     id="layer1"
     transform="translate(0,-956.36218)">
    <g
       id="g3784"
       transform="matrix(0.99993958,0,0,0.99993958,0.00290018,0.06068135)">
      <path
         sodipodi:nodetypes="zzzcz"
         inkscape:connector-curvature="0"
         id="rect3006"
         d="m 65.61775,978.70608 c 0,13.61051 4.924312,54.23162 -5.908538,59.65002 -10.83285,5.4184 -26.649943,0.7885 -29.015286,-2.031 -2.365343,-2.8195 -1.079448,-40.35212 -1.079448,-59.40228 3.800285,-12.86009 36.003272,-11.82724 36.003272,1.78326 z"
         style="fill:#ffffff;fill-opacity:1;stroke:#000000;stroke-width:2;stroke-linecap:round;stroke-linejoin:miter;stroke-miterlimit:4;stroke-opacity:1;stroke-dasharray:none" />
      <path
         sodipodi:nodetypes="czzzzzc"
         inkscape:connector-curvature="0"
         id="path3782"
         d="m 42.98603,978.36622 c 0,0 9.961301,6.74289 10.028398,8.56795 0.0671,1.82506 -10.019623,8.12348 -10.028398,9.93103 -0.0088,1.80756 10.028398,8.0651 10.028398,10.1257 0,2.0606 -10.132207,7.0522 -10.028398,8.7627 0.103809,1.7105 10.028398,5.405 10.028398,6.8154 0,1.4104 -10.028398,7.7891 -10.028398,7.7891"
         style="fill:none;stroke:#000000;stroke-width:2;stroke-linecap:round;stroke-linejoin:miter;stroke-miterlimit:4;stroke-opacity:1;stroke-dasharray:none" />
    </g>
  </g>
</svg>
