<?xml version="1.0" encoding="UTF-8" standalone="no"?>
<!-- Created with Inkscape (http://www.inkscape.org/) -->

<svg
   xmlns:dc="http://purl.org/dc/elements/1.1/"
   xmlns:cc="http://creativecommons.org/ns#"
   xmlns:rdf="http://www.w3.org/1999/02/22-rdf-syntax-ns#"
   xmlns:svg="http://www.w3.org/2000/svg"
   xmlns="http://www.w3.org/2000/svg"
   xmlns:sodipodi="http://sodipodi.sourceforge.net/DTD/sodipodi-0.dtd"
   xmlns:inkscape="http://www.inkscape.org/namespaces/inkscape"
   width="96"
   height="96"
   id="svg2"
   version="1.1"
   inkscape:version="0.48.3.1 r9886"
   sodipodi:docname="kon.svg">
  <defs
     id="defs4" />
  <sodipodi:namedview
     id="base"
     pagecolor="#ffffff"
     bordercolor="#666666"
     borderopacity="1.0"
     inkscape:pageopacity="0.0"
     inkscape:pageshadow="2"
     inkscape:zoom="5.8515048"
     inkscape:cx="50.310182"
     inkscape:cy="45.33763"
     inkscape:document-units="px"
     inkscape:current-layer="layer1"
     showgrid="false"
     inkscape:window-width="992"
     inkscape:window-height="822"
     inkscape:window-x="0"
     inkscape:window-y="26"
     inkscape:window-maximized="0" />
  <metadata
     id="metadata7">
    <rdf:RDF>
      <cc:Work
         rdf:about="">
        <dc:format>image/svg+xml</dc:format>
        <dc:type
           rdf:resource="http://purl.org/dc/dcmitype/StillImage" />
        <dc:title />
      </cc:Work>
    </rdf:RDF>
  </metadata>
  <g
     inkscape:label="Calque 1"
     inkscape:groupmode="layer"
     id="layer1"
     transform="translate(0,-956.36218)">
    <g
       id="g3794"
       style="fill:#ffffff"
       transform="matrix(0.99705347,0,0,0.99705347,80.944508,4.0767749)">
      <path
         sodipodi:nodetypes="cccccccc"
         inkscape:connector-curvature="0"
         id="path3002"
         d="M -28.43002,22.004057 C -11.576348,10.921374 4.7193746,22.233089 3.505071,39.918864 3.1156186,44.787019 1.5578093,52.965518 -0.77890466,59.391481 -10.278933,83.422223 -37.041579,78.167359 -45.565923,65.03854 c -7.917285,11.862797 -16.327122,12.108243 -21.225152,3.894523 -3.653562,-10.675907 -3.974044,-24.019981 0,-34.661257 8.522667,-16.593295 14.480739,-16.709452 24.398648,-6.888649 0,0 8.899527,-1.679303 13.962407,-5.3791 z"
         style="fill:#ffffff;stroke:#000000;stroke-width:2.0059104;stroke-linecap:round;stroke-linejoin:miter;stroke-miterlimit:4;stroke-opacity:1;stroke-dasharray:none"
         transform="translate(0,956.36218)" />
      <g
         id="g3787"
         style="fill:#ffffff">
        <path
           style="fill:none;stroke:#000000;stroke-width:2.0059104;stroke-linecap:round;stroke-linejoin:miter;stroke-miterlimit:4;stroke-opacity:1;stroke-dasharray:none"
           d="m -42.825308,27.269873 c 0,0 7.335006,8.542137 12.428324,8.535114 8.938681,-0.01233 12.327389,-7.491995 16.471272,-7.936158 3.126607,-0.335126 6.7382478,0.149738 7.486942,2.994776 0.5950343,10.94202 -6.676893,19.924437 -16.77075,20.963438 -5.240859,0.149739 -8.396179,0.296221 -12.586043,-0.643548 -4.189864,-0.939769 -10.566992,-4.851839 -12.120865,-4.896789 -1.101561,-0.03187 -1.497389,0.898433 -2.096344,1.796866 -0.598955,0.898433 -5.12716,9.77894 -5.690076,10.032502"
           id="path3004"
           inkscape:connector-curvature="0"
           transform="translate(0,956.36218)"
           sodipodi:nodetypes="csscczssc" />
        <g
           id="g3782"
           style="fill:#ffffff">
          <path
             transform="translate(-7.2723949,953.9576)"
             d="m -21.406645,66.822449 c 0,0.502054 -0.406996,0.909049 -0.90905,0.909049 -0.502054,0 -0.909049,-0.406995 -0.909049,-0.909049 0,-0.502054 0.406995,-0.90905 0.909049,-0.90905 0.502054,0 0.90905,0.406996 0.90905,0.90905 z"
             sodipodi:ry="0.90904933"
             sodipodi:rx="0.90904933"
             sodipodi:cy="66.822449"
             sodipodi:cx="-22.315695"
             id="path3776"
             style="fill:none;stroke:#000000;stroke-width:2.0059104;stroke-linecap:round;stroke-linejoin:miter;stroke-miterlimit:4;stroke-opacity:1;stroke-dasharray:none"
             sodipodi:type="arc" />
          <path
             sodipodi:type="arc"
             style="fill:none;stroke:#000000;stroke-width:2.0059104;stroke-linecap:round;stroke-linejoin:miter;stroke-miterlimit:4;stroke-opacity:1;stroke-dasharray:none"
             id="path3778"
             sodipodi:cx="-22.315695"
             sodipodi:cy="66.822449"
             sodipodi:rx="0.90904933"
             sodipodi:ry="0.90904933"
             d="m -21.406645,66.822449 c 0,0.502054 -0.406996,0.909049 -0.90905,0.909049 -0.502054,0 -0.909049,-0.406995 -0.909049,-0.909049 0,-0.502054 0.406995,-0.90905 0.909049,-0.90905 0.502054,0 0.90905,0.406996 0.90905,0.90905 z"
             transform="translate(3.3429557,951.78761)" />
          <path
             transform="translate(11.905614,945.62953)"
             d="m -21.406645,66.822449 c 0,0.502054 -0.406996,0.909049 -0.90905,0.909049 -0.502054,0 -0.909049,-0.406995 -0.909049,-0.909049 0,-0.502054 0.406995,-0.90905 0.909049,-0.90905 0.502054,0 0.90905,0.406996 0.90905,0.90905 z"
             sodipodi:ry="0.90904933"
             sodipodi:rx="0.90904933"
             sodipodi:cy="66.822449"
             sodipodi:cx="-22.315695"
             id="path3780"
             style="fill:none;stroke:#000000;stroke-width:2.0059104;stroke-linecap:round;stroke-linejoin:miter;stroke-miterlimit:4;stroke-opacity:1;stroke-dasharray:none"
             sodipodi:type="arc" />
        </g>
      </g>
    </g>
  </g>
</svg>
