<?xml version="1.0" encoding="UTF-8" standalone="no"?>
<!-- Created with Inkscape (http://www.inkscape.org/) -->

<svg
   xmlns:dc="http://purl.org/dc/elements/1.1/"
   xmlns:cc="http://creativecommons.org/ns#"
   xmlns:rdf="http://www.w3.org/1999/02/22-rdf-syntax-ns#"
   xmlns:svg="http://www.w3.org/2000/svg"
   xmlns="http://www.w3.org/2000/svg"
   xmlns:sodipodi="http://sodipodi.sourceforge.net/DTD/sodipodi-0.dtd"
   xmlns:inkscape="http://www.inkscape.org/namespaces/inkscape"
   width="96"
   height="96"
   id="svg2"
   version="1.1"
   inkscape:version="0.48.3.1 r9886"
   sodipodi:docname="kule.svg">
  <defs
     id="defs4" />
  <sodipodi:namedview
     id="base"
     pagecolor="#ffffff"
     bordercolor="#666666"
     borderopacity="1.0"
     inkscape:pageopacity="0.0"
     inkscape:pageshadow="2"
     inkscape:zoom="6.1770833"
     inkscape:cx="56.094435"
     inkscape:cy="47.676223"
     inkscape:document-units="px"
     inkscape:current-layer="layer1"
     showgrid="false"
     inkscape:window-width="992"
     inkscape:window-height="822"
     inkscape:window-x="0"
     inkscape:window-y="26"
     inkscape:window-maximized="0" />
  <metadata
     id="metadata7">
    <rdf:RDF>
      <cc:Work
         rdf:about="">
        <dc:format>image/svg+xml</dc:format>
        <dc:type
           rdf:resource="http://purl.org/dc/dcmitype/StillImage" />
        <dc:title />
      </cc:Work>
    </rdf:RDF>
  </metadata>
  <g
     inkscape:label="Calque 1"
     inkscape:groupmode="layer"
     id="layer1"
     transform="translate(0,-956.36218)">
    <g
       id="g3800"
       transform="matrix(1.0457086,0,0,1.0457086,-0.236596,-45.166744)">
      <g
         transform="translate(77.714881,-0.9924496)"
         id="g3825">
        <path
           style="fill:#ffffff;stroke:#000000;stroke-width:1.9125787;stroke-linecap:round;stroke-linejoin:miter;stroke-miterlimit:4;stroke-opacity:1;stroke-dasharray:none"
           d="m -66.367636,37.893895 c 1.612451,-14.65536 13.302641,-25.881845 28.810407,-26.59433 15.507766,-0.712485 41.6925576,7.29514 40.0356884,24.11587 -1.65686918,16.82073 -23.7240284,24.041589 -30.3073714,24.927946 -17.03373,1.207291 -40.151175,-7.794126 -38.538724,-22.449486 z"
           id="path3812"
           inkscape:connector-curvature="0"
           transform="translate(0,956.36218)"
           sodipodi:nodetypes="zzzcz" />
        <g
           id="g3820">
          <path
             transform="translate(0,956.36218)"
             inkscape:connector-curvature="0"
             id="path3814"
             d="m -55.727025,23.331959 18.278464,22.29081"
             style="fill:none;stroke:#000000;stroke-width:1.9125787;stroke-linecap:round;stroke-linejoin:miter;stroke-miterlimit:4;stroke-opacity:1;stroke-dasharray:none" />
          <path
             transform="translate(0,956.36218)"
             inkscape:connector-curvature="0"
             id="path3816"
             d="m -29.869686,43.616596 -0.891632,-26.97188"
             style="fill:none;stroke:#000000;stroke-width:1.9125787;stroke-linecap:round;stroke-linejoin:miter;stroke-miterlimit:4;stroke-opacity:1;stroke-dasharray:none" />
          <path
             transform="translate(0,956.36218)"
             inkscape:connector-curvature="0"
             id="path3818"
             d="M -23.628259,45.622769 -4.6810701,25.338132"
             style="fill:none;stroke:#000000;stroke-width:1.9125787;stroke-linecap:round;stroke-linejoin:miter;stroke-miterlimit:4;stroke-opacity:1;stroke-dasharray:none" />
        </g>
      </g>
      <path
         sodipodi:nodetypes="ccccscszc"
         inkscape:connector-curvature="0"
         id="path3012-9"
         d="m 48.603963,1040.6809 c 0,0 -26.093298,-1.7525 -30.961458,-11.6835 -6.9496,-10.4 0.602972,-27.5898 12.736721,-27.6513 5.06288,0.1948 9.15212,4.8682 9.15212,4.8682 0,0 3.6998,-5.0629 8.1785,-5.0629 4.478703,0 7.983774,4.4787 7.983774,4.4787 0,0 4.212388,-5.4219 10.515213,-5.647 5.452333,-0.1948 10.94581,0.8018 14.152174,12.7682 3.206364,11.9663 -5.639342,27.9823 -31.757044,27.9296 z"
         style="fill:#ffffff;stroke:#000000;stroke-width:1.9125787;stroke-linecap:round;stroke-linejoin:miter;stroke-miterlimit:4;stroke-opacity:1;stroke-dasharray:none" />
    </g>
  </g>
</svg>
