<?xml version="1.0" encoding="UTF-8" standalone="no"?>
<!-- Created with Inkscape (http://www.inkscape.org/) -->

<svg
   xmlns:dc="http://purl.org/dc/elements/1.1/"
   xmlns:cc="http://creativecommons.org/ns#"
   xmlns:rdf="http://www.w3.org/1999/02/22-rdf-syntax-ns#"
   xmlns:svg="http://www.w3.org/2000/svg"
   xmlns="http://www.w3.org/2000/svg"
   xmlns:sodipodi="http://sodipodi.sourceforge.net/DTD/sodipodi-0.dtd"
   xmlns:inkscape="http://www.inkscape.org/namespaces/inkscape"
   width="96"
   height="96"
   id="svg2"
   version="1.1"
   inkscape:version="0.48.3.1 r9886"
   sodipodi:docname="la.svg">
  <defs
     id="defs4" />
  <sodipodi:namedview
     id="base"
     pagecolor="#ffffff"
     bordercolor="#666666"
     borderopacity="1.0"
     inkscape:pageopacity="0.0"
     inkscape:pageshadow="2"
     inkscape:zoom="5.1354167"
     inkscape:cx="48"
     inkscape:cy="48"
     inkscape:document-units="px"
     inkscape:current-layer="layer1"
     showgrid="false"
     inkscape:window-width="992"
     inkscape:window-height="822"
     inkscape:window-x="0"
     inkscape:window-y="26"
     inkscape:window-maximized="0" />
  <metadata
     id="metadata7">
    <rdf:RDF>
      <cc:Work
         rdf:about="">
        <dc:format>image/svg+xml</dc:format>
        <dc:type
           rdf:resource="http://purl.org/dc/dcmitype/StillImage" />
        <dc:title />
      </cc:Work>
    </rdf:RDF>
  </metadata>
  <g
     inkscape:label="Calque 1"
     inkscape:groupmode="layer"
     id="layer1"
     transform="translate(0,-956.36218)">
    <g
       id="g3813"
       transform="matrix(0.96464911,0,0,0.96464911,1.6968427,36.014983)">
      <g
         id="g3801">
        <path
           sodipodi:type="arc"
           style="fill:#ffffff;stroke:#000000;stroke-width:2.15988421;stroke-linecap:round;stroke-linejoin:miter;stroke-miterlimit:4;stroke-opacity:1;stroke-dasharray:none"
           id="path3010"
           sodipodi:cx="-66.69371"
           sodipodi:cy="49.849899"
           sodipodi:rx="32.811359"
           sodipodi:ry="18.693712"
           d="m -33.882351,49.849899 c 0,10.324252 -14.690146,18.693713 -32.811359,18.693713 -18.121214,0 -32.81136,-8.369461 -32.81136,-18.693713 0,-10.324252 14.690146,-18.693712 32.81136,-18.693712 18.121213,0 32.811359,8.36946 32.811359,18.693712 z"
           transform="matrix(1.000204,0,0,0.9212378,114.70732,961.67732)" />
        <g
           id="g3796">
          <path
             transform="matrix(0.96505939,0,0,0.96505939,116.17106,997.19771)"
             d="m -78.474642,9.8220282 c 0,6.1773658 -3.094956,11.1851108 -6.912779,11.1851108 -3.817822,0 -6.912779,-5.007745 -6.912779,-11.1851108 0,-6.1773663 3.094957,-11.1851111 6.912779,-11.1851111 3.817823,0 6.912779,5.0077448 6.912779,11.1851111 z"
             sodipodi:ry="11.185111"
             sodipodi:rx="6.9127789"
             sodipodi:cy="9.8220282"
             sodipodi:cx="-85.387421"
             id="path3004"
             style="fill:none;stroke:#000000;stroke-width:2.14835763;stroke-linecap:round;stroke-linejoin:miter;stroke-miterlimit:4;stroke-opacity:1;stroke-dasharray:none"
             sodipodi:type="arc" />
          <path
             sodipodi:type="arc"
             style="fill:none;stroke:#000000;stroke-width:2.14835763;stroke-linecap:round;stroke-linejoin:miter;stroke-miterlimit:4;stroke-opacity:1;stroke-dasharray:none"
             id="path3006"
             sodipodi:cx="-85.387421"
             sodipodi:cy="9.8220282"
             sodipodi:rx="6.9127789"
             sodipodi:ry="11.185111"
             d="m -78.474642,9.8220282 c 0,6.1773658 -3.094956,11.1851108 -6.912779,11.1851108 -3.817822,0 -6.912779,-5.007745 -6.912779,-11.1851108 0,-6.1773663 3.094957,-11.1851111 6.912779,-11.1851111 3.817823,0 6.912779,5.0077448 6.912779,11.1851111 z"
             transform="matrix(0.96505939,0,0,0.96505939,128.94978,996.63394)" />
          <path
             transform="matrix(0.96505939,0,0,0.96505939,142.34316,996.2581)"
             d="m -78.474642,9.8220282 c 0,6.1773658 -3.094956,11.1851108 -6.912779,11.1851108 -3.817822,0 -6.912779,-5.007745 -6.912779,-11.1851108 0,-6.1773663 3.094957,-11.1851111 6.912779,-11.1851111 3.817823,0 6.912779,5.0077448 6.912779,11.1851111 z"
             sodipodi:ry="11.185111"
             sodipodi:rx="6.9127789"
             sodipodi:cy="9.8220282"
             sodipodi:cx="-85.387421"
             id="path3008"
             style="fill:none;stroke:#000000;stroke-width:2.14835763;stroke-linecap:round;stroke-linejoin:miter;stroke-miterlimit:4;stroke-opacity:1;stroke-dasharray:none"
             sodipodi:type="arc" />
        </g>
      </g>
      <g
         id="g3808">
        <path
           style="fill:#ffffff;stroke:#000000;stroke-width:2.07329273;stroke-linecap:butt;stroke-linejoin:round;stroke-miterlimit:4;stroke-opacity:1;stroke-dasharray:none"
           d="m 75.1643,1023.8348 c 6.284166,0.3525 10.709939,-5.998 10.709939,-15.5781 0,-9.58017 -9.050402,-25.41177 -38.166328,-25.41177 -29.115926,0 -37.58215,16.7142 -37.58215,25.41177 0,8.6976 2.290645,15.4071 7.983773,15.5781 5.693127,0.171 7.983773,-15.0913 7.983773,-15.0913 l 40.697768,-0.7789 c 0,0 2.08906,15.5176 8.373225,15.8702 z"
           id="path3005"
           inkscape:connector-curvature="0"
           sodipodi:nodetypes="zzzzzccz" />
        <path
           style="fill:none;stroke:#000000;stroke-width:2.07329273;stroke-linecap:round;stroke-linejoin:miter;stroke-miterlimit:4;stroke-opacity:1;stroke-dasharray:none"
           d="m 27.4325,1008.7469 -7.141048,0"
           id="path3000"
           inkscape:connector-curvature="0"
           sodipodi:nodetypes="cc" />
        <path
           style="fill:none;stroke:#000000;stroke-width:2.07329273;stroke-linecap:round;stroke-linejoin:miter;stroke-miterlimit:4;stroke-opacity:1;stroke-dasharray:none"
           d="m 66.643383,1007.9763 c 0,0 6.054192,-0.4342 6.993803,-0.4342"
           id="path3003"
           inkscape:connector-curvature="0"
           sodipodi:nodetypes="cc" />
      </g>
    </g>
  </g>
</svg>
