<?xml version="1.0" encoding="UTF-8" standalone="no"?>
<!-- Created with Inkscape (http://www.inkscape.org/) -->

<svg
   xmlns:dc="http://purl.org/dc/elements/1.1/"
   xmlns:cc="http://creativecommons.org/ns#"
   xmlns:rdf="http://www.w3.org/1999/02/22-rdf-syntax-ns#"
   xmlns:svg="http://www.w3.org/2000/svg"
   xmlns="http://www.w3.org/2000/svg"
   xmlns:sodipodi="http://sodipodi.sourceforge.net/DTD/sodipodi-0.dtd"
   xmlns:inkscape="http://www.inkscape.org/namespaces/inkscape"
   width="96"
   height="96"
   id="svg2"
   version="1.1"
   inkscape:version="0.48.3.1 r9886"
   sodipodi:docname="luka.svg">
  <defs
     id="defs4" />
  <sodipodi:namedview
     id="base"
     pagecolor="#ffffff"
     bordercolor="#666666"
     borderopacity="1.0"
     inkscape:pageopacity="0.0"
     inkscape:pageshadow="2"
     inkscape:zoom="5.1354167"
     inkscape:cx="48"
     inkscape:cy="48"
     inkscape:document-units="px"
     inkscape:current-layer="layer1"
     showgrid="false"
     inkscape:window-width="992"
     inkscape:window-height="822"
     inkscape:window-x="0"
     inkscape:window-y="26"
     inkscape:window-maximized="0" />
  <metadata
     id="metadata7">
    <rdf:RDF>
      <cc:Work
         rdf:about="">
        <dc:format>image/svg+xml</dc:format>
        <dc:type
           rdf:resource="http://purl.org/dc/dcmitype/StillImage" />
        <dc:title />
      </cc:Work>
    </rdf:RDF>
  </metadata>
  <g
     inkscape:label="Calque 1"
     inkscape:groupmode="layer"
     id="layer1"
     transform="translate(0,-956.36218)">
    <g
       id="g3823"
       transform="matrix(1.0317331,0,0,1.0317331,94.73021,-29.506906)">
      <g
         id="g3817">
        <path
           sodipodi:type="arc"
           style="fill:#ffffff;stroke:#000000;stroke-width:1.37220383;stroke-linecap:round;stroke-linejoin:miter;stroke-miterlimit:4;stroke-opacity:1;stroke-dasharray:none;stroke-dashoffset:0"
           id="path3809"
           sodipodi:cx="-22.53352"
           sodipodi:cy="84.326004"
           sodipodi:rx="11.782588"
           sodipodi:ry="4.2895136"
           d="m -10.750932,84.326004 c 0,2.369033 -5.275244,4.289514 -11.782588,4.289514 -6.507343,0 -11.782588,-1.920481 -11.782588,-4.289514 0,-2.369033 5.275245,-4.289514 11.782588,-4.289514 6.507344,0 11.782588,1.920481 11.782588,4.289514 z"
           transform="matrix(1.0944889,0,0,1.8233778,2.0665956,871.32541)" />
        <path
           transform="matrix(1.082247,0,0,1.3947099,2.3880166,892.49464)"
           d="m -10.750932,84.326004 c 0,2.369033 -5.275244,4.289514 -11.782588,4.289514 -6.507343,0 -11.782588,-1.920481 -11.782588,-4.289514 0,-2.369033 5.275245,-4.289514 11.782588,-4.289514 6.507344,0 11.782588,1.920481 11.782588,4.289514 z"
           sodipodi:ry="4.2895136"
           sodipodi:rx="11.782588"
           sodipodi:cy="84.326004"
           sodipodi:cx="-22.53352"
           id="path3811"
           style="fill:#ffffff;stroke:#000000;stroke-width:1.57782018;stroke-linecap:round;stroke-linejoin:miter;stroke-miterlimit:4;stroke-opacity:1;stroke-dasharray:none;stroke-dashoffset:0"
           sodipodi:type="arc" />
        <path
           sodipodi:type="arc"
           style="fill:#ffffff;stroke:#000000;stroke-width:1.37977016;stroke-linecap:round;stroke-linejoin:miter;stroke-miterlimit:4;stroke-opacity:1;stroke-dasharray:none;stroke-dashoffset:0"
           id="path3813"
           sodipodi:cx="-22.53352"
           sodipodi:cy="84.326004"
           sodipodi:rx="11.782588"
           sodipodi:ry="4.2895136"
           d="m -10.750932,84.326004 c 0,2.369033 -5.275244,4.289514 -11.782588,4.289514 -6.507343,0 -11.782588,-1.920481 -11.782588,-4.289514 0,-2.369033 5.275245,-4.289514 11.782588,-4.289514 6.507344,0 11.782588,1.920481 11.782588,4.289514 z"
           transform="matrix(1.082247,0,0,1.8238343,3.69116,841.26634)" />
        <path
           transform="matrix(1.082247,0,0,1.778586,3.2567789,828.76957)"
           d="m -10.750932,84.326004 c 0,2.369033 -5.275244,4.289514 -11.782588,4.289514 -6.507343,0 -11.782588,-1.920481 -11.782588,-4.289514 0,-2.369033 5.275245,-4.289514 11.782588,-4.289514 6.507344,0 11.782588,1.920481 11.782588,4.289514 z"
           sodipodi:ry="4.2895136"
           sodipodi:rx="11.782588"
           sodipodi:cy="84.326004"
           sodipodi:cx="-22.53352"
           id="path3815"
           style="fill:#ffffff;stroke:#000000;stroke-width:1.39721107;stroke-linecap:round;stroke-linejoin:miter;stroke-miterlimit:4;stroke-opacity:1;stroke-dasharray:none;stroke-dashoffset:0"
           sodipodi:type="arc" />
      </g>
      <g
         id="g3801">
        <g
           id="g3793">
          <path
             sodipodi:nodetypes="zcccz"
             inkscape:connector-curvature="0"
             id="path3784"
             d="m -29.900567,973.4579 c 9.653962,10.57741 7.769293,38.3846 3.151137,51.532 -5.031932,15.4564 -44.436711,16.1852 -52.154845,3.9086 -2.390279,-16.1722 -2.755502,-32.67677 -3.737571,-49.00367 5.524363,-15.32373 43.087317,-17.01434 52.741279,-6.43693 z"
             style="fill:#ffffff;stroke:#000000;stroke-width:1.93848586;stroke-linecap:round;stroke-linejoin:miter;stroke-miterlimit:4;stroke-opacity:1;stroke-dasharray:none" />
          <path
             sodipodi:nodetypes="cc"
             inkscape:connector-curvature="0"
             id="path3772"
             d="m -62.497768,968.47523 c 0.144521,23.45857 0.03266,44.89977 2.338355,67.92607"
             style="fill:none;stroke:#000000;stroke-width:1.93848586;stroke-linecap:round;stroke-linejoin:miter;stroke-miterlimit:4;stroke-opacity:1;stroke-dasharray:none" />
        </g>
        <g
           id="g3797">
          <path
             sodipodi:nodetypes="cccc"
             transform="translate(0,956.36218)"
             inkscape:connector-curvature="0"
             id="path3774"
             d="m -81.960585,33.446217 c 9.047806,3.959661 32.315758,-4.91563 31.474362,7.096436 -1.754578,10.41399 -19.168119,8.703964 -30.635608,7.429798 z"
             style="fill:#ffffff;stroke:#000000;stroke-width:1.93848586;stroke-linecap:round;stroke-linejoin:miter;stroke-miterlimit:4;stroke-opacity:1;stroke-dasharray:none" />
          <path
             transform="translate(0,956.36218)"
             inkscape:connector-curvature="0"
             id="path3770"
             d="m -81.754671,40.354605 c 0,0 6.860156,1.804073 10.93973,1.967255 4.079574,0.163183 9.298842,-1.795012 9.298842,-1.795012"
             style="fill:none;stroke:#000000;stroke-width:1.93848586;stroke-linecap:round;stroke-linejoin:miter;stroke-miterlimit:4;stroke-opacity:1;stroke-dasharray:none"
             sodipodi:nodetypes="csc" />
        </g>
      </g>
    </g>
  </g>
</svg>
