<?xml version="1.0" encoding="UTF-8" standalone="no"?>
<!-- Created with Inkscape (http://www.inkscape.org/) -->

<svg
   xmlns:dc="http://purl.org/dc/elements/1.1/"
   xmlns:cc="http://creativecommons.org/ns#"
   xmlns:rdf="http://www.w3.org/1999/02/22-rdf-syntax-ns#"
   xmlns:svg="http://www.w3.org/2000/svg"
   xmlns="http://www.w3.org/2000/svg"
   xmlns:sodipodi="http://sodipodi.sourceforge.net/DTD/sodipodi-0.dtd"
   xmlns:inkscape="http://www.inkscape.org/namespaces/inkscape"
   width="96"
   height="96"
   id="svg2"
   version="1.1"
   inkscape:version="0.48.3.1 r9886"
   sodipodi:docname="ma.svg">
  <defs
     id="defs4" />
  <sodipodi:namedview
     id="base"
     pagecolor="#ffffff"
     bordercolor="#666666"
     borderopacity="1.0"
     inkscape:pageopacity="0.0"
     inkscape:pageshadow="2"
     inkscape:zoom="5.1354167"
     inkscape:cx="48"
     inkscape:cy="48"
     inkscape:document-units="px"
     inkscape:current-layer="layer1"
     showgrid="false"
     inkscape:window-width="992"
     inkscape:window-height="822"
     inkscape:window-x="0"
     inkscape:window-y="26"
     inkscape:window-maximized="0"
     showguides="true"
     inkscape:guide-bbox="true" />
  <metadata
     id="metadata7">
    <rdf:RDF>
      <cc:Work
         rdf:about="">
        <dc:format>image/svg+xml</dc:format>
        <dc:type
           rdf:resource="http://purl.org/dc/dcmitype/StillImage" />
        <dc:title />
      </cc:Work>
    </rdf:RDF>
  </metadata>
  <g
     inkscape:label="Calque 1"
     inkscape:groupmode="layer"
     id="layer1"
     transform="translate(0,-956.36218)">
    <g
       id="g3793"
       transform="matrix(0.9847506,0,0,0.9847506,95.867903,13.692758)">
      <path
         transform="translate(0,956.36218)"
         sodipodi:nodetypes="zzzzzz"
         inkscape:connector-curvature="0"
         id="path2998"
         d="m -38.436253,80.564221 c 14.630157,-7.626729 23.45866,-14.51779 26.428798,-36.676576 2.9701384,-22.158786 -8.182523,-35.2877795 -24.855432,-23.894836 -16.672909,11.392944 -25.224074,18.126532 -39.384453,20.05245 -14.160379,1.925918 -10.339683,28.650198 -1.921193,35.662142 8.41849,7.011944 25.102123,12.483549 39.73228,4.85682 z"
         style="fill:#ffffff;stroke:#000000;stroke-width:2.03097105;stroke-linecap:round;stroke-linejoin:miter;stroke-miterlimit:4;stroke-opacity:1;stroke-dasharray:none" />
      <g
         id="g3782">
        <path
           style="fill:none;stroke:#000000;stroke-width:2.03097105;stroke-linecap:round;stroke-linejoin:miter;stroke-miterlimit:4;stroke-opacity:1;stroke-dasharray:none"
           d="m -64.11981,69.34345 c 18.933354,-7.263886 29.698662,-11.235888 36.982962,-28.937967"
           id="path3000"
           inkscape:connector-curvature="0"
           transform="translate(0,956.36218)"
           sodipodi:nodetypes="cc" />
        <path
           sodipodi:type="arc"
           style="fill:none;stroke:#000000;stroke-width:2.03097105;stroke-linecap:round;stroke-linejoin:miter;stroke-miterlimit:4;stroke-opacity:1;stroke-dasharray:none;stroke-dashoffset:0"
           id="path3770"
           sodipodi:cx="-24.375134"
           sodipodi:cy="52.052715"
           sodipodi:rx="0.48029819"
           sodipodi:ry="0.48029819"
           d="m -23.894835,52.052715 c 0,0.265262 -0.215037,0.480298 -0.480299,0.480298 -0.265261,0 -0.480298,-0.215036 -0.480298,-0.480298 0,-0.265261 0.215037,-0.480298 0.480298,-0.480298 0.265262,0 0.480299,0.215037 0.480299,0.480298 z"
           transform="translate(-0.36022365,952.63987)" />
        <path
           transform="translate(-8.7654423,967.16889)"
           d="m -23.894835,52.052715 c 0,0.265262 -0.215037,0.480298 -0.480299,0.480298 -0.265261,0 -0.480298,-0.215036 -0.480298,-0.480298 0,-0.265261 0.215037,-0.480298 0.480298,-0.480298 0.265262,0 0.480299,0.215037 0.480299,0.480298 z"
           sodipodi:ry="0.48029819"
           sodipodi:rx="0.48029819"
           sodipodi:cy="52.052715"
           sodipodi:cx="-24.375134"
           id="path3772"
           style="fill:none;stroke:#000000;stroke-width:2.03097105;stroke-linecap:round;stroke-linejoin:miter;stroke-miterlimit:4;stroke-opacity:1;stroke-dasharray:none;stroke-dashoffset:0"
           sodipodi:type="arc" />
        <path
           sodipodi:type="arc"
           style="fill:none;stroke:#000000;stroke-width:2.03097105;stroke-linecap:round;stroke-linejoin:miter;stroke-miterlimit:4;stroke-opacity:1;stroke-dasharray:none;stroke-dashoffset:0"
           id="path3774"
           sodipodi:cx="-24.375134"
           sodipodi:cy="52.052715"
           sodipodi:rx="0.48029819"
           sodipodi:ry="0.48029819"
           d="m -23.894835,52.052715 c 0,0.265262 -0.215037,0.480298 -0.480299,0.480298 -0.265261,0 -0.480298,-0.215036 -0.480298,-0.480298 0,-0.265261 0.215037,-0.480298 0.480298,-0.480298 0.265262,0 0.480299,0.215037 0.480299,0.480298 z"
           transform="translate(-18.851705,972.69232)" />
        <path
           transform="translate(-28.577744,975.81426)"
           d="m -23.894835,52.052715 c 0,0.265262 -0.215037,0.480298 -0.480299,0.480298 -0.265261,0 -0.480298,-0.215036 -0.480298,-0.480298 0,-0.265261 0.215037,-0.480298 0.480298,-0.480298 0.265262,0 0.480299,0.215037 0.480299,0.480298 z"
           sodipodi:ry="0.48029819"
           sodipodi:rx="0.48029819"
           sodipodi:cy="52.052715"
           sodipodi:cx="-24.375134"
           id="path3776"
           style="fill:none;stroke:#000000;stroke-width:2.03097105;stroke-linecap:round;stroke-linejoin:miter;stroke-miterlimit:4;stroke-opacity:1;stroke-dasharray:none;stroke-dashoffset:0"
           sodipodi:type="arc" />
      </g>
      <g
         id="g3789">
        <path
           sodipodi:type="arc"
           style="fill:none;stroke:#000000;stroke-width:1.77019286;stroke-linecap:round;stroke-linejoin:miter;stroke-miterlimit:4;stroke-opacity:1;stroke-dasharray:none;stroke-dashoffset:0"
           id="path3778"
           sodipodi:cx="-61.598244"
           sodipodi:cy="45.508652"
           sodipodi:rx="12.487753"
           sodipodi:ry="6.6372952"
           d="m -49.110491,45.508652 c 0,3.665677 -5.590957,6.637295 -12.487753,6.637295 -6.896795,0 -12.487753,-2.971618 -12.487753,-6.637295 0,-3.665677 5.590958,-6.637296 12.487753,-6.637296 6.896796,0 12.487753,2.971619 12.487753,6.637296 z"
           transform="matrix(1.0742481,0,0,1.2253544,3.6463597,946.47443)" />
        <path
           style="fill:#ffffff;stroke:#000000;stroke-width:2.03097105;stroke-linecap:round;stroke-linejoin:miter;stroke-miterlimit:4;stroke-opacity:1;stroke-dasharray:none"
           d="m -68.027691,38.48161 c 0,0 -1.990035,5.890321 -0.110614,8.184487 1.879421,2.294165 7.037462,2.842962 9.955272,0.663685 2.91781,-2.179277 0.980181,-8.848172 0.980181,-8.848172 4.771248,-3.71933 14.320876,-10.630718 11.127148,-18.790001 -3.193727,-8.159283 -11.121969,-0.933674 -11.775487,2.971222 -1.598756,-11.467497 -5.935598,-8.605127 -9.844658,-0.553071 -3.666108,-5.856224 -9.907753,-4.29503 -10.04069,2.061113 -0.132938,6.356144 4.574103,8.493526 9.708848,14.310737 z"
           id="path3780"
           inkscape:connector-curvature="0"
           sodipodi:nodetypes="czzczcczc"
           transform="translate(0,956.36218)" />
      </g>
    </g>
  </g>
</svg>
