<?xml version="1.0" encoding="UTF-8" standalone="no"?>
<!-- Created with Inkscape (http://www.inkscape.org/) -->

<svg
   xmlns:dc="http://purl.org/dc/elements/1.1/"
   xmlns:cc="http://creativecommons.org/ns#"
   xmlns:rdf="http://www.w3.org/1999/02/22-rdf-syntax-ns#"
   xmlns:svg="http://www.w3.org/2000/svg"
   xmlns="http://www.w3.org/2000/svg"
   xmlns:sodipodi="http://sodipodi.sourceforge.net/DTD/sodipodi-0.dtd"
   xmlns:inkscape="http://www.inkscape.org/namespaces/inkscape"
   width="96"
   height="96"
   id="svg2"
   version="1.1"
   inkscape:version="0.48.3.1 r9886"
   sodipodi:docname="mute.svg">
  <defs
     id="defs4" />
  <sodipodi:namedview
     id="base"
     pagecolor="#ffffff"
     bordercolor="#666666"
     borderopacity="1.0"
     inkscape:pageopacity="0.0"
     inkscape:pageshadow="2"
     inkscape:zoom="5.1354167"
     inkscape:cx="52.478702"
     inkscape:cy="52.478702"
     inkscape:document-units="px"
     inkscape:current-layer="layer1"
     showgrid="false"
     inkscape:window-width="992"
     inkscape:window-height="822"
     inkscape:window-x="0"
     inkscape:window-y="26"
     inkscape:window-maximized="0" />
  <metadata
     id="metadata7">
    <rdf:RDF>
      <cc:Work
         rdf:about="">
        <dc:format>image/svg+xml</dc:format>
        <dc:type
           rdf:resource="http://purl.org/dc/dcmitype/StillImage" />
        <dc:title />
      </cc:Work>
    </rdf:RDF>
  </metadata>
  <g
     inkscape:label="Calque 1"
     inkscape:groupmode="layer"
     id="layer1"
     transform="translate(0,-956.36218)">
    <g
       id="g3783"
       transform="matrix(0.97079807,0,0,0.97079807,101.83203,31.594768)">
      <g
         id="g3778">
        <path
           sodipodi:type="arc"
           style="fill:#ffffff;stroke:#000000;stroke-width:1.64469767;stroke-linecap:round;stroke-linejoin:miter;stroke-miterlimit:4;stroke-opacity:1;stroke-dasharray:none;stroke-dashoffset:0"
           id="path3008"
           sodipodi:cx="-66.596352"
           sodipodi:cy="53.062881"
           sodipodi:rx="8.5679512"
           sodipodi:ry="18.985802"
           d="m -58.0284,53.062881 c 0,10.485569 -3.836003,18.985802 -8.567952,18.985802 -4.731948,0 -8.567951,-8.500233 -8.567951,-18.985802 0,-10.485568 3.836003,-18.985801 8.567951,-18.985801 4.731949,0 8.567952,8.500233 8.567952,18.985801 z"
           transform="matrix(1.5690257,0,0,1,58.697663,956.36218)" />
        <path
           transform="matrix(1.4621283,0,0,1,38.589769,956.94636)"
           d="m -58.0284,53.062881 c 0,10.485569 -3.836003,18.985802 -8.567952,18.985802 -4.731948,0 -8.567951,-8.500233 -8.567951,-18.985802 0,-10.485568 3.836003,-18.985801 8.567951,-18.985801 4.731949,0 8.567952,8.500233 8.567952,18.985801 z"
           sodipodi:ry="18.985802"
           sodipodi:rx="8.5679512"
           sodipodi:cy="53.062881"
           sodipodi:cx="-66.596352"
           id="path3006"
           style="fill:#ffffff;stroke:#000000;stroke-width:1.70375979;stroke-linecap:round;stroke-linejoin:miter;stroke-miterlimit:4;stroke-opacity:1;stroke-dasharray:none;stroke-dashoffset:0"
           sodipodi:type="arc" />
        <path
           sodipodi:type="arc"
           style="fill:#ffffff;stroke:#000000;stroke-width:1.86431122;stroke-linecap:round;stroke-linejoin:miter;stroke-miterlimit:4;stroke-opacity:1;stroke-dasharray:none;stroke-dashoffset:0"
           id="path3004"
           sodipodi:cx="-66.596352"
           sodipodi:cy="53.062881"
           sodipodi:rx="8.5679512"
           sodipodi:ry="18.985802"
           d="m -58.0284,53.062881 c 0,10.485569 -3.836003,18.985802 -8.567952,18.985802 -4.731948,0 -8.567951,-8.500233 -8.567951,-18.985802 0,-10.485568 3.836003,-18.985801 8.567951,-18.985801 4.731949,0 8.567952,8.500233 8.567952,18.985801 z"
           transform="matrix(1.2211398,0,0,1,11.364214,958.11471)" />
      </g>
      <path
         sodipodi:nodetypes="ccczcccc"
         inkscape:connector-curvature="0"
         id="path3002"
         d="m -67.764705,47.513185 c 1.857494,31.45667 -25.403934,37.399173 -25.314402,13.046653 4.08244,-32.934893 14.936323,-44.374518 46.344827,-44.787018 14.254608,-0.320668 28.077313,9.316198 28.819472,17.720081 0.742159,8.403883 -3.260848,13.888663 -3.699796,20.056795 -0.37647,7.998719 4.454139,19.787615 -7.789047,20.446248 -17.686522,-3.01543 -1.256748,-8.990877 -4.283975,-30.182556 -6.563472,2.531925 -34.077079,3.699797 -34.077079,3.699797 z"
         style="fill:#ffffff;stroke:#000000;stroke-width:2.06016064;stroke-linecap:round;stroke-linejoin:miter;stroke-miterlimit:4;stroke-opacity:1;stroke-dasharray:none"
         transform="translate(0,956.36218)" />
    </g>
  </g>
</svg>
