<?xml version="1.0" encoding="UTF-8" standalone="no"?>
<!-- Created with Inkscape (http://www.inkscape.org/) -->

<svg
   xmlns:dc="http://purl.org/dc/elements/1.1/"
   xmlns:cc="http://creativecommons.org/ns#"
   xmlns:rdf="http://www.w3.org/1999/02/22-rdf-syntax-ns#"
   xmlns:svg="http://www.w3.org/2000/svg"
   xmlns="http://www.w3.org/2000/svg"
   xmlns:sodipodi="http://sodipodi.sourceforge.net/DTD/sodipodi-0.dtd"
   xmlns:inkscape="http://www.inkscape.org/namespaces/inkscape"
   width="96"
   height="96"
   id="svg2"
   version="1.1"
   inkscape:version="0.48.3.1 r9886"
   sodipodi:docname="ni.svg">
  <defs
     id="defs4" />
  <sodipodi:namedview
     id="base"
     pagecolor="#ffffff"
     bordercolor="#666666"
     borderopacity="1.0"
     inkscape:pageopacity="0.0"
     inkscape:pageshadow="2"
     inkscape:zoom="4.8645833"
     inkscape:cx="53.961456"
     inkscape:cy="48.82227"
     inkscape:document-units="px"
     inkscape:current-layer="layer1"
     showgrid="false"
     inkscape:window-width="992"
     inkscape:window-height="822"
     inkscape:window-x="0"
     inkscape:window-y="26"
     inkscape:window-maximized="0" />
  <metadata
     id="metadata7">
    <rdf:RDF>
      <cc:Work
         rdf:about="">
        <dc:format>image/svg+xml</dc:format>
        <dc:type
           rdf:resource="http://purl.org/dc/dcmitype/StillImage" />
        <dc:title />
      </cc:Work>
    </rdf:RDF>
  </metadata>
  <g
     inkscape:label="Calque 1"
     inkscape:groupmode="layer"
     id="layer1"
     transform="translate(0,-956.36218)">
    <g
       id="g3794"
       transform="matrix(1.0528315,0,0,1.0528315,94.901414,-50.466855)"
       style="fill:#ffffff">
      <path
         sodipodi:nodetypes="czccccc"
         transform="translate(0,956.36218)"
         inkscape:connector-curvature="0"
         id="path3002"
         d="m -9.9310344,46.929006 c 0,-10.692517 0.4175186,-35.763226 -13.2413786,-37.9716018 C -36.83131,6.7490279 -55.925007,16.717829 -65.814054,36.2233 c 0,0 -2.552446,0.03577 -5.109759,1.268643 -8.238767,4.637756 -3.018364,11.629336 -4.226478,15.734636 -11.692184,27.678185 3.828367,27.825238 24.91094,29.142589 35.721286,0.883944 40.3212547,-10.963271 40.3083166,-35.440162 z"
         style="fill:#ffffff;stroke:#000000;stroke-width:1.89963925;stroke-linecap:round;stroke-linejoin:miter;stroke-miterlimit:4;stroke-opacity:1;stroke-dasharray:none" />
      <g
         id="g3784"
         style="fill:#ffffff">
        <path
           sodipodi:type="arc"
           style="fill:none;stroke:#000000;stroke-width:2.21287322;stroke-linecap:round;stroke-linejoin:miter;stroke-miterlimit:4;stroke-opacity:1;stroke-dasharray:none;stroke-dashoffset:0"
           id="path3004"
           sodipodi:cx="-33.017414"
           sodipodi:cy="63.581543"
           sodipodi:rx="10.107371"
           sodipodi:ry="10.107371"
           d="m -22.910043,63.581543 c 0,5.582147 -4.525224,10.107371 -10.107371,10.107371 -5.582147,0 -10.107371,-4.525224 -10.107371,-10.107371 0,-5.582147 4.525224,-10.107371 10.107371,-10.107371 5.582147,0 10.107371,4.525224 10.107371,10.107371 z"
           transform="matrix(0.85844915,0,0,0.85844915,-8.4919833,963.78994)" />
        <path
           transform="matrix(0.54838539,0,0,0.54838539,-7.1995961,962.3911)"
           d="m -22.910043,63.581543 c 0,5.582147 -4.525224,10.107371 -10.107371,10.107371 -5.582147,0 -10.107371,-4.525224 -10.107371,-10.107371 0,-5.582147 4.525224,-10.107371 10.107371,-10.107371 5.582147,0 10.107371,4.525224 10.107371,10.107371 z"
           sodipodi:ry="10.107371"
           sodipodi:rx="10.107371"
           sodipodi:cy="63.581543"
           sodipodi:cx="-33.017414"
           id="path3774"
           style="fill:none;stroke:#000000;stroke-width:3.46405864;stroke-linecap:round;stroke-linejoin:miter;stroke-miterlimit:4;stroke-opacity:1;stroke-dasharray:none;stroke-dashoffset:0"
           sodipodi:type="arc" />
      </g>
      <g
         id="g3788"
         style="fill:#ffffff">
        <path
           style="fill:none;stroke:#000000;stroke-width:1.89963925;stroke-linecap:round;stroke-linejoin:miter;stroke-miterlimit:4;stroke-opacity:1;stroke-dasharray:none"
           d="M -30.846201,25.023791 C -42.775395,38.650025 -51.110857,52.725476 -61.243185,66.800927"
           id="path3776"
           inkscape:connector-curvature="0"
           transform="translate(0,956.36218)"
           sodipodi:nodetypes="cc" />
        <path
           style="fill:none;stroke:#000000;stroke-width:1.89963925;stroke-linecap:round;stroke-linejoin:miter;stroke-miterlimit:4;stroke-opacity:1;stroke-dasharray:none"
           d="m -59.451409,64.126694 c 0,0 -9.679077,-4.527401 -15.225592,-11.742815"
           id="path3778"
           inkscape:connector-curvature="0"
           transform="translate(0,956.36218)"
           sodipodi:nodetypes="cc" />
        <path
           style="fill:none;stroke:#000000;stroke-width:1.89963925;stroke-linecap:round;stroke-linejoin:miter;stroke-miterlimit:4;stroke-opacity:1;stroke-dasharray:none"
           d="m -65.711913,36.221648 c 7.270637,2.229892 11.583389,6.001081 18.174222,10.412288"
           id="path3780"
           inkscape:connector-curvature="0"
           transform="translate(0,956.36218)"
           sodipodi:nodetypes="cc" />
        <path
           style="fill:none;stroke:#000000;stroke-width:1.89963925;stroke-linecap:round;stroke-linejoin:miter;stroke-miterlimit:4;stroke-opacity:1;stroke-dasharray:none"
           d="m -43.424263,40.896107 c 0,0 -13.24292,-8.476025 -8.201809,-16.098581 5.04111,-7.622555 17.211361,2.921564 17.211361,2.921564"
           id="path3782"
           inkscape:connector-curvature="0"
           transform="translate(0,956.36218)"
           sodipodi:nodetypes="czc" />
      </g>
    </g>
  </g>
</svg>
