<?xml version="1.0" encoding="UTF-8" standalone="no"?>
<!-- Created with Inkscape (http://www.inkscape.org/) -->

<svg
   xmlns:dc="http://purl.org/dc/elements/1.1/"
   xmlns:cc="http://creativecommons.org/ns#"
   xmlns:rdf="http://www.w3.org/1999/02/22-rdf-syntax-ns#"
   xmlns:svg="http://www.w3.org/2000/svg"
   xmlns="http://www.w3.org/2000/svg"
   xmlns:sodipodi="http://sodipodi.sourceforge.net/DTD/sodipodi-0.dtd"
   xmlns:inkscape="http://www.inkscape.org/namespaces/inkscape"
   width="96"
   height="96"
   id="svg2"
   version="1.1"
   inkscape:version="0.48.3.1 r9886"
   sodipodi:docname="ona.svg">
  <defs
     id="defs4" />
  <sodipodi:namedview
     id="base"
     pagecolor="#ffffff"
     bordercolor="#666666"
     borderopacity="1.0"
     inkscape:pageopacity="0.0"
     inkscape:pageshadow="2"
     inkscape:zoom="5.1354167"
     inkscape:cx="46.052738"
     inkscape:cy="50.141988"
     inkscape:document-units="px"
     inkscape:current-layer="layer1"
     showgrid="false"
     inkscape:window-width="992"
     inkscape:window-height="822"
     inkscape:window-x="0"
     inkscape:window-y="26"
     inkscape:window-maximized="0" />
  <metadata
     id="metadata7">
    <rdf:RDF>
      <cc:Work
         rdf:about="">
        <dc:format>image/svg+xml</dc:format>
        <dc:type
           rdf:resource="http://purl.org/dc/dcmitype/StillImage" />
        <dc:title />
      </cc:Work>
    </rdf:RDF>
  </metadata>
  <g
     inkscape:label="Calque 1"
     inkscape:groupmode="layer"
     id="layer1"
     transform="translate(0,-956.36218)">
    <g
       id="g3814"
       transform="matrix(0.97816669,0,0,0.97816669,100.67407,22.024964)">
      <path
         transform="translate(0,956.36218)"
         sodipodi:nodetypes="czzzc"
         inkscape:connector-curvature="0"
         id="path3008"
         d="m -55.107505,76.527384 c -25.718884,0.374749 -34.978861,-8.373251 -36.024341,-24.340771 -1.04548,-15.96752 12.870946,-33.487578 37.58215,-32.908722 24.711204,0.578856 37.849675,9.553441 36.997972,28.235294 -0.851704,18.681854 -12.836896,28.639449 -38.555781,29.014199 z"
         style="fill:#ffffff;stroke:#000000;stroke-width:2.04464126;stroke-linecap:round;stroke-linejoin:miter;stroke-miterlimit:4;stroke-opacity:1;stroke-dasharray:none" />
      <g
         id="g3803">
        <path
           sodipodi:type="arc"
           style="fill:none;stroke:#000000;stroke-width:2.12418628;stroke-linecap:round;stroke-linejoin:miter;stroke-miterlimit:4;stroke-opacity:1;stroke-dasharray:none;stroke-dashoffset:0"
           id="path3004"
           sodipodi:cx="-55.010143"
           sodipodi:cy="49.460445"
           sodipodi:rx="25.411764"
           sodipodi:ry="13.046653"
           d="m -29.598379,49.460445 c 0,7.205468 -11.377234,13.046653 -25.411764,13.046653 -14.03453,0 -25.411764,-5.841185 -25.411764,-13.046653 0,-7.205467 11.377234,-13.046652 25.411764,-13.046652 14.03453,0 25.411764,5.841185 25.411764,13.046652 z"
           transform="matrix(0.92650778,0,0,1,-2.6264091,956.36218)" />
        <g
           id="g3793">
          <g
             id="g3798">
            <path
               sodipodi:open="true"
               sodipodi:end="9.7220769"
               sodipodi:start="5.9802904"
               transform="matrix(0.8808082,0,0,-1,2.7622865,1072.718)"
               d="m -58.123338,54.442247 c 0.980225,5.248384 -0.767869,10.832667 -3.904478,12.472845 -3.136608,1.640178 -6.473961,-1.284851 -7.454185,-6.533235 -0.357775,-1.91562 -0.361206,-3.967444 -0.0098,-5.886385"
               sodipodi:ry="9.9562798"
               sodipodi:rx="5.9502029"
               sodipodi:cy="57.412052"
               sodipodi:cx="-63.80267"
               id="path3784"
               style="fill:none;stroke:#000000;stroke-width:2.17859483;stroke-linecap:round;stroke-linejoin:miter;stroke-miterlimit:4;stroke-opacity:1;stroke-dasharray:none;stroke-dashoffset:0"
               sodipodi:type="arc" />
            <path
               transform="matrix(0.99572263,0,0,1.2264314,-0.13351979,944.87829)"
               style="fill:none;stroke:#000000;stroke-width:1.85023248;stroke-linecap:round;stroke-linejoin:miter;stroke-miterlimit:4;stroke-opacity:1;stroke-dasharray:none;stroke-dashoffset:0"
               d="m -59.035786,57.604196 c -0.248095,1.360417 1.674401,3.968388 -10.717086,-0.192144 0,-5.498701 4.202311,-10.532712 7.488517,-10.532712 3.286207,0 3.228569,5.226155 3.228569,10.724856 z"
               id="path3786"
               inkscape:connector-curvature="0"
               sodipodi:nodetypes="ccsc" />
            <path
               sodipodi:open="true"
               sodipodi:end="9.875826"
               sodipodi:start="6.1976367"
               sodipodi:type="arc"
               style="fill:none;stroke:#000000;stroke-width:2.08643055;stroke-linecap:round;stroke-linejoin:miter;stroke-miterlimit:4;stroke-opacity:1;stroke-dasharray:none;stroke-dashoffset:0"
               id="path3782"
               sodipodi:cx="-63.80267"
               sodipodi:cy="57.412052"
               sodipodi:rx="5.9502029"
               sodipodi:ry="9.9562798"
               d="m -57.874227,56.561345 c 0.280788,5.478592 -2.145843,10.300744 -5.420032,10.770576 -3.274188,0.469833 -6.156066,-3.590569 -6.436853,-9.069162 -0.09149,-1.785043 0.10658,-3.578319 0.573315,-5.190739"
               transform="matrix(0.96034307,0,0,-1,18.796568,1071.3041)" />
          </g>
        </g>
        <g
           id="g3789">
          <path
             sodipodi:nodetypes="csc"
             transform="translate(0,956.36218)"
             inkscape:connector-curvature="0"
             id="path3778"
             d="m -59.961416,19.940458 c 0,0 3.607073,5.502995 3.607073,8.343436 0,2.840441 0,7.761767 0,7.761767"
             style="fill:none;stroke:#000000;stroke-width:2.04464126;stroke-linecap:round;stroke-linejoin:miter;stroke-miterlimit:4;stroke-opacity:1;stroke-dasharray:none" />
          <path
             sodipodi:nodetypes="cc"
             inkscape:connector-curvature="0"
             id="path3780"
             d="m -49.480477,976.11235 0,16.59216"
             style="fill:none;stroke:#000000;stroke-width:2.04464126;stroke-linecap:round;stroke-linejoin:miter;stroke-miterlimit:4;stroke-opacity:1;stroke-dasharray:none" />
        </g>
      </g>
    </g>
  </g>
</svg>
