<?xml version="1.0" encoding="UTF-8" standalone="no"?>
<!-- Created with Inkscape (http://www.inkscape.org/) -->

<svg
   xmlns:dc="http://purl.org/dc/elements/1.1/"
   xmlns:cc="http://creativecommons.org/ns#"
   xmlns:rdf="http://www.w3.org/1999/02/22-rdf-syntax-ns#"
   xmlns:svg="http://www.w3.org/2000/svg"
   xmlns="http://www.w3.org/2000/svg"
   xmlns:sodipodi="http://sodipodi.sourceforge.net/DTD/sodipodi-0.dtd"
   xmlns:inkscape="http://www.inkscape.org/namespaces/inkscape"
   width="96"
   height="96"
   id="svg2"
   version="1.1"
   inkscape:version="0.48.3.1 r9886"
   sodipodi:docname="pini.svg">
  <defs
     id="defs4" />
  <sodipodi:namedview
     id="base"
     pagecolor="#ffffff"
     bordercolor="#666666"
     borderopacity="1.0"
     inkscape:pageopacity="0.0"
     inkscape:pageshadow="2"
     inkscape:zoom="5.5416667"
     inkscape:cx="48"
     inkscape:cy="48"
     inkscape:document-units="px"
     inkscape:current-layer="layer1"
     showgrid="false"
     inkscape:window-width="992"
     inkscape:window-height="822"
     inkscape:window-x="0"
     inkscape:window-y="26"
     inkscape:window-maximized="0"
     showguides="true"
     inkscape:guide-bbox="true" />
  <metadata
     id="metadata7">
    <rdf:RDF>
      <cc:Work
         rdf:about="">
        <dc:format>image/svg+xml</dc:format>
        <dc:type
           rdf:resource="http://purl.org/dc/dcmitype/StillImage" />
        <dc:title />
      </cc:Work>
    </rdf:RDF>
  </metadata>
  <g
     inkscape:label="Calque 1"
     inkscape:groupmode="layer"
     id="layer1"
     transform="translate(0,-956.36218)">
    <g
       id="g3799"
       transform="matrix(1.0307241,0,0,1.0307241,99.05494,-25.962057)">
      <g
         id="g3811">
        <g
           id="g3791">
          <g
             id="g3783"
             transform="translate(0,-2.4868154)">
            <path
               style="fill:#ffffff;stroke:#000000;stroke-width:1.94038343;stroke-linecap:round;stroke-linejoin:miter;stroke-miterlimit:4;stroke-opacity:1;stroke-dasharray:none"
               d="m -59.39148,68.933063 c -5.218108,6.925292 -22.977688,7.010142 -22.977688,7.010142 0,0 -2.770828,-5.225334 -2.53144,-16.551724 0.239388,-11.32639 6.036511,-16.941176 6.036511,-16.941176 l 20.251521,-1.168357 c 0,0 4.439204,20.725823 -0.778904,27.651115 z"
               id="path3771"
               inkscape:connector-curvature="0"
               transform="translate(0,956.36218)"
               sodipodi:nodetypes="zczccz" />
            <path
               style="fill:none;stroke:#000000;stroke-width:1.94038343;stroke-linecap:round;stroke-linejoin:miter;stroke-miterlimit:4;stroke-opacity:1;stroke-dasharray:none"
               d="M -77.890466,64.649087 -64.843813,49.655173"
               id="path3775"
               inkscape:connector-curvature="0"
               transform="translate(0,956.36218)"
               sodipodi:nodetypes="cc" />
          </g>
          <g
             id="g5920"
             transform="matrix(-1,0,0,1,-99.766879,-2.4868154)">
            <path
               sodipodi:nodetypes="zczccz"
               transform="translate(0,956.36218)"
               inkscape:connector-curvature="0"
               id="path5922"
               d="m -59.39148,68.933063 c -5.218108,6.925292 -22.977688,7.010142 -22.977688,7.010142 0,0 -2.770828,-5.225334 -2.53144,-16.551724 0.239388,-11.32639 6.036511,-16.941176 6.036511,-16.941176 l 20.251521,-1.168357 c 0,0 4.439204,20.725823 -0.778904,27.651115 z"
               style="fill:#ffffff;stroke:#000000;stroke-width:1.94038343;stroke-linecap:round;stroke-linejoin:miter;stroke-miterlimit:4;stroke-opacity:1;stroke-dasharray:none" />
            <path
               sodipodi:nodetypes="cc"
               inkscape:connector-curvature="0"
               id="path5924"
               d="M -77.890466,64.649087 -64.843813,49.655173"
               style="fill:none;stroke:#000000;stroke-width:1.94038343;stroke-linecap:round;stroke-linejoin:miter;stroke-miterlimit:4;stroke-opacity:1;stroke-dasharray:none"
               transform="translate(0,956.36218)" />
          </g>
        </g>
        <g
           id="g3787">
          <path
             sodipodi:nodetypes="zcczczccz"
             transform="translate(0,956.36218)"
             inkscape:connector-curvature="0"
             id="path2999"
             d="m -49.26572,72.048682 c -18.683317,0 -16.551724,-24.438134 -16.551724,-24.438134 0,0 -17.521089,0.726202 -17.72008,-17.03854 -0.198991,-4.718088 4.243444,-17.766214 18.304258,-17.525354 14.060814,0.24086 15.77282,17.525354 15.77282,17.525354 0,0 -2.299396,-17.521188 15.188641,-17.525354 17.488037,-0.0042 20.640973,12.982766 20.056795,17.525354 0,13.305266 -21.419878,17.03854 -21.419878,17.03854 0,0 5.052485,24.438134 -13.630832,24.438134 z"
             style="fill:#ffffff;stroke:#000000;stroke-width:1.94038343;stroke-linecap:round;stroke-linejoin:miter;stroke-miterlimit:4;stroke-opacity:1;stroke-dasharray:none" />
          <path
             sodipodi:nodetypes="cc"
             inkscape:connector-curvature="0"
             id="path3769"
             d="m -62.117646,987.71309 c 9.563414,-1.06128 16.253023,-1.603 23.561866,0.19473"
             style="fill:none;stroke:#000000;stroke-width:1.94038343;stroke-linecap:round;stroke-linejoin:miter;stroke-miterlimit:4;stroke-opacity:1;stroke-dasharray:none" />
        </g>
      </g>
    </g>
  </g>
</svg>
