<?xml version="1.0" encoding="UTF-8" standalone="no"?>
<!-- Created with Inkscape (http://www.inkscape.org/) -->

<svg
   xmlns:dc="http://purl.org/dc/elements/1.1/"
   xmlns:cc="http://creativecommons.org/ns#"
   xmlns:rdf="http://www.w3.org/1999/02/22-rdf-syntax-ns#"
   xmlns:svg="http://www.w3.org/2000/svg"
   xmlns="http://www.w3.org/2000/svg"
   xmlns:sodipodi="http://sodipodi.sourceforge.net/DTD/sodipodi-0.dtd"
   xmlns:inkscape="http://www.inkscape.org/namespaces/inkscape"
   width="96"
   height="96"
   id="svg2"
   version="1.1"
   inkscape:version="0.48.3.1 r9886"
   sodipodi:docname="supa.svg">
  <defs
     id="defs4" />
  <sodipodi:namedview
     id="base"
     pagecolor="#ffffff"
     bordercolor="#666666"
     borderopacity="1.0"
     inkscape:pageopacity="0.0"
     inkscape:pageshadow="2"
     inkscape:zoom="6.1770833"
     inkscape:cx="49.780776"
     inkscape:cy="47.190556"
     inkscape:document-units="px"
     inkscape:current-layer="layer1"
     showgrid="false"
     inkscape:window-width="992"
     inkscape:window-height="822"
     inkscape:window-x="0"
     inkscape:window-y="26"
     inkscape:window-maximized="0" />
  <metadata
     id="metadata7">
    <rdf:RDF>
      <cc:Work
         rdf:about="">
        <dc:format>image/svg+xml</dc:format>
        <dc:type
           rdf:resource="http://purl.org/dc/dcmitype/StillImage" />
        <dc:title />
      </cc:Work>
    </rdf:RDF>
  </metadata>
  <g
     inkscape:label="Calque 1"
     inkscape:groupmode="layer"
     id="layer1"
     transform="translate(0,-956.36218)">
    <g
       id="g3799"
       transform="matrix(0.97102917,0,0,0.97102917,88.787598,29.192703)">
      <g
         id="g3020"
         style="fill:#ffffff">
        <g
           id="g3016"
           style="fill:#ffffff">
          <path
             sodipodi:nodetypes="zzzczzzcz"
             transform="translate(0,956.36218)"
             inkscape:connector-curvature="0"
             id="path3004"
             d="m -9.1521298,70.490833 c -0.1437794,10.267078 -11.9748092,13.241419 -34.2718052,13.241419 -22.296996,0 -33.376081,-2.942258 -33.376081,-14.33191 0,-11.389653 8.451132,-15.461194 8.451132,-15.461194 -9.802664,-0.194726 -12.62816,-9.651518 -10.709939,-20.640973 1.918221,-10.989455 23.931956,-21.391444 39.334685,-21.225152 15.402729,0.166292 33.0906214,9.707194 35.05071,20.835699 1.9600886,11.128505 -6.448751,23.277144 -14.443861,22.933541 0,0 10.1089386,4.381492 9.9651592,14.64857 z"
             style="fill:#ffffff;stroke:#000000;stroke-width:2.05967045;stroke-linecap:round;stroke-linejoin:miter;stroke-miterlimit:4;stroke-opacity:1;stroke-dasharray:none" />
          <path
             sodipodi:nodetypes="cc"
             transform="translate(0,956.36218)"
             inkscape:connector-curvature="0"
             id="path3006"
             d="m -25.703854,69.517242 c -13.692196,-2.564723 -26.070905,-1.332922 -39.529411,0"
             style="fill:#ffffff;stroke:#000000;stroke-width:2.05967045;stroke-linecap:round;stroke-linejoin:miter;stroke-miterlimit:4;stroke-opacity:1;stroke-dasharray:none" />
        </g>
        <g
           id="g3012"
           style="fill:#ffffff"
           transform="translate(-3.64e-4,-6e-5)">
          <path
             transform="translate(0,956.36218)"
             inkscape:connector-curvature="0"
             id="path3008"
             d="M -36.413793,38.361055 -52.770791,52.186613"
             style="fill:#ffffff;stroke:#000000;stroke-width:2.05967045;stroke-linecap:round;stroke-linejoin:miter;stroke-miterlimit:4;stroke-opacity:1;stroke-dasharray:none" />
          <path
             transform="translate(0,956.36218)"
             inkscape:connector-curvature="0"
             id="path3010"
             d="m -52.770791,37.58215 18.693712,15.967546"
             style="fill:#ffffff;stroke:#000000;stroke-width:2.05967045;stroke-linecap:round;stroke-linejoin:miter;stroke-miterlimit:4;stroke-opacity:1;stroke-dasharray:none" />
        </g>
      </g>
      <path
         sodipodi:nodetypes="czcczscc"
         inkscape:connector-curvature="0"
         id="path3797"
         d="m -68.918279,54.044208 c 0,0 7.319058,-3.388138 8.62506,-8.262204 1.306002,-4.874065 0.787939,-9.520944 0.787939,-9.520944 l 30.531505,0 c 0,0 0.806517,6.303213 1.348157,9.058446 0.54164,2.755233 1.610715,5.989577 3.478414,7.933123 2.155614,2.243154 5.22197,2.676487 5.22197,2.676487 -12.105838,-3.714606 -35.31423,-2.195024 -49.993045,-1.884908 z"
         style="fill:none;stroke:#000000;stroke-width:2.05967045;stroke-linecap:round;stroke-linejoin:miter;stroke-miterlimit:4;stroke-opacity:1;stroke-dasharray:none"
         transform="translate(0,956.36218)" />
    </g>
  </g>
</svg>
