<?xml version="1.0" encoding="UTF-8" standalone="no"?>
<!-- Created with Inkscape (http://www.inkscape.org/) -->

<svg
   xmlns:dc="http://purl.org/dc/elements/1.1/"
   xmlns:cc="http://creativecommons.org/ns#"
   xmlns:rdf="http://www.w3.org/1999/02/22-rdf-syntax-ns#"
   xmlns:svg="http://www.w3.org/2000/svg"
   xmlns="http://www.w3.org/2000/svg"
   xmlns:sodipodi="http://sodipodi.sourceforge.net/DTD/sodipodi-0.dtd"
   xmlns:inkscape="http://www.inkscape.org/namespaces/inkscape"
   width="96"
   height="96"
   id="svg2"
   version="1.1"
   inkscape:version="0.48.3.1 r9886"
   sodipodi:docname="tu.svg">
  <defs
     id="defs4" />
  <sodipodi:namedview
     id="base"
     pagecolor="#ffffff"
     bordercolor="#666666"
     borderopacity="1.0"
     inkscape:pageopacity="0.0"
     inkscape:pageshadow="2"
     inkscape:zoom="5.1354167"
     inkscape:cx="62.020284"
     inkscape:cy="43.910751"
     inkscape:document-units="px"
     inkscape:current-layer="layer1"
     showgrid="false"
     inkscape:window-width="992"
     inkscape:window-height="822"
     inkscape:window-x="0"
     inkscape:window-y="26"
     inkscape:window-maximized="0" />
  <metadata
     id="metadata7">
    <rdf:RDF>
      <cc:Work
         rdf:about="">
        <dc:format>image/svg+xml</dc:format>
        <dc:type
           rdf:resource="http://purl.org/dc/dcmitype/StillImage" />
        <dc:title />
      </cc:Work>
    </rdf:RDF>
  </metadata>
  <g
     inkscape:label="Calque 1"
     inkscape:groupmode="layer"
     id="layer1"
     transform="translate(0,-956.36218)">
    <g
       id="g3774"
       style="fill:#ffffff"
       transform="matrix(0.99412035,0,0,0.99412035,96.762988,7.2450759)">
      <path
         sodipodi:nodetypes="zczczcsz"
         transform="translate(0,956.36218)"
         inkscape:connector-curvature="0"
         id="path3002"
         d="m -45.955375,9.9310351 c 17.321226,-0.09032 22.901639,11.4271599 9.346856,25.1196749 0,0 11.294118,1.992729 11.294118,7.594321 0,5.601591 -8.1785,10.904665 -8.1785,10.904665 0,0 11.407547,6.421962 9.736309,14.21501 -1.671238,7.793048 -12.719606,16.187214 -25.509128,15.578093 -20.231621,-0.572845 -25.247679,-6.170578 -25.247679,-31.543669 0,-26.181607 11.236799,-41.777775 28.558024,-41.8680949 z"
         style="fill:#ffffff;stroke:#000000;stroke-width:2.0118289;stroke-linecap:butt;stroke-linejoin:miter;stroke-miterlimit:4;stroke-opacity:1;stroke-dasharray:none" />
      <path
         sodipodi:nodetypes="cccc"
         transform="translate(0,956.36218)"
         inkscape:connector-curvature="0"
         id="path3004"
         d="m -60.785163,60.192629 c 31.276285,-1.930886 13.357732,22.898093 0,8.545708 l 0,-43.229209 c 21.708856,-10.234954 22.142454,16.991732 0,12.245505"
         style="fill:#ffffff;stroke:#000000;stroke-width:2.0118289;stroke-linecap:butt;stroke-linejoin:miter;stroke-miterlimit:4;stroke-opacity:1;stroke-dasharray:none" />
    </g>
  </g>
</svg>
