<?xml version="1.0" encoding="UTF-8" standalone="no"?>
<!-- Created with Inkscape (http://www.inkscape.org/) -->

<svg
   xmlns:dc="http://purl.org/dc/elements/1.1/"
   xmlns:cc="http://creativecommons.org/ns#"
   xmlns:rdf="http://www.w3.org/1999/02/22-rdf-syntax-ns#"
   xmlns:svg="http://www.w3.org/2000/svg"
   xmlns="http://www.w3.org/2000/svg"
   xmlns:sodipodi="http://sodipodi.sourceforge.net/DTD/sodipodi-0.dtd"
   xmlns:inkscape="http://www.inkscape.org/namespaces/inkscape"
   width="96"
   height="96"
   id="svg2"
   version="1.1"
   inkscape:version="0.48.3.1 r9886"
   sodipodi:docname="wile.svg">
  <defs
     id="defs4" />
  <sodipodi:namedview
     id="base"
     pagecolor="#ffffff"
     bordercolor="#666666"
     borderopacity="1.0"
     inkscape:pageopacity="0.0"
     inkscape:pageshadow="2"
     inkscape:zoom="6.1770833"
     inkscape:cx="52.290051"
     inkscape:cy="50.428331"
     inkscape:document-units="px"
     inkscape:current-layer="layer1"
     showgrid="false"
     inkscape:window-width="992"
     inkscape:window-height="822"
     inkscape:window-x="0"
     inkscape:window-y="26"
     inkscape:window-maximized="0" />
  <metadata
     id="metadata7">
    <rdf:RDF>
      <cc:Work
         rdf:about="">
        <dc:format>image/svg+xml</dc:format>
        <dc:type
           rdf:resource="http://purl.org/dc/dcmitype/StillImage" />
        <dc:title />
      </cc:Work>
    </rdf:RDF>
  </metadata>
  <g
     inkscape:label="Calque 1"
     inkscape:groupmode="layer"
     id="layer1"
     transform="translate(0,-956.36218)">
    <g
       id="g3792"
       style="fill:#ffffff"
       transform="matrix(1.0527201,0,0,1.0527201,96.131832,-49.925558)">
      <path
         sodipodi:nodetypes="czzczczczc"
         transform="translate(0,956.36218)"
         inkscape:connector-curvature="0"
         id="path3002"
         d="m -13.046653,76.72211 c 0,0 1.947262,-49.18904 1.947262,-56.86004 0,-7.671001 -6.440827,-11.2567979 -18.693712,-11.3914812 -12.252885,-0.1346833 -15.967546,7.8864092 -15.967546,7.8864092 0,0 -4.708181,-7.8157107 -8.373225,-7.8864092 -3.665044,-0.070699 -8.567951,7.4969572 -8.567951,7.4969572 0,0 -3.142365,-7.4857231 -7.204868,-7.4969572 -4.062503,-0.011234 -10.296175,5.0633172 -10.320487,11.3914812 -1.586772,60.861444 13.224602,61.92292 35.245436,61.92292 22.020833,0 31.935091,-5.06288 31.935091,-5.06288 z"
         style="fill:#ffffff;stroke:#000000;stroke-width:1.89984024;stroke-linecap:round;stroke-linejoin:miter;stroke-miterlimit:4;stroke-opacity:1;stroke-dasharray:none" />
      <g
         id="g3785"
         style="fill:#ffffff">
        <path
           sodipodi:type="arc"
           style="fill:none;stroke:#000000;stroke-width:2.39742684;stroke-linecap:round;stroke-linejoin:miter;stroke-miterlimit:4;stroke-opacity:1;stroke-dasharray:none;stroke-dashoffset:0"
           id="path3004"
           sodipodi:cx="-54.231236"
           sodipodi:cy="41.574036"
           sodipodi:rx="11.196754"
           sodipodi:ry="11.196754"
           d="m -43.034481,41.574036 c 0,6.183796 -5.012958,11.196754 -11.196755,11.196754 -6.183796,0 -11.196754,-5.012958 -11.196754,-11.196754 0,-6.183797 5.012958,-11.196755 11.196754,-11.196755 6.183797,0 11.196755,5.012958 11.196755,11.196755 z"
           transform="matrix(0.79244969,0,0,0.79244969,-14.955506,961.68053)" />
        <g
           id="g3780"
           style="fill:#ffffff">
          <path
             inkscape:connector-curvature="0"
             id="path3774"
             d="m -52.576064,1018.6746 4.297705,7.4438"
             style="fill:none;stroke:#000000;stroke-width:1.89984024;stroke-linecap:round;stroke-linejoin:miter;stroke-miterlimit:4;stroke-opacity:1;stroke-dasharray:none" />
          <path
             style="fill:none;stroke:#000000;stroke-width:1.89984024;stroke-linecap:round;stroke-linejoin:miter;stroke-miterlimit:4;stroke-opacity:1;stroke-dasharray:none"
             d="m -43.034482,1020.0377 4.297705,7.4438"
             id="path3776"
             inkscape:connector-curvature="0" />
          <path
             inkscape:connector-curvature="0"
             id="path3778"
             d="m -33.687626,1019.4535 4.297705,7.4438"
             style="fill:none;stroke:#000000;stroke-width:1.89984024;stroke-linecap:round;stroke-linejoin:miter;stroke-miterlimit:4;stroke-opacity:1;stroke-dasharray:none" />
        </g>
      </g>
    </g>
  </g>
</svg>
