<?xml version="1.0" encoding="UTF-8" standalone="no"?>
<!-- Created with Inkscape (http://www.inkscape.org/) -->

<svg
   xmlns:dc="http://purl.org/dc/elements/1.1/"
   xmlns:cc="http://creativecommons.org/ns#"
   xmlns:rdf="http://www.w3.org/1999/02/22-rdf-syntax-ns#"
   xmlns:svg="http://www.w3.org/2000/svg"
   xmlns="http://www.w3.org/2000/svg"
   xmlns:sodipodi="http://sodipodi.sourceforge.net/DTD/sodipodi-0.dtd"
   xmlns:inkscape="http://www.inkscape.org/namespaces/inkscape"
   width="96"
   height="96"
   id="svg2"
   version="1.1"
   inkscape:version="0.48.3.1 r9886"
   sodipodi:docname="jan.svg">
  <defs
     id="defs4" />
  <sodipodi:namedview
     id="base"
     pagecolor="#ffffff"
     bordercolor="#666666"
     borderopacity="1.0"
     inkscape:pageopacity="0.0"
     inkscape:pageshadow="2"
     inkscape:zoom="6.1770833"
     inkscape:cx="38.043845"
     inkscape:cy="47.676223"
     inkscape:document-units="px"
     inkscape:current-layer="layer1"
     showgrid="false"
     inkscape:window-width="992"
     inkscape:window-height="822"
     inkscape:window-x="0"
     inkscape:window-y="26"
     inkscape:window-maximized="0"
     showguides="true"
     inkscape:guide-bbox="true" />
  <metadata
     id="metadata7">
    <rdf:RDF>
      <cc:Work
         rdf:about="">
        <dc:format>image/svg+xml</dc:format>
        <dc:type
           rdf:resource="http://purl.org/dc/dcmitype/StillImage" />
        <dc:title />
      </cc:Work>
    </rdf:RDF>
  </metadata>
  <g
     inkscape:label="Calque 1"
     inkscape:groupmode="layer"
     id="layer1"
     transform="translate(0,-956.36218)">
    <g
       id="g3008"
       transform="translate(0.057896,-3.6829526)">
      <g
         transform="translate(-3.96e-4,28.17788)"
         inkscape:label="Calque 1"
         id="layer1-9">
        <g
           id="g3009"
           transform="translate(14.037253,-1.3707904e-8)"
           style="fill:#ffffff">
          <g
             id="g3784">
            <g
               id="g3774"
               style="fill:#ffffff"
               transform="translate(83.01414,1.3477018)" />
          </g>
        </g>
        <path
           style="fill:#ffffff;stroke:#000000;stroke-width:2;stroke-linecap:round;stroke-linejoin:miter;stroke-miterlimit:4;stroke-opacity:1;stroke-dasharray:none"
           d="m 54.082784,1014.2357 c 9.894209,7.9736 30.31082,8.5568 30.31082,-7.4231 0,-23.71471 -72.787208,-23.70287 -72.787208,0 0,16.0699 15.632906,15.3282 25.980703,7.4231 5.772818,5.0581 9.589913,7.1868 16.495685,0 z"
           id="path3804"
           inkscape:connector-curvature="0"
           sodipodi:nodetypes="ccccc" />
      </g>
      <g
         transform="translate(-0.09496115,-3.3170476)"
         id="g3012">
        <g
           id="g3782"
           transform="matrix(1.0859617,0,0,1.0859617,90.873985,-84.540202)"
           style="fill:#ffffff">
          <path
             transform="translate(0,956.36218)"
             sodipodi:nodetypes="czzzzc"
             inkscape:connector-curvature="0"
             id="path2996"
             d="m -37.558179,20.721753 c 0,0 3.922263,-4.603656 11.979764,-4.603656 8.057501,0 18.9047042,7.656069 19.588533,21.440081 0.6838288,13.784012 -6.997728,39.015177 -32.701517,39.015177 -25.703789,0 -34.320406,-17.475546 -34.320406,-35.939291 0,-18.463745 17.330435,-25.253843 35.453626,-19.912311 z"
             style="fill:#ffffff;stroke:#000000;stroke-width:1.84168553;stroke-linecap:round;stroke-linejoin:miter;stroke-miterlimit:4;stroke-opacity:1;stroke-dasharray:none" />
          <g
             id="g3776"
             style="fill:#ffffff">
            <path
               style="fill:none;stroke:#000000;stroke-width:1.84168553;stroke-linecap:round;stroke-linejoin:miter;stroke-miterlimit:4;stroke-opacity:1;stroke-dasharray:none"
               d="m -37.298284,20.735403 c 11.008432,5.989882 11.234203,13.261224 14.1482,20.546216"
               id="path2998"
               inkscape:connector-curvature="0"
               transform="translate(0,956.36218)"
               sodipodi:nodetypes="cc" />
            <g
               id="g3772"
               style="fill:#ffffff">
              <path
                 transform="translate(0,956.36218)"
                 inkscape:connector-curvature="0"
                 id="path3000"
                 d="m -28.187276,28.30305 6.656079,-1.105749"
                 style="fill:none;stroke:#000000;stroke-width:1.84168553;stroke-linecap:round;stroke-linejoin:miter;stroke-miterlimit:4;stroke-opacity:1;stroke-dasharray:none"
                 sodipodi:nodetypes="cc" />
              <path
                 transform="translate(0,956.36218)"
                 inkscape:connector-curvature="0"
                 id="path3002"
                 d="m -25.902192,33.510961 7.770657,-0.647555"
                 style="fill:none;stroke:#000000;stroke-width:1.84168553;stroke-linecap:round;stroke-linejoin:miter;stroke-miterlimit:4;stroke-opacity:1;stroke-dasharray:none" />
            </g>
          </g>
        </g>
        <g
           id="layer1-7"
           inkscape:label="Calque 1"
           transform="translate(-11.030303,10.678786)">
          <g
             transform="matrix(0.6038702,0,0,0.6038702,28.954869,392.7369)"
             id="g3007">
            <path
               style="fill:none;stroke:#000000;stroke-width:3.31197;stroke-linecap:round;stroke-linejoin:miter;stroke-miterlimit:4;stroke-opacity:1;stroke-dasharray:none"
               d="m 46.948627,1022.1113 c -0.806722,-0.9681 -3.651361,-9.2044 -10.266024,-9.2044 -6.614663,0 -9.125185,5.517 -9.125185,9.7844 0,2.9087 2.537373,6.744 6.650884,6.744 4.476775,0 12.889999,-7.0372 12.889999,-7.0372 -13.257842,-43.51416 -32.271117,-63.68492 -55.3922423,-18.0357"
               id="path3767"
               inkscape:connector-curvature="0"
               sodipodi:nodetypes="cccscc" />
            <path
               sodipodi:type="arc"
               style="fill:#000000;fill-opacity:1;stroke:#000000;stroke-width:3.31197;stroke-linecap:round;stroke-linejoin:miter;stroke-miterlimit:4;stroke-opacity:1;stroke-dasharray:none"
               id="path3777"
               sodipodi:cx="25.309092"
               sodipodi:cy="64.290909"
               sodipodi:rx="1.2606061"
               sodipodi:ry="1.2606061"
               d="m 26.569698,64.290909 c 0,0.696213 -0.564393,1.260606 -1.260606,1.260606 -0.696214,0 -1.260606,-0.564393 -1.260606,-1.260606 0,-0.696214 0.564392,-1.260606 1.260606,-1.260606 0.696213,0 1.260606,0.564392 1.260606,1.260606 z"
               transform="translate(11.076209,957.18619)" />
          </g>
        </g>
      </g>
    </g>
  </g>
</svg>
