<?xml version="1.0" encoding="UTF-8" standalone="no"?>
<!-- Created with Inkscape (http://www.inkscape.org/) -->

<svg
   xmlns:dc="http://purl.org/dc/elements/1.1/"
   xmlns:cc="http://creativecommons.org/ns#"
   xmlns:rdf="http://www.w3.org/1999/02/22-rdf-syntax-ns#"
   xmlns:svg="http://www.w3.org/2000/svg"
   xmlns="http://www.w3.org/2000/svg"
   xmlns:sodipodi="http://sodipodi.sourceforge.net/DTD/sodipodi-0.dtd"
   xmlns:inkscape="http://www.inkscape.org/namespaces/inkscape"
   width="96"
   height="96"
   id="svg2"
   version="1.1"
   inkscape:version="0.48.3.1 r9886"
   sodipodi:docname="kan.svg">
  <defs
     id="defs4" />
  <sodipodi:namedview
     id="base"
     pagecolor="#ffffff"
     bordercolor="#666666"
     borderopacity="1.0"
     inkscape:pageopacity="0.0"
     inkscape:pageshadow="2"
     inkscape:zoom="6.1770833"
     inkscape:cx="38.205734"
     inkscape:cy="44.600337"
     inkscape:document-units="px"
     inkscape:current-layer="layer1"
     showgrid="false"
     inkscape:window-width="992"
     inkscape:window-height="822"
     inkscape:window-x="0"
     inkscape:window-y="26"
     inkscape:window-maximized="0"
     showguides="true"
     inkscape:guide-bbox="true" />
  <metadata
     id="metadata7">
    <rdf:RDF>
      <cc:Work
         rdf:about="">
        <dc:format>image/svg+xml</dc:format>
        <dc:type
           rdf:resource="http://purl.org/dc/dcmitype/StillImage" />
        <dc:title />
      </cc:Work>
    </rdf:RDF>
  </metadata>
  <g
     inkscape:label="Calque 1"
     inkscape:groupmode="layer"
     id="layer1"
     transform="translate(0,-956.36218)">
    <g
       id="g3006"
       transform="translate(0.057896,-0.25054112)">
      <g
         transform="translate(-3.96e-4,28.17788)"
         inkscape:label="Calque 1"
         id="layer1-3">
        <g
           id="g3009"
           transform="translate(14.037253,-1.3707904e-8)"
           style="fill:#ffffff">
          <g
             id="g3784">
            <g
               id="g3774"
               style="fill:#ffffff"
               transform="translate(83.01414,1.3477018)" />
          </g>
        </g>
        <path
           style="fill:#ffffff;stroke:#000000;stroke-width:2;stroke-linecap:round;stroke-linejoin:miter;stroke-miterlimit:4;stroke-opacity:1;stroke-dasharray:none"
           d="m 54.082784,1014.2357 c 9.894209,7.9736 30.31082,8.5568 30.31082,-7.4231 0,-23.71471 -72.787208,-23.70287 -72.787208,0 0,16.0699 15.632906,15.3282 25.980703,7.4231 5.772818,5.0581 9.589913,7.1868 16.495685,0 z"
           id="path3804"
           inkscape:connector-curvature="0"
           sodipodi:nodetypes="ccccc" />
      </g>
      <g
         transform="translate(-0.15757106,-6.7494628)"
         id="g3010">
        <g
           id="g3772"
           transform="matrix(1.1485719,0,0,1.1485719,89.557772,-148.38326)">
          <g
             id="g3768">
            <path
               style="fill:#ffffff;stroke:#000000;stroke-width:1.74129283;stroke-linecap:round;stroke-linejoin:miter;stroke-miterlimit:4;stroke-opacity:1;stroke-dasharray:none"
               d="m -31.406408,77.544688 c 8.032593,-2.017938 8.155936,-13.511868 5.504216,-21.693086 l -16.188871,4.856661 c 0.163585,6.664196 2.652062,18.854362 10.684655,16.836425 z"
               id="path2996"
               inkscape:connector-curvature="0"
               transform="translate(0,956.36218)"
               sodipodi:nodetypes="zccz" />
            <path
               style="fill:#ffffff;stroke:#000000;stroke-width:1.74129283;stroke-linecap:round;stroke-linejoin:miter;stroke-miterlimit:4;stroke-opacity:1;stroke-dasharray:none"
               d="m -25.218602,57.209228 13.076949,-3.300291 c 6.2209963,7.39711 7.6629673,20.94008 -2.590219,21.854975 -10.253186,0.914895 -8.923181,-10.090031 -10.48673,-18.554684 z"
               id="path2998"
               inkscape:connector-curvature="0"
               transform="translate(0,956.36218)"
               sodipodi:nodetypes="cczc" />
          </g>
          <path
             sodipodi:nodetypes="czzzzc"
             transform="translate(0,956.36218)"
             inkscape:connector-curvature="0"
             id="path2994"
             d="m -39.986509,62.165261 c 0,0 35.4536253,-0.303044 35.4536253,-17.160202 0,-16.857158 -22.2100843,-29.301855 -36.4249583,-29.301855 -14.214874,0 -26.873524,10.560752 -26.873524,29.301855 0,18.741103 8.297893,33.834739 19.264755,33.834739 10.966863,0 8.580102,-16.674537 8.580102,-16.674537 z"
             style="fill:#ffffff;stroke:#000000;stroke-width:1.74129283;stroke-linecap:round;stroke-linejoin:miter;stroke-miterlimit:4;stroke-opacity:1;stroke-dasharray:none" />
        </g>
        <g
           id="layer1-0"
           inkscape:label="Calque 1"
           transform="translate(-4.9655172,-11.97566)">
          <g
             transform="matrix(0.6038702,0,0,0.6038702,28.954869,392.7369)"
             id="g3007">
            <path
               style="fill:none;stroke:#000000;stroke-width:3.31197;stroke-linecap:round;stroke-linejoin:miter;stroke-miterlimit:4;stroke-opacity:1;stroke-dasharray:none"
               d="m -12.396022,996.79108 c 27.371089,-18.10167 52.058309,-14.79431 59.494323,25.60702 0,0 -8.413224,7.0372 -12.889999,7.0372 -4.113511,0 -6.650884,-3.8353 -6.650884,-6.744 0,-4.2674 2.510522,-9.7844 9.125185,-9.7844 6.614663,0 9.459302,8.2363 10.266024,9.2044"
               id="path3767"
               inkscape:connector-curvature="0"
               sodipodi:nodetypes="ccsszc" />
            <path
               sodipodi:type="arc"
               style="fill:#000000;fill-opacity:1;stroke:#000000;stroke-width:3.31197;stroke-linecap:round;stroke-linejoin:miter;stroke-miterlimit:4;stroke-opacity:1;stroke-dasharray:none"
               id="path3777"
               sodipodi:cx="25.309092"
               sodipodi:cy="64.290909"
               sodipodi:rx="1.2606061"
               sodipodi:ry="1.2606061"
               d="m 26.569698,64.290909 c 0,0.696213 -0.564393,1.260606 -1.260606,1.260606 -0.696214,0 -1.260606,-0.564393 -1.260606,-1.260606 0,-0.696214 0.564392,-1.260606 1.260606,-1.260606 0.696213,0 1.260606,0.564392 1.260606,1.260606 z"
               transform="translate(11.076209,957.18619)" />
          </g>
        </g>
      </g>
    </g>
  </g>
</svg>
