<?xml version="1.0" encoding="UTF-8" standalone="no"?>
<!-- Created with Inkscape (http://www.inkscape.org/) -->

<svg
   xmlns:dc="http://purl.org/dc/elements/1.1/"
   xmlns:cc="http://creativecommons.org/ns#"
   xmlns:rdf="http://www.w3.org/1999/02/22-rdf-syntax-ns#"
   xmlns:svg="http://www.w3.org/2000/svg"
   xmlns="http://www.w3.org/2000/svg"
   xmlns:sodipodi="http://sodipodi.sourceforge.net/DTD/sodipodi-0.dtd"
   xmlns:inkscape="http://www.inkscape.org/namespaces/inkscape"
   width="96"
   height="96"
   id="svg2"
   version="1.1"
   inkscape:version="0.48.3.1 r9886"
   sodipodi:docname="lo.svg">
  <defs
     id="defs4" />
  <sodipodi:namedview
     id="base"
     pagecolor="#ffffff"
     bordercolor="#666666"
     borderopacity="1.0"
     inkscape:pageopacity="0.0"
     inkscape:pageshadow="2"
     inkscape:zoom="5.1354167"
     inkscape:cx="19.472617"
     inkscape:cy="48"
     inkscape:document-units="px"
     inkscape:current-layer="layer1"
     showgrid="false"
     inkscape:window-width="992"
     inkscape:window-height="822"
     inkscape:window-x="0"
     inkscape:window-y="26"
     inkscape:window-maximized="0"
     showguides="true"
     inkscape:guide-bbox="true" />
  <metadata
     id="metadata7">
    <rdf:RDF>
      <cc:Work
         rdf:about="">
        <dc:format>image/svg+xml</dc:format>
        <dc:type
           rdf:resource="http://purl.org/dc/dcmitype/StillImage" />
        <dc:title />
      </cc:Work>
    </rdf:RDF>
  </metadata>
  <g
     inkscape:label="Calque 1"
     inkscape:groupmode="layer"
     id="layer1"
     transform="translate(0,-956.36218)">
    <g
       id="g2999">
      <g
         transform="matrix(1.0995055,0,0,1.0995055,88.22744,-99.405568)"
         id="g3772">
        <path
           transform="translate(0,956.36218)"
           style="fill:#ffffff;stroke:#000000;stroke-width:1.81899953;stroke-linecap:round;stroke-linejoin:miter;stroke-miterlimit:4;stroke-opacity:1;stroke-dasharray:none"
           d="m -36.586846,80.620574 c -10.063685,0 -16.836426,-32.514576 -16.836426,-45.00506 0,-12.490484 9.398452,-21.20742 18.455312,-21.20742 9.056861,0 15.217538,5.143485 15.217538,13.436763 0,8.293277 -6.77274,52.775717 -16.836424,52.775717 z"
           id="path2994"
           inkscape:connector-curvature="0"
           sodipodi:nodetypes="zzzzz" />
        <g
           id="g3768">
          <path
             transform="translate(0,956.36218)"
             sodipodi:nodetypes="cc"
             inkscape:connector-curvature="0"
             id="path2996"
             d="m -49.268292,60.562236 c 5.030138,3.065792 7.490008,4.213026 12.843334,2.736246"
             style="fill:none;stroke:#000000;stroke-width:1.81899953;stroke-linecap:round;stroke-linejoin:miter;stroke-miterlimit:4;stroke-opacity:1;stroke-dasharray:none" />
          <path
             transform="translate(0,956.36218)"
             sodipodi:nodetypes="cc"
             inkscape:connector-curvature="0"
             id="path2998"
             d="m -46.785835,68.155143 c 4.245422,2.684956 5.880036,4.161197 10.198988,2.104553"
             style="fill:none;stroke:#000000;stroke-width:1.81899953;stroke-linecap:round;stroke-linejoin:miter;stroke-miterlimit:4;stroke-opacity:1;stroke-dasharray:none" />
        </g>
      </g>
      <g
         transform="translate(-1.9409792e-7,-16.060849)"
         inkscape:label="Calque 1"
         id="layer1-3">
        <g
           id="g3777"
           transform="matrix(0.82203086,0,0,0.82203086,73.691382,177.78505)">
          <path
             sodipodi:type="arc"
             style="fill:#000000;fill-opacity:1;stroke:#000000;stroke-width:2.43299866;stroke-linecap:round;stroke-linejoin:miter;stroke-miterlimit:4;stroke-opacity:1;stroke-dasharray:none;stroke-dashoffset:0"
             id="path3766"
             sodipodi:cx="1.9472617"
             sodipodi:cy="44.787018"
             sodipodi:rx="1.3630831"
             sodipodi:ry="1.3630831"
             d="m 3.3103448,44.787018 c 0,0.75281 -0.6102731,1.363083 -1.3630831,1.363083 -0.75281,0 -1.36308313,-0.610273 -1.36308313,-1.363083 0,-0.75281 0.61027313,-1.363083 1.36308313,-1.363083 0.75281,0 1.3630831,0.610273 1.3630831,1.363083 z"
             transform="translate(-34.657203,959.08835)" />
          <path
             transform="matrix(0.83703495,0,0,0.83703495,-44.863431,958.99614)"
             d="m 29.598376,55.594322 c 0,7.366784 -5.971958,13.338742 -13.338742,13.338742 -7.3667839,0 -13.3387422,-5.971958 -13.3387422,-13.338742 0,-7.366784 5.9719583,-13.338742 13.3387422,-13.338742 7.366784,0 13.338742,5.971958 13.338742,13.338742 z"
             sodipodi:ry="13.338742"
             sodipodi:rx="13.338742"
             sodipodi:cy="55.594322"
             sodipodi:cx="16.259634"
             id="path3007"
             style="fill:none;stroke:#000000;stroke-width:2.90668702;stroke-linecap:round;stroke-linejoin:miter;stroke-miterlimit:4;stroke-opacity:1;stroke-dasharray:none;stroke-dashoffset:0"
             sodipodi:type="arc" />
        </g>
      </g>
    </g>
  </g>
</svg>
