<?xml version="1.0" encoding="UTF-8" standalone="no"?>
<!-- Created with Inkscape (http://www.inkscape.org/) -->

<svg
   xmlns:dc="http://purl.org/dc/elements/1.1/"
   xmlns:cc="http://creativecommons.org/ns#"
   xmlns:rdf="http://www.w3.org/1999/02/22-rdf-syntax-ns#"
   xmlns:svg="http://www.w3.org/2000/svg"
   xmlns="http://www.w3.org/2000/svg"
   xmlns:sodipodi="http://sodipodi.sourceforge.net/DTD/sodipodi-0.dtd"
   xmlns:inkscape="http://www.inkscape.org/namespaces/inkscape"
   width="96"
   height="96"
   id="svg2"
   version="1.1"
   inkscape:version="0.48.3.1 r9886"
   sodipodi:docname="ma.svg">
  <defs
     id="defs4" />
  <sodipodi:namedview
     id="base"
     pagecolor="#ffffff"
     bordercolor="#666666"
     borderopacity="1.0"
     inkscape:pageopacity="0.0"
     inkscape:pageshadow="2"
     inkscape:zoom="5.8333333"
     inkscape:cx="48"
     inkscape:cy="48"
     inkscape:document-units="px"
     inkscape:current-layer="layer1"
     showgrid="false"
     inkscape:window-width="992"
     inkscape:window-height="822"
     inkscape:window-x="0"
     inkscape:window-y="26"
     inkscape:window-maximized="0"
     showguides="true"
     inkscape:guide-bbox="true" />
  <metadata
     id="metadata7">
    <rdf:RDF>
      <cc:Work
         rdf:about="">
        <dc:format>image/svg+xml</dc:format>
        <dc:type
           rdf:resource="http://purl.org/dc/dcmitype/StillImage" />
        <dc:title />
      </cc:Work>
    </rdf:RDF>
  </metadata>
  <g
     inkscape:label="Calque 1"
     inkscape:groupmode="layer"
     id="layer1"
     transform="translate(0,-956.36218)">
    <g
       id="g3001">
      <g
         transform="matrix(1.0544597,0,0,1.0544597,103.0524,-52.337803)"
         style="fill:#ffffff"
         id="g3780">
        <path
           style="fill:#ffffff;stroke:#000000;stroke-width:1.89670599;stroke-linecap:round;stroke-linejoin:miter;stroke-miterlimit:4;stroke-opacity:1;stroke-dasharray:none"
           d="m -65.62352,1020.4468 c 0,0 -0.151448,9.9562 10.846543,9.9562 10.99799,0 9.875211,-10.28 9.875211,-10.28 l 0,-2.7521 -21.20742,0 z"
           id="path3768"
           inkscape:connector-curvature="0"
           sodipodi:nodetypes="czcccc" />
        <g
           style="fill:#ffffff"
           id="g3774">
          <path
             sodipodi:nodetypes="zzzzzccz"
             transform="translate(0,956.36218)"
             inkscape:connector-curvature="0"
             id="path2994"
             d="m -33.834739,73.902192 c 6.268208,0 16.18887,-11.390104 16.18887,-25.173693 0,-13.783589 -8.273656,-31.24452 -35.291737,-31.24452 -27.018081,0 -33.834738,23.65195 -33.834738,35.453626 0,11.801676 3.649706,20.964587 10.360876,20.964587 6.71117,0 9.389545,-10.118044 9.389545,-10.118044 l 22.988196,-0.161888 c 0,0 3.93078,10.279932 10.198988,10.279932 z"
             style="fill:#ffffff;stroke:#000000;stroke-width:1.89670599;stroke-linecap:round;stroke-linejoin:miter;stroke-miterlimit:4;stroke-opacity:1;stroke-dasharray:none" />
          <g
             style="fill:#ffffff"
             id="g3770">
            <path
               style="fill:none;stroke:#000000;stroke-width:1.89670599;stroke-linecap:round;stroke-linejoin:miter;stroke-miterlimit:4;stroke-opacity:1;stroke-dasharray:none"
               d="m -67.021923,63.946037 c 0,0 -5.457238,-1.111879 -6.95692,-2.686064"
               id="path2996"
               inkscape:connector-curvature="0"
               transform="translate(0,956.36218)"
               sodipodi:nodetypes="cc" />
            <path
               style="fill:none;stroke:#000000;stroke-width:1.89670599;stroke-linecap:round;stroke-linejoin:miter;stroke-miterlimit:4;stroke-opacity:1;stroke-dasharray:none"
               d="m -44.033727,63.460371 c 0,0 4.613828,-1.456999 5.180438,-2.023609"
               id="path2998"
               inkscape:connector-curvature="0"
               transform="translate(0,956.36218)"
               sodipodi:nodetypes="cc" />
          </g>
        </g>
      </g>
      <g
         transform="translate(-5.9999997,-6.3286017)"
         inkscape:label="Calque 1"
         id="layer1-7">
        <g
           id="g3007"
           transform="matrix(0.6038702,0,0,0.6038702,28.954869,392.7369)">
          <path
             sodipodi:nodetypes="ccsszc"
             inkscape:connector-curvature="0"
             id="path3767"
             d="m -8.4871244,999.61622 c 35.0537824,-26.56981 57.3075644,-3.86155 55.5854254,22.78188 0,0 -8.413224,7.0372 -12.889999,7.0372 -4.113511,0 -6.650884,-3.8353 -6.650884,-6.744 0,-4.2674 2.510522,-9.7844 9.125185,-9.7844 6.614663,0 9.459302,8.2363 10.266024,9.2044"
             style="fill:none;stroke:#000000;stroke-width:3.31197;stroke-linecap:round;stroke-linejoin:miter;stroke-miterlimit:4;stroke-opacity:1;stroke-dasharray:none" />
          <path
             transform="translate(11.076209,957.18619)"
             d="m 26.569698,64.290909 c 0,0.696213 -0.564393,1.260606 -1.260606,1.260606 -0.696214,0 -1.260606,-0.564393 -1.260606,-1.260606 0,-0.696214 0.564392,-1.260606 1.260606,-1.260606 0.696213,0 1.260606,0.564392 1.260606,1.260606 z"
             sodipodi:ry="1.2606061"
             sodipodi:rx="1.2606061"
             sodipodi:cy="64.290909"
             sodipodi:cx="25.309092"
             id="path3777"
             style="fill:#000000;fill-opacity:1;stroke:#000000;stroke-width:3.31197;stroke-linecap:round;stroke-linejoin:miter;stroke-miterlimit:4;stroke-opacity:1;stroke-dasharray:none"
             sodipodi:type="arc" />
        </g>
      </g>
    </g>
  </g>
</svg>
