<?xml version="1.0" encoding="UTF-8" standalone="no"?>
<!-- Created with Inkscape (http://www.inkscape.org/) -->

<svg
   xmlns:dc="http://purl.org/dc/elements/1.1/"
   xmlns:cc="http://creativecommons.org/ns#"
   xmlns:rdf="http://www.w3.org/1999/02/22-rdf-syntax-ns#"
   xmlns:svg="http://www.w3.org/2000/svg"
   xmlns="http://www.w3.org/2000/svg"
   xmlns:sodipodi="http://sodipodi.sourceforge.net/DTD/sodipodi-0.dtd"
   xmlns:inkscape="http://www.inkscape.org/namespaces/inkscape"
   width="96"
   height="96"
   id="svg2"
   version="1.1"
   inkscape:version="0.48.3.1 r9886"
   sodipodi:docname="pin.svg">
  <defs
     id="defs4" />
  <sodipodi:namedview
     id="base"
     pagecolor="#ffffff"
     bordercolor="#666666"
     borderopacity="1.0"
     inkscape:pageopacity="0.0"
     inkscape:pageshadow="2"
     inkscape:zoom="5.8333333"
     inkscape:cx="48"
     inkscape:cy="48"
     inkscape:document-units="px"
     inkscape:current-layer="layer1"
     showgrid="false"
     inkscape:window-width="992"
     inkscape:window-height="822"
     inkscape:window-x="0"
     inkscape:window-y="26"
     inkscape:window-maximized="0"
     showguides="true"
     inkscape:guide-bbox="true" />
  <metadata
     id="metadata7">
    <rdf:RDF>
      <cc:Work
         rdf:about="">
        <dc:format>image/svg+xml</dc:format>
        <dc:type
           rdf:resource="http://purl.org/dc/dcmitype/StillImage" />
        <dc:title />
      </cc:Work>
    </rdf:RDF>
  </metadata>
  <g
     inkscape:label="Calque 1"
     inkscape:groupmode="layer"
     id="layer1"
     transform="translate(0,-956.36218)">
    <g
       id="g3011"
       transform="translate(0.057896,0.30566423)">
      <g
         transform="translate(-3.96e-4,28.17788)"
         inkscape:label="Calque 1"
         id="layer1-4">
        <g
           id="g3009"
           transform="translate(14.037253,-1.3707904e-8)"
           style="fill:#ffffff">
          <g
             id="g3784">
            <g
               id="g3774"
               style="fill:#ffffff"
               transform="translate(83.01414,1.3477018)" />
          </g>
        </g>
        <path
           style="fill:#ffffff;stroke:#000000;stroke-width:2;stroke-linecap:round;stroke-linejoin:miter;stroke-miterlimit:4;stroke-opacity:1;stroke-dasharray:none"
           d="m 54.082784,1014.2357 c 9.894209,7.9736 30.31082,8.5568 30.31082,-7.4231 0,-23.71471 -72.787208,-23.70287 -72.787208,0 0,16.0699 15.632906,15.3282 25.980703,7.4231 5.772818,5.0581 9.589913,7.1868 16.495685,0 z"
           id="path3804"
           inkscape:connector-curvature="0"
           sodipodi:nodetypes="ccccc" />
      </g>
      <g
         transform="translate(-0.15114726,-7.3056687)"
         id="g3007">
        <g
           id="g3790"
           transform="matrix(1.1421464,0,0,1.1421464,82.530825,-141.95644)"
           style="fill:#ffffff">
          <g
             id="g3786"
             style="fill:#ffffff">
            <path
               style="fill:#ffffff;stroke:#000000;stroke-width:1.75108898;stroke-linecap:round;stroke-linejoin:miter;stroke-miterlimit:4;stroke-opacity:1;stroke-dasharray:none"
               d="M -7.8382562,33.133986 C -6.6964697,22.361166 -19.795329,15.089044 -28.473665,15.058007 c -8.678336,-0.03104 -33.592527,7.485293 -33.592527,31.193061 0,23.707768 15.245831,33.272597 31.672954,33.272597 23.1456279,0 31.9928821,-17.435729 31.9928821,-27.833807 0,-10.398079 -9.4379003,-18.555872 -9.4379003,-18.555872 z"
               id="path3782"
               inkscape:connector-curvature="0"
               transform="translate(0,956.36218)"
               sodipodi:nodetypes="czzczc" />
            <path
               style="fill:none;stroke:#000000;stroke-width:1.75108898;stroke-linecap:round;stroke-linejoin:miter;stroke-miterlimit:4;stroke-opacity:1;stroke-dasharray:none"
               d="M -7.8178933,33.13186 C -16.226801,27.333437 -25.910014,25.44421 -34.956839,30.570581"
               id="path3784"
               inkscape:connector-curvature="0"
               transform="translate(0,956.36218)"
               sodipodi:nodetypes="cc" />
          </g>
          <g
             transform="translate(0.07695898,0.34363112)"
             id="g3778"
             style="fill:#ffffff">
            <path
               sodipodi:type="arc"
               style="fill:none;stroke:#000000;stroke-width:1.75108898;stroke-linecap:round;stroke-linejoin:miter;stroke-miterlimit:4;stroke-opacity:1;stroke-dasharray:none;stroke-dashoffset:0"
               id="path3770"
               sodipodi:cx="-16.135017"
               sodipodi:cy="29.733856"
               sodipodi:rx="0.82551253"
               sodipodi:ry="0.82551253"
               d="m -15.309505,29.733856 c 0,0.455918 -0.369594,0.825513 -0.825512,0.825513 -0.455918,0 -0.825513,-0.369595 -0.825513,-0.825513 0,-0.455918 0.369595,-0.825512 0.825513,-0.825512 0.455918,0 0.825512,0.369594 0.825512,0.825512 z"
               transform="translate(-9.3057779,949.60799)" />
            <path
               transform="translate(-2.2513979,949.3078)"
               d="m -15.309505,29.733856 c 0,0.455918 -0.369594,0.825513 -0.825512,0.825513 -0.455918,0 -0.825513,-0.369595 -0.825513,-0.825513 0,-0.455918 0.369595,-0.825512 0.825513,-0.825512 0.455918,0 0.825512,0.369594 0.825512,0.825512 z"
               sodipodi:ry="0.82551253"
               sodipodi:rx="0.82551253"
               sodipodi:cy="29.733856"
               sodipodi:cx="-16.135017"
               id="path3772"
               style="fill:none;stroke:#000000;stroke-width:1.75108898;stroke-linecap:round;stroke-linejoin:miter;stroke-miterlimit:4;stroke-opacity:1;stroke-dasharray:none;stroke-dashoffset:0"
               sodipodi:type="arc" />
          </g>
        </g>
        <g
           id="layer1-1"
           inkscape:label="Calque 1"
           transform="matrix(-1,0,0,-1,96,2032.7411)">
          <g
             transform="matrix(0.7483303,0,0,0.7483303,12.07863,254.8076)"
             id="g3772">
            <g
               id="g3766"
               transform="translate(72.932885,3.0758855)">
              <path
                 sodipodi:nodetypes="cc"
                 transform="translate(0,956.36218)"
                 inkscape:connector-curvature="0"
                 id="path2994"
                 d="m -24.93086,26.597033 0,31.201831"
                 style="fill:none;stroke:#000000;stroke-width:2.67261672;stroke-linecap:round;stroke-linejoin:miter;stroke-miterlimit:4;stroke-opacity:1;stroke-dasharray:none" />
            </g>
            <g
               id="g3768">
              <path
                 transform="translate(57.054764,959.47781)"
                 d="m 3.3103448,44.787018 c 0,0.75281 -0.6102731,1.363083 -1.3630831,1.363083 -0.75281,0 -1.36308313,-0.610273 -1.36308313,-1.363083 0,-0.75281 0.61027313,-1.363083 1.36308313,-1.363083 0.75281,0 1.3630831,0.610273 1.3630831,1.363083 z"
                 sodipodi:ry="1.3630831"
                 sodipodi:rx="1.3630831"
                 sodipodi:cy="44.787018"
                 sodipodi:cx="1.9472617"
                 id="path2996"
                 style="fill:#000000;fill-opacity:1;stroke:#000000;stroke-width:2.67261672;stroke-linecap:round;stroke-linejoin:miter;stroke-miterlimit:4;stroke-opacity:1;stroke-dasharray:none;stroke-dashoffset:0"
                 sodipodi:type="arc" />
              <path
                 sodipodi:type="arc"
                 style="fill:#000000;fill-opacity:1;stroke:#000000;stroke-width:2.67261672;stroke-linecap:round;stroke-linejoin:miter;stroke-miterlimit:4;stroke-opacity:1;stroke-dasharray:none;stroke-dashoffset:0"
                 id="path3766"
                 sodipodi:cx="1.9472617"
                 sodipodi:cy="44.787018"
                 sodipodi:rx="1.3630831"
                 sodipodi:ry="1.3630831"
                 d="m 3.3103448,44.787018 c 0,0.75281 -0.6102731,1.363083 -1.3630831,1.363083 -0.75281,0 -1.36308313,-0.610273 -1.36308313,-1.363083 0,-0.75281 0.61027313,-1.363083 1.36308313,-1.363083 0.75281,0 1.3630831,0.610273 1.3630831,1.363083 z"
                 transform="translate(35.054764,959.47781)" />
            </g>
          </g>
        </g>
      </g>
    </g>
  </g>
</svg>
