<?xml version="1.0" encoding="UTF-8" standalone="no"?>
<!-- Created with Inkscape (http://www.inkscape.org/) -->

<svg
   xmlns:dc="http://purl.org/dc/elements/1.1/"
   xmlns:cc="http://creativecommons.org/ns#"
   xmlns:rdf="http://www.w3.org/1999/02/22-rdf-syntax-ns#"
   xmlns:svg="http://www.w3.org/2000/svg"
   xmlns="http://www.w3.org/2000/svg"
   xmlns:sodipodi="http://sodipodi.sourceforge.net/DTD/sodipodi-0.dtd"
   xmlns:inkscape="http://www.inkscape.org/namespaces/inkscape"
   width="96"
   height="96"
   id="svg2"
   version="1.1"
   inkscape:version="0.48.3.1 r9886"
   sodipodi:docname="sen.svg">
  <defs
     id="defs4" />
  <sodipodi:namedview
     id="base"
     pagecolor="#ffffff"
     bordercolor="#666666"
     borderopacity="1.0"
     inkscape:pageopacity="0.0"
     inkscape:pageshadow="2"
     inkscape:zoom="5.1354167"
     inkscape:cx="37.484787"
     inkscape:cy="41.963489"
     inkscape:document-units="px"
     inkscape:current-layer="layer1"
     showgrid="false"
     inkscape:window-width="992"
     inkscape:window-height="822"
     inkscape:window-x="0"
     inkscape:window-y="26"
     inkscape:window-maximized="0"
     showguides="true"
     inkscape:guide-bbox="true" />
  <metadata
     id="metadata7">
    <rdf:RDF>
      <cc:Work
         rdf:about="">
        <dc:format>image/svg+xml</dc:format>
        <dc:type
           rdf:resource="http://purl.org/dc/dcmitype/StillImage" />
        <dc:title />
      </cc:Work>
    </rdf:RDF>
  </metadata>
  <g
     inkscape:label="Calque 1"
     inkscape:groupmode="layer"
     id="layer1"
     transform="translate(0,-956.36218)">
    <g
       id="g2999"
       transform="translate(-4.9999999e-7,0.01466156)">
      <path
         sodipodi:nodetypes="ccccc"
         inkscape:connector-curvature="0"
         id="path3804"
         d="m 53.380421,1043.0437 c 8.75175,7.0529 26.81091,7.5688 26.81091,-6.5659 0,-20.9765 -64.382661,-20.966 -64.382661,0 0,14.2143 13.827815,13.5583 22.98078,6.5659 5.106245,4.4741 8.48259,6.357 14.590971,0 z"
         style="fill:#ffffff;stroke:#000000;stroke-width:1.99999988;stroke-linecap:round;stroke-linejoin:miter;stroke-miterlimit:4;stroke-opacity:1;stroke-dasharray:none" />
      <g
         transform="translate(0,-7.0146427)"
         id="g3002">
        <g
           id="g3774"
           transform="matrix(1.1819753,0,0,1.1819753,-8.7348143,-175.75299)">
          <g
             id="g3770">
            <path
               transform="translate(-3.8043862,952.59152)"
               d="m 71.39292,66.940979 c 0,5.409224 -8.770086,9.794267 -19.588534,9.794267 -10.818448,0 -19.588533,-4.385043 -19.588533,-9.794267 0,-5.409224 8.770085,-9.794267 19.588533,-9.794267 10.818448,0 19.588534,4.385043 19.588534,9.794267 z"
               sodipodi:ry="9.7942667"
               sodipodi:rx="19.588533"
               sodipodi:cy="66.940979"
               sodipodi:cx="51.804386"
               id="path3000"
               style="fill:#ffffff;fill-opacity:1;stroke:#000000;stroke-width:1.69208276;stroke-linecap:round;stroke-linejoin:miter;stroke-miterlimit:4;stroke-opacity:1;stroke-dasharray:none;stroke-dashoffset:0"
               sodipodi:type="arc" />
            <path
               sodipodi:type="arc"
               style="fill:#ffffff;fill-opacity:1;stroke:#000000;stroke-width:1.69208276;stroke-linecap:round;stroke-linejoin:miter;stroke-miterlimit:4;stroke-opacity:1;stroke-dasharray:none;stroke-dashoffset:0"
               id="path2998"
               sodipodi:cx="51.804386"
               sodipodi:cy="66.940979"
               sodipodi:rx="19.588533"
               sodipodi:ry="9.7942667"
               d="m 71.39292,66.940979 c 0,5.409224 -8.770086,9.794267 -19.588534,9.794267 -10.818448,0 -19.588533,-4.385043 -19.588533,-9.794267 0,-5.409224 8.770085,-9.794267 19.588533,-9.794267 10.818448,0 19.588534,4.385043 19.588534,9.794267 z"
               transform="translate(-3.8043862,942.59152)" />
          </g>
          <path
             transform="matrix(0.50637421,0,0,0.50637421,76.143727,961.82432)"
             d="m -12.693947,54.144276 c 0,23.684711 -19.200252,42.884964 -42.884964,42.884964 -23.684711,0 -42.884964,-19.200253 -42.884964,-42.884964 0,-23.684712 19.200253,-42.884964 42.884964,-42.884964 23.684712,0 42.884964,19.200252 42.884964,42.884964 z"
             sodipodi:ry="42.884964"
             sodipodi:rx="42.884964"
             sodipodi:cy="54.144276"
             sodipodi:cx="-55.578911"
             id="path2995"
             style="fill:#ffffff;stroke:#000000;stroke-width:3.34156585;stroke-linecap:round;stroke-linejoin:miter;stroke-miterlimit:4;stroke-opacity:1;stroke-dasharray:none"
             sodipodi:type="arc" />
        </g>
        <g
           id="layer1-4"
           inkscape:label="Calque 1"
           transform="translate(1.751559e-7,-11.602438)">
          <g
             transform="matrix(1.1838691,0,0,1.1838691,77.70653,-181.02972)"
             id="g3766">
            <path
               style="fill:none;stroke:#000000;stroke-width:1.689376;stroke-linecap:round;stroke-linejoin:miter;stroke-miterlimit:4;stroke-opacity:1;stroke-dasharray:none"
               d="m -24.93086,33.996627 0,21.854975"
               id="path2994"
               inkscape:connector-curvature="0"
               transform="translate(0,956.36218)" />
            <path
               style="fill:none;stroke:#000000;stroke-width:1.689376;stroke-linecap:round;stroke-linejoin:miter;stroke-miterlimit:4;stroke-opacity:1;stroke-dasharray:none"
               d="m -32.539629,44.681281 14.89376,0"
               id="path2996"
               inkscape:connector-curvature="0"
               transform="translate(0,956.36218)" />
          </g>
        </g>
      </g>
    </g>
  </g>
</svg>
