<?xml version="1.0" encoding="UTF-8" standalone="no"?>
<!-- Created with Inkscape (http://www.inkscape.org/) -->

<svg
   xmlns:dc="http://purl.org/dc/elements/1.1/"
   xmlns:cc="http://creativecommons.org/ns#"
   xmlns:rdf="http://www.w3.org/1999/02/22-rdf-syntax-ns#"
   xmlns:svg="http://www.w3.org/2000/svg"
   xmlns="http://www.w3.org/2000/svg"
   xmlns:sodipodi="http://sodipodi.sourceforge.net/DTD/sodipodi-0.dtd"
   xmlns:inkscape="http://www.inkscape.org/namespaces/inkscape"
   width="96"
   height="96"
   id="svg2"
   version="1.1"
   inkscape:version="0.48.3.1 r9886"
   sodipodi:docname="so.svg">
  <defs
     id="defs4" />
  <sodipodi:namedview
     id="base"
     pagecolor="#ffffff"
     bordercolor="#666666"
     borderopacity="1.0"
     inkscape:pageopacity="0.0"
     inkscape:pageshadow="2"
     inkscape:zoom="5.8333333"
     inkscape:cx="48"
     inkscape:cy="48"
     inkscape:document-units="px"
     inkscape:current-layer="layer1"
     showgrid="false"
     inkscape:window-width="992"
     inkscape:window-height="822"
     inkscape:window-x="0"
     inkscape:window-y="26"
     inkscape:window-maximized="0"
     showguides="true"
     inkscape:guide-bbox="true" />
  <metadata
     id="metadata7">
    <rdf:RDF>
      <cc:Work
         rdf:about="">
        <dc:format>image/svg+xml</dc:format>
        <dc:type
           rdf:resource="http://purl.org/dc/dcmitype/StillImage" />
        <dc:title />
      </cc:Work>
    </rdf:RDF>
  </metadata>
  <g
     inkscape:label="Calque 1"
     inkscape:groupmode="layer"
     id="layer1"
     transform="translate(0,-956.36218)">
    <g
       id="g2999">
      <g
         transform="matrix(1.1819753,0,0,1.1819753,-8.7348143,-175.75299)"
         id="g3774">
        <g
           id="g3770">
          <path
             sodipodi:type="arc"
             style="fill:#ffffff;fill-opacity:1;stroke:#000000;stroke-width:1.69208276;stroke-linecap:round;stroke-linejoin:miter;stroke-miterlimit:4;stroke-opacity:1;stroke-dasharray:none;stroke-dashoffset:0"
             id="path3000"
             sodipodi:cx="51.804386"
             sodipodi:cy="66.940979"
             sodipodi:rx="19.588533"
             sodipodi:ry="9.7942667"
             d="m 71.39292,66.940979 c 0,5.409224 -8.770086,9.794267 -19.588534,9.794267 -10.818448,0 -19.588533,-4.385043 -19.588533,-9.794267 0,-5.409224 8.770085,-9.794267 19.588533,-9.794267 10.818448,0 19.588534,4.385043 19.588534,9.794267 z"
             transform="translate(-3.8043862,952.59152)" />
          <path
             transform="translate(-3.8043862,942.59152)"
             d="m 71.39292,66.940979 c 0,5.409224 -8.770086,9.794267 -19.588534,9.794267 -10.818448,0 -19.588533,-4.385043 -19.588533,-9.794267 0,-5.409224 8.770085,-9.794267 19.588533,-9.794267 10.818448,0 19.588534,4.385043 19.588534,9.794267 z"
             sodipodi:ry="9.7942667"
             sodipodi:rx="19.588533"
             sodipodi:cy="66.940979"
             sodipodi:cx="51.804386"
             id="path2998"
             style="fill:#ffffff;fill-opacity:1;stroke:#000000;stroke-width:1.69208276;stroke-linecap:round;stroke-linejoin:miter;stroke-miterlimit:4;stroke-opacity:1;stroke-dasharray:none;stroke-dashoffset:0"
             sodipodi:type="arc" />
        </g>
        <path
           sodipodi:type="arc"
           style="fill:#ffffff;stroke:#000000;stroke-width:3.34156585;stroke-linecap:round;stroke-linejoin:miter;stroke-miterlimit:4;stroke-opacity:1;stroke-dasharray:none"
           id="path2995"
           sodipodi:cx="-55.578911"
           sodipodi:cy="54.144276"
           sodipodi:rx="42.884964"
           sodipodi:ry="42.884964"
           d="m -12.693947,54.144276 c 0,23.684711 -19.200252,42.884964 -42.884964,42.884964 -23.684711,0 -42.884964,-19.200253 -42.884964,-42.884964 0,-23.684712 19.200253,-42.884964 42.884964,-42.884964 23.684712,0 42.884964,19.200252 42.884964,42.884964 z"
           transform="matrix(0.50637421,0,0,0.50637421,76.143727,961.82432)" />
      </g>
      <g
         transform="translate(-1.9409793e-7,-11.144013)"
         inkscape:label="Calque 1"
         id="layer1-0">
        <g
           id="g3777"
           transform="matrix(0.82203086,0,0,0.82203086,73.691382,177.78505)">
          <path
             sodipodi:type="arc"
             style="fill:#000000;fill-opacity:1;stroke:#000000;stroke-width:2.43299866;stroke-linecap:round;stroke-linejoin:miter;stroke-miterlimit:4;stroke-opacity:1;stroke-dasharray:none;stroke-dashoffset:0"
             id="path3766"
             sodipodi:cx="1.9472617"
             sodipodi:cy="44.787018"
             sodipodi:rx="1.3630831"
             sodipodi:ry="1.3630831"
             d="m 3.3103448,44.787018 c 0,0.75281 -0.6102731,1.363083 -1.3630831,1.363083 -0.75281,0 -1.36308313,-0.610273 -1.36308313,-1.363083 0,-0.75281 0.61027313,-1.363083 1.36308313,-1.363083 0.75281,0 1.3630831,0.610273 1.3630831,1.363083 z"
             transform="translate(-34.657203,959.08835)" />
          <path
             transform="matrix(0.83703495,0,0,0.83703495,-44.863431,958.99614)"
             d="m 29.598376,55.594322 c 0,7.366784 -5.971958,13.338742 -13.338742,13.338742 -7.3667839,0 -13.3387422,-5.971958 -13.3387422,-13.338742 0,-7.366784 5.9719583,-13.338742 13.3387422,-13.338742 7.366784,0 13.338742,5.971958 13.338742,13.338742 z"
             sodipodi:ry="13.338742"
             sodipodi:rx="13.338742"
             sodipodi:cy="55.594322"
             sodipodi:cx="16.259634"
             id="path3007"
             style="fill:none;stroke:#000000;stroke-width:2.90668702;stroke-linecap:round;stroke-linejoin:miter;stroke-miterlimit:4;stroke-opacity:1;stroke-dasharray:none;stroke-dashoffset:0"
             sodipodi:type="arc" />
        </g>
      </g>
    </g>
  </g>
</svg>
