<?xml version="1.0" encoding="UTF-8" standalone="no"?>
<!-- Created with Inkscape (http://www.inkscape.org/) -->

<svg
   xmlns:dc="http://purl.org/dc/elements/1.1/"
   xmlns:cc="http://creativecommons.org/ns#"
   xmlns:rdf="http://www.w3.org/1999/02/22-rdf-syntax-ns#"
   xmlns:svg="http://www.w3.org/2000/svg"
   xmlns="http://www.w3.org/2000/svg"
   xmlns:sodipodi="http://sodipodi.sourceforge.net/DTD/sodipodi-0.dtd"
   xmlns:inkscape="http://www.inkscape.org/namespaces/inkscape"
   width="96.730003"
   height="175.35001"
   id="svg2"
   version="1.1"
   inkscape:version="0.48.3.1 r9886"
   sodipodi:docname="ale li pona.svg">
  <defs
     id="defs4" />
  <sodipodi:namedview
     id="base"
     pagecolor="#ffffff"
     bordercolor="#666666"
     borderopacity="1.0"
     inkscape:pageopacity="0.0"
     inkscape:pageshadow="2"
     inkscape:zoom="2.5526621"
     inkscape:cx="47.060012"
     inkscape:cy="77.761959"
     inkscape:document-units="px"
     inkscape:current-layer="layer1"
     showgrid="false"
     inkscape:window-width="1440"
     inkscape:window-height="824"
     inkscape:window-x="0"
     inkscape:window-y="26"
     inkscape:window-maximized="1" />
  <metadata
     id="metadata7">
    <rdf:RDF>
      <cc:Work
         rdf:about="">
        <dc:format>image/svg+xml</dc:format>
        <dc:type
           rdf:resource="http://purl.org/dc/dcmitype/StillImage" />
        <dc:title />
      </cc:Work>
    </rdf:RDF>
  </metadata>
  <g
     inkscape:label="Calque 1"
     inkscape:groupmode="layer"
     id="layer1"
     transform="translate(0,-877.01218)">
    <g
       id="g3853">
      <g
         inkscape:label="Calque 1"
         id="layer1-5"
         transform="matrix(1.2977144,0,0,1.2977144,-13.925289,-267.72103)">
        <g
           id="g3770"
           transform="matrix(0.9982365,0,0,0.9982365,94.400685,1.9416241)">
          <path
             sodipodi:type="arc"
             style="fill:#ffffff;stroke:#000000;stroke-width:1.18520141;stroke-linecap:round;stroke-linejoin:miter;stroke-miterlimit:4;stroke-opacity:1;stroke-dasharray:none;stroke-dashoffset:0"
             id="path2996"
             sodipodi:cx="-73.497475"
             sodipodi:cy="32.620571"
             sodipodi:rx="26.064081"
             sodipodi:ry="6.7183809"
             d="m -47.433393,32.620571 c 0,3.710459 -11.669287,6.718381 -26.064082,6.718381 -14.394794,0 -26.064081,-3.007922 -26.064081,-6.718381 0,-3.710459 11.669287,-6.718381 26.064081,-6.718381 14.394795,0 26.064082,3.007922 26.064082,6.718381 z"
             transform="matrix(1.4029364,0,0,1.2095186,56.629625,968.73626)" />
          <path
             transform="matrix(1.4029364,0,0,1.2095186,56.629625,960.73626)"
             d="m -47.433393,32.620571 c 0,3.710459 -11.669287,6.718381 -26.064082,6.718381 -14.394794,0 -26.064081,-3.007922 -26.064081,-6.718381 0,-3.710459 11.669287,-6.718381 26.064081,-6.718381 14.394795,0 26.064082,3.007922 26.064082,6.718381 z"
             sodipodi:ry="6.7183809"
             sodipodi:rx="26.064081"
             sodipodi:cy="32.620571"
             sodipodi:cx="-73.497475"
             id="path3000"
             style="fill:#ffffff;stroke:#000000;stroke-width:1.18520141;stroke-linecap:round;stroke-linejoin:miter;stroke-miterlimit:4;stroke-opacity:1;stroke-dasharray:none;stroke-dashoffset:0"
             sodipodi:type="arc" />
        </g>
      </g>
      <g
         inkscape:label="Calque 1"
         id="layer1-3"
         transform="translate(1.5905119,-37.499051)">
        <path
           sodipodi:nodetypes="sssss"
           inkscape:connector-curvature="0"
           transform="matrix(0.8513215,0,0,0.8513215,95.315522,958.26799)"
           style="fill:#ffffff;stroke:#000000;stroke-width:2.3492887;stroke-linecap:round;stroke-linejoin:miter;stroke-miterlimit:4;stroke-opacity:1"
           d="m -5.3313157,75.772005 c 0,53.135235 -28.4035413,54.849245 -52.0882533,54.849245 -23.684711,0 -52.548421,-4.47499 -52.548421,-53.928916 0,-23.684712 8.15631,-56.689897 51.628092,-56.689897 42.09129,0 53.0085823,32.084856 53.0085823,55.769568 z"
           id="path2995" />
      </g>
      <g
         inkscape:label="Calque 1"
         id="layer1-1"
         transform="translate(1.5905119,-88.443251)">
        <g
           id="g3000"
           transform="matrix(0.93779098,0,0,0.93779098,2.4938828,63.458677)">
          <rect
             ry="20"
             y="964.98358"
             x="9.5372086"
             height="78.757149"
             width="76.925583"
             id="rect2992"
             style="fill:#ffffff;stroke:#000000;stroke-width:2.13267136;stroke-linecap:round;stroke-linejoin:miter;stroke-miterlimit:4;stroke-opacity:1;stroke-dasharray:none" />
          <g
             transform="translate(-1.4951327e-7,1.0343958e-6)"
             id="g2998">
            <path
               sodipodi:type="arc"
               style="fill:#ffffff;stroke:#000000;stroke-width:2.70254469;stroke-linecap:round;stroke-linejoin:miter;stroke-miterlimit:4;stroke-opacity:1;stroke-dasharray:none"
               id="path3901"
               sodipodi:cx="-8.9574032"
               sodipodi:cy="129.4929"
               sodipodi:rx="12.851927"
               sodipodi:ry="12.851927"
               d="m 3.8945236,129.4929 c 0,7.09793 -5.7540036,12.85193 -12.8519268,12.85193 -7.0979228,0 -12.8519268,-5.754 -12.8519268,-12.85193 0,-7.09792 5.754004,-12.85192 12.8519268,-12.85192 7.0979232,0 12.8519268,5.754 12.8519268,12.85192 z"
               transform="matrix(0.78913457,0,0,0.78913457,84.439083,870.85183)" />
            <path
               style="fill:none;stroke:#000000;stroke-width:2.13267136;stroke-linecap:round;stroke-linejoin:miter;stroke-miterlimit:4;stroke-opacity:1;stroke-dasharray:none"
               d="m 67.603187,976.77491 c -13.567587,8.04059 -27.89487,17.94395 -32.983792,31.78859 -5.679986,17.0406 11.125046,18.0122 20.251522,9.7363 10.149575,-10.2922 18.185677,-23.30784 22.645826,-34.78106"
               id="path3759"
               inkscape:connector-curvature="0"
               sodipodi:nodetypes="cccc" />
            <path
               style="fill:none;stroke:#000000;stroke-width:2.13267136;stroke-linecap:round;stroke-linejoin:miter;stroke-miterlimit:4;stroke-opacity:1;stroke-dasharray:none"
               d="M 42.194321,1014.5339 70.56263,982.05422"
               id="path3763"
               inkscape:connector-curvature="0" />
          </g>
        </g>
      </g>
      <g
         inkscape:label="Calque 1"
         id="layer1-38"
         transform="translate(-0.41849206,-15.309914)">
        <g
           id="g3785"
           transform="matrix(0.99954408,0,0,0.99954408,94.609707,4.8493042)">
          <g
             id="g3781">
            <path
               style="fill:#ffffff;stroke:#000000;stroke-width:2.00091219;stroke-linecap:round;stroke-linejoin:miter;stroke-miterlimit:4;stroke-opacity:1;stroke-dasharray:none"
               d="m -79.058823,32.324544 c 0,0 -1.036797,-4.999176 0.259242,-8.870617 1.581203,-4.72326 7.108815,-9.477439 10.25597,-10.017821 3.147156,-0.540381 8.373226,8.178499 8.373226,8.178499 0,0 5.4172,-8.090105 9.346856,-7.983773 3.929656,0.106332 9.15213,7.789047 9.15213,7.789047 0,0 10.205554,-6.036512 16.162272,-6.036512 5.956717,0 15.7843613,5.515354 15.383366,18.109534 -0.400995,12.59418 -6.960814,40.308316 -33.687626,40.308316 -26.726812,0 -39.334685,-14.454183 -39.334685,-25.89858 0,-11.444396 4.089249,-15.578093 4.089249,-15.578093 z"
               id="path3001"
               inkscape:connector-curvature="0"
               sodipodi:nodetypes="cszczczzzzc"
               transform="translate(0,956.36218)" />
            <path
               style="fill:none;stroke:#000000;stroke-width:2.00091219;stroke-linecap:round;stroke-linejoin:miter;stroke-miterlimit:4;stroke-opacity:1;stroke-dasharray:none"
               d="m -79.081692,32.330466 c 9.300178,-4.641701 23.000192,4.381587 32.017433,4.455854 9.017241,0.07427 17.693331,-4.364354 17.693331,-4.364354"
               id="path3003"
               inkscape:connector-curvature="0"
               sodipodi:nodetypes="czc"
               transform="translate(0,956.36218)" />
          </g>
          <g
             id="g3777">
            <path
               style="fill:none;stroke:#000000;stroke-width:2.00091219;stroke-linecap:round;stroke-linejoin:miter;stroke-miterlimit:4;stroke-opacity:1;stroke-dasharray:none"
               d="m -71.739722,40.513 c 0,0 6.645046,4.807148 23.602679,4.554904 16.957632,-0.252245 19.804124,-5.520619 21.118187,-4.761945 1.314062,0.758675 5.761601,1.955134 4.451382,8.281642 -1.310219,6.326508 -11.007121,15.321037 -25.155488,15.321037 -14.148367,0 -25.365586,-7.302178 -27.122375,-13.97527 -1.756789,-6.673092 3.105615,-9.420368 3.105615,-9.420368 z"
               id="path3005"
               inkscape:connector-curvature="0"
               sodipodi:nodetypes="czzzzzc"
               transform="translate(0,956.36218)" />
            <path
               style="fill:none;stroke:#000000;stroke-width:2.00091219;stroke-linecap:round;stroke-linejoin:miter;stroke-miterlimit:4;stroke-opacity:1;stroke-dasharray:none"
               d="m -66.180984,49.923957 c 12.696455,5.587985 24.260829,4.438627 36.781156,-1.232836"
               id="path3007"
               inkscape:connector-curvature="0"
               sodipodi:nodetypes="cc"
               transform="translate(0,956.36218)" />
          </g>
        </g>
      </g>
    </g>
  </g>
</svg>
