<?xml version="1.0" encoding="UTF-8" standalone="no"?>
<!-- Created with Inkscape (http://www.inkscape.org/) -->

<svg
   xmlns:dc="http://purl.org/dc/elements/1.1/"
   xmlns:cc="http://creativecommons.org/ns#"
   xmlns:rdf="http://www.w3.org/1999/02/22-rdf-syntax-ns#"
   xmlns:svg="http://www.w3.org/2000/svg"
   xmlns="http://www.w3.org/2000/svg"
   xmlns:sodipodi="http://sodipodi.sourceforge.net/DTD/sodipodi-0.dtd"
   xmlns:inkscape="http://www.inkscape.org/namespaces/inkscape"
   width="125.94"
   height="170.19"
   id="svg2"
   version="1.1"
   inkscape:version="0.48.3.1 r9886"
   sodipodi:docname="jan sona li jan nasa.svg">
  <defs
     id="defs4" />
  <sodipodi:namedview
     id="base"
     pagecolor="#ffffff"
     bordercolor="#666666"
     borderopacity="1.0"
     inkscape:pageopacity="0.0"
     inkscape:pageshadow="2"
     inkscape:zoom="3.4960926"
     inkscape:cx="62.970001"
     inkscape:cy="85.095001"
     inkscape:document-units="px"
     inkscape:current-layer="layer1"
     showgrid="false"
     inkscape:window-width="1440"
     inkscape:window-height="824"
     inkscape:window-x="0"
     inkscape:window-y="26"
     inkscape:window-maximized="1" />
  <metadata
     id="metadata7">
    <rdf:RDF>
      <cc:Work
         rdf:about="">
        <dc:format>image/svg+xml</dc:format>
        <dc:type
           rdf:resource="http://purl.org/dc/dcmitype/StillImage" />
        <dc:title />
      </cc:Work>
    </rdf:RDF>
  </metadata>
  <g
     inkscape:label="Calque 1"
     inkscape:groupmode="layer"
     id="layer1"
     transform="translate(0,-882.17218)">
    <g
       id="g3934"
       transform="translate(-31.739035,54.274549)">
      <g
         inkscape:label="Calque 1"
         id="layer1-57"
         transform="matrix(1.6576652,0,0,1.6576652,13.677074,-687.87339)">
        <g
           id="g3770"
           transform="matrix(0.9982365,0,0,0.9982365,94.400685,1.9416241)">
          <path
             sodipodi:type="arc"
             style="fill:#ffffff;stroke:#000000;stroke-width:0.92784292;stroke-linecap:round;stroke-linejoin:miter;stroke-miterlimit:4;stroke-opacity:1;stroke-dasharray:none;stroke-dashoffset:0"
             id="path2996"
             sodipodi:cx="-73.497475"
             sodipodi:cy="32.620571"
             sodipodi:rx="26.064081"
             sodipodi:ry="6.7183809"
             d="m -47.433393,32.620571 c 0,3.710459 -11.669287,6.718381 -26.064082,6.718381 -14.394794,0 -26.064081,-3.007922 -26.064081,-6.718381 0,-3.710459 11.669287,-6.718381 26.064081,-6.718381 14.394795,0 26.064082,3.007922 26.064082,6.718381 z"
             transform="matrix(1.4029364,0,0,1.2095186,56.629625,968.73626)" />
          <path
             transform="matrix(1.4029364,0,0,1.2095186,56.629625,960.73626)"
             d="m -47.433393,32.620571 c 0,3.710459 -11.669287,6.718381 -26.064082,6.718381 -14.394794,0 -26.064081,-3.007922 -26.064081,-6.718381 0,-3.710459 11.669287,-6.718381 26.064081,-6.718381 14.394795,0 26.064082,3.007922 26.064082,6.718381 z"
             sodipodi:ry="6.7183809"
             sodipodi:rx="26.064081"
             sodipodi:cy="32.620571"
             sodipodi:cx="-73.497475"
             id="path3000"
             style="fill:#ffffff;stroke:#000000;stroke-width:0.92784292;stroke-linecap:round;stroke-linejoin:miter;stroke-miterlimit:4;stroke-opacity:1;stroke-dasharray:none;stroke-dashoffset:0"
             sodipodi:type="arc" />
        </g>
      </g>
      <g
         inkscape:label="Calque 1"
         id="layer1-5"
         transform="translate(43.500533,-78.245745)">
        <path
           sodipodi:nodetypes="sssss"
           inkscape:connector-curvature="0"
           transform="matrix(0.8513215,0,0,0.8513215,95.315522,958.26799)"
           style="fill:#ffffff;stroke:#000000;stroke-width:2.3492887;stroke-linecap:round;stroke-linejoin:miter;stroke-miterlimit:4;stroke-opacity:1"
           d="m 19.517565,54.144276 c 0,33.348165 -14.5986077,57.150064 -72.335489,57.150064 -74.302806,0 -70.494836,-24.722228 -70.494836,-57.150064 0,-44.3921124 16.43927,-42.884964 67.733849,-42.884964 68.320664,0 75.096476,2.174167 75.096476,42.884964 z"
           id="path2995" />
      </g>
      <g
         inkscape:label="Calque 1"
         id="layer1-1"
         transform="translate(72.13939,-138.93619)">
        <g
           id="g3776"
           transform="matrix(0.95861616,0,0,0.95861616,95.85581,40.926414)">
          <path
             sodipodi:nodetypes="czzzzzc"
             transform="translate(0,956.36218)"
             inkscape:connector-curvature="0"
             id="path3004"
             d="m -66.985801,78.474645 c 0,0 -2.898945,4.419945 -9.346856,2.920893 -6.447911,-1.499052 -12.127783,-8.34716 -11.68357,-32.908722 0.444213,-24.561563 35.407944,-39.2368923 53.939148,-35.440162 18.531204,3.79673 24.03162,21.448076 21.809331,36.02434 -2.22229,14.576265 -2.899254,32.430898 -25.509128,35.245436 -22.609874,2.814538 -29.208925,-5.841785 -29.208925,-5.841785 z"
             style="fill:#ffffff;stroke:#000000;stroke-width:2.0863409;stroke-linecap:round;stroke-linejoin:miter;stroke-miterlimit:4;stroke-opacity:1;stroke-dasharray:none" />
          <path
             sodipodi:nodetypes="czccccc"
             transform="translate(0,956.36218)"
             inkscape:connector-curvature="0"
             id="path3006"
             d="m -66.791075,79.058824 c 0,0 -6.751985,-10.630466 -6.425963,-16.746451 0.326022,-6.115985 2.48132,-15.067795 8.567951,-16.74645 9.187305,-2.222592 12.687347,13.775428 18.761923,8.321538 6.891604,-7.522671 -10.095843,-12.200918 -3.857919,-17.627994 3.584949,-3.148979 7.026943,4.495437 10.215672,4.243576 4.118033,0.10733 1.966029,-4.479868 -0.584179,-6.425963"
             style="fill:none;stroke:#000000;stroke-width:2.0863409;stroke-linecap:round;stroke-linejoin:miter;stroke-miterlimit:4;stroke-opacity:1;stroke-dasharray:none" />
        </g>
      </g>
      <g
         inkscape:label="Calque 1"
         id="layer1-6"
         transform="translate(20.03692,-138.93619)">
        <g
           id="g3807"
           transform="matrix(0.97101892,0,0,0.97101892,72.885642,32.616496)">
          <path
             transform="matrix(0.92526482,-0.1286522,0.14007994,1.007453,-4.5308196,952.29419)"
             d="m 4.7051315,26.120083 c 0,10.105559 -13.8876866,18.297733 -31.0190165,18.297733 -17.131329,0 -31.019016,-8.192174 -31.019016,-18.297733 0,-10.105559 13.887687,-18.2977335 31.019016,-18.2977335 17.1313299,0 31.0190165,8.1921745 31.0190165,18.2977335 z"
             sodipodi:ry="18.297733"
             sodipodi:rx="31.019016"
             sodipodi:cy="26.120083"
             sodipodi:cx="-26.313885"
             id="path3015"
             style="fill:#ffffff;stroke:#000000;stroke-width:2.11299658;stroke-linecap:round;stroke-linejoin:miter;stroke-miterlimit:4;stroke-opacity:1;stroke-dasharray:none"
             sodipodi:type="arc" />
          <path
             sodipodi:nodetypes="zccczzz"
             transform="translate(0,956.36218)"
             inkscape:connector-curvature="0"
             id="path3011"
             d="m -53.233082,43.817836 c -0.302941,5.842979 -2.412086,29.25682 -1.30028,33.402873 12.461934,5.875195 49.5683053,7.663683 54.56675435,-2.353394 C 3.234363,67.501811 5.1276573,40.605308 -4.7917495,38.400241 -24.160804,39.364679 -13.563279,15.791862 -24.743051,14.81289 c -11.179772,-0.978972 -12.000168,18.865396 -15.075601,19.12896 -3.075433,0.263564 -13.111489,4.033006 -13.41443,9.875986 z"
             style="fill:#ffffff;stroke:#000000;stroke-width:2.05969214;stroke-linecap:round;stroke-linejoin:miter;stroke-miterlimit:4;stroke-opacity:1;stroke-dasharray:none" />
          <g
             id="g3797">
            <path
               style="fill:none;stroke:#000000;stroke-width:2.05969214;stroke-linecap:round;stroke-linejoin:miter;stroke-miterlimit:4;stroke-opacity:1;stroke-dasharray:none"
               d="m -41.79907,71.506278 c 4.166511,-7.492535 10.433687,-12.452597 16.506639,-18.281547"
               id="path3789"
               inkscape:connector-curvature="0"
               transform="translate(0,956.36218)"
               sodipodi:nodetypes="cc" />
            <path
               style="fill:none;stroke:#000000;stroke-width:2.05969214;stroke-linecap:round;stroke-linejoin:miter;stroke-miterlimit:4;stroke-opacity:1;stroke-dasharray:none"
               d="M -34.788186,73.902403 -18.725273,56.952037"
               id="path3791"
               inkscape:connector-curvature="0"
               transform="translate(0,956.36218)" />
            <path
               style="fill:none;stroke:#000000;stroke-width:2.05969214;stroke-linecap:round;stroke-linejoin:miter;stroke-miterlimit:4;stroke-opacity:1;stroke-dasharray:none"
               d="m -35.054422,54.20093 17.571584,14.642986"
               id="path3793"
               inkscape:connector-curvature="0"
               transform="translate(0,956.36218)" />
            <path
               style="fill:none;stroke:#000000;stroke-width:2.05969214;stroke-linecap:round;stroke-linejoin:miter;stroke-miterlimit:4;stroke-opacity:1;stroke-dasharray:none"
               d="m -41.621579,61.30056 14.820477,11.181917"
               id="path3795"
               inkscape:connector-curvature="0"
               transform="translate(0,956.36218)" />
          </g>
          <g
             id="g3803">
            <path
               style="fill:none;stroke:#000000;stroke-width:2.05969214;stroke-linecap:round;stroke-linejoin:miter;stroke-miterlimit:4;stroke-opacity:1;stroke-dasharray:none"
               d="m -39.272255,990.33048 c 5.175698,1.59377 13.612644,0.58882 13.567061,-6.25464 -0.169711,-2.71539 -0.791988,-6.05305 -0.791988,-6.05305"
               id="path3785"
               inkscape:connector-curvature="0"
               sodipodi:nodetypes="ccc" />
            <path
               sodipodi:type="arc"
               style="fill:none;stroke:#000000;stroke-width:2.05969214;stroke-linecap:round;stroke-linejoin:miter;stroke-miterlimit:4;stroke-opacity:1;stroke-dasharray:none"
               id="path3787"
               sodipodi:cx="-45.548134"
               sodipodi:cy="20.461903"
               sodipodi:rx="0.42239383"
               sodipodi:ry="0.42239383"
               d="m -45.12574,20.461903 c 0,0.233281 -0.189112,0.422393 -0.422394,0.422393 -0.233282,0 -0.422394,-0.189112 -0.422394,-0.422393 0,-0.233282 0.189112,-0.422394 0.422394,-0.422394 0.233282,0 0.422394,0.189112 0.422394,0.422394 z"
               transform="translate(14.290991,962.55729)" />
          </g>
        </g>
      </g>
      <g
         inkscape:label="Calque 1"
         id="layer1-3"
         transform="matrix(0.76809939,0,0,0.76809939,77.347942,163.38937)">
        <g
           id="g3786"
           transform="matrix(1.135234,0,0,1.135234,89.190753,-130.55119)">
          <g
             id="g3778">
            <path
               style="fill:#ffffff;stroke:#000000;stroke-width:2.29365015;stroke-linecap:round;stroke-linejoin:miter;stroke-miterlimit:4;stroke-opacity:1;stroke-dasharray:none"
               d="m -11.68357,40.113591 c 2.7385936,-2.567983 7.3039272,-8.767562 -1.947262,-17.914808 4.9400521,-4.040624 6.7783779,-11.159572 0.973631,-13.2413788 -11.260266,-3.4065737 -23.673819,-2.0950609 -32.129817,2.5314398 -27.070511,12.572464 -28.36905,48.59433 -16.05094,62.07053 12.318109,13.476199 22.244279,0.496073 22.476903,0.241843 5.306042,-5.755049 22.126064,-26.048691 26.677485,-33.687626 z"
               id="path3774"
               inkscape:connector-curvature="0"
               transform="translate(0,956.36218)"
               sodipodi:nodetypes="cccczcc" />
            <path
               style="fill:none;stroke:#000000;stroke-width:2.29365015;stroke-linecap:round;stroke-linejoin:miter;stroke-miterlimit:4;stroke-opacity:1;stroke-dasharray:none"
               d="m -14.020284,22.198783 c -32.223858,-4.496995 -43.33035,20.103259 -39.334685,38.555781"
               id="path3776"
               inkscape:connector-curvature="0"
               transform="translate(0,956.36218)"
               sodipodi:nodetypes="cc" />
          </g>
          <g
             id="g3782">
            <path
               sodipodi:type="arc"
               style="fill:#ffffff;stroke:#000000;stroke-width:1.6907742;stroke-linecap:round;stroke-linejoin:miter;stroke-miterlimit:4;stroke-opacity:1;stroke-dasharray:none;stroke-dashoffset:0"
               id="path3002"
               sodipodi:cx="29.40365"
               sodipodi:cy="61.338741"
               sodipodi:rx="15.383367"
               sodipodi:ry="15.383367"
               d="m 44.787017,61.338741 c 0,8.495999 -6.887368,15.383367 -15.383367,15.383367 -8.495998,0 -15.383366,-6.887368 -15.383366,-15.383367 0,-8.495998 6.887368,-15.383366 15.383366,-15.383366 8.495999,0 15.383367,6.887368 15.383367,15.383366 z"
               transform="matrix(1.356568,0,0,1.356568,-65.007728,928.64896)" />
            <path
               style="fill:none;stroke:#000000;stroke-width:2.29365015;stroke-linecap:round;stroke-linejoin:miter;stroke-miterlimit:4;stroke-opacity:1;stroke-dasharray:none"
               d="m -36.413793,50.239351 c -0.389452,5.577428 9.600674,4.543192 14.40512,5.102531 3.822702,0.445043 6.340066,1.86981 5.846401,5.607408 -0.778904,3.310345 -2.920892,4.868154 -6.036511,4.673428 -8.007565,0.189146 -4.763947,-9.52493 -4.13241,-15.99078 0.375508,-10.870003 -9.903663,-3.363188 -10.0826,0.607413 z"
               id="path3772"
               inkscape:connector-curvature="0"
               transform="translate(0,956.36218)"
               sodipodi:nodetypes="cscccc" />
          </g>
        </g>
      </g>
      <g
         transform="matrix(0.80166768,0,0,0.80166768,33.998042,128.42543)"
         id="g3890"
         inkscape:label="Calque 1">
        <g
           transform="matrix(0.97101892,0,0,0.97101892,72.885642,32.616496)"
           id="g3892">
          <path
             sodipodi:type="arc"
             style="fill:#ffffff;stroke:#000000;stroke-width:2.63575125;stroke-linecap:round;stroke-linejoin:miter;stroke-miterlimit:4;stroke-opacity:1;stroke-dasharray:none"
             id="path3894"
             sodipodi:cx="-26.313885"
             sodipodi:cy="26.120083"
             sodipodi:rx="31.019016"
             sodipodi:ry="18.297733"
             d="m 4.7051315,26.120083 c 0,10.105559 -13.8876866,18.297733 -31.0190165,18.297733 -17.131329,0 -31.019016,-8.192174 -31.019016,-18.297733 0,-10.105559 13.887687,-18.2977335 31.019016,-18.2977335 17.1313299,0 31.0190165,8.1921745 31.0190165,18.2977335 z"
             transform="matrix(0.92526482,-0.1286522,0.14007994,1.007453,-4.5308196,952.29419)" />
          <path
             style="fill:#ffffff;stroke:#000000;stroke-width:2.56925917;stroke-linecap:round;stroke-linejoin:miter;stroke-miterlimit:4;stroke-opacity:1;stroke-dasharray:none"
             d="m -53.233082,43.817836 c -0.302941,5.842979 -2.412086,29.25682 -1.30028,33.402873 12.461934,5.875195 49.5683053,7.663683 54.56675435,-2.353394 C 3.234363,67.501811 5.1276573,40.605308 -4.7917495,38.400241 -24.160804,39.364679 -13.563279,15.791862 -24.743051,14.81289 c -11.179772,-0.978972 -12.000168,18.865396 -15.075601,19.12896 -3.075433,0.263564 -13.111489,4.033006 -13.41443,9.875986 z"
             id="path3896"
             inkscape:connector-curvature="0"
             transform="translate(0,956.36218)"
             sodipodi:nodetypes="zccczzz" />
          <g
             id="g3898">
            <path
               sodipodi:nodetypes="cc"
               transform="translate(0,956.36218)"
               inkscape:connector-curvature="0"
               id="path3900"
               d="m -41.79907,71.506278 c 4.166511,-7.492535 10.433687,-12.452597 16.506639,-18.281547"
               style="fill:none;stroke:#000000;stroke-width:2.56925917;stroke-linecap:round;stroke-linejoin:miter;stroke-miterlimit:4;stroke-opacity:1;stroke-dasharray:none" />
            <path
               transform="translate(0,956.36218)"
               inkscape:connector-curvature="0"
               id="path3902"
               d="M -34.788186,73.902403 -18.725273,56.952037"
               style="fill:none;stroke:#000000;stroke-width:2.56925917;stroke-linecap:round;stroke-linejoin:miter;stroke-miterlimit:4;stroke-opacity:1;stroke-dasharray:none" />
            <path
               transform="translate(0,956.36218)"
               inkscape:connector-curvature="0"
               id="path3904"
               d="m -35.054422,54.20093 17.571584,14.642986"
               style="fill:none;stroke:#000000;stroke-width:2.56925917;stroke-linecap:round;stroke-linejoin:miter;stroke-miterlimit:4;stroke-opacity:1;stroke-dasharray:none" />
            <path
               transform="translate(0,956.36218)"
               inkscape:connector-curvature="0"
               id="path3906"
               d="m -41.621579,61.30056 14.820477,11.181917"
               style="fill:none;stroke:#000000;stroke-width:2.56925917;stroke-linecap:round;stroke-linejoin:miter;stroke-miterlimit:4;stroke-opacity:1;stroke-dasharray:none" />
          </g>
          <g
             id="g3908">
            <path
               sodipodi:nodetypes="ccc"
               inkscape:connector-curvature="0"
               id="path3910"
               d="m -39.272255,990.33048 c 5.175698,1.59377 13.612644,0.58882 13.567061,-6.25464 -0.169711,-2.71539 -0.791988,-6.05305 -0.791988,-6.05305"
               style="fill:none;stroke:#000000;stroke-width:2.56925917;stroke-linecap:round;stroke-linejoin:miter;stroke-miterlimit:4;stroke-opacity:1;stroke-dasharray:none" />
            <path
               transform="translate(14.290991,962.55729)"
               d="m -45.12574,20.461903 c 0,0.233281 -0.189112,0.422393 -0.422394,0.422393 -0.233282,0 -0.422394,-0.189112 -0.422394,-0.422393 0,-0.233282 0.189112,-0.422394 0.422394,-0.422394 0.233282,0 0.422394,0.189112 0.422394,0.422394 z"
               sodipodi:ry="0.42239383"
               sodipodi:rx="0.42239383"
               sodipodi:cy="20.461903"
               sodipodi:cx="-45.548134"
               id="path3912"
               style="fill:none;stroke:#000000;stroke-width:2.56925917;stroke-linecap:round;stroke-linejoin:miter;stroke-miterlimit:4;stroke-opacity:1;stroke-dasharray:none"
               sodipodi:type="arc" />
          </g>
        </g>
      </g>
    </g>
  </g>
</svg>
