<?xml version="1.0" encoding="UTF-8" standalone="no"?>
<!-- Created with Inkscape (http://www.inkscape.org/) -->

<svg
   xmlns:dc="http://purl.org/dc/elements/1.1/"
   xmlns:cc="http://creativecommons.org/ns#"
   xmlns:rdf="http://www.w3.org/1999/02/22-rdf-syntax-ns#"
   xmlns:svg="http://www.w3.org/2000/svg"
   xmlns="http://www.w3.org/2000/svg"
   xmlns:sodipodi="http://sodipodi.sourceforge.net/DTD/sodipodi-0.dtd"
   xmlns:inkscape="http://www.inkscape.org/namespaces/inkscape"
   width="90.849998"
   height="152.7"
   id="svg2"
   version="1.1"
   inkscape:version="0.48.3.1 r9886"
   sodipodi:docname="lape li pona.svg">
  <defs
     id="defs4" />
  <sodipodi:namedview
     id="base"
     pagecolor="#ffffff"
     bordercolor="#666666"
     borderopacity="1.0"
     inkscape:pageopacity="0.0"
     inkscape:pageshadow="2"
     inkscape:zoom="3.0235613"
     inkscape:cx="41.790858"
     inkscape:cy="81.669195"
     inkscape:document-units="px"
     inkscape:current-layer="layer1"
     showgrid="false"
     inkscape:window-width="1440"
     inkscape:window-height="824"
     inkscape:window-x="0"
     inkscape:window-y="26"
     inkscape:window-maximized="1" />
  <metadata
     id="metadata7">
    <rdf:RDF>
      <cc:Work
         rdf:about="">
        <dc:format>image/svg+xml</dc:format>
        <dc:type
           rdf:resource="http://purl.org/dc/dcmitype/StillImage" />
        <dc:title />
      </cc:Work>
    </rdf:RDF>
  </metadata>
  <g
     inkscape:label="Calque 1"
     inkscape:groupmode="layer"
     id="layer1"
     transform="translate(0,-899.66217)">
    <g
       id="g3854">
      <g
         inkscape:label="Calque 1"
         id="layer1-0"
         transform="matrix(1.2175388,0,0,1.2175388,-13.016864,-186.20835)">
        <g
           id="g3770"
           transform="matrix(0.9982365,0,0,0.9982365,94.400685,1.9416241)">
          <path
             sodipodi:type="arc"
             style="fill:#ffffff;stroke:#000000;stroke-width:1.24534893;stroke-linecap:round;stroke-linejoin:miter;stroke-miterlimit:4;stroke-opacity:1;stroke-dasharray:none;stroke-dashoffset:0"
             id="path2996"
             sodipodi:cx="-73.497475"
             sodipodi:cy="32.620571"
             sodipodi:rx="26.064081"
             sodipodi:ry="6.7183809"
             d="m -47.433393,32.620571 c 0,3.710459 -11.669287,6.718381 -26.064082,6.718381 -14.394794,0 -26.064081,-3.007922 -26.064081,-6.718381 0,-3.710459 11.669287,-6.718381 26.064081,-6.718381 14.394795,0 26.064082,3.007922 26.064082,6.718381 z"
             transform="matrix(1.4029364,0,0,1.2095186,56.629625,968.73626)" />
          <path
             transform="matrix(1.4029364,0,0,1.2095186,56.629625,960.73626)"
             d="m -47.433393,32.620571 c 0,3.710459 -11.669287,6.718381 -26.064082,6.718381 -14.394794,0 -26.064081,-3.007922 -26.064081,-6.718381 0,-3.710459 11.669287,-6.718381 26.064081,-6.718381 14.394795,0 26.064082,3.007922 26.064082,6.718381 z"
             sodipodi:ry="6.7183809"
             sodipodi:rx="26.064081"
             sodipodi:cy="32.620571"
             sodipodi:cx="-73.497475"
             id="path3000"
             style="fill:#ffffff;stroke:#000000;stroke-width:1.24534893;stroke-linecap:round;stroke-linejoin:miter;stroke-miterlimit:4;stroke-opacity:1;stroke-dasharray:none;stroke-dashoffset:0"
             sodipodi:type="arc" />
        </g>
      </g>
      <path
         id="path2995"
         d="m 84.580792,996.76396 c 0,26.27664 5.24113,39.18674 -39.186768,39.18674 -43.6555027,0 -39.1867682,-13.2963 -39.1867682,-39.18674 0,-21.64225 1.324226,-39.18677 39.1867682,-39.18677 40.565925,0 39.186768,17.54452 39.186768,39.18677 z"
         style="fill:#ffffff;stroke:#000000;stroke-width:1.97166264;stroke-linecap:round;stroke-linejoin:miter;stroke-miterlimit:4;stroke-opacity:1;stroke-dasharray:none"
         inkscape:connector-curvature="0"
         sodipodi:nodetypes="sssss" />
      <g
         transform="matrix(0.91332542,0,0,0.91332542,88.014246,91.453488)"
         id="g3785">
        <g
           id="g3781">
          <path
             transform="translate(0,956.36218)"
             sodipodi:nodetypes="cszczczzzzc"
             inkscape:connector-curvature="0"
             id="path3001"
             d="m -79.058823,32.324544 c 0,0 -1.036797,-4.999176 0.259242,-8.870617 1.581203,-4.72326 7.108815,-9.477439 10.25597,-10.017821 3.147156,-0.540381 8.373226,8.178499 8.373226,8.178499 0,0 5.4172,-8.090105 9.346856,-7.983773 3.929656,0.106332 9.15213,7.789047 9.15213,7.789047 0,0 10.205554,-6.036512 16.162272,-6.036512 5.956717,0 15.7843613,5.515354 15.383366,18.109534 -0.400995,12.59418 -6.960814,40.308316 -33.687626,40.308316 -26.726812,0 -39.334685,-14.454183 -39.334685,-25.89858 0,-11.444396 4.089249,-15.578093 4.089249,-15.578093 z"
             style="fill:#ffffff;stroke:#000000;stroke-width:2.15877342;stroke-linecap:round;stroke-linejoin:miter;stroke-miterlimit:4;stroke-opacity:1;stroke-dasharray:none" />
          <path
             transform="translate(0,956.36218)"
             sodipodi:nodetypes="czc"
             inkscape:connector-curvature="0"
             id="path3003"
             d="m -79.081692,32.330466 c 9.300178,-4.641701 23.000192,4.381587 32.017433,4.455854 9.017241,0.07427 17.693331,-4.364354 17.693331,-4.364354"
             style="fill:none;stroke:#000000;stroke-width:2.15877342;stroke-linecap:round;stroke-linejoin:miter;stroke-miterlimit:4;stroke-opacity:1;stroke-dasharray:none" />
        </g>
        <g
           id="g3777">
          <path
             transform="translate(0,956.36218)"
             sodipodi:nodetypes="czzzzzc"
             inkscape:connector-curvature="0"
             id="path3005"
             d="m -71.739722,40.513 c 0,0 6.645046,4.807148 23.602679,4.554904 16.957632,-0.252245 19.804124,-5.520619 21.118187,-4.761945 1.314062,0.758675 5.761601,1.955134 4.451382,8.281642 -1.310219,6.326508 -11.007121,15.321037 -25.155488,15.321037 -14.148367,0 -25.365586,-7.302178 -27.122375,-13.97527 -1.756789,-6.673092 3.105615,-9.420368 3.105615,-9.420368 z"
             style="fill:none;stroke:#000000;stroke-width:2.15877342;stroke-linecap:round;stroke-linejoin:miter;stroke-miterlimit:4;stroke-opacity:1;stroke-dasharray:none" />
          <path
             transform="translate(0,956.36218)"
             sodipodi:nodetypes="cc"
             inkscape:connector-curvature="0"
             id="path3007"
             d="m -66.180984,49.923957 c 12.696455,5.587985 24.260829,4.438627 36.781156,-1.232836"
             style="fill:none;stroke:#000000;stroke-width:2.15877342;stroke-linecap:round;stroke-linejoin:miter;stroke-miterlimit:4;stroke-opacity:1;stroke-dasharray:none" />
        </g>
      </g>
      <g
         inkscape:label="Calque 1"
         id="layer1-9"
         transform="translate(-2.575002,-67.319999)">
        <g
           id="g3806"
           transform="matrix(1.1152248,0,0,1.1152248,99.216224,-114.24187)"
           style="fill:#ffffff">
          <path
             sodipodi:nodetypes="ccccccc"
             inkscape:connector-curvature="0"
             id="path3002-1"
             d="m -41.476673,22.198783 c 8.373225,0 14.604462,-2.726166 18.498986,-2.726166 15.3077365,1.814656 17.3619136,23.647472 11.099391,37.776876 -11.63692,21.356013 -30.586264,24.680392 -52.576065,20.446247 -15.165703,-12.98787 -21.601625,-25.273395 -17.720081,-44.592291 2.388198,-5.581496 6.006483,-9.590678 12.073023,-10.320487 16.1808,-6.983487 21.422078,-0.664309 28.624746,-0.584179 z"
             style="fill:#ffffff;stroke:#000000;stroke-width:1.79336035;stroke-linecap:round;stroke-linejoin:miter;stroke-miterlimit:4;stroke-opacity:1;stroke-dasharray:none"
             transform="translate(0,956.36218)" />
          <g
             id="g3796"
             style="fill:#ffffff">
            <g
               id="g3792"
               style="fill:#ffffff">
              <path
                 sodipodi:nodetypes="ccccc"
                 inkscape:connector-curvature="0"
                 id="path3006-0"
                 d="m -70.076547,23.858373 c -0.938925,36.725169 12.658411,40.798134 33.662754,38.454 3.310345,-0.389452 10.125761,-4.089249 10.515213,-6.231237 5.43736,-18.788 -22.133039,-11.392769 -23.36714,-22.198783 C -49.954171,9.4258357 -69.583039,9.4268697 -70.076547,23.858373 z"
                 style="fill:#ffffff;stroke:#000000;stroke-width:1.79336035;stroke-linecap:round;stroke-linejoin:miter;stroke-miterlimit:4;stroke-opacity:1;stroke-dasharray:none"
                 transform="translate(0,956.36218)" />
              <path
                 sodipodi:nodetypes="ccc"
                 inkscape:connector-curvature="0"
                 id="path3008-1"
                 d="m -62.240508,15.116777 c 0,0 1.096492,8.373225 1.096492,11.488843 0.829122,16.850003 5.467292,26.585925 20.251521,25.386267"
                 style="fill:none;stroke:#000000;stroke-width:1.79336035;stroke-linecap:round;stroke-linejoin:miter;stroke-miterlimit:4;stroke-opacity:1;stroke-dasharray:none"
                 transform="translate(0,956.36218)" />
            </g>
            <g
               id="g3786"
               style="fill:#ffffff">
              <path
                 inkscape:connector-curvature="0"
                 id="path3010"
                 d="m -51.018255,62.701826 -1.752536,4.283975"
                 style="fill:none;stroke:#000000;stroke-width:1.79336035;stroke-linecap:round;stroke-linejoin:miter;stroke-miterlimit:4;stroke-opacity:1;stroke-dasharray:none"
                 transform="translate(0,956.36218)" />
              <path
                 inkscape:connector-curvature="0"
                 id="path3012"
                 d="m -62.701825,58.028398 -4.673428,4.868154"
                 style="fill:none;stroke:#000000;stroke-width:1.79336035;stroke-linecap:round;stroke-linejoin:miter;stroke-miterlimit:4;stroke-opacity:1;stroke-dasharray:none"
                 transform="translate(0,956.36218)" />
              <path
                 inkscape:connector-curvature="0"
                 id="path3014"
                 d="m -68.348884,47.318459 -5.06288,3.310345"
                 style="fill:none;stroke:#000000;stroke-width:1.79336035;stroke-linecap:round;stroke-linejoin:miter;stroke-miterlimit:4;stroke-opacity:1;stroke-dasharray:none"
                 transform="translate(0,956.36218)" />
              <path
                 inkscape:connector-curvature="0"
                 id="path3016"
                 d="m -69.906693,39.724138 -4.673428,1.55781"
                 style="fill:none;stroke:#000000;stroke-width:1.79336035;stroke-linecap:round;stroke-linejoin:miter;stroke-miterlimit:4;stroke-opacity:1;stroke-dasharray:none"
                 transform="translate(0,956.36218)" />
            </g>
          </g>
        </g>
      </g>
    </g>
  </g>
</svg>
