<?xml version="1.0" encoding="UTF-8" standalone="no"?><!DOCTYPE svg PUBLIC "-//W3C//DTD SVG 1.1//EN" "http://www.w3.org/Graphics/SVG/1.1/DTD/svg11.dtd"><svg width="100%" height="100%" viewBox="0 0 625 625" version="1.1" xmlns="http://www.w3.org/2000/svg" xmlns:xlink="http://www.w3.org/1999/xlink" xml:space="preserve" xmlns:serif="http://www.serif.com/" style="fill-rule:evenodd;clip-rule:evenodd;stroke-linecap:round;"><g id="Calque-1" serif:id="Calque 1"><g id="g3847"><g id="Calque-11" serif:id="Calque 1"><g id="g3770"><path id="path2996" d="M574.673,558.12c0,30.033 -109.558,54.38 -244.704,54.38c-135.147,0 -244.704,-24.347 -244.704,-54.38c0,-30.033 109.557,-54.38 244.704,-54.38c135.146,0 244.704,24.347 244.704,54.38Z" style="fill:#fff;fill-rule:nonzero;stroke:#000;stroke-width:5.22px;"/><path id="path3000" d="M574.673,504.583c0,30.034 -109.558,54.38 -244.704,54.38c-135.147,0 -244.704,-24.346 -244.704,-54.38c0,-30.033 109.557,-54.38 244.704,-54.38c135.146,0 244.704,24.347 244.704,54.38Z" style="fill:#fff;fill-rule:nonzero;stroke:#000;stroke-width:5.22px;"/></g></g><g id="Calque-12" serif:id="Calque 1"><g id="g3784"><g id="g3778"><path id="path3776" d="M535.747,479.262c0,14.477 -22.959,26.213 -51.28,26.213c-28.321,0 -51.28,-11.736 -51.28,-26.213c0,-14.477 22.959,-26.213 51.28,-26.213c28.321,0 51.28,11.736 51.28,26.213Z" style="fill:#fff;fill-rule:nonzero;stroke:#000;stroke-width:5.19px;"/><path id="path3774" d="M537.434,432.948c0,13.405 -22.373,24.271 -49.972,24.271c-27.598,0 -49.971,-10.866 -49.971,-24.271c0,-13.405 22.373,-24.271 49.971,-24.271c27.599,0 49.972,10.866 49.972,24.271Z" style="fill:#fff;fill-rule:nonzero;stroke:#000;stroke-width:5.2px;"/><path id="path3772" d="M543.425,386.899c0,14.833 -22.373,26.856 -49.971,26.856c-27.598,0 -49.971,-12.023 -49.971,-26.856c0,-14.832 22.373,-26.856 49.971,-26.856c27.598,0 49.971,12.024 49.971,26.856Z" style="fill:#fff;fill-rule:nonzero;stroke:#000;stroke-width:5.2px;"/><path id="path3770" d="M548.218,335.729c0,15.993 -22.372,28.958 -49.971,28.958c-27.598,0 -49.971,-12.965 -49.971,-28.958c0,-15.993 22.373,-28.958 49.971,-28.958c27.599,0 49.971,12.965 49.971,28.958Z" style="fill:#fff;fill-rule:nonzero;stroke:#000;stroke-width:5.21px;"/></g><path id="path3768" d="M382.469,521.098c-69.17,8.061 -180.945,-2.783 -180.945,-2.783c0,0 -103.055,-4.64 -101.857,-88.144c1.199,-83.504 2.009,-188.033 21.57,-208.76c13.036,-13.813 37.148,-46.391 111.443,-55.669c74.295,-9.278 197.721,-10.206 215.696,-5.567c17.975,4.639 82.754,10.867 113.84,67.731c31.085,56.864 -72.585,85.233 -85.08,99.277c-12.496,14.044 -1.199,86.287 -4.794,122.473c-7.411,40.804 -20.703,63.381 -89.873,71.442Z" style="fill:#fff;fill-rule:nonzero;stroke:#000;stroke-width:5.28px;stroke-linecap:butt;"/></g></g><g id="Calque-13" serif:id="Calque 1"><g id="g3806"><rect id="rect2992-3" x="171.572" y="226.373" width="250.955" height="256.931" style="fill:#fff;stroke:#000;stroke-width:5.19px;"/><g id="g3799"><path id="path3789" d="M256.33,228.36l0,25.586c0,22.48 18.224,40.704 40.704,40.704c22.48,0 40.703,-18.224 40.703,-40.704l0,-25.586" style="fill:none;fill-rule:nonzero;stroke:#000;stroke-width:5.19px;"/><path id="path3791" d="M421.692,314.127l-23.774,0c-22.48,0 -40.703,18.224 -40.703,40.704c0,22.479 18.223,40.703 40.703,40.703l23.774,0" style="fill:none;fill-rule:nonzero;stroke:#000;stroke-width:5.19px;"/><path id="path3793" d="M337.737,481.301l0,-25.586c0,-22.48 -18.223,-40.704 -40.703,-40.704c-22.48,0 -40.704,18.224 -40.704,40.704l0,25.586" style="fill:none;fill-rule:nonzero;stroke:#000;stroke-width:5.19px;"/><path id="path3795" d="M172.111,395.534l24.039,0c22.48,0 40.703,-18.224 40.703,-40.703c0,-22.48 -18.223,-40.704 -40.703,-40.704l-24.039,0" style="fill:none;fill-rule:nonzero;stroke:#000;stroke-width:5.19px;"/><path id="path3797" d="M333.798,354.839c0,20.295 -16.453,36.747 -36.748,36.747c-20.295,0 -36.748,-16.452 -36.748,-36.747c0,-20.296 16.453,-36.748 36.748,-36.748c20.295,0 36.748,16.452 36.748,36.748Z" style="fill:none;fill-rule:nonzero;stroke:#000;stroke-width:5.19px;"/></g></g></g><g id="Calque-14" serif:id="Calque 1"><path id="path2995" d="M505.829,107.912c0,52.352 -42.439,94.791 -94.791,94.791c-52.352,0 -94.791,-42.439 -94.791,-94.791c0,-52.352 42.439,-94.791 94.791,-94.791c52.352,0 94.791,42.439 94.791,94.791Z" style="fill:#fff;fill-rule:nonzero;stroke:#000;stroke-width:5.19px;"/></g><g id="Calque-15" serif:id="Calque 1"><g id="g3000"><rect id="rect2992" x="143.461" y="17.578" width="187.304" height="191.763" style="fill:#fff;stroke:#000;stroke-width:5.19px;"/><g id="g2998"><path id="path3901" d="M333.321,37.192c0,13.638 -11.056,24.694 -24.694,24.694c-13.639,0 -24.695,-11.056 -24.695,-24.694c0,-13.638 11.056,-24.694 24.695,-24.694c13.638,0 24.694,11.056 24.694,24.694Z" style="fill:#fff;fill-rule:nonzero;stroke:#000;stroke-width:5.19px;"/><path id="path3759" d="M284.844,46.288c-33.035,19.578 -67.92,43.691 -80.311,77.401c-13.83,41.492 27.088,43.857 49.31,23.707c24.713,-25.061 44.28,-56.752 55.14,-84.688" style="fill:none;fill-rule:nonzero;stroke:#000;stroke-width:5.19px;"/><path id="path3763" d="M222.977,138.226l69.073,-79.084" style="fill:none;fill-rule:nonzero;stroke:#000;stroke-width:5.19px;"/></g></g></g><g id="Calque-16" serif:id="Calque 1"><g id="g3781"><path id="path3001" d="M405.611,180.986c0,0 -50.185,-4.973 -57.419,-15.372c-11.917,-20.296 -21.96,-75.922 -9.947,-86.808c30.678,-38.866 102.298,-31.443 115.292,-30.293c37.486,5.126 41.339,61.567 30.292,85.904c-10.037,35.158 -44.515,48.305 -78.218,46.569Z" style="fill:#fff;fill-rule:nonzero;stroke:#000;stroke-width:5.19px;"/><path id="path3003" d="M373.058,164.257c0,0 1.357,-4.973 9.495,-4.521c17.722,0.944 58.196,9.927 58.931,-16.991c0.735,-26.919 -71.904,3.181 -71.127,-14.909c0.778,-18.09 30.897,-9.463 51.983,-9.243c21.086,0.22 37.9,-22.443 13.564,-27.58c-14.649,-1.684 -70.636,16.235 -71.888,-4.069" style="fill:none;fill-rule:nonzero;stroke:#000;stroke-width:5.19px;"/><path id="path3779" d="M373.623,76.863c0,0 3.935,-20.985 6.558,-25.357c12.334,-26.048 26.506,-6.318 27.594,8.322c-3.428,-20.662 17.524,-32.054 24.494,-20.579c3.497,6.995 3.435,34.554 3.435,34.554" style="fill:#fff;fill-rule:nonzero;stroke:#000;stroke-width:5.19px;"/></g></g></g></g></svg>