<?xml version="1.0" encoding="utf-8"?>
<svg xmlns="http://www.w3.org/2000/svg" xmlns:xlink="http://www.w3.org/1999/xlink" version="1.2" preserveAspectRatio="xMidYMin meet" viewBox="-30 -23.75 260 285" data-sitelen-sentence=""><style>ellipse,polygon,polyline,rect,circle,line,path{stroke-width:2;stroke:black;vector-effect:non-scaling-stroke} .filler{stroke:none;}</style><svg width="200" height="237.5" viewBox="0 0 100 100" y="0" preserveAspectRatio="none" filter="" style="overflow: visible;"><svg viewBox="-1 19 102 102" preserveAspectRatio="none" height="15.789473684210526" width="100" x="0" y="84.21052631578948" style="overflow: visible;"><use xlink:href="#tp-wg-exclamation" transform="matrix(1.2,0,0,1.2,-10,-10)" height="100" width="100" x="0" y="0"></use></svg><use xlink:href="#tp-c-e-wide" transform="matrix(1.104,0,0,1.104,-5.200000000000003,-6.568421052631592)" height="42.10526315789474" width="100" x="0" y="42.10526315789474"></use><svg viewBox="-1 -1 102 102" preserveAspectRatio="none" height="42.10526315789474" width="100" x="0" y="0" style="overflow: visible;"><use xlink:href="#tp-wg-o" transform="matrix(1.2,0,0,1.2,-5,-10)" height="100" width="50" x="0" y="0"></use><use xlink:href="#tp-wg-pana" transform="matrix(1.2,0,0,1.2,-15,-10)" height="100" width="50" x="50" y="0"></use></svg><svg viewBox="-11 -16 132 132" preserveAspectRatio="none" height="42.10526315789474" width="100" x="0" y="42.10526315789474" style="overflow: visible;"><use xlink:href="#tp-wg-sitelen" transform="matrix(1.2,0,0,1.2,-5,-10)" height="100" width="50" x="0" y="0"></use><use xlink:href="#tp-wg-sitelen" transform="matrix(1.2,0,0,1.2,-15,-10)" height="100" width="50" x="50" y="0"></use></svg></svg><symbol viewBox="-2 -2 277.443 42.247" preserveAspectRatio="none" id="tp-wg-exclamation"> <g id="exclamation" stroke-miterlimit="10"> <path fill="#FFF" stroke-width="4.5" stroke-linecap="round" stroke-linejoin="round" d="M35.128 20l9.48 14.746 11.707-14.85 9.428 14.85 10.568-14.85 10.57 14.85 9.427-14.85 11.707 14.85L117.497 20l9.483 14.746 11.706-14.85 9.43 14.85 10.566-14.85 10.568 14.85 9.43-14.85 11.705 14.85L199.868 20l9.483 14.746 11.708-14.85 9.428 14.85 10.568-14.85"></path> <path d="M31.5 19.624c0 10.562-6.492 16.123-14.5 16.123S2.5 30.187 2.5 19.624 8.992 2.5 17 2.5h239.443c8.008 0 14.5 6.56 14.5 17.124s-6.492 16.123-14.5 16.123-14.5-5.56-14.5-16.123" fill="#FFF"></path> <path d="M252.84 19.043C239.09 20.127 88.428 20.75 71.31 20.75s-36.958-.623-50.71-1.707" fill="none" stroke-linecap="round" stroke-linejoin="round"></path> </g> </symbol><symbol viewBox="-2 -2 273 157" preserveAspectRatio="none" id="tp-c-e-wide"> <g id="ame-wide"> <g id="ame-wide_1_" fill="#FFF" stroke-miterlimit="10"> <path d="M239.74 115.89c20.69 0 24.452 8.273 24.452 18.48 0 10.206-3.763 18.48-24.45 18.48h-50.113"></path> <path d="M241.74 91.77c20.688 0 24.45 8.274 24.45 18.48s-3.762 18.482-24.45 18.482h-50.112"></path> <path d="M241.74 67.652c20.688 0 24.45 8.274 24.45 18.48s-3.762 18.482-24.45 18.482h-50.112"></path> <path d="M241.74 43.533c20.688 0 24.45 8.274 24.45 18.48s-3.762 18.482-24.45 18.482h-50.112"></path> <path d="M151.67 152.85h63.938c16.55 0 25.965-8.414 25.965-18.794V96.47v12.528V71.41c0-8.143 3.94-17.04 6.8-18.835 2.863-1.795 20.15-6.223 20.15-18.96v-12.32c0-10.38-.41-18.795-16.96-18.795h-71.11 1.852H38.42C5.32 2.5 2.5 19.33 2.5 40.088v75.175c0 20.76 2.82 37.588 35.92 37.588h143.885"></path> </g> </g> </symbol><symbol viewBox="-2 -2 129 130.476" preserveAspectRatio="none" id="tp-wg-o"> <g id="dao"> <ellipse cx="62.5" cy="80.976" rx="60" ry="43" fill="#FFF" stroke-miterlimit="10"></ellipse> <path d="M87.922 4.035c13.2 6.027 21.953 16.608 21.953 28.655 0 18.75-21.21 33.953-47.376 33.953s-47.377-15.2-47.377-33.953c0-12.088 8.814-22.64 22.087-28.655l12.622 15.967L62.5 4.035l12.538 15.967L87.922 4.035z" fill="#FFF" stroke-miterlimit="10"></path> <circle cx="62.328" cy="39.166" r="12.408" fill="#FFF" stroke-linecap="round" stroke-linejoin="round" stroke-miterlimit="10"></circle> <circle cx="62.328" cy="39.166" r="5.516"></circle> <path d="M27.314 69.78c9.074-6.276 21.45-10.14 35.094-10.14 13.394 0 25.567 3.724 34.594 9.798" fill="#FFF" stroke-width="4.5" stroke-linecap="round" stroke-linejoin="round" stroke-miterlimit="10"></path> </g> </symbol><symbol viewBox="-2 -2 129.285 129.029" preserveAspectRatio="none" id="tp-wg-pana"> <g id="dipana" fill="#FFF" stroke-miterlimit="10"> <ellipse transform="rotate(-35.59 62.647 59.195)" cx="62.643" cy="59.195" rx="63.546" ry="52.84"></ellipse> <path d="M73.45 97.503c22.717-16.26 34.39-44.738 25.015-58.02-9.515-13.48-37.642-7.608-59.515 9.77-25.185 20.01-40.76 50.894-35.25 63.75 4.5 10.5 12.5 9.5 18.25 9.5h68s19.5-.5 19.5-16.5c0-19-36-8.5-36-8.5z" stroke-linecap="round" stroke-linejoin="round"></path> <path d="M24.2 22.753c8.442 10.18 23.09 20.608 23.09 20.608m-34.63-6.357c7.17 8.645 19.61 17.5 19.61 17.5" stroke-linecap="round" stroke-linejoin="round"></path> </g> </symbol><symbol viewBox="-2 -2 129 129.25" preserveAspectRatio="none" id="tp-wg-sitelen"> <g id="iusitelen" stroke-linecap="round" stroke-linejoin="round" stroke-miterlimit="10"> <path d="M59.25 106.25c0 9.113 4.72 16.5 10.542 16.5s10.542-7.387 10.542-16.5c0 9.113 4.72 16.5 10.542 16.5s10.542-7.387 10.542-16.5c0 9.113 4.72 16.5 10.542 16.5s10.542-7.387 10.542-16.5V62.5c0-33.137-26.863-60-60-60s-60 26.863-60 60v30c0 16.57 13.25 30 30 30s26.748-16.25 26.748-16.25z" fill="#FFF"></path> <path d="M2.5 72.75S10 70.5 18.25 65.5s19.646-6.067 24.75 2c7.75 12.25 4.25 28.75 1 52.25" fill="none"></path> <path d="M2.25 89.25c14-7 31-13 44.75-10.75" fill="none" stroke-width="3.4"></path> <path d="M6 105.75S29 91 47 96.25" fill="none" stroke-width="3.5"></path> <path d="M121.882 53.9c-5.54 11.665-18.513 19.85-33.632 19.85-20.158 0-36.5-14.55-36.5-32.5 0-12.154 7.492-22.75 18.59-28.324" fill="none" stroke-width="4.5"></path> <path d="M64.616 44.832c22.097-4.793 28.706-5.756 42.995-4.383m-29.36-14.2c.5 11.25 0 31.25 0 31.25m15-31.5c1.5 11.25 1 29.75 1 29.75" fill="none"></path> </g> </symbol></svg>