<?xml version="1.0" encoding="utf-8"?>
<svg xmlns="http://www.w3.org/2000/svg" xmlns:xlink="http://www.w3.org/1999/xlink" version="1.2" preserveAspectRatio="xMidYMin meet" viewBox="-37.5 -34.6875 325 416.25" data-sitelen-sentence=""><style>ellipse,polygon,polyline,rect,circle,line,path{stroke-width:2;stroke:black;vector-effect:non-scaling-stroke} .filler{stroke:none;}</style><svg width="250" height="346.875" viewBox="0 0 100 100" y="0" preserveAspectRatio="none" filter="" style="overflow: visible;"><svg viewBox="-1 19 102 102" preserveAspectRatio="none" height="13.513513513513514" width="100" x="0" y="86.48648648648648" style="overflow: visible;"><use xlink:href="#tp-wg-period" transform="matrix(1.2,0,0,1.2,-10,-10)" height="100" width="100" x="0" y="0"></use></svg><use xlink:href="#tp-c-e-tall" transform="matrix(1.44,0,0,1.08,-30.799999999999997,-3.4594594594594597)" height="86.48648648648648" width="60" x="40" y="0"></use><svg viewBox="-1 -1 102 102" preserveAspectRatio="none" height="86.48648648648648" width="40" x="0" y="0" style="overflow: visible;"><use xlink:href="#tp-wg-o" transform="matrix(1.2,0,0,1.2,-10,-3.333333333333332)" height="33.333333333333336" width="100" x="0" y="0"></use><use xlink:href="#tp-wg-kama" transform="matrix(1.2,0,0,1.2,-10,-10)" height="33.333333333333336" width="100" x="0" y="33.333333333333336"></use><use xlink:href="#tp-wg-jo" transform="matrix(1.2,0,0,1.2,-10,-16.66666666666667)" height="33.333333333333336" width="100" x="0" y="66.66666666666667"></use></svg><svg viewBox="-16 -16 132 132" preserveAspectRatio="none" height="86.48648648648648" width="60" x="40" y="0" style="overflow: visible;"><use xlink:href="#tp-wg-sitelen" transform="matrix(1.2,0,0,1.2,-10,-5)" height="50" width="100" x="0" y="0"></use><use xlink:href="#tp-wg-sitelen" transform="matrix(1.2,0,0,1.2,-10,-15)" height="50" width="100" x="0" y="50"></use></svg></svg><symbol viewBox="-2 -2 269 38" preserveAspectRatio="none" id="tp-wg-period"> <g id="period" fill="#FFF" stroke-miterlimit="10"> <path d="M262.707 22.562c0 5.074-3.526 9.188-7.875 9.188H10.375c-4.35 0-7.875-4.113-7.875-9.188 0-5.074 3.526-9.188 7.875-9.188h244.457c4.35 0 7.875 4.114 7.875 9.188z"></path> <path d="M262.707 11.688c0 5.074-3.526 9.188-7.875 9.188H10.375c-4.35 0-7.875-4.113-7.875-9.188S6.026 2.5 10.375 2.5h244.457c4.35 0 7.875 4.113 7.875 9.188z"></path> </g> </symbol><symbol viewBox="-2 -2 158 229" preserveAspectRatio="none" id="tp-c-e-tall"> <g id="ame-tall"> <g id="ame-tall_1_" fill="#FFF" stroke-miterlimit="10"> <path d="M131.123 168.313c14.913 0 17.625 12.1 17.625 27.025s-2.712 27.025-17.625 27.025H95"></path> <path d="M132.564 133.043c14.913 0 17.625 12.1 17.625 27.025s-2.713 27.025-17.626 27.025H96.44"></path> <path d="M132.564 97.774c14.913 0 17.625 12.1 17.625 27.025s-2.713 27.024-17.626 27.024H96.44"></path> <path d="M132.564 62.504c14.913 0 17.625 12.1 17.625 27.025s-2.713 27.024-17.626 27.024H96.44"></path> <path d="M67.638 222.363h46.09c11.93 0 18.716-12.304 18.716-27.483v-54.966 18.322-54.966c0-11.908 1.453-22.027 4.902-27.543 3.45-5.516 14.523-9.1 14.523-27.728V27.226c0-15.178-2.905-24.727-14.835-24.727h-48.65 1.335-61.328C4.532 2.5 2.5 17.002 2.5 47.36v129.225c0 30.357 2.032 45.778 25.892 45.778H89.72"></path> </g> </g> </symbol><symbol viewBox="-2 -2 129 130.476" preserveAspectRatio="none" id="tp-wg-o"> <g id="dao"> <ellipse cx="62.5" cy="80.976" rx="60" ry="43" fill="#FFF" stroke-miterlimit="10"></ellipse> <path d="M87.922 4.035c13.2 6.027 21.953 16.608 21.953 28.655 0 18.75-21.21 33.953-47.376 33.953s-47.377-15.2-47.377-33.953c0-12.088 8.814-22.64 22.087-28.655l12.622 15.967L62.5 4.035l12.538 15.967L87.922 4.035z" fill="#FFF" stroke-miterlimit="10"></path> <circle cx="62.328" cy="39.166" r="12.408" fill="#FFF" stroke-linecap="round" stroke-linejoin="round" stroke-miterlimit="10"></circle> <circle cx="62.328" cy="39.166" r="5.516"></circle> <path d="M27.314 69.78c9.074-6.276 21.45-10.14 35.094-10.14 13.394 0 25.567 3.724 34.594 9.798" fill="#FFF" stroke-width="4.5" stroke-linecap="round" stroke-linejoin="round" stroke-miterlimit="10"></path> </g> </symbol><symbol viewBox="-2 -2 129.007 72.491" preserveAspectRatio="none" id="tp-wg-kama"> <g id="azkama"> <path d="M35.833 8.993C66.5 8.993 74.166 6.32 92.5 2.99s30.333 10.668 30 32v1c0 16.57-13.333 30-30 30-23.667 0-59-3.332-59-3.332" fill="#FFF" stroke-linecap="round" stroke-linejoin="round" stroke-miterlimit="10"></path> <path d="M85.853 14.888c-9.406 1.537-24.197 2.773-45.286 2.814C38.01 9.9 30.68 4.262 22.023 4.262 11.24 4.26 2.5 13 2.5 23.782v22.685c0 10.782 8.74 19.523 19.523 19.523 10.782 0 19.523-8.74 19.523-19.522v-2.015h20.62c30.667 0 40.34-8.797 40.34-17.55s-7.087-13.58-16.653-12.015z" fill="#FFF" stroke-linecap="round" stroke-linejoin="round" stroke-miterlimit="10"></path> <path d="M30.69 48.28c-9.147-5.303-14.594-15.825-12.913-26.91" fill="none" stroke-linecap="round" stroke-linejoin="round" stroke-miterlimit="10"></path> <path d="M53.43 57.308c-2.475-3.713-3.702-8.038-3.235-12.515m12.568 12.515c-2.475-3.713-3.702-8.038-3.235-12.515" fill="none" stroke-linecap="round" stroke-linejoin="round" stroke-miterlimit="10"></path> <circle cx="75.464" cy="52.087" r="2.631"></circle> <circle cx="88.536" cy="51.229" r="2.631"></circle> </g> </symbol><symbol viewBox="-2 -2 129 129.25" preserveAspectRatio="none" id="tp-wg-jo"> <g id="awjo" stroke-miterlimit="10"> <path d="M122.5 73.25c0 29.27-26.863 49.5-60 49.5s-60-20.23-60-49.5-.25-53 60-53c60 0 60 23.73 60 53z" fill="#FFF"></path> <path d="M33.5 102.25H82c5.247 0 9.5-3.936 9.5-8.792s-4.253-8.792-9.5-8.792H45.75c-5.247 0-9.5-3.936-9.5-8.792s4.253-8.792 9.5-8.792H82c5.247 0 9.5-3.936 9.5-8.792s-4.253-8.792-9.5-8.792H33.5" fill="none" stroke-linecap="round" stroke-linejoin="round"></path> <path d="M39.874 34V11.75a9.25 9.25 0 0 1 9.25-9.25 9.25 9.25 0 0 1 9.25 9.25V34m8.252 0V11.75a9.25 9.25 0 0 1 9.25-9.25 9.25 9.25 0 0 1 9.25 9.25V34" fill="#FFF" stroke-linecap="round" stroke-linejoin="round"></path> </g> </symbol><symbol viewBox="-2 -2 129 129.25" preserveAspectRatio="none" id="tp-wg-sitelen"> <g id="iusitelen" stroke-linecap="round" stroke-linejoin="round" stroke-miterlimit="10"> <path d="M59.25 106.25c0 9.113 4.72 16.5 10.542 16.5s10.542-7.387 10.542-16.5c0 9.113 4.72 16.5 10.542 16.5s10.542-7.387 10.542-16.5c0 9.113 4.72 16.5 10.542 16.5s10.542-7.387 10.542-16.5V62.5c0-33.137-26.863-60-60-60s-60 26.863-60 60v30c0 16.57 13.25 30 30 30s26.748-16.25 26.748-16.25z" fill="#FFF"></path> <path d="M2.5 72.75S10 70.5 18.25 65.5s19.646-6.067 24.75 2c7.75 12.25 4.25 28.75 1 52.25" fill="none"></path> <path d="M2.25 89.25c14-7 31-13 44.75-10.75" fill="none" stroke-width="3.4"></path> <path d="M6 105.75S29 91 47 96.25" fill="none" stroke-width="3.5"></path> <path d="M121.882 53.9c-5.54 11.665-18.513 19.85-33.632 19.85-20.158 0-36.5-14.55-36.5-32.5 0-12.154 7.492-22.75 18.59-28.324" fill="none" stroke-width="4.5"></path> <path d="M64.616 44.832c22.097-4.793 28.706-5.756 42.995-4.383m-29.36-14.2c.5 11.25 0 31.25 0 31.25m15-31.5c1.5 11.25 1 29.75 1 29.75" fill="none"></path> </g> </symbol></svg>