<?xml version="1.0" encoding="UTF-8" standalone="no"?>
<!-- Created with Inkscape (http://www.inkscape.org/) -->

<svg
   xmlns:dc="http://purl.org/dc/elements/1.1/"
   xmlns:cc="http://creativecommons.org/ns#"
   xmlns:rdf="http://www.w3.org/1999/02/22-rdf-syntax-ns#"
   xmlns:svg="http://www.w3.org/2000/svg"
   xmlns="http://www.w3.org/2000/svg"
   xmlns:sodipodi="http://sodipodi.sourceforge.net/DTD/sodipodi-0.dtd"
   xmlns:inkscape="http://www.inkscape.org/namespaces/inkscape"
   width="90.849998"
   height="149.62"
   id="svg2"
   version="1.1"
   inkscape:version="0.48.3.1 r9886"
   sodipodi:docname="utala li ike.svg">
  <defs
     id="defs4" />
  <sodipodi:namedview
     id="base"
     pagecolor="#ffffff"
     bordercolor="#666666"
     borderopacity="1.0"
     inkscape:pageopacity="0.0"
     inkscape:pageshadow="2"
     inkscape:zoom="3.9767412"
     inkscape:cx="43.916226"
     inkscape:cy="75.564384"
     inkscape:document-units="px"
     inkscape:current-layer="layer1"
     showgrid="false"
     inkscape:window-width="1440"
     inkscape:window-height="824"
     inkscape:window-x="0"
     inkscape:window-y="26"
     inkscape:window-maximized="1" />
  <metadata
     id="metadata7">
    <rdf:RDF>
      <cc:Work
         rdf:about="">
        <dc:format>image/svg+xml</dc:format>
        <dc:type
           rdf:resource="http://purl.org/dc/dcmitype/StillImage" />
        <dc:title />
      </cc:Work>
    </rdf:RDF>
  </metadata>
  <g
     inkscape:label="Calque 1"
     inkscape:groupmode="layer"
     id="layer1"
     transform="translate(0,-902.74217)">
    <g
       id="g3111"
       transform="translate(1.271301e-6,0.00160075)">
      <g
         inkscape:label="Calque 1"
         id="layer1-0"
         transform="matrix(1.2175388,0,0,1.2175388,-13.016864,-186.20835)">
        <g
           id="g3770"
           transform="matrix(0.9982365,0,0,0.9982365,94.400685,1.9416241)">
          <path
             sodipodi:type="arc"
             style="fill:#ffffff;stroke:#000000;stroke-width:1.24534893;stroke-linecap:round;stroke-linejoin:miter;stroke-miterlimit:4;stroke-opacity:1;stroke-dasharray:none;stroke-dashoffset:0"
             id="path2996"
             sodipodi:cx="-73.497475"
             sodipodi:cy="32.620571"
             sodipodi:rx="26.064081"
             sodipodi:ry="6.7183809"
             d="m -47.433393,32.620571 c 0,3.710459 -11.669287,6.718381 -26.064082,6.718381 -14.394794,0 -26.064081,-3.007922 -26.064081,-6.718381 0,-3.710459 11.669287,-6.718381 26.064081,-6.718381 14.394795,0 26.064082,3.007922 26.064082,6.718381 z"
             transform="matrix(1.4029364,0,0,1.2095186,56.629625,968.73626)" />
          <path
             transform="matrix(1.4029364,0,0,1.2095186,56.629625,960.73626)"
             d="m -47.433393,32.620571 c 0,3.710459 -11.669287,6.718381 -26.064082,6.718381 -14.394794,0 -26.064081,-3.007922 -26.064081,-6.718381 0,-3.710459 11.669287,-6.718381 26.064081,-6.718381 14.394795,0 26.064082,3.007922 26.064082,6.718381 z"
             sodipodi:ry="6.7183809"
             sodipodi:rx="26.064081"
             sodipodi:cy="32.620571"
             sodipodi:cx="-73.497475"
             id="path3000"
             style="fill:#ffffff;stroke:#000000;stroke-width:1.24534893;stroke-linecap:round;stroke-linejoin:miter;stroke-miterlimit:4;stroke-opacity:1;stroke-dasharray:none;stroke-dashoffset:0"
             sodipodi:type="arc" />
        </g>
      </g>
      <g
         inkscape:label="Calque 1"
         id="layer1-6"
         transform="matrix(1.0733486,0,0,1.0733486,-6.1267064,-81.26678)">
        <path
           sodipodi:nodetypes="sssss"
           inkscape:connector-curvature="0"
           transform="matrix(0.8513215,0,0,0.8513215,95.315522,958.26799)"
           style="fill:#ffffff;stroke:#000000;stroke-width:2.15773559;stroke-linecap:round;stroke-linejoin:miter;stroke-miterlimit:4;stroke-opacity:1;stroke-dasharray:none"
           d="m -12.693947,54.144276 c 0,28.756441 5.7357543,42.884964 -42.884964,42.884964 -47.775429,0 -42.884964,-14.551167 -42.884964,-42.884964 0,-23.684712 -5.205145,-42.884964 42.884964,-42.884964 44.394277,0 42.884964,19.200252 42.884964,42.884964 z"
           id="path2995" />
      </g>
      <g
         inkscape:label="Calque 1"
         id="layer1-9"
         transform="translate(-2.574997,-67.997312)">
        <g
           id="g3794"
           style="fill:#ffffff"
           transform="matrix(1.0018741,0,0,1.0018741,121.55912,-1.8335029)">
          <g
             id="g3790"
             style="fill:#ffffff">
            <path
               style="fill:#ffffff;stroke:#000000;stroke-width:1.99625885;stroke-linecap:round;stroke-linejoin:miter;stroke-miterlimit:4;stroke-opacity:1;stroke-dasharray:none"
               d="m -38.166328,80.51927 c 2.839264,-28.691124 1.03382,-35.463871 -11.008128,-48.759055 -8.608109,-9.213919 -19.295452,-12.482183 -24.210522,-16.376847 -5.710401,3.907368 -10.829367,6.11125 -19.321936,14.740912 -14.557266,16.477416 -17.459936,15.86862 -17.118646,50.39499 z"
               id="path3002"
               inkscape:connector-curvature="0"
               transform="translate(0,956.36218)"
               sodipodi:nodetypes="cccccc" />
            <path
               style="fill:none;stroke:#000000;stroke-width:1.99625885;stroke-linecap:round;stroke-linejoin:miter;stroke-miterlimit:4;stroke-opacity:1;stroke-dasharray:none"
               d="m -109.64993,79.251064 15.443245,-17.912322 9.150296,8.356234 11.671411,-11.817397 10.036511,11.817397 9.759826,-8.356234 15.280558,17.912322"
               id="path3004"
               inkscape:connector-curvature="0"
               transform="translate(0,956.36218)"
               sodipodi:nodetypes="ccccccc" />
          </g>
          <g
             id="g3784"
             style="fill:#ffffff">
            <path
               sodipodi:type="arc"
               style="fill:none;stroke:#000000;stroke-width:1.39482677;stroke-linecap:round;stroke-linejoin:miter;stroke-miterlimit:4;stroke-opacity:1;stroke-dasharray:none;stroke-dashoffset:0"
               id="path3010"
               sodipodi:cx="-32.791885"
               sodipodi:cy="27.3785"
               sodipodi:rx="6.6206894"
               sodipodi:ry="6.6206894"
               d="m -26.171196,27.3785 c 0,3.656506 -2.964184,6.620689 -6.620689,6.620689 -3.656506,0 -6.62069,-2.964183 -6.62069,-6.620689 0,-3.656506 2.964184,-6.620689 6.62069,-6.620689 3.656505,0 6.620689,2.964183 6.620689,6.620689 z"
               transform="matrix(1.4311876,0,0,1.4311876,-27.298274,955.77313)" />
            <g
               id="g3780"
               style="fill:#ffffff">
              <path
                 transform="translate(0,956.36218)"
                 inkscape:connector-curvature="0"
                 id="path3006"
                 d="M -79.924466,45.482424 -68.387829,31.350913"
                 style="fill:none;stroke:#000000;stroke-width:1.99625885;stroke-linecap:round;stroke-linejoin:miter;stroke-miterlimit:4;stroke-opacity:1;stroke-dasharray:none"
                 sodipodi:nodetypes="cc" />
              <path
                 transform="translate(0,956.36218)"
                 inkscape:connector-curvature="0"
                 id="path3008"
                 d="M -68.48136,45.589228 C -68.948703,44.966104 -81.006085,32.285599 -81.006085,32.285599"
                 style="fill:none;stroke:#000000;stroke-width:1.99625885;stroke-linecap:round;stroke-linejoin:miter;stroke-miterlimit:4;stroke-opacity:1;stroke-dasharray:none"
                 sodipodi:nodetypes="cc" />
            </g>
          </g>
        </g>
      </g>
      <g
         inkscape:label="Calque 1"
         id="layer1-61"
         transform="translate(-2.5749991,-3.2165587)">
        <g
           id="g3876"
           transform="matrix(0.98887942,0,0,0.98887942,93.817908,-69.218871)">
          <g
             id="g3855">
            <g
               id="g3849">
              <path
                 sodipodi:type="arc"
                 style="fill:#ffffff;stroke:#000000;stroke-width:1.82252705;stroke-linecap:round;stroke-linejoin:miter;stroke-miterlimit:4;stroke-opacity:1;stroke-dasharray:none"
                 id="path3839"
                 sodipodi:cx="-74.897369"
                 sodipodi:cy="95.221565"
                 sodipodi:rx="7.3052926"
                 sodipodi:ry="4.5149193"
                 d="m -67.592077,95.221565 c 0,2.493521 -3.270691,4.51492 -7.305292,4.51492 -4.034602,0 -7.305293,-2.021399 -7.305293,-4.51492 0,-2.493521 3.270691,-4.514919 7.305293,-4.514919 4.034601,0 7.305292,2.021398 7.305292,4.514919 z"
                 transform="matrix(1.1097181,0,0,1.1097181,15.7305,1004.5316)" />
              <path
                 transform="translate(23.928714,1016.3779)"
                 d="m -67.592077,95.221565 c 0,2.493521 -3.270691,4.51492 -7.305292,4.51492 -4.034602,0 -7.305293,-2.021399 -7.305293,-4.51492 0,-2.493521 3.270691,-4.514919 7.305293,-4.514919 4.034601,0 7.305292,2.021398 7.305292,4.514919 z"
                 sodipodi:ry="4.5149193"
                 sodipodi:rx="7.3052926"
                 sodipodi:cy="95.221565"
                 sodipodi:cx="-74.897369"
                 id="path3841"
                 style="fill:#ffffff;stroke:#000000;stroke-width:2.02249122;stroke-linecap:round;stroke-linejoin:miter;stroke-miterlimit:4;stroke-opacity:1;stroke-dasharray:none"
                 sodipodi:type="arc" />
              <path
                 sodipodi:type="arc"
                 style="fill:#ffffff;stroke:#000000;stroke-width:2.02249122;stroke-linecap:round;stroke-linejoin:miter;stroke-miterlimit:4;stroke-opacity:1;stroke-dasharray:none"
                 id="path3843"
                 sodipodi:cx="-74.897369"
                 sodipodi:cy="95.221565"
                 sodipodi:rx="7.3052926"
                 sodipodi:ry="4.5149193"
                 d="m -67.592077,95.221565 c 0,2.493521 -3.270691,4.51492 -7.305292,4.51492 -4.034602,0 -7.305293,-2.021399 -7.305293,-4.51492 0,-2.493521 3.270691,-4.514919 7.305293,-4.514919 4.034601,0 7.305292,2.021398 7.305292,4.514919 z"
                 transform="translate(39.591013,1015.6521)" />
              <path
                 transform="matrix(1.256359,0,0,1.2684357,74.415069,985.10837)"
                 d="m -67.592077,95.221565 c 0,2.493521 -3.270691,4.51492 -7.305292,4.51492 -4.034602,0 -7.305293,-2.021399 -7.305293,-4.51492 0,-2.493521 3.270691,-4.514919 7.305293,-4.514919 4.034601,0 7.305292,2.021398 7.305292,4.514919 z"
                 sodipodi:ry="4.5149193"
                 sodipodi:rx="7.3052926"
                 sodipodi:cy="95.221565"
                 sodipodi:cx="-74.897369"
                 id="path3845"
                 style="fill:#ffffff;stroke:#000000;stroke-width:1.60212183;stroke-linecap:round;stroke-linejoin:miter;stroke-miterlimit:4;stroke-opacity:1;stroke-dasharray:none"
                 sodipodi:type="arc" />
            </g>
            <path
               sodipodi:nodetypes="cccczscc"
               inkscape:connector-curvature="0"
               id="path3847"
               d="m -67.69043,1062.5604 c -19.859281,0.2508 -19.877573,37.7476 -4.524398,43.2164 11.7791,3.6845 32.136711,4.2218 41.398713,2.2767 25.8214329,-4.3522 25.897813,-38.1484 12.602666,-45.4047 -3.608619,-1.031 -9.013268,-2.4052 -8.978515,-0.3214 0.03475,2.0838 -1.187636,11.6533 -2.631128,20.0221 -1.385781,8.0342 -8.521027,11.4052 -17.879125,11.4408 -26.446961,-0.4868 -16.893883,-30.9437 -19.988213,-31.2299 z"
               style="fill:#ffffff;stroke:#000000;stroke-width:2.02249122;stroke-linecap:round;stroke-linejoin:miter;stroke-miterlimit:4;stroke-opacity:1;stroke-dasharray:none" />
            <g
               id="g3820"
               transform="translate(-3.0355323,9.0587057)">
              <g
                 id="g3812">
                <path
                   sodipodi:type="arc"
                   style="fill:#ffffff;stroke:#000000;stroke-width:1.52954435;stroke-linecap:round;stroke-linejoin:miter;stroke-miterlimit:4;stroke-opacity:1;stroke-dasharray:none"
                   id="path3786"
                   sodipodi:cx="-58.961292"
                   sodipodi:cy="110.48172"
                   sodipodi:rx="3.5169895"
                   sodipodi:ry="3.5169895"
                   d="m -55.444303,110.48172 c 0,1.94238 -1.57461,3.51699 -3.516989,3.51699 -1.94238,0 -3.51699,-1.57461 -3.51699,-3.51699 0,-1.94238 1.57461,-3.51699 3.51699,-3.51699 1.942379,0 3.516989,1.57461 3.516989,3.51699 z"
                   transform="matrix(1.7484336,0,0,1,66.897956,953.58251)" />
                <path
                   transform="matrix(1.7484336,0,0,1,67.105257,946.11966)"
                   d="m -55.444303,110.48172 c 0,1.94238 -1.57461,3.51699 -3.516989,3.51699 -1.94238,0 -3.51699,-1.57461 -3.51699,-3.51699 0,-1.94238 1.57461,-3.51699 3.51699,-3.51699 1.942379,0 3.516989,1.57461 3.516989,3.51699 z"
                   sodipodi:ry="3.5169895"
                   sodipodi:rx="3.5169895"
                   sodipodi:cy="110.48172"
                   sodipodi:cx="-58.961292"
                   id="path3788"
                   style="fill:#ffffff;stroke:#000000;stroke-width:1.52954435;stroke-linecap:round;stroke-linejoin:miter;stroke-miterlimit:4;stroke-opacity:1;stroke-dasharray:none"
                   sodipodi:type="arc" />
              </g>
              <g
                 id="g3816">
                <path
                   transform="matrix(-1.7484336,0,0,1,-157.48915,952.20441)"
                   d="m -55.444303,110.48172 c 0,1.94238 -1.57461,3.51699 -3.516989,3.51699 -1.94238,0 -3.51699,-1.57461 -3.51699,-3.51699 0,-1.94238 1.57461,-3.51699 3.51699,-3.51699 1.942379,0 3.516989,1.57461 3.516989,3.51699 z"
                   sodipodi:ry="3.5169895"
                   sodipodi:rx="3.5169895"
                   sodipodi:cy="110.48172"
                   sodipodi:cx="-58.961292"
                   id="path3790"
                   style="fill:#ffffff;stroke:#000000;stroke-width:1.52954435;stroke-linecap:round;stroke-linejoin:miter;stroke-miterlimit:4;stroke-opacity:1;stroke-dasharray:none"
                   sodipodi:type="arc" />
                <path
                   sodipodi:type="arc"
                   style="fill:#ffffff;stroke:#000000;stroke-width:1.52954435;stroke-linecap:round;stroke-linejoin:miter;stroke-miterlimit:4;stroke-opacity:1;stroke-dasharray:none"
                   id="path3792"
                   sodipodi:cx="-58.961292"
                   sodipodi:cy="110.48172"
                   sodipodi:rx="3.5169895"
                   sodipodi:ry="3.5169895"
                   d="m -55.444303,110.48172 c 0,1.94238 -1.57461,3.51699 -3.516989,3.51699 -1.94238,0 -3.51699,-1.57461 -3.51699,-3.51699 0,-1.94238 1.57461,-3.51699 3.51699,-3.51699 1.942379,0 3.516989,1.57461 3.516989,3.51699 z"
                   transform="matrix(-1.7484336,0,0,1,-158.52566,944.11966)" />
              </g>
              <path
                 sodipodi:nodetypes="zczcszzzz"
                 inkscape:connector-curvature="0"
                 id="path3008-4"
                 d="m -58.943789,1046.1445 c 3.563072,-0.2217 3.636028,3.5855 3.636028,5.3551 -0.792726,9.4418 -0.924165,20.4805 11.680158,20.4805 12.604323,0 6.440926,-23.9738 14.40171,-24.8406 3.756367,0 5.183024,2.4391 5.298918,4.8827 0.139974,2.9513 0.126828,15.4704 -2.533105,21.2813 -2.659933,5.8109 -3.291132,12.368 -19.45158,12.2341 -16.160448,-0.1339 -19.195427,-7.8881 -19.251304,-20.7389 -0.05588,-12.8508 2.656103,-18.4325 6.219175,-18.6542 z"
                 style="fill:#ffffff;stroke:#000000;stroke-width:2.02249122;stroke-linecap:round;stroke-linejoin:miter;stroke-miterlimit:4;stroke-opacity:1;stroke-dasharray:none" />
            </g>
          </g>
          <g
             id="g3871">
            <path
               transform="matrix(1.1837797,0,0,1.1837797,62.011868,1001.8763)"
               d="m -89.139586,83.872871 c 0,1.316628 -1.067338,2.383966 -2.383966,2.383966 -1.316628,0 -2.383966,-1.067338 -2.383966,-2.383966 0,-1.316628 1.067338,-2.383965 2.383966,-2.383965 1.316628,0 2.383966,1.067337 2.383966,2.383965 z"
               sodipodi:ry="2.3839657"
               sodipodi:rx="2.3839657"
               sodipodi:cy="83.872871"
               sodipodi:cx="-91.523552"
               id="path3803"
               style="fill:none;stroke:#000000;stroke-width:1.70850313;stroke-linecap:round;stroke-linejoin:miter;stroke-miterlimit:4;stroke-opacity:1;stroke-dasharray:none"
               sodipodi:type="arc" />
            <path
               sodipodi:type="arc"
               style="fill:none;stroke:#000000;stroke-width:1.70850313;stroke-linecap:round;stroke-linejoin:miter;stroke-miterlimit:4;stroke-opacity:1;stroke-dasharray:none"
               id="path3805"
               sodipodi:cx="-91.523552"
               sodipodi:cy="83.872871"
               sodipodi:rx="2.3839657"
               sodipodi:ry="2.3839657"
               d="m -89.139586,83.872871 c 0,1.316628 -1.067338,2.383966 -2.383966,2.383966 -1.316628,0 -2.383966,-1.067338 -2.383966,-2.383966 0,-1.316628 1.067338,-2.383965 2.383966,-2.383965 1.316628,0 2.383966,1.067337 2.383966,2.383965 z"
               transform="matrix(1.1837797,0,0,1.1837797,77.974074,998.7668)" />
            <path
               sodipodi:type="arc"
               style="fill:none;stroke:#000000;stroke-width:1.70850313;stroke-linecap:round;stroke-linejoin:miter;stroke-miterlimit:4;stroke-opacity:1;stroke-dasharray:none"
               id="path3801"
               sodipodi:cx="-91.523552"
               sodipodi:cy="83.872871"
               sodipodi:rx="2.3839657"
               sodipodi:ry="2.3839657"
               d="m -89.139586,83.872871 c 0,1.316628 -1.067338,2.383966 -2.383966,2.383966 -1.316628,0 -2.383966,-1.067338 -2.383966,-2.383966 0,-1.316628 1.067338,-2.383965 2.383966,-2.383965 1.316628,0 2.383966,1.067337 2.383966,2.383965 z"
               transform="matrix(1.1837797,0,0,1.1837797,44.18395,1000.6325)" />
          </g>
        </g>
      </g>
    </g>
  </g>
</svg>
