<?xml version="1.0" encoding="utf-8"?>
<svg xmlns="http://www.w3.org/2000/svg" xmlns:xlink="http://www.w3.org/1999/xlink" version="1.2" preserveAspectRatio="xMidYMin meet" viewBox="-30 -23.75 260 285" data-sitelen-sentence=""><style>ellipse,polygon,polyline,rect,circle,line,path{stroke-width:2;stroke:black;vector-effect:non-scaling-stroke} .filler{stroke:none;}</style><svg width="200" height="237.5" viewBox="0 0 100 100" y="0" preserveAspectRatio="none" filter="" style="overflow: visible;"><svg viewBox="-1 19 102 102" preserveAspectRatio="none" height="15.789473684210526" width="100" x="0" y="84.21052631578948" style="overflow: visible;"><use xlink:href="#tp-wg-period" transform="matrix(1.2,0,0,1.2,-10,-10)" height="100" width="100" x="0" y="0"></use></svg><use xlink:href="#tp-c-kepeken-wide" transform="matrix(1.104,0,0,1.104,-5.200000000000003,-6.568421052631592)" height="42.10526315789474" width="100" x="0" y="42.10526315789474"></use><svg viewBox="-1 -1 102 102" preserveAspectRatio="none" height="42.10526315789474" width="100" x="0" y="0" style="overflow: visible;"><use xlink:href="#tp-wg-sina" transform="matrix(1.2,0,0,1.2,-5,-10)" height="100" width="50" x="0" y="0"></use><use xlink:href="#tp-wg-ken" transform="matrix(1.2,0,0,1.2,-15,-10)" height="100" width="50" x="50" y="0"></use></svg><svg viewBox="-7 -27 144 144" preserveAspectRatio="none" height="42.10526315789474" width="100" x="0" y="42.10526315789474" style="overflow: visible;"><use xlink:href="#tp-wg-ilo" transform="matrix(1.2,0,0,1.2,-5,-10)" height="100" width="50" x="0" y="0"></use><use xlink:href="#tp-wg-ni" transform="matrix(1.2,0,0,1.2,-15,-10)" height="100" width="50" x="50" y="0"></use></svg></svg><symbol viewBox="-2 -2 269 38" preserveAspectRatio="none" id="tp-wg-period"> <g id="period" fill="#FFF" stroke-miterlimit="10"> <path d="M262.707 22.562c0 5.074-3.526 9.188-7.875 9.188H10.375c-4.35 0-7.875-4.113-7.875-9.188 0-5.074 3.526-9.188 7.875-9.188h244.457c4.35 0 7.875 4.114 7.875 9.188z"></path> <path d="M262.707 11.688c0 5.074-3.526 9.188-7.875 9.188H10.375c-4.35 0-7.875-4.113-7.875-9.188S6.026 2.5 10.375 2.5h244.457c4.35 0 7.875 4.113 7.875 9.188z"></path> </g> </symbol><symbol viewBox="-2 -2 294.108 151.752" preserveAspectRatio="none" id="tp-c-kepeken-wide"> <g id="kepeken-wide" stroke="#000" stroke-width="5" stroke-miterlimit="10"> <path d="M253.107 145.252c25.65 0 34.5-8.33 34.5-18.605 0-14.45-21.526-16.436-33.597-16.436 12.07 0 33.598.183 33.598-16.074S266.08 77.7 254.01 77.7c12.07 0 33.598-6.325 33.598-22.582S248.375 42.62 248.375 42.62c10.15-10.373 20.452-28.355 11.176-36.81-10.79-9.835-39.05 4.965-45.06 9.34l-185.314.046C17.206 15.196 2.5 24.9 2.5 36.872v86.704c0 11.97 14.705 21.676 26.676 21.676h223.93z" fill="#FFF" stroke-linecap="round" stroke-linejoin="round"></path> <path d="M187.206 15.196c-12.225 12.432-20.937 30.148-24.53 47.902M214.586 15.196C197.48 31.878 186.86 54.173 186.86 79.953c0 25.36 10.28 48.854 26.898 65.475M162.153 96.03c3.32 19.545 12.817 36.136 26.41 49.398" fill="none"></path> <path d="M189.658 57.597c-19.154 0-37.48 5.683-37.48 21.947s18.055 21.947 37.21 21.947" fill="none"></path> </g> </symbol><symbol viewBox="-2 -2 129 129" preserveAspectRatio="none" id="tp-wg-sina"> <g id="issina" stroke-miterlimit="10"> <path d="M122.5 62.5v30c0 16.57-13.43 30-30 30h-60c-16.57 0-30-13.43-30-30v-30c0-33.137 26.863-60 60-60s60 26.863 60 60z" fill="#FFF"></path> <path d="M25.596 122.5V67.904C25.596 47.522 42.12 31 62.5 31s36.904 16.522 36.904 36.904V122.5" fill="none"></path> <path d="M35.552 122.5V81.156c0-5.523 4.477-10 10-10s10 4.477 10 10V122.5m8.053 0V69.077c0-7.136 5.785-12.92 12.92-12.92 7.137 0 12.922 5.784 12.922 12.92V122.5" fill="none"></path> </g> </symbol><symbol viewBox="-2 -2 129 129" preserveAspectRatio="none" id="tp-wg-ken"> <g id="bbken"> <path d="M34.625 32.678C44.22 32.678 52 38.81 52 46.374c0 10.286-10.577 18.624-23.625 18.624-14.29 0-25.875-12.585-25.875-26.876V38c0-19.606 17.573-35.5 39.25-35.5H62.5c33.137 0 60 26.863 60 60s-26.863 60-60 60C31.296 122.5 6 102 6 76.375c0-7.875 2.117-12.46 7.75-16.125" fill="#FFF" stroke-linecap="round" stroke-linejoin="round" stroke-miterlimit="10"></path> <path d="M7.013 77.01c12.626 1.113 39.114 1.18 59.3.495M9.19 90.7c11.775 1.036 36.475 1.1 55.3.46" fill="none" stroke-linecap="round" stroke-linejoin="round" stroke-miterlimit="10"></path> <path d="M47.25 57.755C58.982 61.368 67.384 71.083 67.384 82.5c0 14.497-13.548 26.25-30.26 26.25-9.254 0-17.537-3.603-23.088-9.28" fill="none" stroke-linecap="round" stroke-linejoin="round" stroke-miterlimit="10"></path> <ellipse transform="rotate(-13.76 75.264 33.25)" cx="75.25" cy="33.25" rx="4.5" ry="3.25"></ellipse> <path d="M90.034 28.75c0 8.768-7.107 15.875-15.875 15.875a15.836 15.836 0 0 1-11.87-5.334" fill="none" stroke-linecap="round" stroke-linejoin="round" stroke-miterlimit="10"></path> <ellipse transform="rotate(-13.76 90.268 61.754)" cx="90.25" cy="61.749" rx="4.5" ry="3.25"></ellipse> <path d="M105.034 57.25c0 8.767-7.107 15.874-15.875 15.874a15.836 15.836 0 0 1-11.87-5.334" fill="none" stroke-linecap="round" stroke-linejoin="round" stroke-miterlimit="10"></path> </g> </symbol><symbol viewBox="-2 -2 129 129.125" preserveAspectRatio="none" id="tp-wg-ilo"> <g id="arilo" fill="#FFF" stroke-miterlimit="10"> <path d="M62.5 91.625c0 17.12-11.88 31-29 31s-31-13.88-31-31c0-49 60-47.75 60-47.75v47.75z"></path> <path stroke-linecap="round" stroke-linejoin="round" d="M16.75 79.375l15.312-11.813M23.5 92.876l17-14.5"></path> <path d="M62.5 91.625c0 17.12 11.88 31 29 31s31-13.88 31-31c0-49-60-47.75-60-47.75v47.75z"></path> <path stroke-linecap="round" stroke-linejoin="round" d="M108.25 79.375L92.938 67.562m8.562 25.314l-17-14.5"></path> <path d="M84.125 67.958V101c0 11.943-9.682 21.625-21.625 21.625S40.875 112.943 40.875 101V67.958m74.75-29.833c0 16.43-13.32 29.75-29.75 29.75h-46.75c-16.43 0-29.75-13.32-29.75-29.75s13.32-29.75 29.75-29.75h46.75c16.43 0 29.75 13.32 29.75 29.75z"></path> <circle cx="62.5" cy="23.062" r="20.562"></circle> </g> </symbol><symbol viewBox="-2 -2 129 129" preserveAspectRatio="none" id="tp-wg-ni"> <g id="cwni" stroke-miterlimit="10"> <path d="M32.5 122.5c-16.57 0-30-13.43-30-30 0-8.284 3.358-15.784 8.787-21.213l58.476-58.36C75.265 6.544 83.41 2.5 92.5 2.5c16.57 0 30 13.43 30 30v60c0 16.57-13.43 30-30 30h-60z" fill="#FFF"></path> <path d="M57.25 57.5C40.75 42.25 40.196 30.3 47 23.5S68.75 15.25 83.25 34m-52.5 58c-25-14-26.814-29.93-19-38.25 7.75-8.25 18.25-15 42 7.25" fill="#FFF" stroke-linecap="round" stroke-linejoin="round"></path> <circle cx="91.375" cy="57.875" r="11.375" fill="none" stroke-linecap="round" stroke-linejoin="round"></circle> <circle cx="74.249" cy="90.251" r="15.75" fill="none" stroke-linecap="round" stroke-linejoin="round"></circle> <path d="M27.455 101.777C36.807 82.513 75.51 37.29 89.137 30.183" fill="#FFF" stroke-linecap="round" stroke-linejoin="round"></path> </g> </symbol></svg>