<?xml version="1.0" encoding="UTF-8" standalone="no"?>
<!-- Created with Inkscape (http://www.inkscape.org/) -->

<svg
   xmlns:dc="http://purl.org/dc/elements/1.1/"
   xmlns:cc="http://creativecommons.org/ns#"
   xmlns:rdf="http://www.w3.org/1999/02/22-rdf-syntax-ns#"
   xmlns:svg="http://www.w3.org/2000/svg"
   xmlns="http://www.w3.org/2000/svg"
   xmlns:sodipodi="http://sodipodi.sourceforge.net/DTD/sodipodi-0.dtd"
   xmlns:inkscape="http://www.inkscape.org/namespaces/inkscape"
   width="96"
   height="96"
   id="svg2"
   version="1.1"
   inkscape:version="0.48.3.1 r9886"
   sodipodi:docname="()on.svg">
  <defs
     id="defs4" />
  <sodipodi:namedview
     id="base"
     pagecolor="#ffffff"
     bordercolor="#666666"
     borderopacity="1.0"
     inkscape:pageopacity="0.0"
     inkscape:pageshadow="2"
     inkscape:zoom="6.1770833"
     inkscape:cx="48"
     inkscape:cy="48"
     inkscape:document-units="px"
     inkscape:current-layer="layer1"
     showgrid="false"
     inkscape:window-width="992"
     inkscape:window-height="822"
     inkscape:window-x="0"
     inkscape:window-y="26"
     inkscape:window-maximized="0"
     showguides="true"
     inkscape:guide-bbox="true" />
  <metadata
     id="metadata7">
    <rdf:RDF>
      <cc:Work
         rdf:about="">
        <dc:format>image/svg+xml</dc:format>
        <dc:type
           rdf:resource="http://purl.org/dc/dcmitype/StillImage" />
        <dc:title />
      </cc:Work>
    </rdf:RDF>
  </metadata>
  <g
     inkscape:label="Calque 1"
     inkscape:groupmode="layer"
     id="layer1"
     transform="translate(0,-956.36218)">
    <g
       id="g3002"
       transform="translate(1.0813415e-4,-1.0817193e-4)">
      <g
         transform="translate(-3.96e-4,28.17788)"
         inkscape:label="Calque 1"
         id="layer1-1">
        <g
           id="g3009"
           transform="translate(14.037253,-1.3707904e-8)"
           style="fill:#ffffff">
          <g
             id="g3784">
            <g
               id="g3774"
               style="fill:#ffffff"
               transform="translate(83.01414,1.3477018)" />
          </g>
        </g>
        <path
           style="fill:#ffffff;stroke:#000000;stroke-width:2;stroke-linecap:round;stroke-linejoin:miter;stroke-miterlimit:4;stroke-opacity:1;stroke-dasharray:none"
           d="m 54.082784,1014.2357 c 9.894209,7.9736 30.31082,8.5568 30.31082,-7.4231 0,-23.71471 -72.787208,-23.70287 -72.787208,0 0,16.0699 15.632906,15.3282 25.980703,7.4231 5.772818,5.0581 9.589913,7.1868 16.495685,0 z"
           id="path3804"
           inkscape:connector-curvature="0"
           sodipodi:nodetypes="ccccc" />
      </g>
      <g
         transform="translate(0.3363306,-7.3363278)"
         id="g2995">
        <path
           sodipodi:type="arc"
           style="fill:#ffffff;stroke:#000000;stroke-width:2.3492887;stroke-linecap:round;stroke-linejoin:miter;stroke-miterlimit:4;stroke-opacity:1;stroke-dasharray:none"
           id="path2995"
           sodipodi:cx="-55.578911"
           sodipodi:cy="54.144276"
           sodipodi:rx="42.884964"
           sodipodi:ry="42.884964"
           d="m -12.693947,54.144276 c 0,23.684711 -19.200252,42.884964 -42.884964,42.884964 -23.684711,0 -42.884964,-19.200253 -42.884964,-42.884964 0,-23.684712 19.200253,-42.884964 42.884964,-42.884964 23.684712,0 42.884964,19.200252 42.884964,42.884964 z"
           transform="matrix(0.8513215,0,0,0.8513215,94.979083,958.60443)" />
        <g
           id="layer1-7"
           inkscape:label="Calque 1"
           transform="translate(-1.9409792e-7,3.0868307e-6)">
          <g
             transform="matrix(0.82203086,0,0,0.82203086,73.691382,177.78505)"
             id="g3777">
            <path
               transform="translate(-34.657203,959.08835)"
               d="m 3.3103448,44.787018 c 0,0.75281 -0.6102731,1.363083 -1.3630831,1.363083 -0.75281,0 -1.36308313,-0.610273 -1.36308313,-1.363083 0,-0.75281 0.61027313,-1.363083 1.36308313,-1.363083 0.75281,0 1.3630831,0.610273 1.3630831,1.363083 z"
               sodipodi:ry="1.3630831"
               sodipodi:rx="1.3630831"
               sodipodi:cy="44.787018"
               sodipodi:cx="1.9472617"
               id="path3766"
               style="fill:#000000;fill-opacity:1;stroke:#000000;stroke-width:2.43299866;stroke-linecap:round;stroke-linejoin:miter;stroke-miterlimit:4;stroke-opacity:1;stroke-dasharray:none;stroke-dashoffset:0"
               sodipodi:type="arc" />
            <path
               sodipodi:type="arc"
               style="fill:none;stroke:#000000;stroke-width:2.90668702;stroke-linecap:round;stroke-linejoin:miter;stroke-miterlimit:4;stroke-opacity:1;stroke-dasharray:none;stroke-dashoffset:0"
               id="path3007"
               sodipodi:cx="16.259634"
               sodipodi:cy="55.594322"
               sodipodi:rx="13.338742"
               sodipodi:ry="13.338742"
               d="m 29.598376,55.594322 c 0,7.366784 -5.971958,13.338742 -13.338742,13.338742 -7.3667839,0 -13.3387422,-5.971958 -13.3387422,-13.338742 0,-7.366784 5.9719583,-13.338742 13.3387422,-13.338742 7.366784,0 13.338742,5.971958 13.338742,13.338742 z"
               transform="matrix(0.83703495,0,0,0.83703495,-44.863431,958.99614)" />
          </g>
        </g>
      </g>
    </g>
  </g>
</svg>
