<?xml version="1.0" encoding="UTF-8" standalone="no"?>
<!-- Created with Inkscape (http://www.inkscape.org/) -->

<svg
   xmlns:dc="http://purl.org/dc/elements/1.1/"
   xmlns:cc="http://creativecommons.org/ns#"
   xmlns:rdf="http://www.w3.org/1999/02/22-rdf-syntax-ns#"
   xmlns:svg="http://www.w3.org/2000/svg"
   xmlns="http://www.w3.org/2000/svg"
   xmlns:sodipodi="http://sodipodi.sourceforge.net/DTD/sodipodi-0.dtd"
   xmlns:inkscape="http://www.inkscape.org/namespaces/inkscape"
   width="96"
   height="96"
   id="svg2"
   version="1.1"
   inkscape:version="0.48.3.1 r9886"
   sodipodi:docname="ko.svg">
  <defs
     id="defs4" />
  <sodipodi:namedview
     id="base"
     pagecolor="#ffffff"
     bordercolor="#666666"
     borderopacity="1.0"
     inkscape:pageopacity="0.0"
     inkscape:pageshadow="2"
     inkscape:zoom="5.1354167"
     inkscape:cx="44.397566"
     inkscape:cy="43.326572"
     inkscape:document-units="px"
     inkscape:current-layer="layer1"
     showgrid="false"
     inkscape:window-width="992"
     inkscape:window-height="822"
     inkscape:window-x="0"
     inkscape:window-y="26"
     inkscape:window-maximized="0"
     showguides="true"
     inkscape:guide-bbox="true" />
  <metadata
     id="metadata7">
    <rdf:RDF>
      <cc:Work
         rdf:about="">
        <dc:format>image/svg+xml</dc:format>
        <dc:type
           rdf:resource="http://purl.org/dc/dcmitype/StillImage" />
        <dc:title />
      </cc:Work>
    </rdf:RDF>
  </metadata>
  <g
     inkscape:label="Calque 1"
     inkscape:groupmode="layer"
     id="layer1"
     transform="translate(0,-956.36218)">
    <g
       id="g2999">
      <g
         transform="matrix(1.1485719,0,0,1.1485719,89.557772,-148.38326)"
         id="g3772">
        <g
           id="g3768">
          <path
             sodipodi:nodetypes="zccz"
             transform="translate(0,956.36218)"
             inkscape:connector-curvature="0"
             id="path2996"
             d="m -31.406408,77.544688 c 8.032593,-2.017938 8.155936,-13.511868 5.504216,-21.693086 l -16.188871,4.856661 c 0.163585,6.664196 2.652062,18.854362 10.684655,16.836425 z"
             style="fill:#ffffff;stroke:#000000;stroke-width:1.74129283;stroke-linecap:round;stroke-linejoin:miter;stroke-miterlimit:4;stroke-opacity:1;stroke-dasharray:none" />
          <path
             sodipodi:nodetypes="cczc"
             transform="translate(0,956.36218)"
             inkscape:connector-curvature="0"
             id="path2998"
             d="m -25.218602,57.209228 13.076949,-3.300291 c 6.2209963,7.39711 7.6629673,20.94008 -2.590219,21.854975 -10.253186,0.914895 -8.923181,-10.090031 -10.48673,-18.554684 z"
             style="fill:#ffffff;stroke:#000000;stroke-width:1.74129283;stroke-linecap:round;stroke-linejoin:miter;stroke-miterlimit:4;stroke-opacity:1;stroke-dasharray:none" />
        </g>
        <path
           style="fill:#ffffff;stroke:#000000;stroke-width:1.74129283;stroke-linecap:round;stroke-linejoin:miter;stroke-miterlimit:4;stroke-opacity:1;stroke-dasharray:none"
           d="m -39.986509,62.165261 c 0,0 35.4536253,-0.303044 35.4536253,-17.160202 0,-16.857158 -22.2100843,-29.301855 -36.4249583,-29.301855 -14.214874,0 -26.873524,10.560752 -26.873524,29.301855 0,18.741103 8.297893,33.834739 19.264755,33.834739 10.966863,0 8.580102,-16.674537 8.580102,-16.674537 z"
           id="path2994"
           inkscape:connector-curvature="0"
           transform="translate(0,956.36218)"
           sodipodi:nodetypes="czzzzc" />
      </g>
      <g
         transform="translate(-1.9409792e-7,-8.876264)"
         inkscape:label="Calque 1"
         id="layer1-2">
        <g
           id="g3777"
           transform="matrix(0.82203086,0,0,0.82203086,73.691382,177.78505)">
          <path
             sodipodi:type="arc"
             style="fill:#000000;fill-opacity:1;stroke:#000000;stroke-width:2.43299866;stroke-linecap:round;stroke-linejoin:miter;stroke-miterlimit:4;stroke-opacity:1;stroke-dasharray:none;stroke-dashoffset:0"
             id="path3766"
             sodipodi:cx="1.9472617"
             sodipodi:cy="44.787018"
             sodipodi:rx="1.3630831"
             sodipodi:ry="1.3630831"
             d="m 3.3103448,44.787018 c 0,0.75281 -0.6102731,1.363083 -1.3630831,1.363083 -0.75281,0 -1.36308313,-0.610273 -1.36308313,-1.363083 0,-0.75281 0.61027313,-1.363083 1.36308313,-1.363083 0.75281,0 1.3630831,0.610273 1.3630831,1.363083 z"
             transform="translate(-34.657203,959.08835)" />
          <path
             transform="matrix(0.83703495,0,0,0.83703495,-44.863431,958.99614)"
             d="m 29.598376,55.594322 c 0,7.366784 -5.971958,13.338742 -13.338742,13.338742 -7.3667839,0 -13.3387422,-5.971958 -13.3387422,-13.338742 0,-7.366784 5.9719583,-13.338742 13.3387422,-13.338742 7.366784,0 13.338742,5.971958 13.338742,13.338742 z"
             sodipodi:ry="13.338742"
             sodipodi:rx="13.338742"
             sodipodi:cy="55.594322"
             sodipodi:cx="16.259634"
             id="path3007"
             style="fill:none;stroke:#000000;stroke-width:2.90668702;stroke-linecap:round;stroke-linejoin:miter;stroke-miterlimit:4;stroke-opacity:1;stroke-dasharray:none;stroke-dashoffset:0"
             sodipodi:type="arc" />
        </g>
      </g>
    </g>
  </g>
</svg>
