<?xml version="1.0" encoding="UTF-8" standalone="no"?>
<!-- Created with Inkscape (http://www.inkscape.org/) -->

<svg
   xmlns:dc="http://purl.org/dc/elements/1.1/"
   xmlns:cc="http://creativecommons.org/ns#"
   xmlns:rdf="http://www.w3.org/1999/02/22-rdf-syntax-ns#"
   xmlns:svg="http://www.w3.org/2000/svg"
   xmlns="http://www.w3.org/2000/svg"
   xmlns:sodipodi="http://sodipodi.sourceforge.net/DTD/sodipodi-0.dtd"
   xmlns:inkscape="http://www.inkscape.org/namespaces/inkscape"
   width="96"
   height="96"
   id="svg2"
   version="1.1"
   inkscape:version="0.48.3.1 r9886"
   sodipodi:docname="na.svg">
  <defs
     id="defs4" />
  <sodipodi:namedview
     id="base"
     pagecolor="#ffffff"
     bordercolor="#666666"
     borderopacity="1.0"
     inkscape:pageopacity="0.0"
     inkscape:pageshadow="2"
     inkscape:zoom="6.1770833"
     inkscape:cx="38.610455"
     inkscape:cy="48"
     inkscape:document-units="px"
     inkscape:current-layer="layer1"
     showgrid="false"
     inkscape:window-width="992"
     inkscape:window-height="822"
     inkscape:window-x="0"
     inkscape:window-y="26"
     inkscape:window-maximized="0"
     showguides="true"
     inkscape:guide-bbox="true" />
  <metadata
     id="metadata7">
    <rdf:RDF>
      <cc:Work
         rdf:about="">
        <dc:format>image/svg+xml</dc:format>
        <dc:type
           rdf:resource="http://purl.org/dc/dcmitype/StillImage" />
        <dc:title />
      </cc:Work>
    </rdf:RDF>
  </metadata>
  <g
     inkscape:label="Calque 1"
     inkscape:groupmode="layer"
     id="layer1"
     transform="translate(0,-956.36218)">
    <g
       id="g3009"
       transform="translate(14.037253,-1.3707904e-8)"
       style="fill:#ffffff">
      <g
         id="g3784">
        <g
           id="g3774"
           style="fill:#ffffff"
           transform="translate(83.01414,1.3477018)" />
      </g>
    </g>
    <g
       id="g2998">
      <path
         sodipodi:nodetypes="czcccc"
         inkscape:connector-curvature="0"
         id="path2997"
         d="m 51.225978,1040.7645 c 10.440243,-0.014 22.885919,-3.8655 22.885919,-17.9009 0,-14.0354 -12.236036,-16.088 -12.236036,-16.088 6.092567,-8.42521 2.126292,-15.61252 -7.250985,-15.40839 6.235687,-11.53261 1.325389,-24.46237 -9.516917,-23.3391 -41.2925554,6.14695 -20.03026,72.83729 6.118019,72.73639 z"
         style="fill:#ffffff;stroke:#000000;stroke-width:2;stroke-linecap:round;stroke-linejoin:miter;stroke-miterlimit:4;stroke-opacity:1;stroke-dasharray:none" />
      <g
         transform="translate(-5.9999997,1.9999984)"
         inkscape:label="Calque 1"
         id="layer1-7">
        <g
           id="g3007"
           transform="matrix(0.6038702,0,0,0.6038702,28.954869,392.7369)">
          <path
             sodipodi:nodetypes="ccsszc"
             inkscape:connector-curvature="0"
             id="path3767"
             d="m -1.2156194,1004.3598 c 24.4217594,-29.25441 41.4594774,-6.82958 48.3139204,18.0383 0,0 -8.413224,7.0372 -12.889999,7.0372 -4.113511,0 -6.650884,-3.8353 -6.650884,-6.744 0,-4.2674 2.510522,-9.7844 9.125185,-9.7844 6.614663,0 9.459302,8.2363 10.266024,9.2044"
             style="fill:none;stroke:#000000;stroke-width:3.31197;stroke-linecap:round;stroke-linejoin:miter;stroke-miterlimit:4;stroke-opacity:1;stroke-dasharray:none" />
          <path
             transform="translate(11.076209,957.18619)"
             d="m 26.569698,64.290909 c 0,0.696213 -0.564393,1.260606 -1.260606,1.260606 -0.696214,0 -1.260606,-0.564393 -1.260606,-1.260606 0,-0.696214 0.564392,-1.260606 1.260606,-1.260606 0.696213,0 1.260606,0.564392 1.260606,1.260606 z"
             sodipodi:ry="1.2606061"
             sodipodi:rx="1.2606061"
             sodipodi:cy="64.290909"
             sodipodi:cx="25.309092"
             id="path3777"
             style="fill:#000000;fill-opacity:1;stroke:#000000;stroke-width:3.31197;stroke-linecap:round;stroke-linejoin:miter;stroke-miterlimit:4;stroke-opacity:1;stroke-dasharray:none"
             sodipodi:type="arc" />
        </g>
      </g>
    </g>
  </g>
</svg>
