<?xml version="1.0" encoding="UTF-8" standalone="no"?>
<!-- Created with Inkscape (http://www.inkscape.org/) -->

<svg
   xmlns:dc="http://purl.org/dc/elements/1.1/"
   xmlns:cc="http://creativecommons.org/ns#"
   xmlns:rdf="http://www.w3.org/1999/02/22-rdf-syntax-ns#"
   xmlns:svg="http://www.w3.org/2000/svg"
   xmlns="http://www.w3.org/2000/svg"
   xmlns:sodipodi="http://sodipodi.sourceforge.net/DTD/sodipodi-0.dtd"
   xmlns:inkscape="http://www.inkscape.org/namespaces/inkscape"
   width="96"
   height="96"
   id="svg2"
   version="1.1"
   inkscape:version="0.48.3.1 r9886"
   sodipodi:docname="pa.svg">
  <defs
     id="defs4" />
  <sodipodi:namedview
     id="base"
     pagecolor="#ffffff"
     bordercolor="#666666"
     borderopacity="1.0"
     inkscape:pageopacity="0.0"
     inkscape:pageshadow="2"
     inkscape:zoom="6.1770833"
     inkscape:cx="48"
     inkscape:cy="48"
     inkscape:document-units="px"
     inkscape:current-layer="layer1"
     showgrid="false"
     inkscape:window-width="992"
     inkscape:window-height="822"
     inkscape:window-x="0"
     inkscape:window-y="26"
     inkscape:window-maximized="0"
     showguides="true"
     inkscape:guide-bbox="true" />
  <metadata
     id="metadata7">
    <rdf:RDF>
      <cc:Work
         rdf:about="">
        <dc:format>image/svg+xml</dc:format>
        <dc:type
           rdf:resource="http://purl.org/dc/dcmitype/StillImage" />
        <dc:title />
      </cc:Work>
    </rdf:RDF>
  </metadata>
  <g
     inkscape:label="Calque 1"
     inkscape:groupmode="layer"
     id="layer1"
     transform="translate(0,-956.36218)">
    <g
       id="g3790"
       transform="matrix(1.1421464,0,0,1.1421464,82.530825,-141.95644)"
       style="fill:#ffffff">
      <g
         id="g3786"
         style="fill:#ffffff">
        <path
           style="fill:#ffffff;stroke:#000000;stroke-width:1.75108898;stroke-linecap:round;stroke-linejoin:miter;stroke-miterlimit:4;stroke-opacity:1;stroke-dasharray:none"
           d="M -7.8382562,33.133986 C -6.6964697,22.361166 -19.795329,15.089044 -28.473665,15.058007 c -8.678336,-0.03104 -33.592527,7.485293 -33.592527,31.193061 0,23.707768 15.245831,33.272597 31.672954,33.272597 23.1456279,0 31.9928821,-17.435729 31.9928821,-27.833807 0,-10.398079 -9.4379003,-18.555872 -9.4379003,-18.555872 z"
           id="path3782"
           inkscape:connector-curvature="0"
           transform="translate(0,956.36218)"
           sodipodi:nodetypes="czzczc" />
        <path
           style="fill:none;stroke:#000000;stroke-width:1.75108898;stroke-linecap:round;stroke-linejoin:miter;stroke-miterlimit:4;stroke-opacity:1;stroke-dasharray:none"
           d="M -7.8178933,33.13186 C -16.226801,27.333437 -25.910014,25.44421 -34.956839,30.570581"
           id="path3784"
           inkscape:connector-curvature="0"
           transform="translate(0,956.36218)"
           sodipodi:nodetypes="cc" />
      </g>
      <g
         transform="translate(0.07695898,0.34363112)"
         id="g3778"
         style="fill:#ffffff">
        <path
           sodipodi:type="arc"
           style="fill:none;stroke:#000000;stroke-width:1.75108898;stroke-linecap:round;stroke-linejoin:miter;stroke-miterlimit:4;stroke-opacity:1;stroke-dasharray:none;stroke-dashoffset:0"
           id="path3770"
           sodipodi:cx="-16.135017"
           sodipodi:cy="29.733856"
           sodipodi:rx="0.82551253"
           sodipodi:ry="0.82551253"
           d="m -15.309505,29.733856 c 0,0.455918 -0.369594,0.825513 -0.825512,0.825513 -0.455918,0 -0.825513,-0.369595 -0.825513,-0.825513 0,-0.455918 0.369595,-0.825512 0.825513,-0.825512 0.455918,0 0.825512,0.369594 0.825512,0.825512 z"
           transform="translate(-9.3057779,949.60799)" />
        <path
           transform="translate(-2.2513979,949.3078)"
           d="m -15.309505,29.733856 c 0,0.455918 -0.369594,0.825513 -0.825512,0.825513 -0.455918,0 -0.825513,-0.369595 -0.825513,-0.825513 0,-0.455918 0.369595,-0.825512 0.825513,-0.825512 0.455918,0 0.825512,0.369594 0.825512,0.825512 z"
           sodipodi:ry="0.82551253"
           sodipodi:rx="0.82551253"
           sodipodi:cy="29.733856"
           sodipodi:cx="-16.135017"
           id="path3772"
           style="fill:none;stroke:#000000;stroke-width:1.75108898;stroke-linecap:round;stroke-linejoin:miter;stroke-miterlimit:4;stroke-opacity:1;stroke-dasharray:none;stroke-dashoffset:0"
           sodipodi:type="arc" />
      </g>
    </g>
    <g
       id="layer1-2"
       inkscape:label="Calque 1"
       transform="translate(-7.3022312,14.701824)">
      <g
         transform="matrix(0.6038702,0,0,0.6038702,28.954869,392.7369)"
         id="g3007">
        <path
           style="fill:none;stroke:#000000;stroke-width:3.31197;stroke-linecap:round;stroke-linejoin:miter;stroke-miterlimit:4;stroke-opacity:1;stroke-dasharray:none"
           d="m -14.977906,1002.5954 c 29.52107,-34.21033 52.751389,-13.54013 62.076207,19.8027 0,0 -8.413224,7.0372 -12.889999,7.0372 -4.113511,0 -6.650884,-3.8353 -6.650884,-6.744 0,-4.2674 2.510522,-9.7844 9.125185,-9.7844 6.614663,0 9.459302,8.2363 10.266024,9.2044"
           id="path3767"
           inkscape:connector-curvature="0"
           sodipodi:nodetypes="ccsszc" />
        <path
           sodipodi:type="arc"
           style="fill:#000000;fill-opacity:1;stroke:#000000;stroke-width:3.31197;stroke-linecap:round;stroke-linejoin:miter;stroke-miterlimit:4;stroke-opacity:1;stroke-dasharray:none"
           id="path3777"
           sodipodi:cx="25.309092"
           sodipodi:cy="64.290909"
           sodipodi:rx="1.2606061"
           sodipodi:ry="1.2606061"
           d="m 26.569698,64.290909 c 0,0.696213 -0.564393,1.260606 -1.260606,1.260606 -0.696214,0 -1.260606,-0.564393 -1.260606,-1.260606 0,-0.696214 0.564392,-1.260606 1.260606,-1.260606 0.696213,0 1.260606,0.564392 1.260606,1.260606 z"
           transform="translate(11.076209,957.18619)" />
      </g>
    </g>
  </g>
</svg>
