<?xml version="1.0" encoding="UTF-8" standalone="no"?>
<!-- Created with Inkscape (http://www.inkscape.org/) -->

<svg
   xmlns:dc="http://purl.org/dc/elements/1.1/"
   xmlns:cc="http://creativecommons.org/ns#"
   xmlns:rdf="http://www.w3.org/1999/02/22-rdf-syntax-ns#"
   xmlns:svg="http://www.w3.org/2000/svg"
   xmlns="http://www.w3.org/2000/svg"
   xmlns:sodipodi="http://sodipodi.sourceforge.net/DTD/sodipodi-0.dtd"
   xmlns:inkscape="http://www.inkscape.org/namespaces/inkscape"
   width="96"
   height="96"
   id="svg2"
   version="1.1"
   inkscape:version="0.48.3.1 r9886"
   sodipodi:docname="sa.svg">
  <defs
     id="defs4" />
  <sodipodi:namedview
     id="base"
     pagecolor="#ffffff"
     bordercolor="#666666"
     borderopacity="1.0"
     inkscape:pageopacity="0.0"
     inkscape:pageshadow="2"
     inkscape:zoom="5.8333333"
     inkscape:cx="48"
     inkscape:cy="48"
     inkscape:document-units="px"
     inkscape:current-layer="layer1"
     showgrid="false"
     inkscape:window-width="992"
     inkscape:window-height="822"
     inkscape:window-x="0"
     inkscape:window-y="26"
     inkscape:window-maximized="0"
     showguides="true"
     inkscape:guide-bbox="true" />
  <metadata
     id="metadata7">
    <rdf:RDF>
      <cc:Work
         rdf:about="">
        <dc:format>image/svg+xml</dc:format>
        <dc:type
           rdf:resource="http://purl.org/dc/dcmitype/StillImage" />
        <dc:title />
      </cc:Work>
    </rdf:RDF>
  </metadata>
  <g
     inkscape:label="Calque 1"
     inkscape:groupmode="layer"
     id="layer1"
     transform="translate(0,-956.36218)">
    <g
       id="g2999">
      <g
         transform="matrix(1.1819753,0,0,1.1819753,-8.7348143,-175.75299)"
         id="g3774">
        <g
           id="g3770">
          <path
             sodipodi:type="arc"
             style="fill:#ffffff;fill-opacity:1;stroke:#000000;stroke-width:1.69208276;stroke-linecap:round;stroke-linejoin:miter;stroke-miterlimit:4;stroke-opacity:1;stroke-dasharray:none;stroke-dashoffset:0"
             id="path3000"
             sodipodi:cx="51.804386"
             sodipodi:cy="66.940979"
             sodipodi:rx="19.588533"
             sodipodi:ry="9.7942667"
             d="m 71.39292,66.940979 c 0,5.409224 -8.770086,9.794267 -19.588534,9.794267 -10.818448,0 -19.588533,-4.385043 -19.588533,-9.794267 0,-5.409224 8.770085,-9.794267 19.588533,-9.794267 10.818448,0 19.588534,4.385043 19.588534,9.794267 z"
             transform="translate(-3.8043862,952.59152)" />
          <path
             transform="translate(-3.8043862,942.59152)"
             d="m 71.39292,66.940979 c 0,5.409224 -8.770086,9.794267 -19.588534,9.794267 -10.818448,0 -19.588533,-4.385043 -19.588533,-9.794267 0,-5.409224 8.770085,-9.794267 19.588533,-9.794267 10.818448,0 19.588534,4.385043 19.588534,9.794267 z"
             sodipodi:ry="9.7942667"
             sodipodi:rx="19.588533"
             sodipodi:cy="66.940979"
             sodipodi:cx="51.804386"
             id="path2998"
             style="fill:#ffffff;fill-opacity:1;stroke:#000000;stroke-width:1.69208276;stroke-linecap:round;stroke-linejoin:miter;stroke-miterlimit:4;stroke-opacity:1;stroke-dasharray:none;stroke-dashoffset:0"
             sodipodi:type="arc" />
        </g>
        <path
           sodipodi:type="arc"
           style="fill:#ffffff;stroke:#000000;stroke-width:3.34156585;stroke-linecap:round;stroke-linejoin:miter;stroke-miterlimit:4;stroke-opacity:1;stroke-dasharray:none"
           id="path2995"
           sodipodi:cx="-55.578911"
           sodipodi:cy="54.144276"
           sodipodi:rx="42.884964"
           sodipodi:ry="42.884964"
           d="m -12.693947,54.144276 c 0,23.684711 -19.200252,42.884964 -42.884964,42.884964 -23.684711,0 -42.884964,-19.200253 -42.884964,-42.884964 0,-23.684712 19.200253,-42.884964 42.884964,-42.884964 23.684712,0 42.884964,19.200252 42.884964,42.884964 z"
           transform="matrix(0.50637421,0,0,0.50637421,76.143727,961.82432)" />
      </g>
      <g
         transform="translate(-1.9999997,-11.00203)"
         inkscape:label="Calque 1"
         id="layer1-6">
        <g
           id="g3007"
           transform="matrix(0.6038702,0,0,0.6038702,28.954869,392.7369)">
          <path
             sodipodi:nodetypes="ccsszc"
             inkscape:connector-curvature="0"
             id="path3767"
             d="m -6.8587326,1005.8039 c 24.7392436,-28.83655 44.2372636,-14.2294 53.9570336,16.5942 0,0 -8.413224,7.0372 -12.889999,7.0372 -4.113511,0 -6.650884,-3.8353 -6.650884,-6.744 0,-4.2674 2.510522,-9.7844 9.125185,-9.7844 6.614663,0 9.459302,8.2363 10.266024,9.2044"
             style="fill:none;stroke:#000000;stroke-width:3.31197;stroke-linecap:round;stroke-linejoin:miter;stroke-miterlimit:4;stroke-opacity:1;stroke-dasharray:none" />
          <path
             transform="translate(11.076209,957.18619)"
             d="m 26.569698,64.290909 c 0,0.696213 -0.564393,1.260606 -1.260606,1.260606 -0.696214,0 -1.260606,-0.564393 -1.260606,-1.260606 0,-0.696214 0.564392,-1.260606 1.260606,-1.260606 0.696213,0 1.260606,0.564392 1.260606,1.260606 z"
             sodipodi:ry="1.2606061"
             sodipodi:rx="1.2606061"
             sodipodi:cy="64.290909"
             sodipodi:cx="25.309092"
             id="path3777"
             style="fill:#000000;fill-opacity:1;stroke:#000000;stroke-width:3.31197;stroke-linecap:round;stroke-linejoin:miter;stroke-miterlimit:4;stroke-opacity:1;stroke-dasharray:none"
             sodipodi:type="arc" />
        </g>
      </g>
    </g>
  </g>
</svg>
