<?xml version="1.0" encoding="UTF-8" standalone="no"?>
<!-- Created with Inkscape (http://www.inkscape.org/) -->

<svg
   xmlns:dc="http://purl.org/dc/elements/1.1/"
   xmlns:cc="http://creativecommons.org/ns#"
   xmlns:rdf="http://www.w3.org/1999/02/22-rdf-syntax-ns#"
   xmlns:svg="http://www.w3.org/2000/svg"
   xmlns="http://www.w3.org/2000/svg"
   xmlns:sodipodi="http://sodipodi.sourceforge.net/DTD/sodipodi-0.dtd"
   xmlns:inkscape="http://www.inkscape.org/namespaces/inkscape"
   width="96"
   height="96"
   id="svg2"
   version="1.1"
   inkscape:version="0.48.3.1 r9886"
   sodipodi:docname="sin.svg">
  <defs
     id="defs4" />
  <sodipodi:namedview
     id="base"
     pagecolor="#ffffff"
     bordercolor="#666666"
     borderopacity="1.0"
     inkscape:pageopacity="0.0"
     inkscape:pageshadow="2"
     inkscape:zoom="5.8333333"
     inkscape:cx="50.142857"
     inkscape:cy="49.371429"
     inkscape:document-units="px"
     inkscape:current-layer="layer1"
     showgrid="false"
     inkscape:window-width="992"
     inkscape:window-height="822"
     inkscape:window-x="0"
     inkscape:window-y="26"
     inkscape:window-maximized="0"
     showguides="true"
     inkscape:guide-bbox="true" />
  <metadata
     id="metadata7">
    <rdf:RDF>
      <cc:Work
         rdf:about="">
        <dc:format>image/svg+xml</dc:format>
        <dc:type
           rdf:resource="http://purl.org/dc/dcmitype/StillImage" />
        <dc:title />
      </cc:Work>
    </rdf:RDF>
  </metadata>
  <g
     inkscape:label="Calque 1"
     inkscape:groupmode="layer"
     id="layer1"
     transform="translate(0,-956.36218)">
    <g
       id="g3002"
       transform="translate(0,0.01463109)">
      <path
         sodipodi:nodetypes="ccccc"
         inkscape:connector-curvature="0"
         id="path3804"
         d="m 53.380421,1043.0438 c 8.75175,7.0529 26.810909,7.5687 26.810909,-6.566 0,-20.9765 -64.38266,-20.966 -64.38266,0 0,14.2143 13.827816,13.5583 22.98078,6.566 5.106246,4.474 8.482591,6.3569 14.590971,0 z"
         style="fill:#ffffff;stroke:#000000;stroke-width:1.99999988;stroke-linecap:round;stroke-linejoin:miter;stroke-miterlimit:4;stroke-opacity:1;stroke-dasharray:none" />
      <g
         transform="translate(0,-7.0146427)"
         id="g3005">
        <g
           id="g3774"
           transform="matrix(1.1819753,0,0,1.1819753,-8.7348143,-175.75299)">
          <g
             id="g3770">
            <path
               transform="translate(-3.8043862,952.59152)"
               d="m 71.39292,66.940979 c 0,5.409224 -8.770086,9.794267 -19.588534,9.794267 -10.818448,0 -19.588533,-4.385043 -19.588533,-9.794267 0,-5.409224 8.770085,-9.794267 19.588533,-9.794267 10.818448,0 19.588534,4.385043 19.588534,9.794267 z"
               sodipodi:ry="9.7942667"
               sodipodi:rx="19.588533"
               sodipodi:cy="66.940979"
               sodipodi:cx="51.804386"
               id="path3000"
               style="fill:#ffffff;fill-opacity:1;stroke:#000000;stroke-width:1.69208276;stroke-linecap:round;stroke-linejoin:miter;stroke-miterlimit:4;stroke-opacity:1;stroke-dasharray:none;stroke-dashoffset:0"
               sodipodi:type="arc" />
            <path
               sodipodi:type="arc"
               style="fill:#ffffff;fill-opacity:1;stroke:#000000;stroke-width:1.69208276;stroke-linecap:round;stroke-linejoin:miter;stroke-miterlimit:4;stroke-opacity:1;stroke-dasharray:none;stroke-dashoffset:0"
               id="path2998"
               sodipodi:cx="51.804386"
               sodipodi:cy="66.940979"
               sodipodi:rx="19.588533"
               sodipodi:ry="9.7942667"
               d="m 71.39292,66.940979 c 0,5.409224 -8.770086,9.794267 -19.588534,9.794267 -10.818448,0 -19.588533,-4.385043 -19.588533,-9.794267 0,-5.409224 8.770085,-9.794267 19.588533,-9.794267 10.818448,0 19.588534,4.385043 19.588534,9.794267 z"
               transform="translate(-3.8043862,942.59152)" />
          </g>
          <path
             transform="matrix(0.50637421,0,0,0.50637421,76.143727,961.82432)"
             d="m -12.693947,54.144276 c 0,23.684711 -19.200252,42.884964 -42.884964,42.884964 -23.684711,0 -42.884964,-19.200253 -42.884964,-42.884964 0,-23.684712 19.200253,-42.884964 42.884964,-42.884964 23.684712,0 42.884964,19.200252 42.884964,42.884964 z"
             sodipodi:ry="42.884964"
             sodipodi:rx="42.884964"
             sodipodi:cy="54.144276"
             sodipodi:cx="-55.578911"
             id="path2995"
             style="fill:#ffffff;stroke:#000000;stroke-width:3.34156585;stroke-linecap:round;stroke-linejoin:miter;stroke-miterlimit:4;stroke-opacity:1;stroke-dasharray:none"
             sodipodi:type="arc" />
        </g>
        <g
           id="layer1-2"
           inkscape:label="Calque 1"
           transform="translate(-2.8602367e-7,-24.471045)">
          <g
             transform="matrix(0.7483303,0,0,0.7483303,12.07863,254.8076)"
             id="g3772">
            <g
               id="g3766"
               transform="translate(72.932885,3.0758855)">
              <path
                 sodipodi:nodetypes="cc"
                 transform="translate(0,956.36218)"
                 inkscape:connector-curvature="0"
                 id="path2994"
                 d="m -24.93086,26.597033 0,31.201831"
                 style="fill:none;stroke:#000000;stroke-width:2.67261672;stroke-linecap:round;stroke-linejoin:miter;stroke-miterlimit:4;stroke-opacity:1;stroke-dasharray:none" />
            </g>
            <g
               id="g3768">
              <path
                 transform="translate(57.054764,959.47781)"
                 d="m 3.3103448,44.787018 c 0,0.75281 -0.6102731,1.363083 -1.3630831,1.363083 -0.75281,0 -1.36308313,-0.610273 -1.36308313,-1.363083 0,-0.75281 0.61027313,-1.363083 1.36308313,-1.363083 0.75281,0 1.3630831,0.610273 1.3630831,1.363083 z"
                 sodipodi:ry="1.3630831"
                 sodipodi:rx="1.3630831"
                 sodipodi:cy="44.787018"
                 sodipodi:cx="1.9472617"
                 id="path2996"
                 style="fill:#000000;fill-opacity:1;stroke:#000000;stroke-width:2.67261672;stroke-linecap:round;stroke-linejoin:miter;stroke-miterlimit:4;stroke-opacity:1;stroke-dasharray:none;stroke-dashoffset:0"
                 sodipodi:type="arc" />
              <path
                 sodipodi:type="arc"
                 style="fill:#000000;fill-opacity:1;stroke:#000000;stroke-width:2.67261672;stroke-linecap:round;stroke-linejoin:miter;stroke-miterlimit:4;stroke-opacity:1;stroke-dasharray:none;stroke-dashoffset:0"
                 id="path3766"
                 sodipodi:cx="1.9472617"
                 sodipodi:cy="44.787018"
                 sodipodi:rx="1.3630831"
                 sodipodi:ry="1.3630831"
                 d="m 3.3103448,44.787018 c 0,0.75281 -0.6102731,1.363083 -1.3630831,1.363083 -0.75281,0 -1.36308313,-0.610273 -1.36308313,-1.363083 0,-0.75281 0.61027313,-1.363083 1.36308313,-1.363083 0.75281,0 1.3630831,0.610273 1.3630831,1.363083 z"
                 transform="translate(35.054764,959.47781)" />
            </g>
          </g>
        </g>
      </g>
    </g>
  </g>
</svg>
