<?xml version="1.0" encoding="UTF-8" standalone="no"?>
<!-- Created with Inkscape (http://www.inkscape.org/) -->

<svg
   xmlns:dc="http://purl.org/dc/elements/1.1/"
   xmlns:cc="http://creativecommons.org/ns#"
   xmlns:rdf="http://www.w3.org/1999/02/22-rdf-syntax-ns#"
   xmlns:svg="http://www.w3.org/2000/svg"
   xmlns="http://www.w3.org/2000/svg"
   xmlns:sodipodi="http://sodipodi.sourceforge.net/DTD/sodipodi-0.dtd"
   xmlns:inkscape="http://www.inkscape.org/namespaces/inkscape"
   width="96"
   height="96"
   id="svg2"
   version="1.1"
   inkscape:version="0.48.3.1 r9886"
   sodipodi:docname="akesi.svg">
  <defs
     id="defs4" />
  <sodipodi:namedview
     id="base"
     pagecolor="#ffffff"
     bordercolor="#666666"
     borderopacity="1.0"
     inkscape:pageopacity="0.0"
     inkscape:pageshadow="2"
     inkscape:zoom="6.1770833"
     inkscape:cx="50.590219"
     inkscape:cy="46.381113"
     inkscape:document-units="px"
     inkscape:current-layer="layer1"
     showgrid="false"
     inkscape:window-width="992"
     inkscape:window-height="822"
     inkscape:window-x="0"
     inkscape:window-y="26"
     inkscape:window-maximized="0" />
  <metadata
     id="metadata7">
    <rdf:RDF>
      <cc:Work
         rdf:about="">
        <dc:format>image/svg+xml</dc:format>
        <dc:type
           rdf:resource="http://purl.org/dc/dcmitype/StillImage" />
        <dc:title />
      </cc:Work>
    </rdf:RDF>
  </metadata>
  <g
     inkscape:label="Calque 1"
     inkscape:groupmode="layer"
     id="layer1"
     transform="translate(0,-956.36218)">
    <g
       id="g3010"
       transform="matrix(1.0175604,0,0,1.0175604,-0.43406901,-17.266408)">
      <path
         style="fill:#ffffff;stroke:#000000;stroke-width:1.96548533;stroke-linecap:round;stroke-linejoin:miter;stroke-miterlimit:4;stroke-opacity:1;stroke-dasharray:none"
         d="m 18.072161,1003.9551 c -15.6087981,-11.45321 -1.439072,-36.33653 32.627045,-36.33653 16.97947,0 32.75187,11.85607 32.75187,32.39393 0,20.5379 -13.668855,40.0783 -40.117929,40.3617 -26.449074,0.2834 -36.2983308,-18.3396 -23.625279,-35.6912 z m 1.996715,-5.04966 c 0,0 -2.86864,-10.29623 5.847525,-9.85133 3.723102,0.1902 3.840294,4.7988 4.522376,4.7988 0.544836,0 0.833824,-5.39579 3.520429,-6.13809 2.686604,-0.7424 4.422954,4.63288 5.395651,4.37225 0.774412,-0.2075 4.031064,-7.96908 11.692469,-7.31048 5.757009,0.4947 7.225407,5.65017 7.225407,9.67318 0,4.02301 -2.221973,9.53713 -7.129537,11.83583 -5.113001,2.3949 -16.634906,1.7044 -19.601424,1.4035 -2.966518,-0.3009 -12.568689,-3.2049 -12.568689,-3.2049"
         id="path3844"
         inkscape:connector-curvature="0"
         sodipodi:nodetypes="sszszszsscszzczc" />
      <g
         transform="translate(-4.4142176e-7,-2.3083342e-5)"
         id="g3772"
         style="fill:none">
        <path
           style="fill:none;stroke:#000000;stroke-width:1.96548533;stroke-linecap:round;stroke-linejoin:miter;stroke-miterlimit:4;stroke-opacity:1;stroke-dasharray:none"
           d="m 44.772496,1008.9882 c 0,0 2.061773,16.4566 0,18.5183 -2.061773,2.0618 -28.328228,0.063 -28.328228,0.063"
           id="path3835"
           inkscape:connector-curvature="0"
           sodipodi:nodetypes="czc" />
        <path
           style="fill:none;stroke:#000000;stroke-width:1.96548533;stroke-linecap:round;stroke-linejoin:miter;stroke-miterlimit:4;stroke-opacity:1;stroke-dasharray:none"
           d="m 45.103181,1021.2235 -30.244235,0"
           id="path3837"
           inkscape:connector-curvature="0"
           sodipodi:nodetypes="cc" />
        <path
           style="fill:none;stroke:#000000;stroke-width:1.96548533;stroke-linecap:round;stroke-linejoin:miter;stroke-miterlimit:4;stroke-opacity:1;stroke-dasharray:none"
           d="m 44.993872,1016.6232 -30.056418,-0.029"
           id="path3839"
           inkscape:connector-curvature="0"
           sodipodi:nodetypes="cc" />
      </g>
      <g
         transform="translate(1.1733135,-1.4079998)"
         id="g3777"
         style="fill:none">
        <path
           sodipodi:type="arc"
           style="fill:none;stroke:#000000;stroke-width:1.96548533;stroke-linecap:round;stroke-linejoin:miter;stroke-miterlimit:4;stroke-opacity:1;stroke-dasharray:none"
           id="path3827"
           sodipodi:cx="-21.379015"
           sodipodi:cy="214.40685"
           sodipodi:rx="10.278373"
           sodipodi:ry="10.278373"
           d="m -11.100642,214.40685 c 0,5.67658 -4.601784,10.27837 -10.278373,10.27837 -5.676588,0 -10.278373,-4.60179 -10.278373,-10.27837 0,-5.67659 4.601785,-10.27838 10.278373,-10.27838 5.676589,0 10.278373,4.60179 10.278373,10.27838 z"
           transform="translate(85.995955,798.80222)" />
        <path
           style="fill:none;stroke:#000000;stroke-width:1.96548533;stroke-linecap:round;stroke-linejoin:miter;stroke-miterlimit:4;stroke-opacity:1;stroke-dasharray:none"
           d="m 64.61694,1003.7529 0,19.3234"
           id="path3829"
           inkscape:connector-curvature="0" />
      </g>
    </g>
  </g>
</svg>
