<?xml version="1.0" encoding="UTF-8" standalone="no"?>
<!-- Created with Inkscape (http://www.inkscape.org/) -->

<svg
   xmlns:dc="http://purl.org/dc/elements/1.1/"
   xmlns:cc="http://creativecommons.org/ns#"
   xmlns:rdf="http://www.w3.org/1999/02/22-rdf-syntax-ns#"
   xmlns:svg="http://www.w3.org/2000/svg"
   xmlns="http://www.w3.org/2000/svg"
   xmlns:sodipodi="http://sodipodi.sourceforge.net/DTD/sodipodi-0.dtd"
   xmlns:inkscape="http://www.inkscape.org/namespaces/inkscape"
   width="96"
   height="96"
   id="svg2"
   version="1.1"
   inkscape:version="0.48.3.1 r9886"
   sodipodi:docname="esun.svg">
  <defs
     id="defs4" />
  <sodipodi:namedview
     id="base"
     pagecolor="#ffffff"
     bordercolor="#666666"
     borderopacity="1.0"
     inkscape:pageopacity="0.0"
     inkscape:pageshadow="2"
     inkscape:zoom="5.1354167"
     inkscape:cx="48"
     inkscape:cy="48"
     inkscape:document-units="px"
     inkscape:current-layer="layer1"
     showgrid="false"
     inkscape:window-width="992"
     inkscape:window-height="822"
     inkscape:window-x="0"
     inkscape:window-y="26"
     inkscape:window-maximized="0" />
  <metadata
     id="metadata7">
    <rdf:RDF>
      <cc:Work
         rdf:about="">
        <dc:format>image/svg+xml</dc:format>
        <dc:type
           rdf:resource="http://purl.org/dc/dcmitype/StillImage" />
        <dc:title />
      </cc:Work>
    </rdf:RDF>
  </metadata>
  <g
     inkscape:label="Calque 1"
     inkscape:groupmode="layer"
     id="layer1"
     transform="translate(0,-956.36218)">
    <g
       id="g3797"
       transform="matrix(0.9541732,0,0,0.9541732,77.676407,46.948121)">
      <path
         sodipodi:nodetypes="csszczc"
         transform="translate(0,956.36218)"
         inkscape:connector-curvature="0"
         id="path3004"
         d="m -6.0365111,80.616633 c 0,0 -13.6308319,5.257606 -23.1724139,4.673428 -9.541582,-0.584179 -30.182555,-4.283976 -30.182555,-6.62069 0,-2.336714 0,-26.260346 0,-36.413793 0,-10.153447 11.649699,-32.5544296 28.624746,-33.4928999 6.036511,-0.1947262 16.921725,0.1684275 24.1460444,14.4097359 7.22431925,14.241308 2.2574829,36.291311 0.5841785,57.444219 z"
         style="fill:#ffffff;stroke:#000000;stroke-width:2.09605551;stroke-linecap:round;stroke-linejoin:miter;stroke-miterlimit:4;stroke-opacity:1;stroke-dasharray:none" />
      <g
         id="g3788">
        <path
           sodipodi:type="arc"
           style="fill:none;stroke:#000000;stroke-width:2.01251507;stroke-linecap:round;stroke-linejoin:miter;stroke-miterlimit:4;stroke-opacity:1;stroke-dasharray:none"
           id="path3776"
           sodipodi:cx="-24.730223"
           sodipodi:cy="38.750507"
           sodipodi:rx="6.0365109"
           sodipodi:ry="6.0365109"
           d="m -18.693712,38.750507 c 0,3.333873 -2.702638,6.036511 -6.036511,6.036511 -3.333873,0 -6.036511,-2.702638 -6.036511,-6.036511 0,-3.333873 2.702638,-6.036511 6.036511,-6.036511 3.333873,0 6.036511,2.702638 6.036511,6.036511 z"
           transform="matrix(1.0415105,0,0,1.0415105,-0.48032718,951.08812)" />
        <path
           transform="matrix(1.0415105,0,0,1.0415105,-14.953138,951.08812)"
           d="m -18.693712,38.750507 c 0,3.333873 -2.702638,6.036511 -6.036511,6.036511 -3.333873,0 -6.036511,-2.702638 -6.036511,-6.036511 0,-3.333873 2.702638,-6.036511 6.036511,-6.036511 3.333873,0 6.036511,2.702638 6.036511,6.036511 z"
           sodipodi:ry="6.0365109"
           sodipodi:rx="6.0365109"
           sodipodi:cy="38.750507"
           sodipodi:cx="-24.730223"
           id="path3784"
           style="fill:none;stroke:#000000;stroke-width:2.01251507;stroke-linecap:round;stroke-linejoin:miter;stroke-miterlimit:4;stroke-opacity:1;stroke-dasharray:none"
           sodipodi:type="arc" />
        <path
           sodipodi:type="arc"
           style="fill:none;stroke:#000000;stroke-width:2.01251507;stroke-linecap:round;stroke-linejoin:miter;stroke-miterlimit:4;stroke-opacity:1;stroke-dasharray:none"
           id="path3786"
           sodipodi:cx="-24.730223"
           sodipodi:cy="38.750507"
           sodipodi:rx="6.0365109"
           sodipodi:ry="6.0365109"
           d="m -18.693712,38.750507 c 0,3.333873 -2.702638,6.036511 -6.036511,6.036511 -3.333873,0 -6.036511,-2.702638 -6.036511,-6.036511 0,-3.333873 2.702638,-6.036511 6.036511,-6.036511 3.333873,0 6.036511,2.702638 6.036511,6.036511 z"
           transform="matrix(1.0415105,0,0,1.0415105,-7.4272766,939.22367)" />
      </g>
      <g
         id="g3793">
        <path
           style="fill:none;stroke:#000000;stroke-width:2.09605551;stroke-linecap:round;stroke-linejoin:miter;stroke-miterlimit:4;stroke-opacity:1;stroke-dasharray:none"
           d="m -24.267383,1041.0624 c 0,0 1.865914,-34.4735 -9.492144,-34.4735 -11.358058,0 -12.291752,32.2892 -12.291752,32.2892"
           id="path3774"
           inkscape:connector-curvature="0"
           sodipodi:nodetypes="czc" />
        <path
           style="fill:none;stroke:#000000;stroke-width:2.09605551;stroke-linecap:round;stroke-linejoin:miter;stroke-miterlimit:4;stroke-opacity:1;stroke-dasharray:none"
           d="m -34.544815,84.239725 c 0,0 0.0067,-5.844776 -0.438123,-11.900486 -0.371882,-5.06242 -0.459992,-9.892317 -0.459992,-10.96161"
           id="path3782"
           inkscape:connector-curvature="0"
           transform="translate(0,956.36218)"
           sodipodi:nodetypes="csc" />
      </g>
    </g>
  </g>
</svg>
