<?xml version="1.0" encoding="UTF-8" standalone="no"?>
<!-- Created with Inkscape (http://www.inkscape.org/) -->

<svg
   xmlns:dc="http://purl.org/dc/elements/1.1/"
   xmlns:cc="http://creativecommons.org/ns#"
   xmlns:rdf="http://www.w3.org/1999/02/22-rdf-syntax-ns#"
   xmlns:svg="http://www.w3.org/2000/svg"
   xmlns="http://www.w3.org/2000/svg"
   xmlns:sodipodi="http://sodipodi.sourceforge.net/DTD/sodipodi-0.dtd"
   xmlns:inkscape="http://www.inkscape.org/namespaces/inkscape"
   width="96"
   height="96"
   id="svg2"
   version="1.1"
   inkscape:version="0.48.3.1 r9886"
   sodipodi:docname="ijo.svg">
  <defs
     id="defs4" />
  <sodipodi:namedview
     id="base"
     pagecolor="#ffffff"
     bordercolor="#666666"
     borderopacity="1.0"
     inkscape:pageopacity="0.0"
     inkscape:pageshadow="2"
     inkscape:zoom="5.1354167"
     inkscape:cx="48"
     inkscape:cy="48"
     inkscape:document-units="px"
     inkscape:current-layer="layer1"
     showgrid="false"
     inkscape:window-width="992"
     inkscape:window-height="822"
     inkscape:window-x="0"
     inkscape:window-y="26"
     inkscape:window-maximized="0" />
  <metadata
     id="metadata7">
    <rdf:RDF>
      <cc:Work
         rdf:about="">
        <dc:format>image/svg+xml</dc:format>
        <dc:type
           rdf:resource="http://purl.org/dc/dcmitype/StillImage" />
        <dc:title />
      </cc:Work>
    </rdf:RDF>
  </metadata>
  <g
     inkscape:label="Calque 1"
     inkscape:groupmode="layer"
     id="layer1"
     transform="translate(0,-956.36218)">
    <g
       id="g3808"
       transform="matrix(1.0325613,0,0,1.0325613,98.488266,-29.176525)">
      <path
         sodipodi:nodetypes="cccccc"
         transform="translate(0,956.36218)"
         inkscape:connector-curvature="0"
         id="path3770"
         d="m -13.540959,34.257453 c -0.07796,-4.662204 -1.748885,-12.510219 -8.340147,-20.670829 -9.878443,-10.216744 -25.035396,-6.0268575 -33.673817,3.318232 -2.197087,2.510957 -18.425714,22.520601 -24.167323,28.068729 -11.382002,17.722693 0.406406,35.243132 18.157325,36.409513 34.436526,0.498669 48.426239,-16.899648 48.023962,-47.125645 z"
         style="fill:#ffffff;stroke:#000000;stroke-width:1.93693101;stroke-linecap:round;stroke-linejoin:miter;stroke-miterlimit:4;stroke-opacity:1;stroke-dasharray:none" />
      <g
         id="g3800">
        <path
           style="fill:none;stroke:#000000;stroke-width:1.93693101;stroke-linecap:round;stroke-linejoin:miter;stroke-miterlimit:4;stroke-opacity:1;stroke-dasharray:none"
           d="m -83.799754,61.06147 c 16.187464,-8.470088 32.973976,6.383094 24.624567,20.089738"
           id="path3785"
           inkscape:connector-curvature="0"
           transform="translate(0,956.36218)"
           sodipodi:nodetypes="cc" />
        <path
           style="fill:none;stroke:#000000;stroke-width:1.93693101;stroke-linecap:round;stroke-linejoin:miter;stroke-miterlimit:4;stroke-opacity:1;stroke-dasharray:none"
           d="m -80.448346,70.650247 c 11.48727,-7.820788 16.672662,-0.635314 11.649144,8.93721"
           id="path3783"
           inkscape:connector-curvature="0"
           transform="translate(0,956.36218)"
           sodipodi:nodetypes="cc" />
      </g>
      <g
         id="g3804">
        <path
           style="fill:none;stroke:#000000;stroke-width:1.93693101;stroke-linecap:round;stroke-linejoin:miter;stroke-miterlimit:4;stroke-opacity:1;stroke-dasharray:none"
           d="m -42.487036,1005.4683 11.020532,9.3014"
           id="path3775"
           inkscape:connector-curvature="0" />
        <path
           style="fill:none;stroke:#000000;stroke-width:1.93693101;stroke-linecap:round;stroke-linejoin:miter;stroke-miterlimit:4;stroke-opacity:1;stroke-dasharray:none"
           d="m -38.097278,43.784319 11.653285,8.515862"
           id="path3777"
           inkscape:connector-curvature="0"
           transform="translate(0,956.36218)" />
      </g>
      <g
         id="g3794">
        <path
           sodipodi:type="arc"
           style="fill:#ffffff;stroke:#000000;stroke-width:1.89984713;stroke-linecap:round;stroke-linejoin:miter;stroke-miterlimit:4;stroke-opacity:1;stroke-dasharray:none"
           id="path3772"
           sodipodi:cx="-59.16283"
           sodipodi:cy="30.338221"
           sodipodi:rx="21.96196"
           sodipodi:ry="21.96196"
           d="m -37.200871,30.338221 c 0,12.129255 -9.832704,21.961959 -21.961959,21.961959 -12.129256,0 -21.96196,-9.832704 -21.96196,-21.961959 0,-12.129256 9.832704,-21.9619602 21.96196,-21.9619602 12.129255,0 21.961959,9.8327042 21.961959,21.9619602 z"
           transform="matrix(1.0195194,0,0,1.0195194,2.4994317,957.56281)" />
        <path
           sodipodi:type="arc"
           style="fill:none;stroke:#000000;stroke-width:1.71312615;stroke-linecap:round;stroke-linejoin:miter;stroke-miterlimit:4;stroke-opacity:1;stroke-dasharray:none"
           id="path3787"
           sodipodi:cx="-99.538727"
           sodipodi:cy="38.95126"
           sodipodi:rx="3.1274357"
           sodipodi:ry="3.1274357"
           d="m -96.411291,38.95126 c 0,1.727235 -1.400201,3.127435 -3.127436,3.127435 -1.727233,0 -3.127433,-1.4002 -3.127433,-3.127435 0,-1.727235 1.4002,-3.127436 3.127433,-3.127436 1.727235,0 3.127436,1.400201 3.127436,3.127436 z"
           transform="matrix(1.1306412,0,0,1.1306412,39.640981,947.28336)" />
        <path
           transform="matrix(1.1306412,0,0,1.1306412,64.876152,938.44027)"
           d="m -96.411291,38.95126 c 0,1.727235 -1.400201,3.127435 -3.127436,3.127435 -1.727233,0 -3.127433,-1.4002 -3.127433,-3.127435 0,-1.727235 1.4002,-3.127436 3.127433,-3.127436 1.727235,0 3.127436,1.400201 3.127436,3.127436 z"
           sodipodi:ry="3.1274357"
           sodipodi:rx="3.1274357"
           sodipodi:cy="38.95126"
           sodipodi:cx="-99.538727"
           id="path3789"
           style="fill:none;stroke:#000000;stroke-width:1.71312615;stroke-linecap:round;stroke-linejoin:miter;stroke-miterlimit:4;stroke-opacity:1;stroke-dasharray:none"
           sodipodi:type="arc" />
        <path
           style="fill:none;stroke:#000000;stroke-width:1.93693101;stroke-linecap:round;stroke-linejoin:miter;stroke-miterlimit:4;stroke-opacity:1;stroke-dasharray:none"
           d="m -73.417656,972.54321 c 3.447115,8.78489 8.8158,24.50041 16.411013,20.19682 7.595213,-4.3036 -3.221328,-19.92502 -5.378275,-25.71319"
           id="path3791"
           inkscape:connector-curvature="0"
           sodipodi:nodetypes="czc" />
      </g>
    </g>
  </g>
</svg>
