<?xml version="1.0" encoding="UTF-8" standalone="no"?>
<!-- Created with Inkscape (http://www.inkscape.org/) -->

<svg
   xmlns:dc="http://purl.org/dc/elements/1.1/"
   xmlns:cc="http://creativecommons.org/ns#"
   xmlns:rdf="http://www.w3.org/1999/02/22-rdf-syntax-ns#"
   xmlns:svg="http://www.w3.org/2000/svg"
   xmlns="http://www.w3.org/2000/svg"
   xmlns:sodipodi="http://sodipodi.sourceforge.net/DTD/sodipodi-0.dtd"
   xmlns:inkscape="http://www.inkscape.org/namespaces/inkscape"
   width="96"
   height="96"
   id="svg2"
   version="1.1"
   inkscape:version="0.48.3.1 r9886"
   sodipodi:docname="ilo.svg">
  <defs
     id="defs4" />
  <sodipodi:namedview
     id="base"
     pagecolor="#ffffff"
     bordercolor="#666666"
     borderopacity="1.0"
     inkscape:pageopacity="0.0"
     inkscape:pageshadow="2"
     inkscape:zoom="6.1770833"
     inkscape:cx="52.209107"
     inkscape:cy="43.467116"
     inkscape:document-units="px"
     inkscape:current-layer="layer1"
     showgrid="false"
     inkscape:window-width="992"
     inkscape:window-height="822"
     inkscape:window-x="0"
     inkscape:window-y="26"
     inkscape:window-maximized="0"
     showguides="true"
     inkscape:guide-bbox="true" />
  <metadata
     id="metadata7">
    <rdf:RDF>
      <cc:Work
         rdf:about="">
        <dc:format>image/svg+xml</dc:format>
        <dc:type
           rdf:resource="http://purl.org/dc/dcmitype/StillImage" />
        <dc:title />
      </cc:Work>
    </rdf:RDF>
  </metadata>
  <g
     inkscape:label="Calque 1"
     inkscape:groupmode="layer"
     id="layer1"
     transform="translate(0,-956.36218)">
    <g
       id="g3804"
       transform="matrix(1.0172013,0,0,1.0172013,91.983918,-13.351013)">
      <g
         id="g3787">
        <g
           id="g3781">
          <path
             style="fill:#ffffff;stroke:#000000;stroke-width:1.96617913;stroke-linecap:round;stroke-linejoin:miter;stroke-miterlimit:4;stroke-opacity:1;stroke-dasharray:none"
             d="m -7.357801,1014.9046 c 0,12.2747 -4.793619,22.0983 -14.963936,22.2253 -8.263709,0.1033 -16.230147,-10.3158 -14.582745,-22.4794 1.52477,-11.2582 6.064263,-19.04873 14.328616,-19.04873 8.264354,0 15.218065,7.02813 15.218065,19.30283 z"
             id="path3757"
             inkscape:connector-curvature="0"
             sodipodi:nodetypes="sssss" />
          <g
             id="g3767">
            <path
               style="fill:none;stroke:#000000;stroke-width:1.96617913;stroke-linecap:round;stroke-linejoin:miter;stroke-miterlimit:4;stroke-opacity:1;stroke-dasharray:none"
               d="m -31.897272,1017.1869 c 3.172178,4.7816 7.168614,7.9648 11.897696,11.0272"
               id="path3765"
               inkscape:connector-curvature="0"
               sodipodi:nodetypes="cc" />
            <path
               sodipodi:nodetypes="cc"
               inkscape:connector-curvature="0"
               id="path3763"
               d="m -29.576877,1006.268 c 3.172178,4.7816 7.746545,7.9104 12.475627,10.9728"
               style="fill:none;stroke:#000000;stroke-width:1.96617913;stroke-linecap:round;stroke-linejoin:miter;stroke-miterlimit:4;stroke-opacity:1;stroke-dasharray:none" />
          </g>
        </g>
        <g
           id="g3775">
          <path
             sodipodi:nodetypes="sssss"
             inkscape:connector-curvature="0"
             id="path3756"
             d="m -62.105907,110.15649 c 0,18.4111 -6.070994,33.14566 -18.951436,33.33625 -10.465771,0.15486 -20.555057,-15.47289 -18.468666,-33.71742 1.931082,-16.886421 7.680231,-28.571602 18.146819,-28.571602 10.466589,0 19.273283,10.541662 19.273283,28.952772 z"
             style="fill:#ffffff;stroke:#000000;stroke-width:2.70991468;stroke-linecap:round;stroke-linejoin:miter;stroke-miterlimit:4;stroke-opacity:1;stroke-dasharray:none"
             transform="matrix(0.78959383,0,0,0.66670114,-0.31935958,941.46316)" />
          <g
             id="g3771">
            <path
               style="fill:none;stroke:#000000;stroke-width:1.96617913;stroke-linecap:round;stroke-linejoin:miter;stroke-miterlimit:4;stroke-opacity:1;stroke-dasharray:none"
               d="m -59.19655,44.825396 c -3.172178,4.781581 -7.168614,7.96482 -11.897696,11.027265"
               id="path3759"
               inkscape:connector-curvature="0"
               transform="translate(0,956.36218)"
               sodipodi:nodetypes="cc" />
            <path
               sodipodi:nodetypes="cc"
               inkscape:connector-curvature="0"
               id="path3761"
               d="m -56.298224,1012.1609 c -3.172178,4.7816 -7.168614,7.9648 -11.897696,11.0272"
               style="fill:none;stroke:#000000;stroke-width:1.96617913;stroke-linecap:round;stroke-linejoin:miter;stroke-miterlimit:4;stroke-opacity:1;stroke-dasharray:none" />
          </g>
        </g>
        <path
           sodipodi:nodetypes="sssss"
           inkscape:connector-curvature="0"
           id="path3755"
           d="m -28.905435,1012.9046 c 0,12.2747 -4.452353,22.0983 -13.898627,22.2253 -7.675401,0.1033 -15.074694,-10.3158 -13.544573,-22.4794 1.416219,-11.2582 5.632537,-19.04873 13.308536,-19.04873 7.676,0 14.134664,7.02813 14.134664,19.30283 z"
           style="fill:#ffffff;stroke:#000000;stroke-width:1.96617913;stroke-linecap:round;stroke-linejoin:miter;stroke-miterlimit:4;stroke-opacity:1;stroke-dasharray:none" />
      </g>
      <g
         id="g3800">
        <path
           style="fill:#ffffff;stroke:#000000;stroke-width:1.96617913;stroke-linecap:round;stroke-linejoin:miter;stroke-miterlimit:4;stroke-opacity:1;stroke-dasharray:none"
           d="m -46.040012,12.630736 c 8.038722,4.22e-4 15.115074,-2.9914891 19.009325,-2.9914891 5.895652,0 15.028192,0.3351248 15.028192,14.1246701 0,13.789545 -14.003072,24.447808 -31.292418,23.443403 -17.289346,-1.004405 -30.422823,-5.076652 -29.959309,-22.252541 0.463514,-17.1758888 19.175488,-12.324465 27.21421,-12.324043 z"
           id="path3020"
           inkscape:connector-curvature="0"
           transform="translate(0,956.36218)"
           sodipodi:nodetypes="zszzzz" />
        <path
           sodipodi:type="arc"
           style="fill:#ffffff;stroke:#000000;stroke-width:2.23383188;stroke-linecap:round;stroke-linejoin:miter;stroke-miterlimit:4;stroke-opacity:1;stroke-dasharray:none"
           id="path2984"
           sodipodi:cx="-101.77892"
           sodipodi:cy="21.467842"
           sodipodi:rx="16.146231"
           sodipodi:ry="14.272115"
           d="m -85.632692,21.467842 c 0,7.882271 -7.228914,14.272115 -16.146228,14.272115 -8.91732,0 -16.14623,-6.389844 -16.14623,-14.272115 0,-7.882271 7.22891,-14.2721147 16.14623,-14.2721147 8.917314,0 16.146228,6.3898437 16.146228,14.2721147 z"
           transform="matrix(0.92440206,0,0,0.83807766,49.934986,957.8452)" />
      </g>
    </g>
  </g>
</svg>
