<?xml version="1.0" encoding="UTF-8" standalone="no"?>
<!-- Created with Inkscape (http://www.inkscape.org/) -->

<svg
   xmlns:dc="http://purl.org/dc/elements/1.1/"
   xmlns:cc="http://creativecommons.org/ns#"
   xmlns:rdf="http://www.w3.org/1999/02/22-rdf-syntax-ns#"
   xmlns:svg="http://www.w3.org/2000/svg"
   xmlns="http://www.w3.org/2000/svg"
   xmlns:sodipodi="http://sodipodi.sourceforge.net/DTD/sodipodi-0.dtd"
   xmlns:inkscape="http://www.inkscape.org/namespaces/inkscape"
   width="96"
   height="96"
   id="svg2"
   version="1.1"
   inkscape:version="0.48.3.1 r9886"
   sodipodi:docname="jaki.svg">
  <defs
     id="defs4" />
  <sodipodi:namedview
     id="base"
     pagecolor="#ffffff"
     bordercolor="#666666"
     borderopacity="1.0"
     inkscape:pageopacity="0.0"
     inkscape:pageshadow="2"
     inkscape:zoom="6.1770833"
     inkscape:cx="46.219224"
     inkscape:cy="47.514334"
     inkscape:document-units="px"
     inkscape:current-layer="layer1"
     showgrid="false"
     inkscape:window-width="992"
     inkscape:window-height="822"
     inkscape:window-x="0"
     inkscape:window-y="26"
     inkscape:window-maximized="0"
     showguides="true"
     inkscape:guide-bbox="true" />
  <metadata
     id="metadata7">
    <rdf:RDF>
      <cc:Work
         rdf:about="">
        <dc:format>image/svg+xml</dc:format>
        <dc:type
           rdf:resource="http://purl.org/dc/dcmitype/StillImage" />
        <dc:title />
      </cc:Work>
    </rdf:RDF>
  </metadata>
  <g
     inkscape:label="Calque 1"
     inkscape:groupmode="layer"
     id="layer1"
     transform="translate(0,-956.36218)">
    <g
       id="g3064"
       transform="matrix(0.97522797,0,0,0.97522797,1.1890576,24.880091)">
      <g
         id="g3059">
        <path
           sodipodi:type="arc"
           style="fill:#ffffff;stroke:#000000;stroke-width:0.97834522;stroke-linecap:round;stroke-linejoin:miter;stroke-miterlimit:4;stroke-opacity:1;stroke-dasharray:none"
           id="path3836"
           sodipodi:cx="-56.293488"
           sodipodi:cy="96.460167"
           sodipodi:rx="6.4423065"
           sodipodi:ry="5.9821415"
           d="m -49.851181,96.460167 c 0,3.303845 -2.884319,5.982143 -6.442307,5.982143 -3.557987,0 -6.442306,-2.678298 -6.442306,-5.982143 0,-3.303846 2.884319,-5.982142 6.442306,-5.982142 3.557988,0 6.442307,2.678296 6.442307,5.982142 z"
           transform="matrix(2.0876105,-1.1217129,0.87758757,1.6332708,99.262797,802.74175)" />
        <path
           transform="matrix(0.82333663,-0.9000022,0.69295379,0.63392538,26.97299,916.01923)"
           d="m -49.851181,96.460167 c 0,3.303845 -2.884319,5.982143 -6.442307,5.982143 -3.557987,0 -6.442306,-2.678298 -6.442306,-5.982143 0,-3.303846 2.884319,-5.982142 6.442306,-5.982142 3.557988,0 6.442307,2.678296 6.442307,5.982142 z"
           sodipodi:ry="5.9821415"
           sodipodi:rx="6.4423065"
           sodipodi:cy="96.460167"
           sodipodi:cx="-56.293488"
           id="path3834"
           style="fill:#ffffff;stroke:#000000;stroke-width:1.91605735;stroke-linecap:round;stroke-linejoin:miter;stroke-miterlimit:4;stroke-opacity:1;stroke-dasharray:none"
           sodipodi:type="arc" />
        <path
           sodipodi:type="arc"
           style="fill:#ffffff;stroke:#000000;stroke-width:1.85704684;stroke-linecap:round;stroke-linejoin:miter;stroke-miterlimit:4;stroke-opacity:1;stroke-dasharray:none"
           id="path3832"
           sodipodi:cx="-56.293488"
           sodipodi:cy="96.460167"
           sodipodi:rx="8.6846542"
           sodipodi:ry="8.2190723"
           d="m -47.608833,96.460167 c 0,4.539273 -3.888252,8.219073 -8.684655,8.219073 -4.796402,0 -8.684654,-3.6798 -8.684654,-8.219073 0,-4.539268 3.888252,-8.219072 8.684654,-8.219072 4.796403,0 8.684655,3.679804 8.684655,8.219072 z"
           transform="matrix(1.0010897,-0.76119174,0.58695013,0.77193393,35.098133,902.88559)" />
      </g>
      <path
         sodipodi:nodetypes="cccccczc"
         inkscape:connector-curvature="0"
         id="path3806"
         d="m 38.144087,1006.0068 c -1.642343,3.4754 -3.915002,5.9156 -6.469085,7.8778 m -18.144109,-7.2291 c 0,-25.47172 22.010048,-32.66232 40.174543,-33.51644 20.994288,-0.0878 35.907043,13.48433 30.705781,39.35824 -4.189113,15.8391 -23.692768,15.0375 -34.466531,12.4625 -4.747499,-1.1454 -17.841631,-11.2563 -18.692591,-10.9302 -0.85096,0.3261 -17.763739,3.6255 -17.721202,-7.3741 z"
         style="fill:#ffffff;stroke:#000000;stroke-width:2.05080247;stroke-linecap:round;stroke-linejoin:miter;stroke-miterlimit:4;stroke-opacity:1;stroke-dasharray:none" />
      <g
         id="g3053">
        <g
           id="g3049">
          <path
             transform="matrix(0.60486712,0,0,1.0670704,8.156531,936.78581)"
             d="m 26.569698,64.290909 c 0,0.696213 -0.564393,1.260606 -1.260606,1.260606 -0.696214,0 -1.260606,-0.564393 -1.260606,-1.260606 0,-0.696214 0.564392,-1.260606 1.260606,-1.260606 0.696213,0 1.260606,0.564392 1.260606,1.260606 z"
             sodipodi:ry="1.2606061"
             sodipodi:rx="1.2606061"
             sodipodi:cy="64.290909"
             sodipodi:cx="25.309092"
             id="path3777"
             style="fill:#000000;fill-opacity:1;stroke:#000000;stroke-width:2.48945045;stroke-linecap:round;stroke-linejoin:miter;stroke-miterlimit:4;stroke-opacity:1;stroke-dasharray:none"
             sodipodi:type="arc" />
          <path
             sodipodi:nodetypes="cscsszsc"
             inkscape:connector-curvature="0"
             id="path3767"
             d="m 10.940746,998.86609 c 0,0 1.222167,-1.9547 7.227482,-1.8324 7.358326,0.1498 12.362605,8.04051 12.362605,8.04051 0,0 -1.540788,1.7702 -5.820755,2.0864 -4.279967,0.3161 -6.676748,-1.1381 -6.50555,-2.2761 0.171199,-1.1381 2.391101,-1.6577 4.793564,-1.7703 2.402463,-0.1126 5.748247,1.0956 6.60424,1.475 0.855993,0.3794 0.874618,0.4644 0.874618,0.4644"
             style="fill:none;stroke:#000000;stroke-width:2.05080247;stroke-linecap:round;stroke-linejoin:miter;stroke-miterlimit:4;stroke-opacity:1;stroke-dasharray:none" />
        </g>
        <path
           style="fill:none;stroke:#000000;stroke-width:2.05080247;stroke-linecap:round;stroke-linejoin:miter;stroke-miterlimit:4;stroke-opacity:1;stroke-dasharray:none"
           d="m 10.547452,992.86256 c 5.028152,-3.13196 7.673498,-2.4342 13.348043,-2.72145"
           id="path3814"
           inkscape:connector-curvature="0"
           sodipodi:nodetypes="cc" />
      </g>
      <g
         id="g3041">
        <path
           sodipodi:type="arc"
           style="fill:none;stroke:#000000;stroke-width:2.05080247;stroke-linecap:round;stroke-linejoin:miter;stroke-miterlimit:4;stroke-opacity:1;stroke-dasharray:none"
           id="path3838"
           sodipodi:cx="-35.049213"
           sodipodi:cy="37.482384"
           sodipodi:rx="0.99702358"
           sodipodi:ry="0.99702358"
           d="m -34.05219,37.482384 c 0,0.550641 -0.446382,0.997023 -0.997023,0.997023 -0.550641,0 -0.997024,-0.446382 -0.997024,-0.997023 0,-0.550641 0.446383,-0.997024 0.997024,-0.997024 0.550641,0 0.997023,0.446383 0.997023,0.997024 z"
           transform="translate(86.747931,953.10577)" />
        <path
           transform="translate(105.30791,968.75137)"
           d="m -34.05219,37.482384 c 0,0.550641 -0.446382,0.997023 -0.997023,0.997023 -0.550641,0 -0.997024,-0.446382 -0.997024,-0.997023 0,-0.550641 0.446383,-0.997024 0.997024,-0.997024 0.550641,0 0.997023,0.446383 0.997023,0.997024 z"
           sodipodi:ry="0.99702358"
           sodipodi:rx="0.99702358"
           sodipodi:cy="37.482384"
           sodipodi:cx="-35.049213"
           id="path3840"
           style="fill:none;stroke:#000000;stroke-width:2.05080247;stroke-linecap:round;stroke-linejoin:miter;stroke-miterlimit:4;stroke-opacity:1;stroke-dasharray:none"
           sodipodi:type="arc" />
        <path
           style="fill:none;stroke:#000000;stroke-width:2.05080247;stroke-linecap:round;stroke-linejoin:miter;stroke-miterlimit:4;stroke-opacity:1;stroke-dasharray:none"
           d="m 53.155905,1011.0655 c 0.396963,-0.079 6.716634,-4.345 11.685621,-9.478 4.631191,-4.78399 7.948075,-10.46249 7.948075,-10.46249"
           id="path3842"
           inkscape:connector-curvature="0"
           sodipodi:nodetypes="csc" />
        <path
           sodipodi:nodetypes="csc"
           inkscape:connector-curvature="0"
           id="path3844"
           d="m 46.100046,1005.6969 c 0.396963,-0.079 6.716634,-4.345 11.685621,-9.47796 4.631191,-4.78402 7.948075,-10.46252 7.948075,-10.46252"
           style="fill:none;stroke:#000000;stroke-width:2.05080247;stroke-linecap:round;stroke-linejoin:miter;stroke-miterlimit:4;stroke-opacity:1;stroke-dasharray:none" />
      </g>
    </g>
  </g>
</svg>
