<?xml version="1.0" encoding="UTF-8" standalone="no"?>
<!-- Created with Inkscape (http://www.inkscape.org/) -->

<svg
   xmlns:dc="http://purl.org/dc/elements/1.1/"
   xmlns:cc="http://creativecommons.org/ns#"
   xmlns:rdf="http://www.w3.org/1999/02/22-rdf-syntax-ns#"
   xmlns:svg="http://www.w3.org/2000/svg"
   xmlns="http://www.w3.org/2000/svg"
   xmlns:sodipodi="http://sodipodi.sourceforge.net/DTD/sodipodi-0.dtd"
   xmlns:inkscape="http://www.inkscape.org/namespaces/inkscape"
   width="96"
   height="96"
   id="svg2"
   version="1.1"
   inkscape:version="0.48.3.1 r9886"
   sodipodi:docname="kepeken.svg">
  <defs
     id="defs4" />
  <sodipodi:namedview
     id="base"
     pagecolor="#ffffff"
     bordercolor="#666666"
     borderopacity="1.0"
     inkscape:pageopacity="0.0"
     inkscape:pageshadow="2"
     inkscape:zoom="6.1770833"
     inkscape:cx="48"
     inkscape:cy="48"
     inkscape:document-units="px"
     inkscape:current-layer="layer1"
     showgrid="false"
     inkscape:window-width="992"
     inkscape:window-height="822"
     inkscape:window-x="0"
     inkscape:window-y="26"
     inkscape:window-maximized="0" />
  <metadata
     id="metadata7">
    <rdf:RDF>
      <cc:Work
         rdf:about="">
        <dc:format>image/svg+xml</dc:format>
        <dc:type
           rdf:resource="http://purl.org/dc/dcmitype/StillImage" />
        <dc:title />
      </cc:Work>
    </rdf:RDF>
  </metadata>
  <g
     inkscape:label="Calque 1"
     inkscape:groupmode="layer"
     id="layer1"
     transform="translate(0,-956.36218)">
    <g
       id="g3831"
       transform="matrix(0.99162935,0,0,0.99162935,89.846737,7.0541721)">
      <path
         sodipodi:nodetypes="ccsczczczscccc"
         inkscape:connector-curvature="0"
         id="path3776"
         d="m -66.329423,993.17252 c -2.346516,-7.0099 0.621404,-24.03899 6.515489,-23.61114 2.469364,0.0231 5.183739,2.18726 4.897039,4.48086 -0.2867,2.29359 -0.416183,6.07157 -0.416183,6.07157 1.120404,-4.41906 1.943802,-11.03594 7.218372,-9.35476 5.274569,1.68119 3.283069,4.99622 3.102824,8.78136 0,0 0.975568,-4.96558 2.006899,-7.4542 1.031331,-2.48862 6.202257,-4.20872 7.454197,-1.4335 0.8601,2.0069 -0.685057,10.0401 -0.545667,9.79867 0.139391,-0.24143 5.071198,-3.12379 9.684379,-3.22345 4.206733,-0.0909 8.108787,2.44997 8.659823,5.10087 0.846553,9.62905 -8.730517,16.58366 -16.392769,17.27601 -4.873898,0.2867 -16.88756,0.86469 -20.327958,0.29129 -6.916898,-1.27136 -11.417486,-5.55256 -11.856445,-6.72358 z"
         style="fill:#ffffff;stroke:#000000;stroke-width:2.01688262;stroke-linecap:round;stroke-linejoin:miter;stroke-miterlimit:4;stroke-opacity:1;stroke-dasharray:none" />
      <g
         id="g3824">
        <path
           style="fill:#ffffff;stroke:#000000;stroke-width:2.01688266;stroke-linecap:round;stroke-linejoin:miter;stroke-miterlimit:4;stroke-opacity:1;stroke-dasharray:none"
           d="m -63.143987,996.11067 c -3.224413,28.29343 0.328312,46.32563 18.037887,46.57773 25.797675,-1.0507 19.640538,-29.5477 18.425542,-45.68838 -11.883767,1.4409 -25.968886,4.09968 -36.463429,-0.88935 z"
           id="path3778"
           inkscape:connector-curvature="0"
           sodipodi:nodetypes="cccc" />
        <g
           id="g3786">
          <path
             transform="translate(0,956.36218)"
             inkscape:connector-curvature="0"
             id="path3780"
             d="m -63.976585,50.255143 c 0,0 0.392432,3.13173 5.25771,3.635035 4.865278,0.503305 7.717338,-1.342146 7.717338,-1.342146"
             style="fill:none;stroke:#000000;stroke-width:2.01688266;stroke-linecap:round;stroke-linejoin:miter;stroke-miterlimit:4;stroke-opacity:1;stroke-dasharray:none"
             sodipodi:nodetypes="csc" />
          <path
             sodipodi:nodetypes="ccc"
             transform="translate(0,956.36218)"
             inkscape:connector-curvature="0"
             id="path3782"
             d="m -51.859418,43.711282 c 0.51671,3.259526 0.35365,13.557862 4.659817,14.111665 7.833171,-0.699094 6.443848,-9.104228 5.902829,-14.787318"
             style="fill:none;stroke:#000000;stroke-width:2.01688262;stroke-linecap:round;stroke-linejoin:miter;stroke-miterlimit:4;stroke-opacity:1;stroke-dasharray:none" />
          <path
             transform="translate(0,956.36218)"
             inkscape:connector-curvature="0"
             id="path3784"
             d="m -25.929709,50.837659 c 0,0 -3.606119,2.489939 -7.555677,2.489939 -3.949558,0 -7.040517,-1.63134 -7.040517,-1.63134"
             style="fill:none;stroke:#000000;stroke-width:2.01688262;stroke-linecap:round;stroke-linejoin:miter;stroke-miterlimit:4;stroke-opacity:1;stroke-dasharray:none" />
        </g>
      </g>
    </g>
  </g>
</svg>
