<?xml version="1.0" encoding="UTF-8" standalone="no"?>
<!-- Created with Inkscape (http://www.inkscape.org/) -->

<svg
   xmlns:dc="http://purl.org/dc/elements/1.1/"
   xmlns:cc="http://creativecommons.org/ns#"
   xmlns:rdf="http://www.w3.org/1999/02/22-rdf-syntax-ns#"
   xmlns:svg="http://www.w3.org/2000/svg"
   xmlns="http://www.w3.org/2000/svg"
   xmlns:sodipodi="http://sodipodi.sourceforge.net/DTD/sodipodi-0.dtd"
   xmlns:inkscape="http://www.inkscape.org/namespaces/inkscape"
   width="96"
   height="96"
   id="svg2"
   version="1.1"
   inkscape:version="0.48.3.1 r9886"
   sodipodi:docname="kulupu.svg">
  <defs
     id="defs4" />
  <sodipodi:namedview
     id="base"
     pagecolor="#ffffff"
     bordercolor="#666666"
     borderopacity="1.0"
     inkscape:pageopacity="0.0"
     inkscape:pageshadow="2"
     inkscape:zoom="6.1770833"
     inkscape:cx="47.028668"
     inkscape:cy="47.676223"
     inkscape:document-units="px"
     inkscape:current-layer="layer1"
     showgrid="false"
     inkscape:window-width="992"
     inkscape:window-height="822"
     inkscape:window-x="0"
     inkscape:window-y="26"
     inkscape:window-maximized="0" />
  <metadata
     id="metadata7">
    <rdf:RDF>
      <cc:Work
         rdf:about="">
        <dc:format>image/svg+xml</dc:format>
        <dc:type
           rdf:resource="http://purl.org/dc/dcmitype/StillImage" />
        <dc:title />
      </cc:Work>
    </rdf:RDF>
  </metadata>
  <g
     inkscape:label="Calque 1"
     inkscape:groupmode="layer"
     id="layer1"
     transform="translate(0,-956.36218)">
    <g
       id="g3802"
       transform="matrix(1.0009852,0,0,1.0009852,95.115373,1.1506957)">
      <g
         id="g3796">
        <path
           transform="matrix(1.3896599,0,0,1,6.9553646,949.90853)"
           d="m -22.268232,75.216316 c 0,6.285851 -2.990948,11.381541 -6.68047,11.381541 -3.689521,0 -6.680469,-5.09569 -6.680469,-11.381541 0,-6.285851 2.990948,-11.38154 6.680469,-11.38154 3.689522,0 6.68047,5.095689 6.68047,11.38154 z"
           sodipodi:ry="11.38154"
           sodipodi:rx="6.6804695"
           sodipodi:cy="75.216316"
           sodipodi:cx="-28.948702"
           id="path3794"
           style="fill:#ffffff;stroke:#000000;stroke-width:1.69491565;stroke-linecap:round;stroke-linejoin:miter;stroke-miterlimit:4;stroke-opacity:1;stroke-dasharray:none"
           sodipodi:type="arc" />
        <path
           sodipodi:type="arc"
           style="fill:#ffffff;stroke:#000000;stroke-width:1.69491565;stroke-linecap:round;stroke-linejoin:miter;stroke-miterlimit:4;stroke-opacity:1;stroke-dasharray:none"
           id="path3792"
           sodipodi:cx="-28.948702"
           sodipodi:cy="75.216316"
           sodipodi:rx="6.6804695"
           sodipodi:ry="11.38154"
           d="m -22.268232,75.216316 c 0,6.285851 -2.990948,11.381541 -6.68047,11.381541 -3.689521,0 -6.680469,-5.09569 -6.680469,-11.381541 0,-6.285851 2.990948,-11.38154 6.680469,-11.38154 3.689522,0 6.68047,5.095689 6.68047,11.38154 z"
           transform="matrix(1.3896599,0,0,1,-3.436477,950.40338)" />
        <path
           transform="matrix(1.3896599,0,0,1,-13.333469,950.40338)"
           d="m -22.268232,75.216316 c 0,6.285851 -2.990948,11.381541 -6.68047,11.381541 -3.689521,0 -6.680469,-5.09569 -6.680469,-11.381541 0,-6.285851 2.990948,-11.38154 6.680469,-11.38154 3.689522,0 6.68047,5.095689 6.68047,11.38154 z"
           sodipodi:ry="11.38154"
           sodipodi:rx="6.6804695"
           sodipodi:cy="75.216316"
           sodipodi:cx="-28.948702"
           id="path3790"
           style="fill:#ffffff;stroke:#000000;stroke-width:1.69491565;stroke-linecap:round;stroke-linejoin:miter;stroke-miterlimit:4;stroke-opacity:1;stroke-dasharray:none"
           sodipodi:type="arc" />
        <path
           sodipodi:type="arc"
           style="fill:#ffffff;stroke:#000000;stroke-width:1.69491565;stroke-linecap:round;stroke-linejoin:miter;stroke-miterlimit:4;stroke-opacity:1;stroke-dasharray:none"
           id="path3788"
           sodipodi:cx="-28.948702"
           sodipodi:cy="75.216316"
           sodipodi:rx="6.6804695"
           sodipodi:ry="11.38154"
           d="m -22.268232,75.216316 c 0,6.285851 -2.990948,11.381541 -6.68047,11.381541 -3.689521,0 -6.680469,-5.09569 -6.680469,-11.381541 0,-6.285851 2.990948,-11.38154 6.680469,-11.38154 3.689522,0 6.68047,5.095689 6.68047,11.38154 z"
           transform="matrix(1.3896599,0,0,1,-21.251063,950.40338)" />
      </g>
      <path
         transform="translate(0,956.36218)"
         sodipodi:nodetypes="ccczcccc"
         inkscape:connector-curvature="0"
         id="path3002"
         d="m -62.701825,63.870183 c 5.26671,18.616649 -19.242977,23.985076 -20.446247,11.878296 -0.386552,-15.134873 -3.039026,-26.261486 13.630831,-25.703854 0.0074,-21.587594 10.430206,-41.6206391 31.892128,-40.5030423 21.461922,1.1175973 14.104032,26.5755463 13.284342,41.4766733 23.35552419,-3.599836 13.124493,31.701842 -2.610503,28.969913 1.935981,-5.36409 2.389381,-9.238322 2.629981,-15.872151 -14.354505,1.848966 -28.014117,2.794368 -38.380532,-0.245835 z"
         style="fill:#ffffff;stroke:#000000;stroke-width:1.9980315;stroke-linecap:round;stroke-linejoin:miter;stroke-miterlimit:4;stroke-opacity:1;stroke-dasharray:none" />
      <g
         id="g3782">
        <path
           style="fill:none;stroke:#000000;stroke-width:1.9980315;stroke-linecap:round;stroke-linejoin:miter;stroke-miterlimit:4;stroke-opacity:1;stroke-dasharray:none"
           d="m -38.681986,51.671009 c 0,0 -22.30567,0.564701 -22.446846,0.705876 7.879011,-42.6398795 38.357515,-42.54347 22.446846,-0.705876 z"
           id="path3004"
           inkscape:connector-curvature="0"
           transform="translate(0,956.36218)"
           sodipodi:nodetypes="ccc" />
        <g
           id="g3778">
          <path
             sodipodi:nodetypes="cc"
             transform="translate(0,956.36218)"
             inkscape:connector-curvature="0"
             id="path3006"
             d="m -60.430817,51.884594 c 6.898499,-6.395896 17.899747,-17.099688 26.12526,-20.825154"
             style="fill:none;stroke:#000000;stroke-width:1.9980315;stroke-linecap:round;stroke-linejoin:miter;stroke-miterlimit:4;stroke-opacity:1;stroke-dasharray:none" />
          <path
             sodipodi:nodetypes="cc"
             transform="translate(0,956.36218)"
             inkscape:connector-curvature="0"
             id="path3008"
             d="M -38.855562,51.131766 C -44.292245,39.769274 -48.029177,37.570862 -54.018453,32.172014"
             style="fill:none;stroke:#000000;stroke-width:1.9980315;stroke-linecap:round;stroke-linejoin:miter;stroke-miterlimit:4;stroke-opacity:1;stroke-dasharray:none" />
        </g>
      </g>
    </g>
  </g>
</svg>
