<?xml version="1.0" encoding="UTF-8" standalone="no"?>
<!-- Created with Inkscape (http://www.inkscape.org/) -->

<svg
   xmlns:dc="http://purl.org/dc/elements/1.1/"
   xmlns:cc="http://creativecommons.org/ns#"
   xmlns:rdf="http://www.w3.org/1999/02/22-rdf-syntax-ns#"
   xmlns:svg="http://www.w3.org/2000/svg"
   xmlns="http://www.w3.org/2000/svg"
   xmlns:sodipodi="http://sodipodi.sourceforge.net/DTD/sodipodi-0.dtd"
   xmlns:inkscape="http://www.inkscape.org/namespaces/inkscape"
   width="96"
   height="96"
   id="svg2"
   version="1.1"
   inkscape:version="0.48.3.1 r9886"
   sodipodi:docname="lipu.svg">
  <defs
     id="defs4" />
  <sodipodi:namedview
     id="base"
     pagecolor="#ffffff"
     bordercolor="#666666"
     borderopacity="1.0"
     inkscape:pageopacity="0.0"
     inkscape:pageshadow="2"
     inkscape:zoom="5.1354167"
     inkscape:cx="49.557809"
     inkscape:cy="44.105477"
     inkscape:document-units="px"
     inkscape:current-layer="layer1"
     showgrid="false"
     inkscape:window-width="992"
     inkscape:window-height="822"
     inkscape:window-x="0"
     inkscape:window-y="26"
     inkscape:window-maximized="0"
     showguides="true"
     inkscape:guide-bbox="true" />
  <metadata
     id="metadata7">
    <rdf:RDF>
      <cc:Work
         rdf:about="">
        <dc:format>image/svg+xml</dc:format>
        <dc:type
           rdf:resource="http://purl.org/dc/dcmitype/StillImage" />
        <dc:title />
      </cc:Work>
    </rdf:RDF>
  </metadata>
  <g
     inkscape:label="Calque 1"
     inkscape:groupmode="layer"
     id="layer1"
     transform="translate(0,-956.36218)">
    <g
       id="g3819"
       transform="matrix(1.0482289,0,0,1.0482289,-2.3149921,-48.439267)">
      <path
         sodipodi:nodetypes="cccccc"
         inkscape:connector-curvature="0"
         id="path3002"
         d="m 19.314111,1016.074 c -15.99299,-15.4383 2.583729,-40.67004 20.446248,-46.929 35.564527,-10.69989 36.016443,23.82658 24.730223,44.5923 24.147436,-2.2152 19.986775,13.586 12.267748,20.8357 -13.674199,7.4808 -28.340414,7.0101 -43.423935,7.0101 -18.811943,-0.9104 -18.388373,-10.4634 -14.020284,-25.5091 z"
         style="fill:#ffffff;stroke:#000000;stroke-width:1.9079802;stroke-linecap:round;stroke-linejoin:miter;stroke-miterlimit:4;stroke-opacity:1;stroke-dasharray:none" />
      <path
         sodipodi:nodetypes="cc"
         inkscape:connector-curvature="0"
         id="path3004"
         d="m 19.205448,1016.1279 c 9.945237,2.5957 13.835668,-5.5031 17.974161,-12.7036"
         style="fill:none;stroke:#000000;stroke-width:1.9079802;stroke-linecap:round;stroke-linejoin:miter;stroke-miterlimit:4;stroke-opacity:1;stroke-dasharray:none" />
      <path
         sodipodi:nodetypes="ccc"
         inkscape:connector-curvature="0"
         id="path3006"
         d="m 24.611211,1002.4445 c 9.96664,-21.07256 30.579019,-19.45264 32.367004,-3.10827 0.0589,16.00457 -9.243195,30.00557 -15.338852,42.23257"
         style="fill:none;stroke:#000000;stroke-width:1.9079802;stroke-linecap:round;stroke-linejoin:miter;stroke-miterlimit:4;stroke-opacity:1;stroke-dasharray:none" />
      <g
         transform="translate(102.65691,1.0992488)"
         style="fill:#ffffff"
         id="g3782">
        <path
           sodipodi:type="arc"
           style="fill:none;stroke:#000000;stroke-width:1.9079802;stroke-linecap:round;stroke-linejoin:miter;stroke-miterlimit:4;stroke-opacity:1;stroke-dasharray:none;stroke-dashoffset:0"
           id="path3776"
           sodipodi:cx="-104.1618"
           sodipodi:cy="25.475771"
           sodipodi:rx="0.76449031"
           sodipodi:ry="0.76449031"
           d="m -103.39731,25.475771 c 0,0.422216 -0.34227,0.76449 -0.76449,0.76449 -0.42221,0 -0.76449,-0.342274 -0.76449,-0.76449 0,-0.422216 0.34228,-0.76449 0.76449,-0.76449 0.42222,0 0.76449,0.342274 0.76449,0.76449 z"
           transform="translate(23.890322,966.49168)" />
        <path
           transform="translate(33.064206,955.59769)"
           d="m -103.39731,25.475771 c 0,0.422216 -0.34227,0.76449 -0.76449,0.76449 -0.42221,0 -0.76449,-0.342274 -0.76449,-0.76449 0,-0.422216 0.34228,-0.76449 0.76449,-0.76449 0.42222,0 0.76449,0.342274 0.76449,0.76449 z"
           sodipodi:ry="0.76449031"
           sodipodi:rx="0.76449031"
           sodipodi:cy="25.475771"
           sodipodi:cx="-104.1618"
           id="path3778"
           style="fill:none;stroke:#000000;stroke-width:1.9079802;stroke-linecap:round;stroke-linejoin:miter;stroke-miterlimit:4;stroke-opacity:1;stroke-dasharray:none;stroke-dashoffset:0"
           sodipodi:type="arc" />
        <path
           sodipodi:type="arc"
           style="fill:none;stroke:#000000;stroke-width:1.9079802;stroke-linecap:round;stroke-linejoin:miter;stroke-miterlimit:4;stroke-opacity:1;stroke-dasharray:none;stroke-dashoffset:0"
           id="path3780"
           sodipodi:cx="-104.1618"
           sodipodi:cy="25.475771"
           sodipodi:rx="0.76449031"
           sodipodi:ry="0.76449031"
           d="m -103.39731,25.475771 c 0,0.422216 -0.34227,0.76449 -0.76449,0.76449 -0.42221,0 -0.76449,-0.342274 -0.76449,-0.76449 0,-0.422216 0.34228,-0.76449 0.76449,-0.76449 0.42222,0 0.76449,0.342274 0.76449,0.76449 z"
           transform="translate(44.149315,951.20187)" />
      </g>
    </g>
  </g>
</svg>
