<?xml version="1.0" encoding="UTF-8" standalone="no"?>
<!-- Created with Inkscape (http://www.inkscape.org/) -->

<svg
   xmlns:dc="http://purl.org/dc/elements/1.1/"
   xmlns:cc="http://creativecommons.org/ns#"
   xmlns:rdf="http://www.w3.org/1999/02/22-rdf-syntax-ns#"
   xmlns:svg="http://www.w3.org/2000/svg"
   xmlns="http://www.w3.org/2000/svg"
   xmlns:sodipodi="http://sodipodi.sourceforge.net/DTD/sodipodi-0.dtd"
   xmlns:inkscape="http://www.inkscape.org/namespaces/inkscape"
   width="96"
   height="96"
   id="svg2"
   version="1.1"
   inkscape:version="0.48.3.1 r9886"
   sodipodi:docname="nasin.svg">
  <defs
     id="defs4" />
  <sodipodi:namedview
     id="base"
     pagecolor="#ffffff"
     bordercolor="#666666"
     borderopacity="1.0"
     inkscape:pageopacity="0.0"
     inkscape:pageshadow="2"
     inkscape:zoom="5.1354167"
     inkscape:cx="48"
     inkscape:cy="48"
     inkscape:document-units="px"
     inkscape:current-layer="layer1"
     showgrid="false"
     inkscape:window-width="992"
     inkscape:window-height="822"
     inkscape:window-x="0"
     inkscape:window-y="26"
     inkscape:window-maximized="0" />
  <metadata
     id="metadata7">
    <rdf:RDF>
      <cc:Work
         rdf:about="">
        <dc:format>image/svg+xml</dc:format>
        <dc:type
           rdf:resource="http://purl.org/dc/dcmitype/StillImage" />
        <dc:title />
      </cc:Work>
    </rdf:RDF>
  </metadata>
  <g
     inkscape:label="Calque 1"
     inkscape:groupmode="layer"
     id="layer1"
     transform="translate(0,-956.36218)">
    <g
       id="g3803"
       transform="matrix(1.0765572,0,0,1.0765572,99.300804,-76.392726)">
      <path
         sodipodi:nodetypes="czzczczzcc"
         inkscape:connector-curvature="0"
         id="path3776"
         d="m -41.599263,1039.3443 c 0,0 -24.651386,-0.4939 -31.423049,-5.6758 -6.771662,-5.1819 -8.957403,-10.1258 -8.373225,-15.9676 0.584178,-5.8418 8.567952,-10.9046 8.567952,-10.9046 0,0 -5.755438,-9.6366 -4.283976,-13.8256 1.471462,-4.189 11.488843,-4.4787 11.488843,-4.4787 0,0 -3.660432,-5.81931 -0.97363,-9.54158 2.686802,-3.72228 12.599008,-4.95494 17.914806,-4.28398 5.315798,0.67096 12.267749,6.81542 12.267749,6.81542 z"
         style="fill:#ffffff;stroke:#000000;stroke-width:1.85777402;stroke-linecap:round;stroke-linejoin:miter;stroke-miterlimit:4;stroke-opacity:1;stroke-dasharray:none" />
      <g
         style="fill:#ffffff"
         id="g3798">
        <path
           style="fill:#ffffff;stroke:#000000;stroke-width:1.85777402;stroke-linecap:round;stroke-linejoin:miter;stroke-miterlimit:4;stroke-opacity:1;stroke-dasharray:none"
           d="m -14.21501,1034.35 c 0,0 -6.338791,5.285 -23.044871,5.8212 -16.706081,0.5363 -23.299957,-9.1315 -23.299957,-9.1315 0,0 0.406048,-20.3331 1.947262,-27.6512 1.541214,-7.31799 14.301679,-23.52529 26.288033,-23.26973 11.986354,0.25556 18.435091,14.9585 18.498985,23.26973 0.06389,8.3113 -0.389452,30.9615 -0.389452,30.9615 z"
           id="path3770"
           inkscape:connector-curvature="0"
           sodipodi:nodetypes="czczzzc" />
        <path
           style="fill:#ffffff;stroke:#000000;stroke-width:1.85777402;stroke-linecap:round;stroke-linejoin:miter;stroke-miterlimit:4;stroke-opacity:1;stroke-dasharray:none"
           d="m -58.435262,47.54663 c 7.310913,7.746341 20.422562,12.562823 35.847027,4.834709"
           id="path3794"
           inkscape:connector-curvature="0"
           transform="translate(0,956.36218)"
           sodipodi:nodetypes="cc" />
        <path
           inkscape:connector-curvature="0"
           id="path3796"
           d="m -59.661804,1014.026 c 10.022572,6.9268 24.72855,9.7262 37.073569,2.3172"
           style="fill:#ffffff;stroke:#000000;stroke-width:1.85777402;stroke-linecap:round;stroke-linejoin:miter;stroke-miterlimit:4;stroke-opacity:1;stroke-dasharray:none"
           sodipodi:nodetypes="cc" />
      </g>
      <g
         id="g3778">
        <path
           sodipodi:type="arc"
           style="fill:#ffffff;fill-opacity:1;stroke:#000000;stroke-width:1.62377489;stroke-linecap:round;stroke-linejoin:miter;stroke-miterlimit:4;stroke-opacity:1;stroke-dasharray:none;stroke-dashoffset:0"
           id="path3772"
           sodipodi:cx="-64.551727"
           sodipodi:cy="4.1866131"
           sodipodi:rx="7.1075048"
           sodipodi:ry="7.1075048"
           d="m -57.444222,4.1866131 c 0,3.9253665 -3.182139,7.1075049 -7.107505,7.1075049 -3.925367,0 -7.107505,-3.1821384 -7.107505,-7.1075049 0,-3.92536655 3.182138,-7.1075049 7.107505,-7.1075049 3.925366,0 7.107505,3.18213835 7.107505,7.1075049 z"
           transform="matrix(1.1441081,0,0,1.1441081,34.227375,970.94749)" />
        <path
           transform="matrix(1.1441081,0,0,1.1441081,50.584373,970.94749)"
           d="m -57.444222,4.1866131 c 0,3.9253665 -3.182139,7.1075049 -7.107505,7.1075049 -3.925367,0 -7.107505,-3.1821384 -7.107505,-7.1075049 0,-3.92536655 3.182138,-7.1075049 7.107505,-7.1075049 3.925366,0 7.107505,3.18213835 7.107505,7.1075049 z"
           sodipodi:ry="7.1075048"
           sodipodi:rx="7.1075048"
           sodipodi:cy="4.1866131"
           sodipodi:cx="-64.551727"
           id="path3774"
           style="fill:#ffffff;stroke:#000000;stroke-width:1.62377489;stroke-linecap:round;stroke-linejoin:miter;stroke-miterlimit:4;stroke-opacity:1;stroke-dasharray:none;stroke-dashoffset:0"
           sodipodi:type="arc" />
      </g>
    </g>
  </g>
</svg>
