<?xml version="1.0" encoding="UTF-8" standalone="no"?>
<!-- Created with Inkscape (http://www.inkscape.org/) -->

<svg
   xmlns:dc="http://purl.org/dc/elements/1.1/"
   xmlns:cc="http://creativecommons.org/ns#"
   xmlns:rdf="http://www.w3.org/1999/02/22-rdf-syntax-ns#"
   xmlns:svg="http://www.w3.org/2000/svg"
   xmlns="http://www.w3.org/2000/svg"
   xmlns:sodipodi="http://sodipodi.sourceforge.net/DTD/sodipodi-0.dtd"
   xmlns:inkscape="http://www.inkscape.org/namespaces/inkscape"
   width="96"
   height="96"
   id="svg2"
   version="1.1"
   inkscape:version="0.48.3.1 r9886"
   sodipodi:docname="noka.svg">
  <defs
     id="defs4" />
  <sodipodi:namedview
     id="base"
     pagecolor="#ffffff"
     bordercolor="#666666"
     borderopacity="1.0"
     inkscape:pageopacity="0.0"
     inkscape:pageshadow="2"
     inkscape:zoom="5.1354167"
     inkscape:cx="55.399594"
     inkscape:cy="45.273834"
     inkscape:document-units="px"
     inkscape:current-layer="g3801"
     showgrid="false"
     inkscape:window-width="992"
     inkscape:window-height="822"
     inkscape:window-x="0"
     inkscape:window-y="26"
     inkscape:window-maximized="0" />
  <metadata
     id="metadata7">
    <rdf:RDF>
      <cc:Work
         rdf:about="">
        <dc:format>image/svg+xml</dc:format>
        <dc:type
           rdf:resource="http://purl.org/dc/dcmitype/StillImage" />
        <dc:title />
      </cc:Work>
    </rdf:RDF>
  </metadata>
  <g
     inkscape:label="Calque 1"
     inkscape:groupmode="layer"
     id="layer1"
     transform="translate(0,-956.36218)">
    <g
       id="g3801"
       transform="translate(101.68496,2.5021585)">
      <g
         id="g8464"
         transform="matrix(1.1066533,0,0,1.1066533,5.7256835,-106.85168)">
        <g
           id="g8457">
          <g
             id="g3792">
            <path
               sodipodi:type="arc"
               style="fill:#ffffff;stroke:#000000;stroke-width:1.80725074;stroke-linecap:round;stroke-linejoin:miter;stroke-miterlimit:4;stroke-opacity:1;stroke-dasharray:none;stroke-dashoffset:0"
               id="path3014"
               sodipodi:cx="-54.303219"
               sodipodi:cy="15.654219"
               sodipodi:rx="8.1707907"
               sodipodi:ry="13.220617"
               d="m -46.132428,15.654219 c 0,7.301545 -3.658188,13.220617 -8.170791,13.220617 -4.512603,0 -8.170791,-5.919072 -8.170791,-13.220617 0,-7.3015456 3.658188,-13.2206176 8.170791,-13.2206176 4.512603,0 8.170791,5.919072 8.170791,13.2206176 z"
               transform="translate(8.9661773,963.01451)" />
            <path
               transform="matrix(0.73695489,0,0,0.82344322,-19.615029,966.93529)"
               d="m -46.132428,15.654219 c 0,7.301545 -3.658188,13.220617 -8.170791,13.220617 -4.512603,0 -8.170791,-5.919072 -8.170791,-13.220617 0,-7.3015456 3.658188,-13.2206176 8.170791,-13.2206176 4.512603,0 8.170791,5.919072 8.170791,13.2206176 z"
               sodipodi:ry="13.220617"
               sodipodi:rx="8.1707907"
               sodipodi:cy="15.654219"
               sodipodi:cx="-54.303219"
               id="path3016"
               style="fill:#ffffff;stroke:#000000;stroke-width:2.31996346;stroke-linecap:round;stroke-linejoin:miter;stroke-miterlimit:4;stroke-opacity:1;stroke-dasharray:none;stroke-dashoffset:0"
               sodipodi:type="arc" />
            <path
               sodipodi:type="arc"
               style="fill:#ffffff;stroke:#000000;stroke-width:2.20318317;stroke-linecap:round;stroke-linejoin:miter;stroke-miterlimit:4;stroke-opacity:1;stroke-dasharray:none;stroke-dashoffset:0"
               id="path3018"
               sodipodi:cx="-54.303219"
               sodipodi:cy="15.654219"
               sodipodi:rx="8.1707907"
               sodipodi:ry="13.220617"
               d="m -46.132428,15.654219 c 0,7.301545 -3.658188,13.220617 -8.170791,13.220617 -4.512603,0 -8.170791,-5.919072 -8.170791,-13.220617 0,-7.3015456 3.658188,-13.2206176 8.170791,-13.2206176 4.512603,0 8.170791,5.919072 8.170791,13.2206176 z"
               transform="matrix(0.81715033,0,0,0.82344322,-27.909549,967.22452)" />
          </g>
          <path
             sodipodi:nodetypes="czzzccc"
             inkscape:connector-curvature="0"
             id="path3010"
             d="m -26.175453,69.3907 c 7.097679,-10.301388 5.812,-41.019213 3.76001,-49.603207 -2.05199,-8.583994 -3.192519,-10.2723586 -7.809252,-10.267719 -4.616733,0.00464 -9.700001,6.688015 -15.907733,12.147724 -6.207732,5.459708 -22.999222,-1.222196 -31.381621,5.350784 -13.04684,14.351524 -11.966022,52.54999 3.036932,53.652447 27.94612,3.358438 42.667444,-0.01605 48.301664,-11.280029 z"
             style="fill:#ffffff;stroke:#000000;stroke-width:1.80725074;stroke-linecap:round;stroke-linejoin:miter;stroke-miterlimit:4;stroke-opacity:1;stroke-dasharray:none"
             transform="translate(0,956.36218)" />
        </g>
        <g
           id="g3797">
          <path
             sodipodi:nodetypes="cc"
             transform="translate(0,956.36218)"
             inkscape:connector-curvature="0"
             id="path3788"
             d="m -75.200197,54.639892 c 9.785667,-0.723079 23.331344,-0.144616 31.526237,-11.28003"
             style="fill:none;stroke:#000000;stroke-width:1.80725074;stroke-linecap:round;stroke-linejoin:miter;stroke-miterlimit:4;stroke-opacity:1;stroke-dasharray:none" />
          <path
             sodipodi:nodetypes="cc"
             transform="translate(0,956.36218)"
             inkscape:connector-curvature="0"
             id="path3790"
             d="m -70.427876,68.089158 c 11.087208,-6.025657 17.835944,-5.977452 20.969285,-2.7477"
             style="fill:none;stroke:#000000;stroke-width:1.80725074;stroke-linecap:round;stroke-linejoin:miter;stroke-miterlimit:4;stroke-opacity:1;stroke-dasharray:none" />
        </g>
      </g>
    </g>
  </g>
</svg>
