<?xml version="1.0" encoding="UTF-8" standalone="no"?>
<!-- Created with Inkscape (http://www.inkscape.org/) -->

<svg
   xmlns:dc="http://purl.org/dc/elements/1.1/"
   xmlns:cc="http://creativecommons.org/ns#"
   xmlns:rdf="http://www.w3.org/1999/02/22-rdf-syntax-ns#"
   xmlns:svg="http://www.w3.org/2000/svg"
   xmlns="http://www.w3.org/2000/svg"
   xmlns:sodipodi="http://sodipodi.sourceforge.net/DTD/sodipodi-0.dtd"
   xmlns:inkscape="http://www.inkscape.org/namespaces/inkscape"
   width="96"
   height="96"
   id="svg2"
   version="1.1"
   inkscape:version="0.48.3.1 r9886"
   sodipodi:docname="o.svg">
  <defs
     id="defs4" />
  <sodipodi:namedview
     id="base"
     pagecolor="#ffffff"
     bordercolor="#666666"
     borderopacity="1.0"
     inkscape:pageopacity="0.0"
     inkscape:pageshadow="2"
     inkscape:zoom="5.1354167"
     inkscape:cx="48.584178"
     inkscape:cy="46.052738"
     inkscape:document-units="px"
     inkscape:current-layer="layer1"
     showgrid="false"
     inkscape:window-width="992"
     inkscape:window-height="822"
     inkscape:window-x="0"
     inkscape:window-y="26"
     inkscape:window-maximized="0" />
  <metadata
     id="metadata7">
    <rdf:RDF>
      <cc:Work
         rdf:about="">
        <dc:format>image/svg+xml</dc:format>
        <dc:type
           rdf:resource="http://purl.org/dc/dcmitype/StillImage" />
        <dc:title />
      </cc:Work>
    </rdf:RDF>
  </metadata>
  <g
     inkscape:label="Calque 1"
     inkscape:groupmode="layer"
     id="layer1"
     transform="translate(0,-956.36218)">
    <g
       id="g3815"
       transform="matrix(1.0198203,0,0,1.0198203,102.59253,-9.8130454)">
      <path
         sodipodi:nodetypes="zzzz"
         transform="translate(0,956.36218)"
         inkscape:connector-curvature="0"
         id="path3002"
         d="m -28.040568,25.703854 c 16.801309,13.863425 12.354041,40.73029 -8.567951,43.813388 -20.921992,3.083098 -52.195368,1.775774 -52.690133,-20.265361 -0.494765,-22.041135 44.456775,-37.411452 61.258084,-23.548027 z"
         style="fill:#ffffff;stroke:#000000;stroke-width:1.96112978;stroke-linecap:round;stroke-linejoin:miter;stroke-miterlimit:4;stroke-opacity:1;stroke-dasharray:none" />
      <g
         id="g3806">
        <g
           id="g3797"
           style="fill:#ffffff">
          <path
             transform="translate(0,956.36218)"
             sodipodi:nodetypes="czccczcsczc"
             inkscape:connector-curvature="0"
             id="path3004"
             d="m -36.608519,5.4523332 c 0,0 -4.153474,5.5334838 -7.204868,5.6470598 -3.051394,0.113576 -7.789046,-5.2576075 -7.789046,-5.2576075 0,0 -4.623919,5.9602415 -7.594321,5.8417855 -2.970402,-0.118456 -7.010142,-5.6470593 -7.010142,-5.6470593 0,0 -16.434545,10.8988993 -16.356998,17.8174443 0.07755,6.918545 6.732452,11.544614 12.143895,14.335998 5.862003,-0.659321 10.786266,-2.538388 16.576807,-2.649749 5.493906,-0.105656 15.822208,-0.312609 15.822208,-0.312609 0,0 9.217692,-5.516417 9.462045,-12.887201 0.244353,-7.370784 -8.04958,-16.8880618 -8.04958,-16.8880618 z"
             style="fill:#ffffff;stroke:#000000;stroke-width:1.96112978;stroke-linecap:round;stroke-linejoin:miter;stroke-miterlimit:4;stroke-opacity:1;stroke-dasharray:none" />
          <path
             inkscape:connector-curvature="0"
             id="path3793"
             d="m -74.158028,997.18711 5.305522,-2.74744"
             style="fill:none;stroke:#000000;stroke-width:1.96112978;stroke-linecap:round;stroke-linejoin:miter;stroke-miterlimit:4;stroke-opacity:1;stroke-dasharray:none" />
          <path
             transform="translate(0,956.36218)"
             inkscape:connector-curvature="0"
             id="path3795"
             d="m -32.633049,38.85774 -4.819227,-3.717689"
             style="fill:none;stroke:#000000;stroke-width:1.96112978;stroke-linecap:round;stroke-linejoin:miter;stroke-miterlimit:4;stroke-opacity:1;stroke-dasharray:none" />
        </g>
        <g
           id="g3802">
          <path
             transform="matrix(0.85753657,0,0,0.85753657,32.169529,953.31799)"
             d="m -92.300205,30.572008 c 0,4.731949 -3.836003,8.567951 -8.567955,8.567951 -4.73195,0 -8.56795,-3.836002 -8.56795,-8.567951 0,-4.731949 3.836,-8.567951 8.56795,-8.567951 4.731952,0 8.567955,3.836002 8.567955,8.567951 z"
             sodipodi:ry="8.5679512"
             sodipodi:rx="8.5679512"
             sodipodi:cy="30.572008"
             sodipodi:cx="-100.86816"
             id="path3008"
             style="fill:none;stroke:#000000;stroke-width:2.28693438;stroke-linecap:round;stroke-linejoin:miter;stroke-miterlimit:4;stroke-opacity:1;stroke-dasharray:none;stroke-dashoffset:0"
             sodipodi:type="arc" />
          <path
             transform="translate(47.026369,971.25874)"
             d="m -100.86816,8.2758627 c 0,0.2688607 -0.21795,0.4868154 -0.48681,0.4868154 -0.26886,0 -0.48682,-0.2179547 -0.48682,-0.4868154 0,-0.2688607 0.21796,-0.4868154 0.48682,-0.4868154 0.26886,0 0.48681,0.2179547 0.48681,0.4868154 z"
             sodipodi:ry="0.48681542"
             sodipodi:rx="0.48681542"
             sodipodi:cy="8.2758627"
             sodipodi:cx="-101.35497"
             id="path3780"
             style="fill:none;stroke:#000000;stroke-width:1.96112978;stroke-linecap:round;stroke-linejoin:miter;stroke-miterlimit:4;stroke-opacity:1;stroke-dasharray:none;stroke-dashoffset:0"
             sodipodi:type="arc" />
        </g>
      </g>
    </g>
  </g>
</svg>
