<?xml version="1.0" encoding="UTF-8" standalone="no"?>
<!-- Created with Inkscape (http://www.inkscape.org/) -->

<svg
   xmlns:dc="http://purl.org/dc/elements/1.1/"
   xmlns:cc="http://creativecommons.org/ns#"
   xmlns:rdf="http://www.w3.org/1999/02/22-rdf-syntax-ns#"
   xmlns:svg="http://www.w3.org/2000/svg"
   xmlns="http://www.w3.org/2000/svg"
   xmlns:sodipodi="http://sodipodi.sourceforge.net/DTD/sodipodi-0.dtd"
   xmlns:inkscape="http://www.inkscape.org/namespaces/inkscape"
   width="96"
   height="96"
   id="svg2"
   version="1.1"
   inkscape:version="0.48.3.1 r9886"
   sodipodi:docname="palisa.svg">
  <defs
     id="defs4" />
  <sodipodi:namedview
     id="base"
     pagecolor="#ffffff"
     bordercolor="#666666"
     borderopacity="1.0"
     inkscape:pageopacity="0.0"
     inkscape:pageshadow="2"
     inkscape:zoom="5.9478557"
     inkscape:cx="48.456329"
     inkscape:cy="47.215109"
     inkscape:document-units="px"
     inkscape:current-layer="layer1"
     showgrid="false"
     inkscape:window-width="992"
     inkscape:window-height="822"
     inkscape:window-x="0"
     inkscape:window-y="26"
     inkscape:window-maximized="0" />
  <metadata
     id="metadata7">
    <rdf:RDF>
      <cc:Work
         rdf:about="">
        <dc:format>image/svg+xml</dc:format>
        <dc:type
           rdf:resource="http://purl.org/dc/dcmitype/StillImage" />
        <dc:title />
      </cc:Work>
    </rdf:RDF>
  </metadata>
  <g
     inkscape:label="Calque 1"
     inkscape:groupmode="layer"
     id="layer1"
     transform="translate(0,-956.36218)">
    <g
       id="g3818"
       transform="matrix(1.009934,0,0,1.009934,81.717759,-4.7345885)"
       style="fill:#ffffff">
      <g
         id="g3800"
         style="fill:#ffffff">
        <path
           style="fill:#ffffff;stroke:#000000;stroke-width:1.98032749;stroke-linecap:round;stroke-linejoin:miter;stroke-miterlimit:4;stroke-opacity:1;stroke-dasharray:none"
           d="m -22.004057,67.959432 c 12.6265948,6.158013 23.6857253,1.72533 24.7302233,-8.178499 0.59683,-8.42415 -13.1019393,-17.040234 -21.2251523,-24.924949 -8.123213,-7.884715 -14.633841,-23.930957 -27.456389,-22.004056 -12.822548,1.926901 -23.56108,16.694559 -23.561866,34.855983 -7.85e-4,18.161423 0.855892,16.299217 5.047507,20.28753 5.337617,5.078732 17.064477,4.758168 20.072168,4.832145 3.007691,0.07398 9.709483,0.435397 14.339079,-0.947832 3.746318,-1.119323 8.05443,-3.920322 8.05443,-3.920322 z"
           id="path3004"
           inkscape:connector-curvature="0"
           transform="translate(0,956.36218)"
           sodipodi:nodetypes="cczzzszsc" />
        <path
           style="fill:#ffffff;stroke:#000000;stroke-width:1.98032749;stroke-linecap:round;stroke-linejoin:miter;stroke-miterlimit:4;stroke-opacity:1;stroke-dasharray:none"
           d="m -21.482712,67.623306 c 0,0 4.977071,-4.705419 4.977071,-11.952361 0,-7.246942 -5.765698,-12.315212 -10.538573,-12.315212 -4.772875,0 -8.803632,2.15164 -13.610075,2.15164 -4.806443,0 -8.456092,-2.439257 -8.456092,-2.439257"
           id="path3798"
           inkscape:connector-curvature="0"
           transform="translate(0,956.36218)"
           sodipodi:nodetypes="czzzc" />
      </g>
      <g
         id="g3814"
         style="fill:#ffffff">
        <path
           style="fill:#ffffff;stroke:#000000;stroke-width:1.98032749;stroke-linecap:round;stroke-linejoin:miter;stroke-miterlimit:4;stroke-opacity:1;stroke-dasharray:none"
           d="m -69.083827,1003.4819 c 0,0 3.805771,2.0773 6.180699,2.0773 3.289888,0 2.170116,-1.5613 5.200536,-1.5613 7.326407,0 9.721307,14.1784 9.721307,14.1784 0,0 -5.79295,3.1616 -9.101368,3.1616 -4.113511,0 -6.350266,-1.9069 -6.350266,-4.8156 0,-2.8513 1.583592,-4.6764 5.791526,-4.7535 4.207934,-0.077 8.408427,5.3969 9.215149,6.365"
           id="path3767"
           inkscape:connector-curvature="0"
           sodipodi:nodetypes="csscsszc" />
        <path
           sodipodi:type="arc"
           style="fill:#000000;fill-opacity:1;stroke:#000000;stroke-width:1.98032749;stroke-linecap:round;stroke-linejoin:miter;stroke-miterlimit:4;stroke-opacity:1;stroke-dasharray:none"
           id="path3777"
           sodipodi:cx="25.309092"
           sodipodi:cy="64.290909"
           sodipodi:rx="1.2606061"
           sodipodi:ry="1.2606061"
           d="m 26.569698,64.290909 c 0,0.696213 -0.564393,1.260606 -1.260606,1.260606 -0.696214,0 -1.260606,-0.564393 -1.260606,-1.260606 0,-0.696214 0.564392,-1.260606 1.260606,-1.260606 0.696213,0 1.260606,0.564392 1.260606,1.260606 z"
           transform="translate(-82.814736,951.65562)" />
      </g>
    </g>
  </g>
</svg>
