<?xml version="1.0" encoding="UTF-8" standalone="no"?>
<!-- Created with Inkscape (http://www.inkscape.org/) -->

<svg
   xmlns:dc="http://purl.org/dc/elements/1.1/"
   xmlns:cc="http://creativecommons.org/ns#"
   xmlns:rdf="http://www.w3.org/1999/02/22-rdf-syntax-ns#"
   xmlns:svg="http://www.w3.org/2000/svg"
   xmlns="http://www.w3.org/2000/svg"
   xmlns:sodipodi="http://sodipodi.sourceforge.net/DTD/sodipodi-0.dtd"
   xmlns:inkscape="http://www.inkscape.org/namespaces/inkscape"
   width="96"
   height="96"
   id="svg2"
   version="1.1"
   inkscape:version="0.48.3.1 r9886"
   sodipodi:docname="pali.svg">
  <defs
     id="defs4" />
  <sodipodi:namedview
     id="base"
     pagecolor="#ffffff"
     bordercolor="#666666"
     borderopacity="1.0"
     inkscape:pageopacity="0.0"
     inkscape:pageshadow="2"
     inkscape:zoom="5.1354167"
     inkscape:cx="50.53144"
     inkscape:cy="47.610548"
     inkscape:document-units="px"
     inkscape:current-layer="layer1"
     showgrid="false"
     inkscape:window-width="992"
     inkscape:window-height="822"
     inkscape:window-x="0"
     inkscape:window-y="26"
     inkscape:window-maximized="0" />
  <metadata
     id="metadata7">
    <rdf:RDF>
      <cc:Work
         rdf:about="">
        <dc:format>image/svg+xml</dc:format>
        <dc:type
           rdf:resource="http://purl.org/dc/dcmitype/StillImage" />
        <dc:title />
      </cc:Work>
    </rdf:RDF>
  </metadata>
  <g
     inkscape:label="Calque 1"
     inkscape:groupmode="layer"
     id="layer1"
     transform="translate(0,-956.36218)">
    <g
       id="g3798"
       transform="matrix(0.99631459,0,0,0.99631459,87.879749,2.4620148)">
      <g
         id="g3823">
        <path
           transform="translate(0,956.36218)"
           style="fill:#ffffff;stroke:#000000;stroke-width:2.00739813;stroke-linecap:round;stroke-linejoin:miter;stroke-miterlimit:4;stroke-opacity:1;stroke-dasharray:none"
           d="M -33.038378,80.963302 C -17.793006,80.40756 -4.1650044,67.505498 -3.3885516,48.560278 -9.5248649,4.028703 -63.639651,25.117524 -76.66598,51.313476 c 15.67521,0.223093 12.978221,15.16627 23.885918,23.881293 4.533134,3.897953 10.488162,5.90538 19.741684,5.768533 z"
           id="path3784"
           inkscape:connector-curvature="0"
           sodipodi:nodetypes="ccccc" />
        <path
           sodipodi:type="arc"
           style="fill:#ffffff;stroke:#000000;stroke-width:1.8411392;stroke-linecap:round;stroke-linejoin:miter;stroke-miterlimit:4;stroke-opacity:1;stroke-dasharray:none;stroke-dashoffset:0"
           id="path3788"
           sodipodi:cx="-53.687363"
           sodipodi:cy="9.9096117"
           sodipodi:rx="6.0358577"
           sodipodi:ry="6.0358577"
           d="m -47.651505,9.9096117 c 0,3.3335123 -2.702346,6.0358573 -6.035858,6.0358573 -3.333512,0 -6.035857,-2.702345 -6.035857,-6.0358573 0,-3.3335121 2.702345,-6.0358577 6.035857,-6.0358577 3.333512,0 6.035858,2.7023456 6.035858,6.0358577 z"
           transform="matrix(1.0903022,0,0,1.0903022,20.731922,969.65687)" />
        <g
           id="g3780">
          <g
             id="g3808">
            <path
               style="fill:none;stroke:#000000;stroke-width:2.00739813;stroke-linecap:round;stroke-linejoin:miter;stroke-miterlimit:4;stroke-opacity:1;stroke-dasharray:none"
               d="m -63.918735,1012.6348 c 0,0 9.693638,-9.6604 16.919692,-9.6604 7.326407,0 10.305485,14.1092 10.305485,14.1092 0,0 -5.79295,3.1616 -9.101368,3.1616 -4.113511,0 -6.350266,-1.9069 -6.350266,-4.8156 0,-2.8513 1.583592,-4.6764 5.791526,-4.7535 4.207934,-0.077 8.408427,5.3969 9.215149,6.365"
               id="path3767"
               inkscape:connector-curvature="0"
               sodipodi:nodetypes="cscsszc" />
            <path
               sodipodi:type="arc"
               style="fill:#000000;fill-opacity:1;stroke:#000000;stroke-width:2.00739813;stroke-linecap:round;stroke-linejoin:miter;stroke-miterlimit:4;stroke-opacity:1;stroke-dasharray:none"
               id="path3777"
               sodipodi:cx="25.309092"
               sodipodi:cy="64.290909"
               sodipodi:rx="1.2606061"
               sodipodi:ry="1.2606061"
               d="m 26.569698,64.290909 c 0,0.696213 -0.564393,1.260606 -1.260606,1.260606 -0.696214,0 -1.260606,-0.564393 -1.260606,-1.260606 0,-0.696214 0.564392,-1.260606 1.260606,-1.260606 0.696213,0 1.260606,0.564392 1.260606,1.260606 z"
               transform="translate(-71.853741,951.14714)" />
          </g>
        </g>
        <g
           id="g3794">
          <path
             sodipodi:nodetypes="cc"
             transform="translate(0,956.36218)"
             inkscape:connector-curvature="0"
             id="path3790"
             d="m -32.299058,52.152913 c 4.800448,-0.917733 7.280252,-2.502907 14.545101,-2.573502"
             style="fill:none;stroke:#000000;stroke-width:2.00739813;stroke-linecap:round;stroke-linejoin:miter;stroke-miterlimit:4;stroke-opacity:1;stroke-dasharray:none" />
          <path
             sodipodi:nodetypes="cc"
             transform="translate(0,956.36218)"
             inkscape:connector-curvature="0"
             id="path3792"
             d="m -29.409804,59.157203 c 4.062411,-0.775259 8.680596,-1.6378 12.438808,-3.044562"
             style="fill:none;stroke:#000000;stroke-width:2.00739813;stroke-linecap:round;stroke-linejoin:miter;stroke-miterlimit:4;stroke-opacity:1;stroke-dasharray:none" />
        </g>
      </g>
    </g>
  </g>
</svg>
