<?xml version="1.0" encoding="UTF-8" standalone="no"?>
<!-- Created with Inkscape (http://www.inkscape.org/) -->

<svg
   xmlns:dc="http://purl.org/dc/elements/1.1/"
   xmlns:cc="http://creativecommons.org/ns#"
   xmlns:rdf="http://www.w3.org/1999/02/22-rdf-syntax-ns#"
   xmlns:svg="http://www.w3.org/2000/svg"
   xmlns="http://www.w3.org/2000/svg"
   xmlns:sodipodi="http://sodipodi.sourceforge.net/DTD/sodipodi-0.dtd"
   xmlns:inkscape="http://www.inkscape.org/namespaces/inkscape"
   width="96"
   height="96"
   id="svg2"
   version="1.1"
   inkscape:version="0.48.3.1 r9886"
   sodipodi:docname="pi.svg">
  <defs
     id="defs4" />
  <sodipodi:namedview
     id="base"
     pagecolor="#ffffff"
     bordercolor="#666666"
     borderopacity="1.0"
     inkscape:pageopacity="0.0"
     inkscape:pageshadow="2"
     inkscape:zoom="5.1354167"
     inkscape:cx="53.452333"
     inkscape:cy="47.221095"
     inkscape:document-units="px"
     inkscape:current-layer="layer1"
     showgrid="false"
     inkscape:window-width="992"
     inkscape:window-height="822"
     inkscape:window-x="0"
     inkscape:window-y="26"
     inkscape:window-maximized="0"
     showguides="true"
     inkscape:guide-bbox="true" />
  <metadata
     id="metadata7">
    <rdf:RDF>
      <cc:Work
         rdf:about="">
        <dc:format>image/svg+xml</dc:format>
        <dc:type
           rdf:resource="http://purl.org/dc/dcmitype/StillImage" />
        <dc:title />
      </cc:Work>
    </rdf:RDF>
  </metadata>
  <g
     inkscape:label="Calque 1"
     inkscape:groupmode="layer"
     id="layer1"
     transform="translate(0,-956.36218)">
    <g
       id="g3779"
       transform="matrix(1.0811185,0,0,1.0811185,107.35207,-77.62292)">
      <path
         sodipodi:nodetypes="ccccccc"
         transform="translate(0,956.36218)"
         inkscape:connector-curvature="0"
         id="path3001"
         d="m -32.51927,7.7890473 c -9.769185,-0.4453611 -9.541582,18.1095337 -9.541582,18.1095337 0,0 -16.652458,-5.647059 -26.677484,-5.647059 -29.123887,1.352384 -21.904813,49.034213 -5.647059,58.807302 15.841279,3.751751 35.086198,2.511197 44.592292,-5.062881 9.44675,-8.604407 9.469539,-13.112463 7.635153,-51.668144 -0.03074,-5.21466 -6.061768,-15.0249627 -10.36132,-14.5387517 z"
         style="fill:#ffffff;stroke:#000000;stroke-width:1.84993601;stroke-linecap:round;stroke-linejoin:miter;stroke-miterlimit:4;stroke-opacity:1;stroke-dasharray:none" />
      <g
         id="g3775">
        <path
           sodipodi:type="arc"
           style="fill:none;stroke:#000000;stroke-width:1.84993601;stroke-linecap:round;stroke-linejoin:miter;stroke-miterlimit:4;stroke-opacity:1;stroke-dasharray:none;stroke-dashoffset:0"
           id="path3003"
           sodipodi:cx="-78.961456"
           sodipodi:cy="-3.018255"
           sodipodi:rx="0.68154156"
           sodipodi:ry="0.68154156"
           d="m -78.279915,-3.018255 c 0,0.376405 -0.305136,0.6815416 -0.681541,0.6815416 -0.376405,0 -0.681542,-0.3051366 -0.681542,-0.6815416 0,-0.376405 0.305137,-0.6815416 0.681542,-0.6815416 0.376405,0 0.681541,0.3051366 0.681541,0.6815416 z"
           transform="translate(46.539553,975.8348)" />
        <path
           transform="translate(47.318458,983.42912)"
           d="m -78.279915,-3.018255 c 0,0.376405 -0.305136,0.6815416 -0.681541,0.6815416 -0.376405,0 -0.681542,-0.3051366 -0.681542,-0.6815416 0,-0.376405 0.305137,-0.6815416 0.681542,-0.6815416 0.376405,0 0.681541,0.3051366 0.681541,0.6815416 z"
           sodipodi:ry="0.68154156"
           sodipodi:rx="0.68154156"
           sodipodi:cy="-3.018255"
           sodipodi:cx="-78.961456"
           id="path3773"
           style="fill:none;stroke:#000000;stroke-width:1.84993601;stroke-linecap:round;stroke-linejoin:miter;stroke-miterlimit:4;stroke-opacity:1;stroke-dasharray:none;stroke-dashoffset:0"
           sodipodi:type="arc" />
      </g>
    </g>
  </g>
</svg>
