<?xml version="1.0" encoding="UTF-8" standalone="no"?>
<!-- Created with Inkscape (http://www.inkscape.org/) -->

<svg
   xmlns:dc="http://purl.org/dc/elements/1.1/"
   xmlns:cc="http://creativecommons.org/ns#"
   xmlns:rdf="http://www.w3.org/1999/02/22-rdf-syntax-ns#"
   xmlns:svg="http://www.w3.org/2000/svg"
   xmlns="http://www.w3.org/2000/svg"
   xmlns:sodipodi="http://sodipodi.sourceforge.net/DTD/sodipodi-0.dtd"
   xmlns:inkscape="http://www.inkscape.org/namespaces/inkscape"
   width="96"
   height="96"
   id="svg2"
   version="1.1"
   inkscape:version="0.48.3.1 r9886"
   sodipodi:docname="pilin.svg">
  <defs
     id="defs4" />
  <sodipodi:namedview
     id="base"
     pagecolor="#ffffff"
     bordercolor="#666666"
     borderopacity="1.0"
     inkscape:pageopacity="0.0"
     inkscape:pageshadow="2"
     inkscape:zoom="5.1354167"
     inkscape:cx="47.805274"
     inkscape:cy="44.689655"
     inkscape:document-units="px"
     inkscape:current-layer="layer1"
     showgrid="false"
     inkscape:window-width="992"
     inkscape:window-height="822"
     inkscape:window-x="0"
     inkscape:window-y="26"
     inkscape:window-maximized="0" />
  <metadata
     id="metadata7">
    <rdf:RDF>
      <cc:Work
         rdf:about="">
        <dc:format>image/svg+xml</dc:format>
        <dc:type
           rdf:resource="http://purl.org/dc/dcmitype/StillImage" />
        <dc:title />
      </cc:Work>
    </rdf:RDF>
  </metadata>
  <g
     inkscape:label="Calque 1"
     inkscape:groupmode="layer"
     id="layer1"
     transform="translate(0,-956.36218)">
    <g
       id="g3808"
       transform="matrix(0.96851694,0,0,0.96851694,95.81507,32.413083)">
      <g
         style="fill:none"
         transform="matrix(0.98694898,0,0,0.88523962,-95.379613,115.22024)"
         inkscape:label="Calque 1"
         id="layer1-2">
        <path
           sodipodi:nodetypes="scczss"
           inkscape:connector-curvature="0"
           id="path2995"
           d="m -12.693947,54.27232 c 0,26.600553 -21.968858,35.432501 -21.968858,35.432501 l -44.354099,0 C -100.46732,82.733847 -101.71026,74.202477 -101.67965,54.27232 c 0.0306,-19.930156 22.416028,-43.013008 46.100739,-43.013008 23.684712,0 42.884964,18.800607 42.884964,43.013008 z"
           style="fill:#ffffff;stroke:#000000;stroke-width:2.57200861;stroke-linecap:round;stroke-linejoin:miter;stroke-miterlimit:4;stroke-opacity:1;stroke-dasharray:none"
           transform="matrix(0.85895931,0,0,0.85895931,95.740023,957.85445)" />
      </g>
      <g
         id="g3804">
        <path
           style="fill:none;stroke:#000000;stroke-width:1.98401952;stroke-linecap:round;stroke-linejoin:miter;stroke-miterlimit:4;stroke-opacity:1;stroke-dasharray:none;stroke-dashoffset:0"
           d="m -26.721109,101.82597 c 0,4.30395 -4.1312,11.321 -4.1312,11.321 l -28.065518,-0.31616 c 0,0 -4.62876,-4.7311 -4.426722,-11.00484 0.318854,-9.90115 8.706061,-17.94132 18.614777,-17.94132 9.908716,0 18.008663,8.032601 18.008663,17.94132 z"
           id="path3011"
           inkscape:connector-curvature="0"
           sodipodi:nodetypes="sccsss"
           transform="matrix(1.1470204,0,0,0.94445778,2.3328849,924.14345)" />
        <path
           sodipodi:type="arc"
           style="fill:#ffffff;stroke:#000000;stroke-width:2.10842109;stroke-linecap:round;stroke-linejoin:miter;stroke-miterlimit:4;stroke-opacity:1;stroke-dasharray:none;stroke-dashoffset:0"
           id="path3014"
           sodipodi:cx="-101.96636"
           sodipodi:cy="79.005608"
           sodipodi:rx="12.668548"
           sodipodi:ry="12.668548"
           d="m -89.297814,79.005608 c 0,6.996645 -5.671902,12.668547 -12.668546,12.668547 -6.99665,0 -12.66855,-5.671902 -12.66855,-12.668547 0,-6.996646 5.6719,-12.668548 12.66855,-12.668548 6.996644,0 12.668546,5.671902 12.668546,12.668548 z"
           transform="matrix(1.0452117,0,0,0.91775462,57.459996,951.24071)" />
      </g>
      <g
         id="g3796">
        <path
           style="fill:none;stroke:#000000;stroke-width:2.06501293;stroke-linecap:round;stroke-linejoin:miter;stroke-miterlimit:4;stroke-opacity:1;stroke-dasharray:none"
           d="m -76.592598,50.673063 c -0.661707,-0.165427 -2.233261,-2.233261 -2.233261,-2.233261"
           id="path3784"
           inkscape:connector-curvature="0"
           transform="translate(0,956.36218)" />
        <path
           style="fill:none;stroke:#000000;stroke-width:2.06501293;stroke-linecap:round;stroke-linejoin:miter;stroke-miterlimit:4;stroke-opacity:1;stroke-dasharray:none"
           d="m -66.005284,40.085749 -1.654268,-2.977681"
           id="path3786"
           inkscape:connector-curvature="0"
           transform="translate(0,956.36218)" />
        <path
           style="fill:none;stroke:#000000;stroke-width:2.06501293;stroke-linecap:round;stroke-linejoin:miter;stroke-miterlimit:4;stroke-opacity:1;stroke-dasharray:none"
           d="m -51.116874,990.98885 0,-3.30854"
           id="path3788"
           inkscape:connector-curvature="0" />
        <path
           style="fill:none;stroke:#000000;stroke-width:2.06501293;stroke-linecap:round;stroke-linejoin:miter;stroke-miterlimit:4;stroke-opacity:1;stroke-dasharray:none"
           d="m -36.890171,36.611787 1.654268,-3.639389"
           id="path3790"
           inkscape:connector-curvature="0"
           transform="translate(0,956.36218)" />
        <path
           style="fill:none;stroke:#000000;stroke-width:2.06501293;stroke-linecap:round;stroke-linejoin:miter;stroke-miterlimit:4;stroke-opacity:1;stroke-dasharray:none"
           d="m -25.14487,44.552272 3.639389,-3.143108"
           id="path3792"
           inkscape:connector-curvature="0"
           transform="translate(0,956.36218)" />
        <path
           style="fill:none;stroke:#000000;stroke-width:2.06501293;stroke-linecap:round;stroke-linejoin:miter;stroke-miterlimit:4;stroke-opacity:1;stroke-dasharray:none"
           d="m -22.001761,55.305013 3.804816,-1.488841"
           id="path3794"
           inkscape:connector-curvature="0"
           transform="translate(0,956.36218)" />
      </g>
    </g>
  </g>
</svg>
