<?xml version="1.0" encoding="UTF-8" standalone="no"?>
<!-- Created with Inkscape (http://www.inkscape.org/) -->

<svg
   xmlns:dc="http://purl.org/dc/elements/1.1/"
   xmlns:cc="http://creativecommons.org/ns#"
   xmlns:rdf="http://www.w3.org/1999/02/22-rdf-syntax-ns#"
   xmlns:svg="http://www.w3.org/2000/svg"
   xmlns="http://www.w3.org/2000/svg"
   xmlns:sodipodi="http://sodipodi.sourceforge.net/DTD/sodipodi-0.dtd"
   xmlns:inkscape="http://www.inkscape.org/namespaces/inkscape"
   width="96"
   height="96"
   id="svg2"
   version="1.1"
   inkscape:version="0.48.3.1 r9886"
   sodipodi:docname="sijelo.svg">
  <defs
     id="defs4" />
  <sodipodi:namedview
     id="base"
     pagecolor="#ffffff"
     bordercolor="#666666"
     borderopacity="1.0"
     inkscape:pageopacity="0.0"
     inkscape:pageshadow="2"
     inkscape:zoom="5.1354167"
     inkscape:cx="48"
     inkscape:cy="48"
     inkscape:document-units="px"
     inkscape:current-layer="layer1"
     showgrid="false"
     inkscape:window-width="992"
     inkscape:window-height="822"
     inkscape:window-x="0"
     inkscape:window-y="26"
     inkscape:window-maximized="0" />
  <metadata
     id="metadata7">
    <rdf:RDF>
      <cc:Work
         rdf:about="">
        <dc:format>image/svg+xml</dc:format>
        <dc:type
           rdf:resource="http://purl.org/dc/dcmitype/StillImage" />
        <dc:title />
      </cc:Work>
    </rdf:RDF>
  </metadata>
  <g
     inkscape:label="Calque 1"
     inkscape:groupmode="layer"
     id="layer1"
     transform="translate(0,-956.36218)">
    <g
       id="g3795"
       transform="matrix(0.98943004,0,0,0.98943004,99.346,11.238935)">
      <path
         sodipodi:nodetypes="czzzczccc"
         transform="translate(0,956.36218)"
         inkscape:connector-curvature="0"
         id="path3002"
         d="m -30.377282,36.219067 c 0,0 15.383367,1.57359 15.383367,20.446248 0,18.872658 -21.795589,27.955997 -38.784978,27.955997 -16.989389,0 -35.016238,-9.002662 -35.016238,-22.698391 0,-13.695729 13.825557,-17.720081 13.825557,-17.720081 0,0 -6.743678,-7.23336 -6.620689,-11.878296 0.122989,-4.644936 2.847532,-11.563226 8.178499,-11.099392 13.147417,1.54405 32.053451,0.423848 32.053451,0.423848 16.11552,-10.659025 23.209739,1.734916 10.981031,14.570067 z"
         style="fill:#ffffff;stroke:#000000;stroke-width:2.02136564;stroke-linecap:round;stroke-linejoin:miter;stroke-miterlimit:4;stroke-opacity:1;stroke-dasharray:none" />
      <g
         id="g3787">
        <g
           id="g3778">
          <path
             sodipodi:nodetypes="czczc"
             transform="translate(0,956.36218)"
             inkscape:connector-curvature="0"
             id="path3004"
             d="m -66.985801,30.766735 c 0,0 -0.657784,-20.229769 12.462475,-20.640974 13.120259,-0.4112053 13.630831,20.056795 13.630831,20.056795 0,0 -6.11149,-1.261411 -12.265472,-1.261411 -6.153982,0 -13.827834,1.84559 -13.827834,1.84559 z"
             style="fill:#ffffff;stroke:#000000;stroke-width:2.02136564;stroke-linecap:round;stroke-linejoin:miter;stroke-miterlimit:4;stroke-opacity:1;stroke-dasharray:none" />
          <path
             inkscape:connector-curvature="0"
             id="path3006"
             d="m -67.156556,987.16139 -3.325121,1.0357"
             style="fill:none;stroke:#000000;stroke-width:2.02136564;stroke-linecap:round;stroke-linejoin:miter;stroke-miterlimit:4;stroke-opacity:1;stroke-dasharray:none" />
          <path
             inkscape:connector-curvature="0"
             id="path3008"
             d="m -40.747586,986.61195 2.507469,1.30825"
             style="fill:none;stroke:#000000;stroke-width:2.02136564;stroke-linecap:round;stroke-linejoin:miter;stroke-miterlimit:4;stroke-opacity:1;stroke-dasharray:none" />
        </g>
        <path
           style="fill:none;stroke:#000000;stroke-width:2.02136564;stroke-linecap:round;stroke-linejoin:miter;stroke-miterlimit:4;stroke-opacity:1;stroke-dasharray:none"
           d="m -65.915042,39.184341 c 6.095817,-1.196175 14.531479,-0.875202 17.976829,-0.443873"
           id="path3783"
           inkscape:connector-curvature="0"
           transform="translate(0,956.36218)"
           sodipodi:nodetypes="cc" />
        <path
           style="fill:none;stroke:#000000;stroke-width:2.02136564;stroke-linecap:round;stroke-linejoin:miter;stroke-miterlimit:4;stroke-opacity:1;stroke-dasharray:none"
           d="m -74.086328,64.902035 c 0,0 1.649942,2.349924 10.518429,0.152441 8.868487,-2.197483 18.474251,-12.957485 23.628356,-13.71969 5.154105,-0.762205 5.182994,0.762205 5.182994,0.762205"
           id="path3785"
           inkscape:connector-curvature="0"
           transform="translate(0,956.36218)"
           sodipodi:nodetypes="czzc" />
      </g>
    </g>
  </g>
</svg>
