<?xml version="1.0" encoding="UTF-8" standalone="no"?>
<!-- Created with Inkscape (http://www.inkscape.org/) -->

<svg
   xmlns:dc="http://purl.org/dc/elements/1.1/"
   xmlns:cc="http://creativecommons.org/ns#"
   xmlns:rdf="http://www.w3.org/1999/02/22-rdf-syntax-ns#"
   xmlns:svg="http://www.w3.org/2000/svg"
   xmlns="http://www.w3.org/2000/svg"
   xmlns:sodipodi="http://sodipodi.sourceforge.net/DTD/sodipodi-0.dtd"
   xmlns:inkscape="http://www.inkscape.org/namespaces/inkscape"
   width="96"
   height="96"
   id="svg2"
   version="1.1"
   inkscape:version="0.48.3.1 r9886"
   sodipodi:docname="soweli.svg">
  <defs
     id="defs4" />
  <sodipodi:namedview
     id="base"
     pagecolor="#ffffff"
     bordercolor="#666666"
     borderopacity="1.0"
     inkscape:pageopacity="0.0"
     inkscape:pageshadow="2"
     inkscape:zoom="5.1354167"
     inkscape:cx="57.054766"
     inkscape:cy="51.115618"
     inkscape:document-units="px"
     inkscape:current-layer="layer1"
     showgrid="false"
     inkscape:window-width="992"
     inkscape:window-height="822"
     inkscape:window-x="0"
     inkscape:window-y="26"
     inkscape:window-maximized="0" />
  <metadata
     id="metadata7">
    <rdf:RDF>
      <cc:Work
         rdf:about="">
        <dc:format>image/svg+xml</dc:format>
        <dc:type
           rdf:resource="http://purl.org/dc/dcmitype/StillImage" />
        <dc:title />
      </cc:Work>
    </rdf:RDF>
  </metadata>
  <g
     inkscape:label="Calque 1"
     inkscape:groupmode="layer"
     id="layer1"
     transform="translate(0,-956.36218)">
    <g
       id="g3800"
       transform="translate(108.26589,1.4606082)" />
    <g
       id="g7447"
       transform="matrix(0.98421216,0,0,0.98421216,0.75781181,15.856709)">
      <g
         id="g3011">
        <g
           id="g3007">
          <path
             sodipodi:nodetypes="zccz"
             inkscape:connector-curvature="0"
             id="path3006"
             d="m 12.071164,976.49013 c 2.678531,-3.53486 18.809109,-5.30623 20.640974,2.53144 L 17.328771,994.40494 C 11.367776,992.27732 9.392633,980.025 12.071164,976.49013 z"
             style="fill:#ffffff;stroke:#000000;stroke-width:2.03208208;stroke-linecap:round;stroke-linejoin:miter;stroke-miterlimit:4;stroke-opacity:1;stroke-dasharray:none" />
          <path
             style="fill:#ffffff;stroke:#000000;stroke-width:2.03208208;stroke-linecap:round;stroke-linejoin:miter;stroke-miterlimit:4;stroke-opacity:1;stroke-dasharray:none"
             d="m 83.539438,976.49013 c -2.678531,-3.53486 -18.809109,-5.30623 -20.640974,2.53144 l 15.383367,15.38337 c 5.960995,-2.12762 7.936138,-14.37994 5.257607,-17.91481 z"
             id="path3005"
             inkscape:connector-curvature="0"
             sodipodi:nodetypes="zccz" />
        </g>
        <g
           id="g3796"
           transform="translate(108.26589,1.4606082)">
          <path
             inkscape:connector-curvature="0"
             id="path3016"
             d="m -72.438133,1031.3318 c 0,0 5.452332,3.505 10.12576,3.505 4.673428,0 7.204868,-1.9472 7.983773,-2.9209 0.778905,-0.9736 0.194726,-6.4259 0.194726,-6.4259 l -8.373225,-7.5944 -11.099391,6.6207 z"
             style="fill:#ffffff;stroke:#000000;stroke-width:2.03208208;stroke-linecap:round;stroke-linejoin:miter;stroke-miterlimit:4;stroke-opacity:1;stroke-dasharray:none" />
          <path
             sodipodi:nodetypes="cczzzzc"
             transform="translate(0,956.36218)"
             inkscape:connector-curvature="0"
             id="path3002"
             d="m -62.507099,66.791075 c 0,0 7.78501,11.099392 19.472617,11.099392 12.047204,-0.610211 19.455262,-12.454699 19.862069,-29.252312 0.406807,-16.797614 -14.610347,-33.957754 -35.829615,-34.033692 -21.219268,-0.07594 -37.776876,14.301082 -37.776876,33.882353 0,19.581271 9.926773,28.819472 18.109533,28.819472 8.18276,0 16.162272,-10.515213 16.162272,-10.515213 z"
             style="fill:#ffffff;stroke:#000000;stroke-width:2.03208208;stroke-linecap:round;stroke-linejoin:miter;stroke-miterlimit:4;stroke-opacity:1;stroke-dasharray:none" />
        </g>
      </g>
      <g
         id="g7442">
        <path
           sodipodi:nodetypes="cc"
           transform="translate(108.26589,957.82279)"
           inkscape:connector-curvature="0"
           id="path3012"
           d="m -74.774847,37.58215 c 12.648685,-3.595413 14.96403,-3.950832 25.89858,-0.389452"
           style="fill:none;stroke:#000000;stroke-width:2.03208208;stroke-linecap:round;stroke-linejoin:miter;stroke-miterlimit:4;stroke-opacity:1;stroke-dasharray:none" />
        <path
           sodipodi:nodetypes="zzzzzzz"
           transform="translate(108.26589,957.82279)"
           inkscape:connector-curvature="0"
           id="path3010"
           d="m -60.462474,44.397566 c -5.01908,-0.217496 -11.488029,2.637481 -16.151683,2.637481 -4.663654,0 -6.925881,-1.429811 -6.533916,-7.797724 0.391965,-6.367912 12.825828,-15.390754 22.685599,-15.48073 9.859771,-0.08998 24.147613,8.496529 24.243407,15.48073 0.09579,6.984201 -3.916121,8.957403 -8.373225,8.957403 -4.457104,0 -10.851102,-3.579664 -15.870182,-3.79716 z"
           style="fill:none;stroke:#000000;stroke-width:2.03208208;stroke-linecap:round;stroke-linejoin:miter;stroke-miterlimit:4;stroke-opacity:1;stroke-dasharray:none" />
        <path
           style="fill:none;stroke:#000000;stroke-width:2.03208208;stroke-linecap:round;stroke-linejoin:miter;stroke-miterlimit:4;stroke-opacity:1;stroke-dasharray:none"
           d="m 45.767658,1023.7719 c 5.290957,0.1374 11.476647,-6.0984 10.709939,-10.7099 -0.766708,-4.6116 -6.775325,-5.8016 -10.709939,-5.8418 -3.934614,-0.04 -9.217159,0.7965 -10.125761,5.2576 -0.908602,4.4611 4.834804,11.1568 10.125761,11.2941 z"
           id="path3014"
           inkscape:connector-curvature="0"
           sodipodi:nodetypes="zzzzz" />
      </g>
    </g>
  </g>
</svg>
