<?xml version="1.0" encoding="UTF-8" standalone="no"?>
<!-- Created with Inkscape (http://www.inkscape.org/) -->

<svg
   xmlns:dc="http://purl.org/dc/elements/1.1/"
   xmlns:cc="http://creativecommons.org/ns#"
   xmlns:rdf="http://www.w3.org/1999/02/22-rdf-syntax-ns#"
   xmlns:svg="http://www.w3.org/2000/svg"
   xmlns="http://www.w3.org/2000/svg"
   xmlns:sodipodi="http://sodipodi.sourceforge.net/DTD/sodipodi-0.dtd"
   xmlns:inkscape="http://www.inkscape.org/namespaces/inkscape"
   width="96"
   height="96"
   id="svg2"
   version="1.1"
   inkscape:version="0.48.3.1 r9886"
   sodipodi:docname="telo.svg">
  <defs
     id="defs4" />
  <sodipodi:namedview
     id="base"
     pagecolor="#ffffff"
     bordercolor="#666666"
     borderopacity="1.0"
     inkscape:pageopacity="0.0"
     inkscape:pageshadow="2"
     inkscape:zoom="6.1770833"
     inkscape:cx="50.185497"
     inkscape:cy="45.733558"
     inkscape:document-units="px"
     inkscape:current-layer="layer1"
     showgrid="false"
     inkscape:window-width="992"
     inkscape:window-height="822"
     inkscape:window-x="0"
     inkscape:window-y="26"
     inkscape:window-maximized="0" />
  <metadata
     id="metadata7">
    <rdf:RDF>
      <cc:Work
         rdf:about="">
        <dc:format>image/svg+xml</dc:format>
        <dc:type
           rdf:resource="http://purl.org/dc/dcmitype/StillImage" />
        <dc:title />
      </cc:Work>
    </rdf:RDF>
  </metadata>
  <g
     inkscape:label="Calque 1"
     inkscape:groupmode="layer"
     id="layer1"
     transform="translate(0,-956.36218)">
    <g
       id="g3782"
       transform="matrix(1.0089728,0,0,1.0089728,104.53379,-6.5355524)">
      <path
         transform="translate(0,956.36218)"
         sodipodi:nodetypes="czccccczc"
         inkscape:connector-curvature="0"
         id="path3002"
         d="m -91.131845,74.19067 c 0,0 9.419352,-4.880924 18.888437,-5.062881 9.469085,-0.181956 24.097722,7.983773 36.219067,7.983773 15.498322,-1.599249 20.892163,-16.275747 11.294118,-28.235294 3.409961,-4.017753 9.98188,-12.093787 -2.141988,-16.941176 0,0 3.6303,-3.750596 2.908756,-7.685615 -0.845216,-14.003135 -18.419034,-12.626694 -28.612609,-2.245419 0,0 -6.806275,-7.425751 -23.21987,-1.984994 -16.413595,5.440757 -18.067712,29.212491 -15.335911,54.171606 z"
         style="fill:#ffffff;stroke:#000000;stroke-width:1.98221397;stroke-linecap:round;stroke-linejoin:miter;stroke-miterlimit:4;stroke-opacity:1;stroke-dasharray:none" />
      <g
         id="g3778">
        <path
           style="fill:none;stroke:#000000;stroke-width:1.98221397;stroke-linecap:round;stroke-linejoin:miter;stroke-miterlimit:4;stroke-opacity:1;stroke-dasharray:none"
           d="m -24.730223,49.070994 c 0,0 -5.704077,5.481493 -13.212955,5.630691 -7.508878,0.149198 -8.370032,-5.390318 -23.415472,-5.241239 -15.04544,0.149079 -29.475988,24.223504 -29.475988,24.223504 3.203814,-16.244943 14.639898,-41.752914 29.475988,-42.137171 14.83609,-0.384257 17.364283,5.287945 23.415472,4.732633 6.051189,-0.555312 10.876241,-3.954868 10.876241,-3.954868"
           id="path3006"
           inkscape:connector-curvature="0"
           transform="translate(0,956.36218)"
           sodipodi:nodetypes="czzczzc" />
        <path
           style="fill:none;stroke:#000000;stroke-width:1.98221397;stroke-linecap:round;stroke-linejoin:miter;stroke-miterlimit:4;stroke-opacity:1;stroke-dasharray:none"
           d="m -52.677162,21.860839 c 0,0 5.625505,6.584949 9.978069,7.751215 4.352564,1.166266 9.342936,-4.965462 5.356593,-7.59586 -3.986343,-2.630398 -9.704862,4.781731 -9.704862,4.781731"
           id="path3008"
           inkscape:connector-curvature="0"
           transform="translate(0,956.36218)"
           sodipodi:nodetypes="czzc" />
      </g>
    </g>
  </g>
</svg>
