<?xml version="1.0" encoding="UTF-8" standalone="no"?>
<!-- Created with Inkscape (http://www.inkscape.org/) -->

<svg
   xmlns:dc="http://purl.org/dc/elements/1.1/"
   xmlns:cc="http://creativecommons.org/ns#"
   xmlns:rdf="http://www.w3.org/1999/02/22-rdf-syntax-ns#"
   xmlns:svg="http://www.w3.org/2000/svg"
   xmlns="http://www.w3.org/2000/svg"
   xmlns:sodipodi="http://sodipodi.sourceforge.net/DTD/sodipodi-0.dtd"
   xmlns:inkscape="http://www.inkscape.org/namespaces/inkscape"
   width="96"
   height="96"
   id="svg2"
   version="1.1"
   inkscape:version="0.48.3.1 r9886"
   sodipodi:docname="walo.svg">
  <defs
     id="defs4" />
  <sodipodi:namedview
     id="base"
     pagecolor="#ffffff"
     bordercolor="#666666"
     borderopacity="1.0"
     inkscape:pageopacity="0.0"
     inkscape:pageshadow="2"
     inkscape:zoom="5.1354167"
     inkscape:cx="53.647059"
     inkscape:cy="45.663286"
     inkscape:document-units="px"
     inkscape:current-layer="layer1"
     showgrid="false"
     inkscape:window-width="992"
     inkscape:window-height="822"
     inkscape:window-x="0"
     inkscape:window-y="26"
     inkscape:window-maximized="0"
     showguides="true"
     inkscape:guide-bbox="true" />
  <metadata
     id="metadata7">
    <rdf:RDF>
      <cc:Work
         rdf:about="">
        <dc:format>image/svg+xml</dc:format>
        <dc:type
           rdf:resource="http://purl.org/dc/dcmitype/StillImage" />
        <dc:title />
      </cc:Work>
    </rdf:RDF>
  </metadata>
  <g
     inkscape:label="Calque 1"
     inkscape:groupmode="layer"
     id="layer1"
     transform="translate(0,-956.36218)">
    <g
       id="g3798"
       transform="matrix(1.0899641,0,0,1.0899641,-4.3182772,-87.350579)">
      <g
         id="g3791">
        <path
           sodipodi:type="arc"
           style="fill:#ffffff;stroke:#000000;stroke-width:1.99790863;stroke-linecap:round;stroke-linejoin:miter;stroke-miterlimit:4;stroke-opacity:1;stroke-dasharray:none"
           id="path3001"
           sodipodi:cx="-35.213032"
           sodipodi:cy="34.350437"
           sodipodi:rx="35.641151"
           sodipodi:ry="29.968536"
           d="m 0.42811966,34.350437 c 0,16.551166 -15.95708666,29.968537 -35.64115166,29.968537 -19.684064,0 -35.641151,-13.417371 -35.641151,-29.968537 0,-16.551165 15.957087,-29.9685362 35.641151,-29.9685362 19.684065,0 35.64115166,13.4173712 35.64115166,29.9685362 z"
           transform="matrix(0.91021323,0,0,0.92670438,80.051367,957.00932)" />
        <g
           id="g3786"
           transform="translate(74.026256,9.918194)">
          <path
             transform="translate(5.1374634,955.93406)"
             d="m -47.307475,18.509926 c 0,0.47289 -0.383354,0.856244 -0.856244,0.856244 -0.472891,0 -0.856244,-0.383354 -0.856244,-0.856244 0,-0.472891 0.383353,-0.856244 0.856244,-0.856244 0.47289,0 0.856244,0.383353 0.856244,0.856244 z"
             sodipodi:ry="0.85624391"
             sodipodi:rx="0.85624391"
             sodipodi:cy="18.509926"
             sodipodi:cx="-48.163719"
             id="path3780"
             style="fill:none;stroke:#000000;stroke-width:1.83492282;stroke-linecap:round;stroke-linejoin:miter;stroke-miterlimit:4;stroke-opacity:1;stroke-dasharray:none"
             sodipodi:type="arc" />
          <path
             sodipodi:type="arc"
             style="fill:none;stroke:#000000;stroke-width:1.83492282;stroke-linecap:round;stroke-linejoin:miter;stroke-miterlimit:4;stroke-opacity:1;stroke-dasharray:none"
             id="path3782"
             sodipodi:cx="-48.163719"
             sodipodi:cy="18.509926"
             sodipodi:rx="0.85624391"
             sodipodi:ry="0.85624391"
             d="m -47.307475,18.509926 c 0,0.47289 -0.383354,0.856244 -0.856244,0.856244 -0.472891,0 -0.856244,-0.383354 -0.856244,-0.856244 0,-0.472891 0.383353,-0.856244 0.856244,-0.856244 0.47289,0 0.856244,0.383353 0.856244,0.856244 z"
             transform="translate(23.137463,955.93406)" />
          <path
             transform="translate(39.137463,955.93406)"
             d="m -47.307475,18.509926 c 0,0.47289 -0.383354,0.856244 -0.856244,0.856244 -0.472891,0 -0.856244,-0.383354 -0.856244,-0.856244 0,-0.472891 0.383353,-0.856244 0.856244,-0.856244 0.47289,0 0.856244,0.383353 0.856244,0.856244 z"
             sodipodi:ry="0.85624391"
             sodipodi:rx="0.85624391"
             sodipodi:cy="18.509926"
             sodipodi:cx="-48.163719"
             id="path3784"
             style="fill:none;stroke:#000000;stroke-width:1.83492282;stroke-linecap:round;stroke-linejoin:miter;stroke-miterlimit:4;stroke-opacity:1;stroke-dasharray:none"
             sodipodi:type="arc" />
        </g>
      </g>
      <path
         sodipodi:nodetypes="ccccscszc"
         inkscape:connector-curvature="0"
         id="path3012"
         d="m 49.019772,1042.0569 c 0,0 -26.093306,-1.7525 -30.96146,-11.6835 -6.949605,-10.4 -3.176338,-27.5897 8.957404,-27.6512 5.06288,0.1948 9.152129,4.8682 9.152129,4.8682 0,0 3.699798,-5.0629 8.178499,-5.0629 4.478702,0 7.983773,4.4787 7.983773,4.4787 0,0 4.212388,-5.4219 10.515213,-5.647 5.452333,-0.1948 14.725122,0.8018 17.931486,12.7681 3.206364,11.9663 -5.639342,27.9823 -31.757044,27.9296 z"
         style="fill:#ffffff;stroke:#000000;stroke-width:1.83492282;stroke-linecap:round;stroke-linejoin:miter;stroke-miterlimit:4;stroke-opacity:1;stroke-dasharray:none" />
    </g>
  </g>
</svg>
